<mxfile host="app.diagrams.net" agent="Mozilla/5.0 (Macintosh; Intel Mac OS X 10_15_7) AppleWebKit/537.36 (KHTML, like Gecko) Chrome/135.0.0.0 Safari/537.36" version="26.2.9">
  <diagram name="Page-1" id="0dBiUx1g4LZGC-lwx_JZ">
    <mxGraphModel grid="0" page="1" gridSize="10" guides="1" tooltips="1" connect="1" arrows="1" fold="1" pageScale="1" pageWidth="850" pageHeight="1100" background="#ffffff" math="0" shadow="0">
      <root>
        <mxCell id="0" />
        <mxCell id="1" parent="0" />
        <mxCell id="ptP9DbiNTk4UlmMkKITM-4" style="edgeStyle=orthogonalEdgeStyle;rounded=0;orthogonalLoop=1;jettySize=auto;html=1;exitX=1;exitY=0.5;exitDx=0;exitDy=0;entryX=-0.005;entryY=0.067;entryDx=0;entryDy=0;entryPerimeter=0;" edge="1" parent="1" source="ptP9DbiNTk4UlmMkKITM-1" target="ptP9DbiNTk4UlmMkKITM-10">
          <mxGeometry relative="1" as="geometry">
            <mxPoint x="550" y="300" as="targetPoint" />
          </mxGeometry>
        </mxCell>
        <mxCell id="ptP9DbiNTk4UlmMkKITM-1" value="&lt;pre&gt;VTR model&lt;br&gt;(black box)&lt;/pre&gt;" style="rounded=1;whiteSpace=wrap;html=1;fillColor=#fad7ac;strokeColor=#b46504;" vertex="1" parent="1">
          <mxGeometry x="370" y="262" width="130" height="80" as="geometry" />
        </mxCell>
        <mxCell id="ptP9DbiNTk4UlmMkKITM-6" value="&lt;pre&gt;parameters&lt;/pre&gt;" style="swimlane;fontStyle=0;childLayout=stackLayout;horizontal=1;startSize=30;horizontalStack=0;resizeParent=1;resizeParentMax=0;resizeLast=0;collapsible=1;marginBottom=0;whiteSpace=wrap;html=1;fontFamily=Helvetica;" vertex="1" parent="1">
          <mxGeometry x="560" y="180" width="190" height="240" as="geometry" />
        </mxCell>
        <mxCell id="ptP9DbiNTk4UlmMkKITM-7" value="eq_low:&amp;nbsp; ? dB" style="text;strokeColor=none;fillColor=none;align=left;verticalAlign=middle;spacingLeft=4;spacingRight=4;overflow=hidden;points=[[0,0.5],[1,0.5]];portConstraint=eastwest;rotatable=0;whiteSpace=wrap;html=1;fontFamily=Courier New;" vertex="1" parent="ptP9DbiNTk4UlmMkKITM-6">
          <mxGeometry y="30" width="190" height="30" as="geometry" />
        </mxCell>
        <mxCell id="ptP9DbiNTk4UlmMkKITM-8" value="eq_mid:&amp;nbsp; ? dB" style="text;strokeColor=none;fillColor=none;align=left;verticalAlign=middle;spacingLeft=4;spacingRight=4;overflow=hidden;points=[[0,0.5],[1,0.5]];portConstraint=eastwest;rotatable=0;whiteSpace=wrap;html=1;fontFamily=Courier New;" vertex="1" parent="ptP9DbiNTk4UlmMkKITM-6">
          <mxGeometry y="60" width="190" height="30" as="geometry" />
        </mxCell>
        <mxCell id="ptP9DbiNTk4UlmMkKITM-9" value="eq_high:&amp;nbsp; ? dB" style="text;strokeColor=none;fillColor=none;align=left;verticalAlign=middle;spacingLeft=4;spacingRight=4;overflow=hidden;points=[[0,0.5],[1,0.5]];portConstraint=eastwest;rotatable=0;whiteSpace=wrap;html=1;fontFamily=Courier New;" vertex="1" parent="ptP9DbiNTk4UlmMkKITM-6">
          <mxGeometry y="90" width="190" height="30" as="geometry" />
        </mxCell>
        <mxCell id="xQzRp0pyTNWrUWx_Eu3b-25" style="edgeStyle=orthogonalEdgeStyle;rounded=0;orthogonalLoop=1;jettySize=auto;html=1;exitX=1;exitY=0.5;exitDx=0;exitDy=0;" edge="1" parent="ptP9DbiNTk4UlmMkKITM-6">
          <mxGeometry relative="1" as="geometry">
            <mxPoint x="281" y="123" as="targetPoint" />
            <mxPoint x="190" y="123.00000000000011" as="sourcePoint" />
          </mxGeometry>
        </mxCell>
        <mxCell id="ptP9DbiNTk4UlmMkKITM-10" value="compressor_threshold:&amp;nbsp; ?" style="text;strokeColor=none;fillColor=none;align=left;verticalAlign=middle;spacingLeft=4;spacingRight=4;overflow=hidden;points=[[0,0.5],[1,0.5]];portConstraint=eastwest;rotatable=0;whiteSpace=wrap;html=1;fontFamily=Courier New;" vertex="1" parent="ptP9DbiNTk4UlmMkKITM-6">
          <mxGeometry y="120" width="190" height="30" as="geometry" />
        </mxCell>
        <mxCell id="ptP9DbiNTk4UlmMkKITM-12" value="compressor_ratio:&amp;nbsp; ?" style="text;strokeColor=none;fillColor=none;align=left;verticalAlign=middle;spacingLeft=4;spacingRight=4;overflow=hidden;points=[[0,0.5],[1,0.5]];portConstraint=eastwest;rotatable=0;whiteSpace=wrap;html=1;fontFamily=Courier New;" vertex="1" parent="ptP9DbiNTk4UlmMkKITM-6">
          <mxGeometry y="150" width="190" height="30" as="geometry" />
        </mxCell>
        <mxCell id="ptP9DbiNTk4UlmMkKITM-11" value="compressor_attack:&amp;nbsp; ?" style="text;strokeColor=none;fillColor=none;align=left;verticalAlign=middle;spacingLeft=4;spacingRight=4;overflow=hidden;points=[[0,0.5],[1,0.5]];portConstraint=eastwest;rotatable=0;whiteSpace=wrap;html=1;fontFamily=Courier New;" vertex="1" parent="ptP9DbiNTk4UlmMkKITM-6">
          <mxGeometry y="180" width="190" height="30" as="geometry" />
        </mxCell>
        <mxCell id="ptP9DbiNTk4UlmMkKITM-13" value="compressor_release:&amp;nbsp; ?" style="text;strokeColor=none;fillColor=none;align=left;verticalAlign=middle;spacingLeft=4;spacingRight=4;overflow=hidden;points=[[0,0.5],[1,0.5]];portConstraint=eastwest;rotatable=0;whiteSpace=wrap;html=1;fontFamily=Courier New;" vertex="1" parent="ptP9DbiNTk4UlmMkKITM-6">
          <mxGeometry y="210" width="190" height="30" as="geometry" />
        </mxCell>
        <mxCell id="ptP9DbiNTk4UlmMkKITM-14" value="&lt;pre&gt;output (label)&lt;/pre&gt;" style="text;html=1;align=center;verticalAlign=middle;resizable=0;points=[];autosize=1;strokeColor=none;fillColor=none;fontFamily=Helvetica;" vertex="1" parent="1">
          <mxGeometry x="595" y="140" width="120" height="50" as="geometry" />
        </mxCell>
        <mxCell id="pwX0iaFfF6HzZvp_KpeJ-9" value="&lt;pre&gt;audio (.wav)&lt;/pre&gt;" style="text;html=1;align=center;verticalAlign=middle;resizable=0;points=[];autosize=1;strokeColor=none;fillColor=none;fontFamily=Helvetica;" vertex="1" parent="1">
          <mxGeometry x="-204" y="224" width="105" height="50" as="geometry" />
        </mxCell>
        <mxCell id="xQzRp0pyTNWrUWx_Eu3b-1" style="edgeStyle=orthogonalEdgeStyle;rounded=0;orthogonalLoop=1;jettySize=auto;html=1;entryX=0;entryY=0.5;entryDx=0;entryDy=0;" edge="1" parent="1" target="xQzRp0pyTNWrUWx_Eu3b-11">
          <mxGeometry relative="1" as="geometry">
            <mxPoint x="93" y="305" as="targetPoint" />
            <mxPoint x="-15" y="302" as="sourcePoint" />
            <Array as="points">
              <mxPoint x="41" y="302" />
              <mxPoint x="41" y="302" />
            </Array>
          </mxGeometry>
        </mxCell>
        <mxCell id="KYzL2eno2aFQM960cpx--2" value="" style="shape=image;verticalLabelPosition=bottom;labelBackgroundColor=default;verticalAlign=top;aspect=fixed;imageAspect=0;image=data:image/png,iVBORw0KGgoAAAANSUhEUgAABB4AAAGQCAYAAAAJJKM8AAAMS2lDQ1BJQ0MgUHJvZmlsZQAASImVVwdYU8kWnltSIQQIREBK6E0QkRJASggtgPQiiEpIAoQSY0JQsaOLCq5dRLCiqyCKHRCxYVcWxe5aFgsqK+tiwa68CQF02Ve+N983d/77z5l/zjl37p07ANDb+VJpDqoJQK4kTxYT7M8al5TMInUCDOgBOjAGZL5ALuVERYUDWAbav5d3NwGibK85KLX+2f9fi5ZQJBcAgERBnCaUC3IhPggA3iSQyvIAIEohbz41T6rEqyHWkUEHIa5S4gwVblLiNBW+0mcTF8OF+AkAZHU+X5YBgEY35Fn5ggyoQ4fRAieJUCyB2A9in9zcyUKI50JsA23gnHSlPjvtB52Mv2mmDWry+RmDWBVLXyEHiOXSHP70/zMd/7vk5igG5rCGVT1TFhKjjBnm7Un25DAlVof4gyQtIhJibQBQXCzss1diZqYiJF5lj9oI5FyYM8CEeIw8J5bXz8cI+QFhEBtCnC7JiQjvtylMFwcpbWD+0DJxHi8OYj2Iq0TywNh+mxOyyTED895Ml3E5/fxzvqzPB6X+N0V2PEelj2lninj9+phjQWZcIsRUiAPyxQkREGtAHCHPjg3rt0kpyORGDNjIFDHKWCwglokkwf4qfaw0XRYU02+/M1c+EDt2IlPMi+jHV/My40JUucKeCPh9/sNYsG6RhBM/oCOSjwsfiEUoCghUxY6TRZL4WBWP60nz/GNUY3E7aU5Uvz3uL8oJVvJmEMfJ82MHxubnwcWp0seLpHlRcSo/8fIsfmiUyh98LwgHXBAAWEABaxqYDLKAuLWrvgveqXqCAB/IQAYQAYd+ZmBEYl+PBF5jQQH4EyIRkA+O8+/rFYF8yH8dwio58SCnujqA9P4+pUo2eApxLggDOfBe0ackGfQgATyBjPgfHvFhFcAYcmBV9v97foD9znAgE97PKAZmZNEHLImBxABiCDGIaIsb4D64Fx4Or36wOuNs3GMgju/2hKeENsIjwg1CO+HOJHGhbIiXY0E71A/qz0/aj/nBraCmK+6Pe0N1qIwzcQPggLvAeTi4L5zZFbLcfr+VWWEN0f5bBD88oX47ihMFpQyj+FFsho7UsNNwHVRR5vrH/Kh8TRvMN3ewZ+j83B+yL4Rt2FBLbBF2ADuHncQuYE1YPWBhx7EGrAU7qsSDK+5J34obmC2mz59sqDN0zXx/sspMyp1qnDqdvqj68kTT8pQvI3eydLpMnJGZx+LAHUPE4kkEjiNYzk7OrgAo9x/V5+1NdN++gjBbvnPzfwfA+3hvb++R71zocQD2ucNPwuHvnA0bbi1qAJw/LFDI8lUcrrwQ4JeDDt8+fbi3mQMbGI8zcANewA8EglAQCeJAEpgIvc+E61wGpoKZYB4oAiVgOVgDysEmsBVUgd1gP6gHTeAkOAsugSvgBrgLV08HeAG6wTvwGUEQEkJDGIg+YoJYIvaIM8JGfJBAJByJQZKQVCQDkSAKZCYyHylBViLlyBakGtmHHEZOIheQNuQO8hDpRF4jn1AMVUd1UCPUCh2JslEOGobGoRPQDHQKWoAuQJeiZWglugutQ0+il9AbaDv6Au3BAKaGMTFTzAFjY1wsEkvG0jEZNhsrxkqxSqwWa4TP+RrWjnVhH3EizsBZuANcwSF4PC7Ap+Cz8SV4OV6F1+Gn8Wv4Q7wb/0agEQwJ9gRPAo8wjpBBmEooIpQSthMOEc7Ad6mD8I5IJDKJ1kR3+C4mEbOIM4hLiBuIe4gniG3Ex8QeEomkT7IneZMiSXxSHqmItI60i3ScdJXUQfpAViObkJ3JQeRksoRcSC4l7yQfI18lPyN/pmhSLCmelEiKkDKdsoyyjdJIuUzpoHymalGtqd7UOGoWdR61jFpLPUO9R32jpqZmpuahFq0mVpurVqa2V+282kO1j+ra6nbqXPUUdYX6UvUd6ifU76i/odFoVjQ/WjItj7aUVk07RXtA+6DB0HDU4GkINeZoVGjUaVzVeEmn0C3pHPpEegG9lH6AfpnepUnRtNLkavI1Z2tWaB7WvKXZo8XQGqUVqZWrtURrp9YFrefaJG0r7UBtofYC7a3ap7QfMzCGOYPLEDDmM7YxzjA6dIg61jo8nSydEp3dOq063braui66CbrTdCt0j+q2MzGmFZPHzGEuY+5n3mR+GmY0jDNMNGzxsNphV4e91xuu56cn0ivW26N3Q++TPks/UD9bf4V+vf59A9zAziDaYKrBRoMzBl3DdYZ7DRcMLx6+f/hvhqihnWGM4QzDrYYthj1GxkbBRlKjdUanjLqMmcZ+xlnGq42PGXeaMEx8TMQmq02Om/zB0mVxWDmsMtZpVrepoWmIqcJ0i2mr6Wcza7N4s0KzPWb3zanmbPN089XmzebdFiYWYy1mWtRY/GZJsWRbZlqutTxn+d7K2irRaqFVvdVzaz1rnnWBdY31PRuaja/NFJtKm+u2RFu2bbbtBtsrdqidq12mXYXdZXvU3s1ebL/Bvm0EYYTHCMmIyhG3HNQdOA75DjUODx2ZjuGOhY71ji9HWoxMHrli5LmR35xcnXKctjndHaU9KnRU4ajGUa+d7ZwFzhXO10fTRgeNnjO6YfQrF3sXkctGl9uuDNexrgtdm12/urm7ydxq3TrdLdxT3de732LrsKPYS9jnPQge/h5zPJo8Pnq6eeZ57vf8y8vBK9trp9fzMdZjRGO2jXnsbebN997i3e7D8kn12ezT7mvqy/et9H3kZ+4n9Nvu94xjy8ni7OK89Hfyl/kf8n/P9eTO4p4IwAKCA4oDWgO1A+MDywMfBJkFZQTVBHUHuwbPCD4RQggJC1kRcotnxBPwqnndoe6hs0JPh6mHxYaVhz0KtwuXhTeORceGjl019l6EZYQkoj4SRPIiV0Xej7KOmhJ1JJoYHRVdEf00ZlTMzJhzsYzYSbE7Y9/F+ccti7sbbxOviG9OoCekJFQnvE8MSFyZ2D5u5LhZ4y4lGSSJkxqSSckJyduTe8YHjl8zviPFNaUo5eYE6wnTJlyYaDAxZ+LRSfRJ/EkHUgmpiak7U7/wI/mV/J40Xtr6tG4BV7BW8ELoJ1wt7BR5i1aKnqV7p69Mf57hnbEqozPTN7M0s0vMFZeLX2WFZG3Kep8dmb0juzcnMWdPLjk3NfewRFuSLTk92XjytMltUntpkbR9iueUNVO6ZWGy7XJEPkHekKcDf/RbFDaKnxQP833yK/I/TE2YemCa1jTJtJbpdtMXT39WEFTwywx8hmBG80zTmfNmPpzFmbVlNjI7bXbzHPM5C+Z0zA2eWzWPOi973q+FToUrC9/OT5zfuMBowdwFj38K/qmmSKNIVnRrodfCTYvwReJFrYtHL163+FuxsPhiiVNJacmXJYIlF38e9XPZz71L05e2LnNbtnE5cblk+c0VviuqVmqtLFj5eNXYVXWrWauLV79dM2nNhVKX0k1rqWsVa9vLwssa1lmsW77uS3lm+Y0K/4o96w3XL17/foNww9WNfhtrNxltKtn0abN48+0twVvqKq0qS7cSt+ZvfbotYdu5X9i/VG832F6y/esOyY72qpiq09Xu1dU7DXcuq0FrFDWdu1J2XdkdsLuh1qF2yx7mnpK9YK9i7x/7Uvfd3B+2v/kA+0DtQcuD6w8xDhXXIXXT67rrM+vbG5Ia2g6HHm5u9Go8dMTxyI4m06aKo7pHlx2jHltwrPd4wfGeE9ITXSczTj5untR899S4U9dPR59uPRN25vzZoLOnznHOHT/vfb7pgueFwxfZF+svuV2qa3FtOfSr66+HWt1a6y67X2644nGlsW1M27GrvldPXgu4dvY67/qlGxE32m7G37x9K+VW+23h7ed3cu68+i3/t893594j3Cu+r3m/9IHhg8rfbX/f0+7WfvRhwMOWR7GP7j4WPH7xRP7kS8eCp7Snpc9MnlU/d37e1BnUeeWP8X90vJC++NxV9KfWn+tf2rw8+JffXy3d47o7Xsle9b5e8kb/zY63Lm+be6J6HrzLfff5ffEH/Q9VH9kfz31K/PTs89QvpC9lX22/Nn4L+3avN7e3V8qX8ft+BTCgPNqkA/B6BwC0JAAY8NxIHa86H/YVRHWm7UPgP2HVGbKvuAFQC//po7vg380tAPZuA8AK6tNTAIiiARDnAdDRowfrwFmu79ypLER4Ntic8jUtNw38m6I6k/7g99AWKFVdwND2X5tAgxBCXghLAAAAimVYSWZNTQAqAAAACAAEARoABQAAAAEAAAA+ARsABQAAAAEAAABGASgAAwAAAAEAAgAAh2kABAAAAAEAAABOAAAAAAAAAJAAAAABAAAAkAAAAAEAA5KGAAcAAAASAAAAeKACAAQAAAABAAAEHqADAAQAAAABAAABkAAAAABBU0NJSQAAAFNjcmVlbnNob3Qnlc4TAAAACXBIWXMAABYlAAAWJQFJUiTwAAAB12lUWHRYTUw6Y29tLmFkb2JlLnhtcAAAAAAAPHg6eG1wbWV0YSB4bWxuczp4PSJhZG9iZTpuczptZXRhLyIgeDp4bXB0az0iWE1QIENvcmUgNi4wLjAiPgogICA8cmRmOlJERiB4bWxuczpyZGY9Imh0dHA6Ly93d3cudzMub3JnLzE5OTkvMDIvMjItcmRmLXN5bnRheC1ucyMiPgogICAgICA8cmRmOkRlc2NyaXB0aW9uIHJkZjphYm91dD0iIgogICAgICAgICAgICB4bWxuczpleGlmPSJodHRwOi8vbnMuYWRvYmUuY29tL2V4aWYvMS4wLyI+CiAgICAgICAgIDxleGlmOlBpeGVsWURpbWVuc2lvbj40MDA8L2V4aWY6UGl4ZWxZRGltZW5zaW9uPgogICAgICAgICA8ZXhpZjpQaXhlbFhEaW1lbnNpb24+MTA1NDwvZXhpZjpQaXhlbFhEaW1lbnNpb24+CiAgICAgICAgIDxleGlmOlVzZXJDb21tZW50PlNjcmVlbnNob3Q8L2V4aWY6VXNlckNvbW1lbnQ+CiAgICAgIDwvcmRmOkRlc2NyaXB0aW9uPgogICA8L3JkZjpSREY+CjwveDp4bXBtZXRhPgoEKQeOAAAAHGlET1QAAAACAAAAAAAAAMgAAAAoAAAAyAAAAMgAAK0kxwdyqAAAQABJREFUeAHsvfmXHVd57/1UnXN6lNSaJctSS7YkSx7xJNkEsCMZDIT7BpIw5L3Dykru+0uA3CTw/iHvunYShmTdrJVkJYEbuBDANhAbYzAGPGBb8izZkixbgzV1q+dzqt7v99m1z6lutSzJ6mN1u7+7u05V7dq1a9endtWp53uevXeSI5iCCIiACIiACIiACIiACIiACIiACIiACLSBQCLhoQ1UlaUIiIAIiIAIiIAIiIAIiIAIiIAIiIATkPCgiiACIiACIiACIiACIiACIiACIiACItA2AhIe2oZWGYuACIiACIiACIiACIiACIiACIiACEh4UB0QAREQAREQAREQAREQAREQAREQARFoGwEJD21Dq4xFQAREQAREQAREQAREQAREQAREQAQkPKgOiIAIiIAIiIAIiIAIiIAIiIAIiIAItI2AhIe2oVXGIiACIiACIiACIiACIiACIiACIiACEh5UB0RABERABERABERABERABERABERABNpGQMJD29AqYxEQAREQAREQAREQAREQAREQAREQAQkPqgMiIAIiIAIiIAIiIAIiIAIiIAIiIAJtIyDhoW1olbEIiIAIiIAIiIAIiIAIiIAIiIAIiICEB9UBERABERABERABERABERABERABERCBthGQ8NA2tMpYBERABERABERABERABERABERABERAwoPqgAiIgAiIgAiIgAiIgAiIgAiIgAiIQNsISHhoG1plLAIiIAIiIAIiIAIiIAIiIAIiIAIiIOFBdUAEREAEREAEREAEREAEREAEREAERKBtBCQ8tA2tMhYBERABERABERABERABERABERABEZDwoDogAiIgAiIgAiIgAiIgAiIgAiIgAiLQNgISHtqGVhmLgAiIgAiIgAiIgAiIgAiIgAiIgAhIeFAdEAEREAEREAEREAEREAEREAEREAERaBsBCQ9tQ6uMRUAEREAEREAEREAEREAEREAEREAEJDyoDoiACIiACIiACIiACIiACIiACIiACLSNgISHtqFVxiIgAiIgAiIgAiIgAiIgAiIgAiIgAhIeVAdEQAREQAREQAREQAREQAREQAREQATaRkDCQ9vQKmMREAEREAEREAEREAEREAEREAEREAEJD6oDIiACIiACIiACIiACIiACIiACIiACbSMg4aFtaJWxCIiACIiACIiACIiACIiACIiACIiAhAfVAREQAREQAREQAREQAREQAREQAREQgbYRkPDQNrTKWAREQAREQAREQAREQAREQAREQAREQMKD6oAIiIAIiIAIiIAIiIAIiIAIiIAIiEDbCEh4aBtaZSwCIiACIiACIiACIiACIiACIiACIiDhQXVABERABERABERABERABERABERABESgbQQkPLQNrTIWAREQAREQAREQAREQAREQAREQARGQ8KA6IAIiIAIiIAIiIAIiIAIiIAIiIAIi0DYCEh7ahlYZi4AIiIAIiIAIiIAIiIAIiIAIiIAISHhQHRABERABERABERABERABERABERABEWgbAQkPbUOrjEVABERABERABERABERABERABERABCQ8qA6IgAiIgAiIgAiIgAiIgAiIgAiIgAi0jYCEh7ahVcYiIAIiIAIiIAIiIAIiIAIiIAIiIAISHlQHREAEREAEREAEREAEREAEREAEREAE2kZAwkPb0CpjERABERABERABERABERABERABERABCQ+qAyIgAiIgAiIgAiIgAiIgAiIgAiIgAm0jIOGhbWiVsQiIgAiIgAiIgAiIgAiIgAiIgAiIgIQH1QEREAEREAEREAEREAEREAEREAEREIG2EZDw0Da0ylgEREAEREAEREAEREAEREAEREAEREDCg+qACIiACIiACIiACIiACIiACIiACIhA2whIeGgbWmUsAiIgAiIgAiIgAiIgAiIgAiIgAiIg4UF1QAREQAREQAREQAREQAREQAREQAREoG0EJDy0Da0yFgEREAEREAEREAEREAEREAEREAERkPCgOiACIiACIiACIiACIiACIiACIiACItA2AhIe2oZWGYuACIiACIiACIiACIiACIiACIiACEh4UB0QAREQAREQAREQAREQAREQAREQARFoGwEJD21Dq4xFQAREQAREQAREQAREQAREQAREQAQkPKgOiIAIiIAIiIAIiIAIiIAIiIAIiIAItI2AhIe2oVXGIiACIiACIiACIiACIiACIiACIiACEh5UB0RABERABERABERABERABERABERABNpGQMJD29AqYxEQAREQAREQAREQAREQAREQAREQAQkPqgMiIAIiIAIiIAIiIAIiIAIiIAIiIAJtIyDhoW1olbEIiIAIiIAIiIAIiIAIiIAIiIAIiICEB9UBERABERABERABERABERABERABERCBthGQ8NA2tMpYBERABERABERABERABERABERABERAwoPqgAiIgAiIgAiIgAiIgAiIgAiIgAiIQNsISHhoG1plLAIiIAIiIAIiIAIiIAIiIAIiIAIiIOFBdUAEREAEREAEREAEREAEREAEREAERKBtBCQ8tA2tMhYBERABERABERABERABERABERABEZDwoDogAiIgAiIgArOIQH6OsiTn2F7efK68ymnNzkyd2DRHOzOZTZdsct5aEwEREAEREAERmM8EJDzM56uvcxcBERABEZhVBGjTx2lqwaIEEOfcXl6O6cu6QHk5bp9+Pv1RKTw0xYeYWZyXM/KCFBuS6UpVTqxlERABERABERCB+UZAwsN8u+I6XxEQAREQgVlLIEPJaL5zXg7RlOe8vMw0cZ3LZU2Ay1PXmaacnushDT/D0cP2+Jlayj3KmRWZFrOQX1Ks+W74CLszewUREAEREAEREAERMAkPqgQiIAIiIAIiMEsI0PSPE4sU7ffyfLrlVvGDAJBjzygMxHkrzeSlvKkqROEhHCF6OySQHppJkNnU/Dy1Cw/YEr0d4nzyobQmAiIgAiIgAiIwTwlIeJinF16nLQIiIAIiMPsI0KgP5v/kspXFBm7heowLKctyQHn5TKFgavqQOu5DySLmXjSzyLEeN3PnuBwL0BQduKG1bziOPkVABERABERABEQAbwg5gkCIgAiIgAiIgAhcegL8Qo5TuTTRxmdcNO0nCwDlvcpf6+Vl7h3X4zzmyHkM8QiYu+hQPnpMg3mzeQXzihPTwkPCS4mZggiIgAiIgAiIgAiAgIQHVQMREAEREAERmEUEypLAdMVyGWBqouh14PHFxhg3KRNuK+8cRYXyHMsUHDyUl4so7s/NUXjAevhjNP8kPERSmouACIiACIiACAQCEh5UE0RABERABERgNhEo6wLnU66oETCtOzEWGUwSHsqZlpddQcCORSZNwaF8YGzjLp6knHdLwmjlGKQHfiqIgAiIgAiIgAiIQCQg4SGS0FwEREAEREAELjWBaMHHebk8U235qetMG/drig6MiJFxHnUEZhAnJpuSIUWMZlRcnpxHXGPPEEwc/sISIhREQAREQAREQAREwAlIeFBFEAEREAEREIHZQoCWPA1+t+ibVn9LAChFtUSBsxXeM2OGRQLOw2gXIWYamSAm9X24gsmPWSxPyS1sZJ5M5ANv+lK5mNigIAIiIAIiIAIiMM8JSHiY5xVApy8CIiACIjCLCETRAfM4voQb99GSnzJv6gRnPYUgCYTNIU/GxP2mZBc0Bk8chYYwxgb3jCEscc/yxH4dCo2iNPdIfYiACIiACIiACMx7AhIe5n0VEAAREAEREIFZQ8CFB5j5nHsIxr0LBAk+fQEbMI8p4rzY4YxZ3IUbmJYT5YQYz3lcxqKHIE1kSBtSt4SHeDR6N1BsCJPvj00sooIIiIAIiIAIiIAITCUg4WEqEa2LgAiIgAiIwKUiUAgPbG5BE7/ZSWO06N2wxwf+owTAopaXpxa9rAUwHacoPMRtcd7aN6TKPSXLMvkIUXTg3BtsxIxjRnHeylBLIiACIiACIiAC85iAhId5fPF16iIgAiIgArOMgNv3+Gh6PJTKF435OMemIAeUIjx5a7211MqH+0ThgbF+KESmcF5g+iAz5NbAX5Y3LE1CM4qwlXtwKXg8UHTwreVMmcl0B/Y99SECIiACIiACIjAfCUh4mI9XXecsAiIgAiIwewnQiI/CgxvwjCiCj1YRV1rxrSVui51GhuWWs0KhBmCWRbWB82LntFAeovBQh+hQzxpWrVQ9T+YWFQXKDbGxRRxAI4ea4RoFD1McynfRhwiIgAiIgAiIwLwnIOFh3lcBARABERABEZhVBCarCCgaIzA1RYdifZpCNxq0/hOrJJWgAhRDZOYN7g9BAu4JORSCRla3rNGwCsQGCg4JRYdmgPSAtLGHh9AZZRy5gomClwP34OTFwmGpYXiLEI9kOgUREAEREAEREAERCAQkPKgmiIAIiIAIiMAsI0BpYbLTAGPYQILzOGGxHBCdMQl9Edz1IIgJFAPojRCdG9KU+9ddgEj9IPhwxQDR3MQ4X6f40JoQ64FJoujQFB4Q2RQefP8isWYiIAIiIAIiIAIiAAISHlQNREAEREAERGCWEKBRzykG1wWwEkaZ4JZpxAda/FQL3Lshxf5BFnAhgBkxEyShMwTjqmg5kaR1RCIiK/L0LJhH3AHL8ILI4TkRxIdiU8hqWuHB9+Wx4sSsFERABERABERABEQABCQ8qBqIgAiIgAiIwCwhQLs/TrTfGVp2PEWHqcIDPBKoKEAKSCs17FtIFMjE8ynmngSpKu6igDyRKR0fskYdLwJocsHjVLAvXSYwNTCl6NshrXU2hQckmVS26PUQ+3jwjbGwsfDcSUEEREAEREAERGDeE5DwMO+rgACIgAiIgAjMFgIUCxjiPNrvYR6Fh5AmpErhtJBAKAhTWvQDyS4dhkZzGx7JbWTUbHwit3ojCA7LlibW051YZxV9QSArCgcpsq4kGMECI1l4KNwlEmSYp5Wm4MBycWJ5Cg3D9w8FxhYvKD5CgT0rfYiACIiACIiACIiAhAfVAREQAREQARGYRQRo2JdDy4an8DB5aw7pgDET0AvG6vB3gJIwhlYUg8O5vXkkt6PHhu3kwLCN1xMXH5JkzC6/bLEtX9ZjSxammCBCdJjV0NlDBRnVEng6eMcP9HxohH4b6EkBFwkeJ04sU3NiJIMPa1GUNvYZEbboUwREQAREQAREYJ4TkPAwzyuATl8EREAERGCWEYiG/BnFwgYIA9HkZ7MKrnGih8M4Fk7Dy+Hgocxe2nvEnt69x/a9/pYdPzkEQaIbLgqdaGoxYZ0dDVu9apFtWr/abrxuk12xrtNWLU6NzhI1TMGTAWNaNMatgYyrNSgTUDRYrDhFMcTFB0YylDuViAnCFn2KgAiIgAiIgAjMcwISHuZ5BdDpi4AIiIAIzDICTUMe5Woa8NHkZ1khDSDeBQessXHECJpSnDid264XT9ruF/fbC6+8YccHJmwAng8jY2hmkdWs1rnAurrQmGJi0DprmS1ZVLUr1y2zqzddbtduXm0b1qS2qDNxASKB90Kaj0FLwNCZFTbIoBzREh+wEoqGYrWKGFcQ04xkSgUREAEREAEREIH5TkDCw3yvATp/ERABERCB2UOgLDo0SzUlEkNlMgbdOmBQTDSzwMrhE5m9vG/EHvnFM/bsi6/b64cGrNa9zPJqHwSKDpuoV6zatci6u6s2OnTCsokhyAinbUHXhG3sX2o3X7vOPnDrlbZuJZpeoO+HBM0sajaGZhfeCwSOQiWBwgMFiCLguE19IRYxRsR5TKu5CIiACIiACIjAvCYg4WFeX36dvAiIgAiIwKwiEA34OPfCxRXM3aDnMJfB02Ec2wfHc3vy+Ql76JEn4fFwwE4OZpalPZh60QSjE94OVbSU6MK+nfBgmLD62Gnr7KxYb09uY6ePWE9nw9Zf1mMf23mL3bh1ia1djhEy4EbRmYxYtSk8sCDB8yGWxouGDx/VgivcEAWHOGe8ggiIgAiIgAiIwLwnIOFh3lcBARABERABEZhVBKZa9rFwGPbSrXuMNMFmFuhL0k5BdNj9WmY/f+qwPfrLZ+3YyRHEd1q1g6IDBYqaJWkHRr6gtwKmvG5Zfcwq8GqoVXNrQISoJHXr683suq2r7YPbttj7b+yyBehgshf9QaChBY5EFSFMUU+IReTcfSA8oohVx5KgoiACIiACIiACIlAmIOGhTEPLIiACIiACIjBLCTQadUvgXpCkNRceOJLFIfTh8KPHhuzhJ9+03c/thbjQgT4Zuq1SQxo0l6igf4ZqB7weMJZmxrYZSJG7gIHOI9EZpAsJmNeSIVvaZ3bnB26w3925xFYvSK1vcqsKT9sUGbAjxY8oPMR8QoYE6DFcUBABERABERABERABeEjyzUNBBERABERABERg1hEof0FnhfBgJeHhIJpV/Nt/vGU/e/q47d93GKJDF4SJTkwQBhoTGJEitRqFhwl4OmQQHVwqQK6uC6SYwSsCgkSaD1h355j91m1X2/+1Y5VtXpXa8loQD2IZuDad8BDimYpT2Kc1n3VIVSAREAEREAEREIFLQEDCwyWArkOKgAiIgAiIwPkQiEY/09KDIeFwmmg+QW+DcfQseeBUZv/rWy/br54bsOMn0CdDRw/MfzStyOoQFOouPHR0dtoEEreEBwgIaEqRsP8GNMdgvNVPWpqdsltu2mifuPMqu3lzxS7rkfBwPtdIaURABERABERABM5NQMLDuRkphQiIgAiIgAhcEgJl4SGH8OA9OSahj4cxDGex70Ru9/7jE/bUSyM2Np563w5ZXoWHwxjK24DwUHGPh4nxiSAw0CsBekKaogNJ9BVBH4asAT+I+gmbGD5s12F0i4/fscXuvHGxrV0k4eGSXHQdVAREQAREQATegwQkPLwHL6pOSQREQARE4L1BYJLwkGfQDNA3QyE8jKJjyVeP5fb//f2j9syeMWzpgtDQY/VGxYUHaAvu8VCpVuHxQOEBmgM8HdC5g88pPCQcmhNDZOQTJ21k4HXbctVq++gHNtlHf2uN9RedPMQyUIZQU4v3Rr3SWYiACIiACIjAu01AwsO7TVzHEwEREAEREIHzIOA9MAWng5AawoOhqUVuVYxYYTYyltveY5nd+w+P2a69EBYgPBhGsGhAeGigf4dKBX03wKkhTSo2DuGBrg5phU0rmE8OEaGCdYgPHCYTzSxGBw7a5k0r7MO3b7SPf/ByFx7KZZDwcB4XTUlEQAREQAREQASmJSDhYVosihQBERABERCBS0ug2fVzU3zgKBQZ/uDRAO1geDQID1/951/brlcnfBjNRlaBsMBhMzGiRZXNKUJ3kuxcMoEA4cJDAyNcUMRAbtUqRsGABwU7lxwfPmSbrlxhO7evt4994HJbt4jeEPCyoOuEp5bHg4PQhwiIgAiIgAiIwAUTkPBwwci0gwiIgAiIgAi0lwAHnAreBkF1SDBDgwgcNAgPHEpzaCSDx0Nuf/fNJ2zXa3V0NglBog6PBnhEMH2lyn0hMsA9gh1IsllF8Hjg0JoNdD7JphidECdqVskHLZt4yzZDePjtW9fZ3bev9j4euB/3YWBuamrhKPQhAiIgAiIgAiJwgQQkPFwgMCUXAREQAREQgXYTaAoPNPf577PJwsPp4YbtOWr2t9/8lQsP9UYNnhBoNoFRL3zUCjbLgOeDN62AZEDhgfnQB4LCAwWJWg3Db8ITIkFTC45qsXnjcrvj5rV29/shPCyEiAF1gh1RMmBXCQ9OQh8iIAIiIAIiIAIXSkDCw4USU3oREAEREAERaDOBKDywcYWLDlOEBw6leXq4bq8cTexr//Ko7YbHQyPvhKRQgzqA5hPoRDLPOYQmh9Wk1wJHsKDPBJaxjcJDo46BNzu7sB3xGNWilpyG8LDCPnTT5e7xsK4v+FgkLIDvLeHBQehDBERABERABETggglIeLhgZNpBBERABERABNpL4HyFh5cPJ/bX//SwPQfhIU97LKl0ok+GLogLhmYXYxAVEA9HiVpHJ7wX0FCjUUfzCgzH6cJDBuGh2wWIxtgx66gMFcLDGvvwbZfb+sUQGopmFjxbeTy095ordxEQAREQARF4LxOQ8PBevro6t3eVAA2Fcoi/EjIubgvGREgX3ZfLcdwnxpfz0rIIiMD8IhCeGcHTgE+M4HTADiHDqBZwVrDTQ5m9dDi3v/mnR+y5fWg6kWBUi6QTUwfSs48Iig7oDAKBQ2cyn+D9EDwfsAOEhRriEA+PBza1uAqjWtx5yzq7a/tlEB74PApeD8xDwgMpKIiACIiACIiACLwTAhIe3gk17SMC0xAI7ahpIARjgUm4PJ3owG1RYOD28r6ML+cR9y/HcX8FERCB9yaB8j0fZMpwnj7CBIUHjEJBCWJwOLeXDmX2lX/+OTweIDxgOM0c/Tt4cwuXGRoQCyhU8JlUTP54YkeTWECfD3CTwDZ0OgnRIZ84BuFhpe3Ytt7u2rbK+hfHPiHC8bmr9/bgSgglEOyOKcS7rFGsYeaxnCuIgAiIgAiIgAiIAN4M8IJTfq8RExEQgRkgEG+r8xUL3i49RQlunypIzEAxlYUIiMAsJFB+HpS/oCU8zMKLpSKJgAiIgAiIgAicFwEJD+eFSYlE4J0RiAYE9y4vc73s8cB1humECgkPgY0+RWC+EIjPCj4PJDzMl6uu8xQBERABERCB9zYBCQ/v7eurs7vEBKIBEecsTlymUeGGReF0FEWHOI9pmZ6TPB4u8cXU4UXgXSJQfkZIeHiXoOswIiACIiACIiACbSUg4aGteJX5fCJQNhbe7ryjkBDnMW0UHCQwRCKai8D8JFB+lkh4mJ91QGctAiIgAiIgAu81AhIe3mtXVOczawhE4+HtClROE5ejAMF5XH67PLRNBETgvUWg/CyQ8PDeurY6GxEQAREQARGYrwQkPMzXK6/zbisBGg7ReOCBygJCeTkWIqaN8xgv8SGS0FwE5g+B+Bzg/S/hYf5cd52pCIiACIiACLyXCUh4eC9fXZ3bJSMQO4SkARHFg9iZ5LkKFY2O8r7n2kfbRUAE3jsE4jNAwsN755rqTERABERABERgvhOQ8DDfa4DOvy0EouEQxQMexI2IwhOC8RQnGEdBYqoocbb921JYZSoCIjCrCMT7X8LDrLosKowIiIAIiIAIiMBFEJDwcBHwtKsInIsADYhGo2H1et2n8fFxn1N0qNVq1tHR4XMuT+1UkvtGA4THmSpOnOvY2i4CIjA3CcT7XsLD3Lx+KrUIiIAIiIAIiMCZBCQ8nMlkhmPYQrfcSjdmnxQLcR7jz5G8lOzsi/F40+R99p1mfkssBnP2omQFiViuOC8dmvsg+oxdiyTT7FHauZ2LU0rk5eRHmDDYJZZC6WJK6AYQHcyGhnIbGMB06rSdGjiF9SHLsOHyNZfbokULrbs7sZ7exDo6E6vWClTImbnlGTLIMSH/NK2GIzQhZEUqzCYFliAmivNJCbQiAiIwiwm8O8IDACQVfuAZg+dLPmjZ+DG7atMq27Gt3+7avtL6+xBfPEL4VElD6vDY425Yj08hboNSiuz0zCEKBREQAREQAREQgckEJDxM5nFBa3zpmhrOfOXiaxmnIjVezLIGXexTS1K+9OF1zXcq3uKYYZGURmsjy61SoTs+koU3O/8FHT+YW7UKQ/SMA3JnTuUNxXKRLw/RDOVkzcgZWIjFKIqSwXjOkgmcRzhnEmk0EqvgxGIReE7xvTWcKxJhI+MZgKH14suIuCOX2xpKJ5PzoMWUML4B2jg3q2JewZLBowFTI7e3juW277Ux2717nx08cNJOnDxp9HgYHxu1+kTdFvT22pLFi235igXWv2GFbbl6jW3eXIEHBLjgEDxKyrqTj2OqIA6qRMHTcGweN4RYJkofTMAQ47zShCh9ioAIzAkCFyo8fPWfH7Xd+/gc6sIToOYTv3eShA9PTvF5wCdEeJ75d4c/aMOTJs1OQ3g4YZs3rYbwsA7Cw3JbvxjCQ4lY8RU06TkUcscIPExXfvyU9tOiCIiACIiACIiACEh4uIg6EF7fWhn4ixdWJ7+AuSmKWL6eIWCnHMIDzGgICVUk5qsc9vAXtpADjW+Geh2mJZJWqxAeYK9TfGA+9TpeMCFIVKsdLjzE44YDM29mEGOLuRvM3B+hyN+TxGRhy8x94hj+Qz1PH+XObNyyyrj/ak/vgAYOnjUqMMATm4BdPT6W2+gYzgtiRFpJravbrLMLXgAdRIQ4lNONceSbYuJLc3hxnrkiT5uTsyLTEleIAM43ZdwErwimTpxT1XDJbGQ0tzcOZfb8C6ftqSf322+efN0Ovj4GT4dhF5HqDTS7GJ9gDXDxYdmKmq2/condsn2T3X77alu3tmILFyYG/QEp6lbJRyzJajj/rnDtvMrQe2TCy0GeTEmTAlSxzEIzrhC2sKQgAiIwdwi8U+Ehp/AAgZLiQ3gO8AHMZwIf9MVE0RJfMok/SMOzg8+LJIMn1thJCA9rIDystQ9vX2r9hfAQni0hBxwgZE3h1QXQ8Lxx6YGLDDyUggiIgAiIgAiIgAiUCEh4KMG40EW+Y8X3LO4b37V8HjckfPHjFCO4yBR84cOE6DzPLHO1gb/+wxwtMoK24B4A0dsh4Yse8vLftZGHvzxiD7YDDvtEoxPJvDTMP5aKcdOEc2yeZo/zi0JRswm84MISx9kZf6z3d2Ea5ygmzw36gh1+M7Mjh8bs2FsDdvzEgI2NZRAbarZ6zWpbubrTli2Dcb6AAkQQH+oQKFBprVbFL3GwqyOr8yvUBaYi7mYg2+IF3oUHrPqLN0WHOq5Kt1/lcVzqUwOZPfDDA/bwI8/ZU0/st9ODXRAaFgdBpasTolEdYsu41Sg8wZ2jYaeso2sE4sNS27Ztvf2n/3STbdxYsQVoglEfHYPgMIS03dZR6fb6ELQq/m4JxQZ1KAgPrDvg7GVkOaPowHqmIAIiMJcItF94wLOCj4YofPN7JBuGxwOEh42Xu/Bw1/YlhccDv3H4jcI5lvhczDB34YLPIcZ7ZmEbQbfre4V5K4iACIiACIiACMxJAhIeLuKy8f2rbJvGdy2fNzfEVHg9Q9sJdipY8Yb8wSDMsZ6hHT/NczZDSFJa6CFEz4doXOcJfPjdvI374oUPB3PhoVkSHo8lgOEZDeSQHT6xzV1vKYQwROM0ljzEzswnjoVz4/nRMM7Qlpjvqnw/HUR/B29CcHjpxbfsBW+GcNyGh+p2+jSaIMDjobOrw7p7arZo8QJbsbLHbrzpStuydaH1r6u4FwW9H6oUHZBdZDMzZZ6SC1FOCjDoXcgpeHkBKKs08FdzQWX/6w37zdNH7Qf3/dJ2PfemHT1C346l8OTo82vc1c1fIyFUjMOTAUwqAJJURpDHoHV2N+yyy6r2kY/cZB/84Fa74boOf7evJMOWZlWrVeD+wTI13/FZH6LwUPBoCg9euCLxpJPQigiIwCwnIOFhll8gFU8EREAEREAEROCCCUh4uGBkrR1oA5Zt08IcDT/2lDcUu2RoItHAVMUIBmw+wBC8HerIpwFBgkJAEAPoEcBfl6JhTWGCbv3NX939KKEE/CWKfSikSBx+eaJlil/Tc0zl4KID8wgu+p7G3RCCkFFOevHLEBzyCZQHxjGaCExkFRuDB8TwcG6v7s3smaeP2aM/e9b2vnwY3g5jKGsN3g4UZiroZBFNMLIxq3WaLVma2rbbNtqt26+0m29aZatWprYIzRDoLRFN64sv61lyCHjPshHRRQEordQhSAzh3H79+Gn73vcftUcfe9GOvsU21vB0wJRnC1yg4Lnl6LOBfTxUca1rlRrqQwNsBmy8PgjPjtP2vvddbh//+Hb7+N3rbPGiFGlw7fFf5a+TLBMvF44d6gSFhxBaPFhXGFoxYV2fIiACc4GAhIe5cJVURhEQAREQAREQgQshIOHhQmhNSVu2S2nixeDL0RpkZLGMFhXuKk+xIYXwkLDTAgYXBJiIEgIMSSyOj2MJQkKFv+zHzIu5Z4cP2qHcg4bs6Bjc8Ws0ZINwEdo1FJ0R+kH4wZ3ons+JmcX2D7RkZzqgV4eJERyxjnL1GfpatBOnctu7p2E/+uFue+SnL9gzv3kNTQgWWVfHEuvqXGATECYaGTwA4MI7Nj6CfcatUhuyhYvG7cpNi+233n+VfexjN9vWLVX0bxHs70K/menCh/wImtPZAhDSAYJJ4MBgb7zRgKfDK/YP/3QfOpaEp0NlGZqJrII3B69SDwQGNg9p2ER9xCZGJ6wDfXR0QHhI0FfE6NhpF1vS9JT1dI/C6+EW+9xnbkMP8+jvAU1NKDx4deHBeOn8uGHFi4gPj+ZHs9C+wggFERCBOURAwsMculgqqgiIgAiIgAiIwHkRkPBwXpimT+QG35RNTVMvboxzpsMyRQUOpUjRIUU/BYxkR5FokeB9AHB/puGIFuxCgNuGTodOJqkpdKHDRe/zAQlTdjpZ/Ppdb4xApICgARGDfg9NUQHDpHlAXsEypbcDPAx8hR4RFB/aITygzDmaFLA/gzr6OMD57N0Lw/wHu+xXv3zVXnn5lA2eQrOTpNsnel+kKZoSoCx1nHydzU8AoFobxf5HMexkw664YpF98nd/yz7wgQ12FUZ/oOjgLLBXWwKZMcR5WGt94vgUHuhfwA4lf/nLYZzf0xAfHsN5L8T1WYbyL4SXB7xRqj3oMLMKr44hbBvDtcVVwlRF0xqKUBxik+fS2TmGa37ctt260T7xOzdAbFlhq1ehjwte63hkXl4Etq3mdfTi4YPRYVOxUqwxrYIIiMDcISDhYe5cK5VUBERABERABETg/AhIeDg/TtOmcoOvtKVp9DGOFqnPw4zWoafHB/t58I4RISREkSFDBwgcvYKCA0d4GBzM7eTx3E4cz+zkiVF4QEAsgCHe09OJqYpf0jts6fLE+tDreE8vjoVOLNMKmzbQm4EGKAUFGvI8CGacWCTv7JLCAyOYhuJD06TF8syEeMg6moCMjKZ2DENLPv7rQfv7v7/P9r06ZAMDHeggchFgoHyYco4j7/1bYEhKWvJ05wCkNB3F/kewPgBPgGHbseNau/vum2CUL7MODPtAz4eC9MwUvJwLT4IhzsNa6xMHjsLDIMSh73z7ADqVfBECxEtW7VgOcWkxCocmJBPs1wPeDWhmcXroBDxY6u7tUEd8FR1MVtF3w8gIvDtw/h0dY7j+R9Gz/Eq7445++71PbbUr1qcQJIKchLFOcHyeMZtYhDNnHWLgWogpL3CLggiIwFwiIOFhLl0tlVUEREAEREAEROB8CEh4OB9KZ0kz1R4tfnsuUsMEZIJSotDUgqIDtrFHcPxWXocdmbMvBqzyF+/hodzeOprZC8+/ZU88/rLtenYfRkUYR/wImh+MIU1uq1YtsY2b1tn22661a69baetgmMJjH8Yu+z6gqEDjlIM1wqj3vh6KsmAtHJfiBI9fbG+Zq0wxIyGcHc8QQgqaUDzx+Kjdf/9u+8d/+CGaVPTBW2E5pm54f+TeyWJXdy+M7zH0hcDOJXvhIdCBfitSpD2NphrjEGROwSvggK3v73Hh4c//fJstQhMEeoA0m6LMSMmnyYQnw6kcCgs/Cg+n0Izk7/7uWfvJQ/vs5VfeQnKIKmhGkuLCsFPNHIXM4QEyPHzKr1MPxgsdGR7zphbdXQuxDf1a1CE81U+h/4fj8HLosVtvXWJf+PwHbRNGuAh9WrAQvHYUikKnklF8YPlYpKJYWJq6EqL0KQIiMPsJSHiY/ddIJRQBERABERABEbgwAhIeLozXpNRn2qLlGFqbRfI491W4NKBNPwNd5XN0qphjJIc6jPMBGK8vPDdmTzzxErwDXrA3Dw4iLsPQi9iOMSgb7CgBpnxHR269CzDk5GUL7H039aPzxc12y7YVtngp/BzwyziFhyCCxGHOgrDh5XHrFGXwFRqwHoH5zIZQUpQEC6NohvDd77xmP/j+s+jb4UUcaAkcGpbBgYO/8EMxwU/2IyOjEBg6IaxUITigr4qOHpQQHVKOnkYaNLvIIbyMHrYlSxr2/ts325/8yR22aVNqy5ehTwieQtsCzwQH4IwTgx8P1xBeGYzi1TyJa/e1rzyN83vTXtt/yiYaEFXyXlxrNB1BcxNqBRV4tPDaUDxKuS97EMVE4SlNOMwmPD+yQYgxA7ZsSYe974Ye+9KXPozzZLMSNDtB/xCJdwzK4yJtIUAgUy8bc/eixYK2F4wfVh8iIAIzT0DCw8wzVY4iIAIiIAIiIAKXloCEh4vgH+zQaI3S6ONyMP18Hjc1o2ms0huBw2dG/4gua6BpxamTuT2/qwHDdZf97JHd6APhsE2M1dBvQx9SwiiFOMHmGLQw83w0TMmgbdy8xEd8+Ag6Xbzm+oV22dpoiNNI5bHool8Mw9gsB6IZYlHD2ox+8lAUHcbxMTxs9vf/6wn7wfeesz17BiAULMGx+3BO7LMCwgs8AQYHT6MpRS/OF00TxiGuoLPJHE1BxsdGIDwgOUbImJg4Zt1obnH9dZfbpz+9HQJEn/X3w7OjLefBM+BEWYHNVXAQrvqxsOBNVjBMqHseQHjA9fubv6HwcNj2Hxjwfi3yZIH35TGGTjbpaVJD55K1jiqywegdaFPj4gMEJXo6JEkHOKCjSUOHnI1BW7q4w66/vtO+DOFhs/dngQE7q7ym9Hig6BCm4LWCKAQWjf2ChIIWEaHAjFQQARGYIwQkPMyRC6ViioAIiIAIiIAInDcBCQ/njerMhPRYKIcz7N/Yz0MzEYfNhOEI6zDDNu/XAENNnsav5a/tadg3//Vxe+jB39jzuw9hJIPL0H9BDwzSLsy7IUJgzzH0FYBmGp1daFqBjiQHTx+C2/6QLV9RtetvXGOf/cM77MMfXQFjFwdEYcKv4ywjDNozyhLSNIs2wws86ihG5hhBmYcwqsNXv/KIPXDfy3biBH6tzxehH4denA87uoQBDg+QCnrOTOgFgHI2ILKk1S6cAJopNOoY8YKGfx0eD29BhBhC/wfL7aMfvdp+5+Mb7aot7RIeKDjEiUAxcbVp3VPUofBAASAID3/9V7+xhx56w1597QQ29aJjySVWg7AyDK+NDOVnE5sqOqVgvWmgjQ1uPpw7zhWiA8UHNoupJKPWmBi0Fct77KYbe+3zX/iQbbkKQ4x6Xxbsw4NNac5XeDijRmJfBREQgdlOQMLDbL9CKp8IiIAIiIAIiMCFEpDwcKHESumD7BA+aZG2zDzGFfHop6AZkgnEcoIFi1+3aVjnGD7ymSfH7KEfv2j/8aNd9uqek3bqBAzNDvYPAGMXxniSoPlBA0Zug0Y2jNcK/CUwekW9fhoiwzCEiAlbsjS3uzEKwsc/cbNde32XdRcdTubwFEhwHEgVzSJ5eVqFbRZvJhd49vgxH0Z3bsePZfbX9z5sD9z/ip0+3YktC7wZAvt34HlwJA4sFIeHZwfEhwQdLfqv+ugYo8YmCuiksj5xEsb6KbtiwxK7665N9nu/f51dc221tetMnoCrDPRM4SghFB5g+TeFBy6wuUoQHrjGPh6++pVnIBy9YXv2HsV1WegTRy6p4xrQy8EbvrgqxDqBvXBuCUQojldBsYX5pRAWEhu2JX2ddu01NfuLP/+Ibd1aBQNujZ2HloUH7scpfAaPB1+N0cWKZiIgAnOFQLuFB/8ywGODYm/x5MCozkOWjZ+CsLvGdmxba3dtX2L9fXwm8RnFVJxjiQ93et+xnyI8cPgXxtwpthEyd1AQAREQAREQAREQgRIBCQ8lGBe6WEgLzd1a71r+ZlbE48UuehtAeGDngDRUOeJElqFZwUhuP7rvoP3bNx63px4/ZEOD9E5Yiu0w0FN4SKTcB4FChbviF0arv+xRVIChmozDyD1pt2xfY3fdfa194nc327IVMJcx6gP8DvAOyD4EYLl6YNk4xdLGedg6U5+RwDDO78ihzO6996f2w/v3oNkFPRnQ94H1undDBS+vkBqwjKk4eM6XYXo/YAtfwL1jRWzP6oMw0E/a+rWLbcfOK+wzn73RrruhXcIDhQKKC2zeQHaYmteRV7Dl8UBp4tRAbl//2rP20H8ctJf3HIHHBjqMTHtwHuALoYgCBj1cDP1XMC/22cD84d+BOaJDpXDhoZKOo+PMKjwdUvvylz9hV19dRSeUFB7Yd8c40jMP8uGc1y9cQ1/yzJpRcRMiFERABOYKgXdDeAiaA79PwjMkyYYhPJy0zRsvL4SHxRIe5kqFUTlFQAREQAREYA4QkPBwERcpGsoxi2D+cY1baLQy0NikIc1lGqtsbsFf9TvQ1MDs6OHMfvDvL9i3v/mU7Xl5CE0qumFoow8ECBMUHXKKFdwXBmvC0S98haYuLVXOQ18OSWXQ1m2o2bbb++2//dEHbf0VFetdxB35Kzm8JliOZogl53YvWHPLTC24/YuPIQoPOMe/uufn8HiIwgMN8m4Y4rDJm8JDKJPvR2Mdk9v5FB74huzCA36Rq5+0/nVLCuHhhjYKDxRCgvDApg0+PGkoIsrGBV7HYPzzSjSFhwcpPByGtwr6qKDwgKYUXgWQmsJD6McB4lKRR6gn3MbjseEGhtWEkLQInYduQTOSL3+pJTzwWtPrIXQqSa8HXtPW9eOSZ8vixeg4R5SCCIjA3CAg4WFuXCeVUgREQAREQARE4PwJSHg4f1ZnpIx2qG/AStPGaxqV3IJfpZvCQzRm4aKPEQyGMHTmKy+dtu9862n7928/a8eOwJjMe+BWj44XITTk3gQB+zA/Nj9wQzN4CIRf4kMJuDlJh2xB37Bdfe1S+/wXf8+uvq5iS1fQMA0dTLJ0bpjGwvqcMWVBwiNn5IOiAks3PJzbYRceHoPwsNeGRzpgdHfhdODRgQQcQpTNLfKM5nsoIc/XRQesujhB4QGbswaFh1PWv3ZpEB4+d12bhYdwvejx4M0teEIMLCZEABr+lH4YHYSHXWhqcSAID1UKD908OT9J+jfwmrO/DYpK9HgIokMQN9jBJoWOFMJDFYLTol4KD9Wm8FDDrjxaEB6YD0WP8rXjGoFhUwtlUVbEKYiACMwZAhIe5sylUkFFQAREQAREQATOk4CEh/MENV0yt0P9I2x1e5SLblTS4OdGGomcwlr4FR2iAozDwcHcnnriuH37Gxjx4bvPo/PEhTDEu9EBYS86X+Qv/siRtiTyC+ZtS3TgqAo8jHtB0BsiGbG0dtw2blpgf/Hlz9n7bu6wFathiqK5Bq34kBXFB5aJZjDzouHKqVlyLM9McOEBh2JTi8NoavFX9/zaHngAwsMwfu1PITqwfwskagoPvgPLwfP2EwtzLFbYLwJ4ZI1hdMo4AOFhWSE8XNM24YHeB4ETpYVg6PtlJR7HRVGCUgBToXNJNLX4269F4eGQJbiG5sID+OIk/cplbK4RhIeE7aPRb4WLDxjpJM/Z6Sg6oKTwgLl7PFxVw3CaLY+HcLXKHg/YvQi8ri4toUBEyevt5Zz5SxsPqbkIiECbCEh4aBNYZSsCIiACIiACInDJCEh4uEj0NPJiaNp4vsC+GbiRzSNoMgaD0A1a9l9A4QHG6mOPHrX/jdEs7v/ei7ATl6HjyC646WOUA9ikOQ3uZt8M2AGeAXS3p4HKESuCock+Iei6j74cKm/Zho0QHr70Wbvxlg5buQbHRVONFFZoirxC+Vgm9JfQQF5pxeO9cDP84ToC8oweD/fe8yv08fBqITxwfEx2HkmbnAYzZJCm8AA2TeGBVjTSkAPmWR1tkOnxsK7wePjs9W0UHlg691PAnOzwxygGB8krGWQclNI7l/zbr++2Bx/cb6/sofDAZhb0eKDwwGYRKD+Fh8LjITS1oPDAventwGEyca2wXHHhoQN9PNDj4XdKfTxQ6qDwQCEk5ImFohSFkERkOJiEB5JREIG5SUDCw9y8biq1CIiACIiACIjA2QlIeDg7m/PfEg3SuIcbpvR4oFFZEh58O41sGKzYZwDCw6OPvOXCwwPffwkG5zKrVDECRQWjWLA/ABipOft6cEu3JDpATGAngzQ5kwxGvAsPY9j3uF0Bj4cv/vnvw+OhZqvWVBBH4YGGszviewm8vwQ0bWCP5ildDtoQiITnyFEt6PFw7z2/sB/etw/CA8qbBuGBhr17PFAIcYYoC8+7LDwgTfB4AM3GaXg8sI+HxbZzx0b7zOfQueT17elckpIDQ5gHdi48BPXG44NkEq4yR7X4+tefQ1OLfUF4qBX9WOAEk6bHAwWUID64MIDzDkIUPR7Ylwc8HtDkogpvlkW9nUUfDx8rCQ/lphYUHkJhQn8fXEP+Eh78uulDBOYyAQkPc/nqqewiIAIiIAIiIALTEZDwMB2VdxIX7NSwZ1N4YCR/nQ7GfTRlOVwkuzQYOJVBeDhh//tffm33U3hI4fFQgxiAIRjp6ZBnXTDIMQoE84BRGtzyOZIFRrHgaBbsCAHCQ5J3+npaPWYbruy1z//Zp+Dx0Gmr16ZW62C/AeEXe1iqIUAR4Ittio4POTxnOwIPxakpPPxPdi6534WHpBAeKExwxAp6cuRsWkJOHPWBFn5aGOWMpdcAEmeNQXg8nIDw0Gc7dmy0z3721jYKD4EKz4GBlCKpEEdJIpr8wePh619/HsLDa+jj4RCavfQUfTwE4YESFIdODUIUPVTIhzlxoscDPWRwrSA8VMBjUW+Xbd2CUS2+dHdJeAh9QASPB9SPol6FUrCTUTTjkPAAjgoiMLcJSHiY29dPpRcBERABERABETiTgISHM5lcQIybk0hPk5TGcbGrW6jRjb4sPDBBA/03VDEsZBAefk6Ph395Ak0tXoKBvQxCQcWqHRAfKjWIDmHITRqablzCIKWRmtDjAeIDXANgs0N04AQhIksO27r1nfaF//Epu3n7Alu7PrWODv5KzjLgyF4kejrA4IfF3ybNwY/FM2Vpm8LDPY/C4+FA4fEAA9mbkFD8COZ78HiAMU3hgQHx7vkAwYEeDxQpMvTvkDWO2/p1i9DHAzwePnOLXd82j4dQjPIl9cuKixwFA16XWANOwuPhb6PwsBfCA5pahM4lKTwUAgWFIhdWcD0Bn+fkAR4Ozc4l0e9DFcLLot5uNLVI7P/98odLwgObYozh+BQd6DnBiZ4wLAXnWKfHCFb92rLAodBYUBABEZgrBCQ8zJUrpXKKgAiIgAiIgAicLwEJD+dL6ox0tBppyXNigDENo8+DG3vBGAzeDoynucqREDhBeKhX7OTJzB77OYWHp+y+f38FSZa48NDRCQPSjVU2tyhc6ikyeOYUDnhMCBA8Hr0dXHgYtUb+pq3r77Av/sWn7NbbIDxsgMdDjb+E00BFSessMz0I4JTv3g4e3ZYPHokEKDwc8s4lMarFfa8XHg8oD8UEsEgr4XxoLOfeDIFGNc6UljP+aZy78OCdS1J4OBaEhx1XwuPhpndJeGCJArsAi8skiSYxPkfnklF4eIgeD29CeOhFdYC3Crw1WsID9wrnlhRiSqgf8O6A4OA8cMIk4MLDFrMvf/kuu+aaqsERxkWH1EaRRxQe2FFlFB4KjwcyZKFwmOaERQUREIG5Q0DCw9y5ViqpCIiACIiACIjA+RGQ8HB+nKZJReuO7vGcGDg8JA1BBBp9TZPUV7DO1vx0qWeTCXgzoInEKQgPv3z0OISHpyE87MEv+out1lnBxD4eYIhy5AP8+k2zN3FPAAoNbB7hrgtYxi/n7vHQhbhR5A/hYX3N/gzCwy23dUN4gPdElR1R0osAv4tjN7dH8RH6VkB0mwJNc5ZyeAx9PLyJPh7+568gPBzEKBcc1QLlYQHAIk1hMGPkjQzCAvs/CL/kcxv7esAc8WlKY5rlD8JD/7oFttOFh/e9S8JDNO7L4gOvKDxSUFLGBuHhBXvooVenCA+4XhSReHpUVxB4Wt58ht4JLlbhGmMbr3TqwoPZop4e27I1h/Cww66G8NCBupAaRi5pCg+sa9MID97cAgfDv4c4L1Y1EwERmP0EJDzM/mukEoqACIiACIiACFwYAQkPF8arlJpGZPA8CJE0AmEg0wptGntME1cypIaBjU4E06QThmbNR7X41S9O2L/96zMQHvZafbwPzSwgPGAar6MpBY3NShAe3EWfQoMfDAfhCBc0Wik8oEkGh9NMKkfQx0O3ffF/fNJu2tZhl62j8MBfwvGru//5zkUeYbldn8TAs48eD0F4QFOLEZSVQoKP9ID+DNCXQ4L+K7yphYsrFB9omcPHgF4POMeUzTJguTfYxwOaWvSjqcXOHRvg8XCD3dCmphYogAsBPI9wUcteD+6TgfNj55+hoQOFB+/jwT0e2NQiDqcZhAdeRRcXICS5M4d7POA8KT7wCADAPw7QST+KhWhqsdU9HnYWwgOlmFFMY0hNIQlMCuEhlI/iSBFPlSNWuzhHagUREIG5QYDCg9+6fFgghOcQ5hAo+cTJ8Uzk83VwOLeX4FH21X9+1Hbva+Ax2YW0fC5B4OVeUaT23JgXJ8Zzwr+roCE+yTBq0NhJu2rTGtuxbZ3dtX2x9ffh+cv0vifLhLRcZbMxzyM8t/h0am4LifmpIAIiIAIiIAIiIAJNAhIemigudMHfvrATX/8YgleBv5TxPY6bOW+G0FlibGrBvgw4nOajjxyCx8Mz9sD3X0OTgpUYhQJDXKL/hUYGzwj26cC+DpiHG+X+UzlWaKxjG4UHjmiR0YtgBGmP2PorutC55CfR1KIXfTxgVAsY9l4QvCjih/fJRWK+bQqRzvBIaGpx7z1oanF/6FySo1rkFB9wHinKl+LlOKPyQCOc58lyukcEUqDcFabFPGsMQXwoRrXYeYV99tPX2PXXtWdUCxwwcC8+WahwSaPUwOsZRBISPgHh4atf22UP/uSA7Xn1KK7jQuzS7fu4jFK86NPvJaN3g18PnFfx4s8mJcyfw2VyOM2FvRhOc0tiX/rL0McDHGFQw+AhMkl4YHMV7hUmCkwspxsFWHrXLjaPpSACIjBzBPhAYCiEh7DC5+FZhId/+YU9N0V48O8P/34qvgP8gcCHK/LG5AJo8czw51GG5+sohIeNEB62r7W7ti2x/sXoIYjpPUwvPPBJGMVtfxQxLQ6jIAIiIAIiIAIiIAJlAhIeyjRmajm+p8X8/CUs/jJEw5OdJSY2OJjbzx4+4MLDD3+wzzqqa9DpIwxpuubjBZOGuXewiCX3AsA+4YUubOOKN8FAE4UoPPRv6LTPf/FTtu39fWh2ARGDL41u1cKAb77EFgX0crXnDZFH4GFHIDwcPpzZPehc8oH799kQh9Os4Fe5hMOEogcLCCvwZUBaJOYv9VhjPEfccF0Fp0rhgamyxgiEhwHr718KjwcID3+wpa3CA6lzanpgeOlYQnq6cKLhHzqYPA4R6W+++gyEh9ft1deOQ3hYhHOE1wOGL+EvhhR9+I7vwgPavHBUEzYh4VCnFB94RZlzAmEhRUehCxdUbcvmCoSHj9jVW6vGbj8obaU+jCoFBqw160MoabiSLHMM7bm2MXfNRUAE2kQgCg94IjQDFkNzLX4vTPF4+NdphAc8bab1eChEB2YdvBR4DCw1hiE8nLCrrrwMHg8QHrYvtfWLISnwceOhJDz4zuE7jZ8SHiIjzUVABERABERABM5GQMLD2cicb3y080rvh3zfmxR8W3hJc9OTv+ojDYWHRx7eXwgP+0vCAwzRKDzQJOX+9AbwBSz76BaFqcrOBJFfS3gIHg/bbl9cEh64P0zVd1l44DHp8UDh4d57fm73u/CAvjAqaGrC5ib4469p9N5gUwOmL07WxRd6e9BAD8IDmPDFGM0t+vuXeVOLz0B4uKGNHg+hQCxl8CRg8cIr+tmEh6chPBy0vRAeqtW+KcIDz5M5wucFQ2bG82Inky48UERg/hAdgvBQwagWEB7+AsNpbq1AeAgNKegRERSMUKawUyhpyIGljDZudt4AAEAASURBVCXl1hDr6fQhAiIwNwhcYuFhZyE89EN44JDH/mjGZxAqiBDPFTy745+Eh7lRrVRKERABERABEbiUBCQ8XCz98EY22b6LcTFvt/3CKxpf4ejxwDc5CQ8SHiQ8xJtEcxEQgSYBCQ9NFFoQAREQAREQARF4bxCQ8HCx1zGKDOUflmNczFvCgzweCvdmeTzEm0JzERCBsxKQ8HBWNNogAiIgAiIgAiIwNwlIeLjY6xZFBgkPk0g6FnyoqUXs40FNLSZVEK2IgAicnYCEh7Oz0RYREAEREAEREIE5SUDCw8VeNgkP0xKU8KA+HqatGIoUARE4NwEJD+dmpBQiIAIiIAIiIAJzioCEh4u9XBIepiUo4UHCw7QVQ5EiIALnJiDh4dyMlEIEREAEREAERGBOEZDwcLGXS8LDtAQlPEh4mLZiKFIERODcBCQ8nJuRUoiACIiACIiACMwpAhIeLvZySXiYlqCEBwkP01YMRYqACJybgISHczNSChEQAREQAREQgTlFQMLDxV4uCQ/TEpTwIOFh2oqhSBEQgXMTkPBwbkZKIQIiIAIiIAIiMKcISHi42Msl4WFaghIeJDxMWzEUKQIicG4CEh7OzUgpREAEREAEREAE5hQBCQ8Xe7kuUHjILcMRq8b3ysGB3B55eL996xu77Ef3HbBautosSUOJODxngkScEDAYIz7jNubRwIS4vIIkVWwaxq5HrX9Dl/3pFz9p22/vs3UbsA17+sGwSyUt9mecT9g/Yb4zH7zU+LiQ4TQTP8eiPCl2xrnneWJpWvF5ozFsjfqgrVu31O7acYV99jNb7Ybrqm06hcgIZXDuTrIoIdlzQrkw8WqcwLX8m689aw89fND2vnrM0uoilLnH8gwpcB4pJqLOMc/yzC9JmuD6YGL+GSoE60SSjCHtmC1cULEtV1Xty395t129tWpdvMQ4TmoT/mk51wpWzLe5FstdbItpsF1BBERgjhB4J8LD/gzPoi48Y2p4HtRw5+PJlPDpxInPAz7D8JTFM8ifGIjyZy6esb7E5+voCbvqysts57a1dtf2pda/OMH3Rni+8DOkR3Is+fMZcfzDU7q0LWxmKgUREAEREAEREAERiAQkPEQS73TOdzgGvrvFEOPium8LL2g5jE5LYEUizUAhPHz7m7vtxxAeKhQeENwATcOLnQsP3B+GJl/vPDRfJvnux7xgwKYjsEqPWP8VXfZ5CA/bKDysD8JDzgxx2GpZeAhWLjIo8gw5z9inI8DHBQkPKAtfYP1FFsWikc5iNoWHOl6MGwMQHpbZzh0b7HOfuXpWCQ9f+fouezAKD5WFKDuFhwxCAiSKkvBA8YmCCkUHP1+ITRkECvxjfTQIDwsrthXCw5f+8qN2jYSHGauXykgE5gQBPvg8lJ7PfCby+4PPD3yHcGlwOLeXDmX2tW88Zrv3NRAP4QGiAyekxgOFAilTMp9ikvAAFgoiIAIiIAIiIALvNgEJDxdLfJr3Q77vTQr+7ijh4f7799nQcCes8E68IGPCXzDI8SINqzuR8CDhYdKNoxURmKcEJDzM0wuv0xYBERABERCB9y4BCQ8Xe22jyODiQpFZjIt5S3iwe+/5uUl4KLw45PEQ7wzNRUAEpiMg4WE6KooTAREQAREQARGYwwQkPFzsxYsig4SHSSQdCz7U1EJNLSZVDK2IgAicm4CEh3MzUgoREAEREAEREIE5RUDCw8VeLgkP0xKU8KA+HqatGIoUARE4NwEJD+dmpBQiIAIiIAIiIAJzioCEh4u9XBIepiUo4UHCw7QVQ5EiIALnJiDh4dyMlEIEREAEREAERGBOEZDwcLGXS8LDtAQlPEh4mLZiKFIERODcBCQ8nJuRUoiACIiACIiACMwpAhIeLvZySXiYlqCEBwkP01YMRYqACJybgISHczNSChEQAREQAREQgTlFQMLDxV4uCQ/TEpTwIOFh2oqhSBEQgXMTkPBwbkZKIQIiIAIiIAIiMKcISHi42Msl4WFaghIeJDxMWzEUKQIicG4CEh7OzUgpREAEREAEREAE5hSBWSo80GydOpFrionjVnKOEI3+sNb6LA9t2cyntTnkMSlRsTFmyHncHufl/WO66bZNyYqrniy3DGXhZ2JV43vlwEBuP3t4v33rm7vtx/cdsGq62nfOsC1NsVOSW4IpHC3FnHFMgpwS5oOQVzFVkG7EkvSIrb+iy/70C5+0be/vs3XrKyCF/XGwPDPkD27cyV9qmSvz81yY04wG5s7DjIzkdvhwZvfc83N74P59NjTSiZPrRPkx4a+S8qxwPkic+J+XOJST54480rSCeWKNxrA16oO2bt1S27ljg33uM1fbDddV23QKfgY8C0yBfVjCqjWKCeWyCkpvdgLX8itf32UPPnzQ9r56zNLKQsvyHlyqOJwmEuFcmV/GPXA+SYLrxryTFMkQj82JjVqajNmihVXbclXVvvSXd9s1W6vWhcvMWp/ahH9aHu8FrOISMudwJcMxQmRxbZuXuJUKyc8I3MrgyeMKy4rrEI4QtsYrFY7BuBCaqZBBc/e4sTSPxQlz5hb3LLaATShETFnauR2L5cJOOmQsV3FQlqugPKkYxT4xG9brmA3nrbXyXlNjp2TCpDGT8m5aPn8C8YKAI69JBMol3rPleSlpuM+K5PESnG1+/oW5wJT+jOY+8chhMeeDHKXPk6qfw+Bwbi8dyuxr33jMdu9rIL4L51Xzyc8w4bOK+zCfYor3M1b5zOWzyJf4fB09YZs3rrGd29baXduWWP+SxCrc7IF1lumxwn3wPIt/fI41tzFtcx/fUR8iIAIiIAKzgUD8siuXZcrzOiZpRceY8k7l5VbKcqyWRWA6ArNAeIgVulxx+aIUX5jCi1YofAUzWGAw9vzFB7vW61gMFptVq3j1KTSJ8OLDvLl/PAbnPA6nkuGGtRDK6WO6OJ+ahuvBII1bOGdqD/GQRUR8QWsKD0g0cGqy8FAphAcvJQQBig6cGHIeC3G+BtEh5MMNMLyj8FCB8LAhCA/bb4fwsIGGLY6Ml9hJwkMRl7jo0CyxH2emPlhOvjuPjAbh4d57HrX773/NhiE85ClejiE8+Fk1hQcKKXh5xQutG+bcivMk0UqlhjmM88aI1RsDtm7tEtvx2xAePr31XRMeWA6eU6A1WXhg/PFCePiPn7xue/a+ZZXqIiRe4OlTXkdcAK8DxbWjcJBCeIj1kFWYlbeSjuM8h6yvrwbBodP+7Is7Ma9Yd410mPo8hQcXJrBDLDTKwD83DoqzwFYPTMIQyoBjICJvNILeAMMlccEENxr3S2nwFEZGhnVOjMc/8/EozOPhsWgNXEbWP26v4vblWfs9m9VRvzOrVVC3scxbNeG15s6sm8w6fHBh5oMbd36QyXk3o1hiXmsCQaRPxT3PTQj+vImbsM7owJnXqkiEcyD5VgjxjCnuaCzhnGPyVsLWUnn3VqyWzkYALDNcuvGJcat2QIBlHSuuAaq2jUxgrQMyXyO3k3gOT6D6Qd+0Bd2Ji3xdWK7x+wTcw3Wafn62w190fNuFB5yPf7fE70GcK547jbGTtvnKy2zH9kJ4WIxnUrNi8lsINFhPeS9wf0x8skl4uOgrrgxEQAREoL0E/NmNQ3DOLzaG0pzRZ4YQG5JNl4Jbyu/HZ+agGBEoE7jEwkO5Esfaz+LRyOEUDTwaoExLo4TCQwfm4UW9UcdrfpFNJQoPzIpx/LXHX67i/ojzEA0+vnSVA9PxmAzMpPVS5lH+wYyZhnO+kk3NI+zZTIpsQvGC4cfXtCCeBOHhkZ/ut29/Ax4P9x/AL0vB48GLjjfeswkPbpC7Uc5itISHlB4PEB4+T4+HsvBAixL/KTwe+CLNkoRS0Qzlec588CPgY5Lw8AA8HoZx7Sg8wOuBFy6l8EBjHJ4BwbTGA6xppDMX+IfAGKV3QJZBeKgP2FoIDzvvXG+ffTeEB69csR5ETkW9dOEgeDxE4eHHFB72HLVKrQ9G6QKICySMc8Q5ZTl+keQfzje8qAePB55jhhf5BNeHwkOjftoW93XYtdd02Rf+9LftaggPPTCSWIoLEh7iZfbi88ise4VoENAiLgTOo/BQ4YqrBVhIJsCe9yIED55vWsOdCdGE+TSQMUQvigp1GHCnhzCNmQ2PjSI19sGvstVqJ0QYGHO43L29idUgoFSxG7WMJJ9ALg2rsXzZBPJBnsifeXpFdauvPfWz+dDguYJ/M/j9EaIogYXnEOZ43uRUVVi24tnj+6DsFB9QdGfJPciZpxRNXRcNy8fwlDTWeGTOmS/3QPDyhEX/ZKLpwtnip0s7H+N4yXCbjlF46MQ1w38D145ixOBgZgcODdmJkbodH56wk4OjNjaGDUnNFnR125Keblu6oMOWLk5s6dLUFixMrIOXB9eGM1Tn4tq1EWz8UvMjFcdhNeHNhvp1sR4PXn3w3cinSqyJSQaPh7ETtgkeDzvc42Gx9ffxTo8p3l54IBX/ulXdbGPFUNYiIAIi8A4J8HuR7xiciu8x/4opntnUkxnKryFBUggxYTmkaX2Gt5jwrRg/W1u1JAJTCcwC4SFWcdb4otZPEhzCi1a4FSpwt8c7JI1WvknGXctnVWSR8Q0Tb0HeZMENCCaKO2Bf7n9G4LGwX7wrvTx81ZyubDTkCu+LM/JpnUk8IvMMfzwG97s44SF4A/AUL0x4CIhDSWjwuNHjpZnZD543H3BvJzzQE8ObWrwD4WEHhId3xePBn9KxDkRGrCOsX6Ee8Yqel/CAfWIdeNeEBxbZqy+PzJKeXXiIddXPliuuREAQyMdhXON8IQqwackE752s6neQG3fjuTcbev1gZgcPnbKjJ47Z8DgUCFjkPT0LbPGSPlu1agFEsRQCBIw4VH96cJAe/FgwQdzw+w4bMgoZKAHKnHhzIyRqR/Drioz9pIuHBo9TLPoPur6R1xrcIDq4zeffzCg5RREGlhMTdQPSZXacgrEWmkMFs40xMbQMuSKXkEErQUzYLE8zorlDM0YL0xEAS16vBupwjrYC9BMaQT0dRbV8/WDDHnviBdv9yj5749iACxIjo3WIZ2wEl9jKJYtt3aqVduX65Xb99Wts/foKhAg8KZFfDfnWUE15Gdp6KWL9LB8FB5TwMN3FVpwIiIAIiMA5CfAdo/yeUXyRxegzN4V3lZAvtsYErjDHo0VpIlgT7bIp4tE0n/sELrHwEF/VCZJ3AE0ehngbxO2httNQzfBLbAp374Q/M/obfyl9NAaQvIF0bEpAF9sQYp5co8nDt7iwxT95eI8oDI1mZHFnNl8AuZ0TDTk2AQgigicvfXh2nipGBpMzGH9hHza1eKceDxIeJDw0TZ+iKoc6V9Tz8q/yXoVD/eM95umYrNiPNTTeHZz73cGFpvAAYYDCQ9JhdQgOGe4/34zb8+DrDXvl5UHb/dwh279/wI6+ddKGxiZsdLwOo68Bb4eKLVjQYytXVe3KK5fY1mtW21VXrrTL19CFG1kiTd4YdTGiAk+mbBzlg6Djmg5v3XBSWGhDcOPuLAdgNE8ykonLnDe/dD0SKZAYz5ochQ4xodjBY4LPMIoO8TnEPBmi+BDW3HU97lxETTr3opgxyVlKHfec53NQwrVlc6GxcSx21uwUmnztgzC2+4U37cWXD9vLrx2yk0PjNowmF6il8KbiNYKHDr5XOvGd0VOrWW93A82cVqE51+V203V9thziw4JCMONXTfy6aQtsCQ9twapMRUAERGD+EuAbRJz4YwnfC2NMeKuI7xbFT1R4DUFMTBTBxXcgTxysGm5qSQ8xl7iD5iLQIjALhAe+mDOwor69peEu+DBU2EdiePmPIkG8K7iB5gxeIukWjXnChrsemCYeC3FcnRr8XqFbeUwXE3CDb8Scx2QaqnwUHjidGWLq1mEkPNw/pamFPB7a2dSiqLOsgL54IcIDjGK/XbgP6zon1vtOm8jg9YBfkEfGcnv9jcx2QXB45uk3bdczh+yto4kNj7KHjg60rYcPA5tPcA1eDosWjdjylZldc+1ye9/16zD126oVndbbBfN8YshgG8Ls67Z8Avcsj41b1MWHeCMhasZD6+YMWfNYU+MmreO5wJ+9ycI77ePGgrM/dzrcy8czQ3QUHoLEcOazrXlq8RhxzgyaGz235vrbJSlSasbnN9wdctS/8XqnnYYnw2vo4PaXTx6yJ5/eZ3v3DdjAMPou6eiGg00n6imf5bgX0TSITaPyCfhH1ClHDNqa1R22dfNye//N6+2GTQts7bLU0GWEXw8JD6iNuFn58hoaguG1kxV0at1VjRQBERABEbjEBPhw5tOa7zB8T4s2CV97+B3IQOkg+ONyzjfU4M5ZbPdESM1nPB/2xTzkNXlvz04fIjANgVkiPLA2swbz5ZxTEcKdENdCEr89ipd/3jpFu3kmSukF4R4IfDM880W/JShg29S8mQGL4EYW8y8Hv7uKCBpgnJiFhAcHMc0H8fJHOzW14OMbD2oYQhnqTXjUvxt9PBR1lheiuRhW3DgorlmrTR9LFm4Lt6v4izE9HtiWgsY2PRPyLtwd6JUB3zpvHs3sxw/thSF3wF588agdPDCM9IvRkV+PTw00mWBzp4z+7jmEi+QYcj9qS5eZbdm0wnbceaNtu+VKW78OR0P/EJ21On5tRl8eTM7bC2Vuu/BQMJh2RhgMcU6GHlBAFx1YSCw3nzOkBk8mIsPU/GL2Z0VxAeKF8HyKj5g/V8vLzeMhvlgub2bychKuK5QJgBb+J3AhXjuS2a93j9gPfvy4vbL3mJ0aTKyzd7F1L1iE1kOdEMlYx4v+enBJJ8bGUGUb6IsEI8xAfFi+tGrXblpsH7/zGrvpqh5bzGYXOFTpm6p84JlZlsfDzHBULiIgAiIgAgUBvrOEiZ/hfTS8eoT3C363tf68Ly++JHJjSBDy4RegCw9BeObbLQMlC9/HvyE9Sh8icAaBSyg8sBbHm4DLfI2LYkFR0acUl+9ioe8GNqNg/w1MwH15FzDAxMNN4rYO5myOkbbGAsP2cHM0Xxm5azl4NjQoOJUDN8TXzGhw8MhsMqGmFmVScZloeb0kPPAhPnuEB5bGb5nitgnCQxQdOKfKjY0wvJoBAoIHDNWHH4/t8LHMnnx20P7xXx+y/W9M2GkYcuPjndhzIW4T9MOC24z58J6hGJhxSNF0EG3jh21i4pj1Lcjgvt5vH/vIbbbt1j5bgV+R2cEkO5ys8oM3MC33YL03izHTC0QQA69RAMNyYypvjIk4903U9+s4r7o/b/zLFr+WF78PhNTNbDByB3fyKWbA9VKYeqwpm+OuMRnn5RxLOWkRBMqcRrH+0ycm7MFf7rNHf/0SmgDV0F1HLwZn6XJWvJIZhC9+mdBLro56z6Z8NQgSPT0VGz19FO9Xw7a4Z9g++qEtdsct6+yGq3ub8vbUSzVjF0DCw4yhVEYiIAIiIAIkwG/H1hSWwntfjI3vK0FEwLsGNzDEefHyEUQLCg/+LeqbMX6U/3FfBRE4G4FZIDzQqGGNZkWNE2p2rOSlkrvwAKPEjQQaKs23vuJOYE50m8W+nOgA4Wma6c5XeGC6cgFYrpgJt4V81LkkUJwlkB6vgYSH2SQ8FLXYLw4uUHHbBM061HhuovDAX3zjF5CPWUv3A3QuiSbx9sQzQ/bjh1+x79z3DNrJL4I+0A1jrQd7wpjDtxT7dvC8MYpA6K6PrQVHMY3Y+OgJDJ85Ypet7MHIJDfZnXdcbjffWLFOjkiDvNNkDB2O0kOC3kT0IuA08yEiYM4BQ3wOFVAYG1QZPzidP7zLC26mOELvFVc4Q7qUbvpMGTPmikeQYyn46BXcpxQ3dbG8Q2k5Zs3kjC5tmprDvF6PT+gxVKNjw7l998Gj9tAvD9orr72FKrwQosOCcC3pWoOJwhhpZnhg1ScyjILRDa+dbuuAGjY6fMoa48PoVPIte/+Nq23nbRvs7jtXWSeuLcbnad814MPTQ+kqY1GdSxZYNBMBERABEbgwAvFrxQ0k7IqXrvheEef8VgvvfuH7zb+B4n48Gr+HMOPUEh34/sS3tSg9+MuPx+lDBKYSuITCA4sSXxFZhVlRWcVLFbZc2bGlHHzT22z3rLCD3zTc0Rd4vPKxilVuZ2imYbpyYJliuWIezCmWuZw2LMfjtorY0gejl4Q6l9SoFkEZptGDR/2MDqfJGhhrYVhkXfQYLsQVRJSFB2xBrcZGDh/D1ChXNo5hLyvovwDeDMMYGeDb333Zvv2D39jzezhs5moMmdmNpOj7gaNRwCjn8Jn+lYT1DENuVrEvh86kEVerZui8bxxfT8N23dXr7I4PbbDf/9RKW9AThAfDkKm1KizGlGYdvYnaLzzgIDhT+miEL89AiTHhnieqOm77CQzdy5E2XINxkDFlMS+4usMGdvWWX828uRGBYkZJ0AiRpc8iX16VcLG4LUQW2XtixjSTeow+IgE+oVGD7BREh5dez+xbP9xlv3zmuA0O49eYGvoRYSep6Py0Vq1B5EJtR11nfzMUzBoQIaqdGDUJ8Wxy4fUCL2fV/LhtXFO1O7ettz/81Cbr5RCxuAChhsQjz+BcwsMMwlRWIiACIiACfK3wwDl/6WEo5uH9Ir5VxHlIMt1nkCyCPcR3SAb6O/CdVh4P0xFTXCRwiYWHUNVDYVjRz1HZkZx7+A9Uob4Hb+zibPwXSS7T/uGLfxHf8tjmTpzisYrXRmbKEHcobqJWJDackaYVFdJN/oxZxd2YOvzx+KF5hoQHCQ/vuvAQKyTn8TaAwV3cTl7NaerjwYAqixqLX+hz/AqcwNthDIb3IfTt8A///Av79weetcHxpTDwVmNbGM2hUsEQm6jalWoOI30Mhht/QUb3qzD2qrjVGhNoO9+AiAFxoWJjtn7tEnv/bZfZf/m/t9iqlRhJAJ1Q0vhP8hEUABnhmO0WHiZhcOEhAuIdy/MKXURSkhjH+fOB48+T4vnCJ0jEWF5GtIfWtsDTU7v40Hp++LMiJvS9eBwusCytDVyLU4z1ZEyq0CTAa8XhM98azO2ZV4bs2xAenth90sYbnVbr6kX97LSM1xIJ2V1HTrGhxlqfIw3qJzwdIEHY2ChGW4H3A0dZyceO2pKeIXg9XG5//IfbbOXCxPo62vh6JeGheT21IAIiIAIiMAME+ALBwHkUHnyF69zAQLm9PA/JPcq3colvRkzVmjPWjS8aYK3MPFYfIlAmcImFBxQl3ggsVbPil4vIZb9LXHBo4KesU6fqdvLEuJ08PmbDQ5m3y6U10N3dZYsWV23x0k7r68MvUvhJiqNperb8iD3Se4xHIBIJzlWG8nYWpwjn88Nla1cJDxrV4l3sXJJ13Csf5qzqCFz175pYKeMtACPLey3AL770umBvBf6lAiUvRyeR3qsxYgaHcnvh5Yb9078+aD96+EUMcrHexm0FxAmaeplV0J9Kpco8OJTmGJwmsC+G30yTTtfAc3T+wCnFtjQft77eCppZLLH/579vsw39FeuDMcevLLMhTNi3zcJDFCpdSMARg8RAEgEQzghL8NrANhqyo/D2GBlD8yH8kn4a0ziGDc1gqFbg5dHTXbWFOJ9FCzE2RxcdDkMgYi77ebmYgxhk37QrmQxRXgYmZmheJL9ijPApikOepBnLNYUyAXo7YBRNO3Qqs1/tPm7//uDz9uyLp9GHaRcEhk6rYKjMNMeQsBxqE6OvoJKj7vIawOshwd419uCBETFGx9EJZR/od9jE0GHrrZ2yW6+7zP74c7db//LUlnfH+lo++gwtNytIrBTIl0WlOw3vVghzXBqkV8ehzL72jcds9z48X9APCzs9Dh0fo/54R6hMGeqQz3GenqvP6d8UtiXZsDXGTtimjWtsx7a1dte2xdbfx9+wYgreDSwEsuOXH+spJt4xUUBlVMgccwUREAEREIHZQ4DP52bAiq+XIv2LAQmKObfw26NI6Ev84PtMTBq+D5iS3wmMjXMsKojANARmp/BQ3Ac+K5bZbHwUY7GfHsht795Be+WlN+2F5w/aoTdO2fDwCOp7xVatXmlXbFxlW67utyuu7LGVKxLrRQ/kdP2m23O4J8JtFG4k3iTYUBzD+TCqHMrbuFza3hbhAYWk22+COV+EOTHwlS/nNi5DQOHEkOAFOmFb+mQEXh5HbP2GLvv8Fz5p227vs3Ub2MaexiP2wn/adAMJIgjNS/61I3g58TG1j4fh4U7YsWGi9ZXCaEt4PvjVMb68+rCpLDDOna+01QpGO8D1zfBLeb0+YGvxS/nOO9fbZz+9FZ0U4vzbcgp+BuDG+aTHLNZpaGOizz3MSl6J46iXX/n6LvvxT163PXuPos7BYEkXwOgmYZwFDIapo1qkTZO0DU0tmtc1wOFZeCBWLjCCC76CjhIRMYZhBFNYYB3wYKDHA68Jxs4EXxhpSH/sBAy5x0/Yt777mP388f1W6d5gY40lEBkm/BoGYQ/GOCw6ej1UKl1wZ8eQheiRMkNbhQwu7RXwqMK4Sxqw+upDds3VXfbFz3/MtmxObdliGjksE6x7svG2Ch7D2BkNPH2eE+dk4BjcQT/EBcEhiA40ZIfx7Dl1Orcjb2X25ptD9vrrx+zEiUGbGB9FnxVmK5YvtrWXL7H1/cvw3EkhQsB+xXOHpWct4dy7huAx4yMIcR54fBbAJy8ZVrxkRWRgwN3KsXEXRCuUCPB6USh643hmjzz5hj3wyB57Ds2CGt4HCe5H1HHWS8PQrXk91PUG6yPugirbT0A8y5JxdISKZkHdfagnGB729CFb2DFoN1+z2v7L722zKy9LbWVvuL6lQ8/coj93mB2vchGwKOEhwtBcBERABETgHROILxOTMigi+V3T/GMCroUQrIZgOfhn4cFZbC7eY5prWhCBMwjMIuEB1RqGZsYu8fGbK23kOnqy4/sXjZUjGIf92WeO2k8eesL2v3bM3jg4ZG8dGccueMPHqz1dwjP88kqhYfmqXutfv8RuubXfPnTnRlu9GgLEQph58N72l3ek46+0FbyA0qDlHcXD8hUPNtfkEO82xnK59B44E8LDz356wL71TRis970Od/RVOEQQF9xgLQkPoUtNig8sA4UHGr+47WEY+q/K6TDOZfYJD8MjuR3Gtfurv3rUHrh/Pww4tp/Gr3JoZ83O3FKciwsPuAAUW/jrOh9xbnNSeOD1h/DghmADv8g1Bm3duqV2129vsE//wVV2w7WzR3j42t/thvCATuz2HEE9QqeLEB54udjBaVl4YGQwsbGA8+V1nPE+HvzIyLqYs+p69cUHyxRWuJmx9MRANQJsiltuJGPdXYwgbPFi0Fg+itEsHvv1Sfs/33vcfgHhIe1ai84ml2JfeDm4EEYxhnlBWEhZY3l/obkEKq0bTH69cT3R30MCsaKSj9o1W7vsT/54p12zpdNWYnQL7x6Cog5LyfrAqQ2B9Yp6nHdlAUWgWqH0MoGJZ89fk+lu7/KSHcQvyi++PGhP73rN9h84bocODdqx46PwdOiG6MA+LDhltqSvZpddttA2rF8OQWWtXX9dl3Wj+UgNpwAcPnfRgSOG+E/s4cQY58IoUIcLgwiUJITm1QjPrmJLqDVOqUinWSTA6+bCA0Sinz91yH7w8Mu2G8JDUlvAqgjhAXcfxc8JAG8E/x7v34N1OMWe6IMkx0TRzQwCBYSHpDFgnfkxu3HrCvuvf7Ad/T1AeMB3Da9DWwIrqIdS/ceihIe20FamIiACIvCeJ8B3PPZlxB+Y3HsNZ9z8holfOaTAd+8z/vhWgkT45zdfCtvJRQjuh4k/DvN1DYNCKYjA2xK4tMIDKyxrLD8hBDTQjsKHwIRRygpM4YFtxMfRVvxnPz1hj/z0GfvZw8/aiWP0fMBQZ8N48a8uwQ0AwxQG3Bg7A6uMWldPjuYWZtdcv8A+eMd6u/23roAnxELE0aiNR8TvYri5ws0D0YLv+rxpym+SoWgsXghcb96lyKe0HJPEedzUyqJ1G+PN1pOxj4efPXLAvv0NGKz3H4DAstrj/TAA8PYeD3y9pvDQ8ngIwkPnrPF4oGE3UhIefvjAfhsaicID2lnD4kpxDfjSz57l/SHGV3nGBWvdjcMKnmQuLNEVGMJD/7pltnPHBvvM72+262eV8PCc/cfDr9vLrxzFg51DS8LjAVepLDx47eMpcgtFh6Ak4Txx9qh8lXTcGvXTtrivw669psu+8Ke/bVdvrVhP0Z4cXd4xx7AvcvGAWatqcqm1xiNxjSHGAm9phRU/1CVeCb8NCoEA0JGO3yLIAxsOw5B77FeD9p3vP2mPPbHPko41cE3HjeYiGL91Ql5BhKAhz/KhrB5C7qzTaR48HmrJBM6ty/7ov94BQ73XVhfDarYKih3jjVTkMlMznhrvedc5YWxWK5RPYHDCTZ3jFbA2DuG5c/R4bk89fcx+8+wB27X7IMSXug2i74CREQ65uBDCA5pV4F7NIaR0dkzYQjQXWbGiBk+clfbBD15lGzdUbOkiOOsjDQUIB8yeKmH8xnNzMQKr/MKm43q4YrxIDMW1xr6kG54igWq4XzyRPkoEWJvp9fAm+iN59Kkj9r2fvGi7IDyknYuCzocbksJDVse1buC7Bn/ueYUakMPbJk/hQVfBdwnF0To6Vc3RNwQ6Q63Wj9r7tkB4+PQttunyivfzEGt36fAzs8gK6qF0A2BRwsPM4FUuIiACIjDfCPBnoQZeONzOKl5A/BuGr3rxKwdp3NPaXxTjO4dLDuH9w9uoUnRgM9riNQb78n2K6/xNRUEE3o7AJRce+NJNkaGR1SEcDFsnehSv8Nco3gTYNoh2um8ezOzrX30ERvozdvhNvBQafk3O8esVvB34YpixN30accwIhpslozDkTsHL4aStWZvbH/7nnfB8uBFNMKDysdkFkvGeq8O9ljcgDVsPjC+H5o1YjsRyke5sm5k6ZtVKI+FBwgNNItQIVtVoULZVeAi1kHUw1kPGTC88UJSj8ID7Azclv0BcbXCPB8Sj6C48/Pq0fed7T7nwkHauDsIDzTyID4nPeSSayBQeaJb5EZmZH5hGtQsPuN+rcGe/Gp4Of/TfPmTXQnhYBeGhg2x48/tu/GhP4HPHRQdkn6ShX4o6hAc41yMGox7gk54OTz973B58+Bl7/sVDaGoCCCmHD6WXFZqQZBzJA9RQXpds0Clmng8j7hTEsQ7bvq3fPnIXnjtXdNpi/DqO1ife3ILH9hBPD/H++CIuvwKIIC8P+BYvFE7OwvBVrEI0l4kpZlIk18xlNPYd6cLDb47Z9x4qCw/YAKQp+g/J4O1AbzF6WlEARY0AdX5/QHTA90iCvkkyCBN5BoGbwkPjSCE83CThgZWRzDAFiTHc645RVVJ3oQiIgAjMOgJ89eA3HSeG+KjmO4m/l/ADD3G+DaZ4CaQnZnkP7kevdP5Qxi/SlM1yYyaI4XJpFTEKInAmgUsqPMTK7kYOais7pGPzB/7Kym0NdOb2wnMNu//7e+x73/2Fvbr3CCo2xmG3HrzgQ3DAiyOapeNXcFZ1uDtXocDB5dnQhjxHB3VZfhhxxyA6bLWP/c5t9rFPbLW+Jfj1Ee7PSI7teNH0O/D/Z+/Mn+w6rvt+5r1ZsAx2EgDBBaBIkCC4yJK4KCJtbaTtuFxRlZbEUaxslao4tqtSFceOq/xD/oVULNmRbCUuV8pl2a4osqRIjGlrsUlJpAiuoLiLIECQ2NfZ573J93NOn/vuGwxIkXwjQPHtmfu6b/fp06dPn97O7YUvXhrKn6/GLK6lGmphYmLlznN+ElVGBTr/fOSrGM2Kh2bFw/KueIhv5whnyiFy6ZMDPPwFZQgPBynGeRWheBCA90Sor2NF0Gu+4mFCiodH7Xt7XtKKBxQP61VvmKZzzgN4qBsgl7R7r0UidGNBgb+p3kljqBUAUjzsGrV/8c/v1JYLrXjQgX2sCmgz7feJTUxmhGDgRsnb7GxHqxbUeY4wdZq12QUdiKm2he0hx7Wq4ZHHjtv/uXePtlmckNJBK1Fsta9kGZJiVJlXu6N8of3Xf/TPWjHBoZrzp3TA5Gmd9WD2i79wu9152/W2+9q2Kx60sCLY6sqV6NhxoniIgkH1Q9HIE1cEeP5T8UCCKBzyzwObn4oDSCGKh4O+4uGkKx7YatFasUbslHyqEFravsXZI/C3T/GgbUCsl+CAVFc8zEsJnoqH7hG75fpLtOLhna542FIdhlolPThHdEzChzQUA7leJyWvzeGSyZXGbjjQcKDhQMOBH4EDvdFZAFe9C8MNPbz7WMbHH/JQfxOHhytAEyT+wshmfBeaCY8IigwtQI3VcGBJDlxQxQNzlFyeE9LOkFFTFP8SpcPsNHD81t+ctc9/9mv24vNnbeJsx0ZH1ymO9mBrwM+d6x3ZC659YwCpR3WB7RItLZ9e6B4X3FEdOjli7//QjfZPPnm3Xb9bXx83aMLgdYa48YTi4Y2qDVWLqgudUMpKCSFawiQmYoRROuWvUTxwxkOz1cKF0GVX38tlL8dWC6aomJRD3nqKB/lWyoKieCiA7TyzgX3uqlSsDjik+vidBye11eIx+97DP9TS9S1SPKwTRpQOenydADgjxVDMoXTwVPFUmJR8rnjoaMUDWy3arni4cdcq2yLFw6hA2nx1Vr3yVSHnqV+gejsGxcPc7LyNjuiLtxQPXaU544oHTU6V36eem7Rv/e1z9pdfedgmp8Ztrqsv363VLrfeyPjBotR9PZQhfCv5GjJdB9o9rDNbjuu60GvtQz99k33ozm02znkPAnPW0o7QWCkqugtlWm4cnC7h3vFLQ4W3s5CvyyhJUvEAjwhoTJ0DtM7apVe2WpyW4uFZ2/u8blJZoVVyWt1iw+LxMIfVCkj/KJxjxYPKxJXRrN4Rj3VDRHdebRWKh6FY8XDzLhQPN9tObbVoFA8wr1nxUJe9xt1woOFAw4GLlQPMXnjUclcjBx9a8E5zLtsNAD43EjTLXT1GBPm4hdUQvJavtQ7ur/JnXNOYhgOvw4ELq3hAWqkFleRrpYKUCWyfYDT+1BMd++JfPGGf/i9fsvGVV+vr5LiAR21mVgoHXWPX1V7xlq7w04Zc+be0dULIhJPlP6Nasz06rJsehibs1Ol9dtM7N9vHf+n9WvWw2y7X1X0M34eZBcjwFYkzBWKiE35L/0IslZCHpEBA2uearMBkMUyqHfCJOM2Kh2bFg09aJXnLoXgI2eutekAOvapVQil5rhQP5QBPwvRwRSRyztkadDQoCFnx8J0HWfEgxcOeF6R42CzFA1sP9HWYr8SueCiVWZNxDqokRVc8eIUQTtmsqBjyrRZztmvXsLZa3KmtFqt0xsNwUTywgiLro0fU+2ANOoKOzlpo66yFIW4xkPKENQ1zWtXAfPTrf73P7r3vSfuGJq1r1l9rw2NSPuh6UOkqxAv4pvmrrmVs+5Wf4g/nNqij5lDYEV3HuCCF5/zMa7Z1c9s+cOcu+8RHbrfLNunKXy3pGCJd+AtfhaijeEN8hff+Gp9siZRIn+KB5pLtAMCEYgbYxvRzgNaZdQu54uGrKB78jIf6igcpxHxgpWIQC/2sGf+6QznqQWpRPPhWC93O0pqwtpRJN0nx8KmPv8t26nDJrc3hkmJeo3jol77mreFAw4GGAxcnB3z2wvCFYZ1IXPww9qtM3S1PdZc+L/Pz11K3oL6SleM+JlKwfzzjFP9mXCIeNOZ8HLjwiocUbq8BfOnUJGxuRIP2BbvvXt3B/r8fsy/9xR6dDr9DA/MxX97MxMD0tdRPIOfzoRQPTJB85QMDdQblwqfjJ1VbpvVl84hdcfWwve9n3mH/5t/+vO3ara0cmvu3WPesmuZ/TCYUD6XF+Q0wTIrqiodyPsSiSGQHk9mr0nGfRvHQrHiQnPqkMpr+5VI8+KQ/RNF/PTUXSn4kx/75HfdixYO8+PpLB6JeqiMQX/HgZzygeHhOX5AvkeJhjSD4QuxdmuJw6JDkm/ooly/okE06C5qk+IGpzPqL4uEGVzzc5Wc8bN04UhQPpK0oELtcRlU5OlJ1mm3RI0UAqpMZbeHiUMk//fMn7Bvfek5nO5y29shl+kLOoahank+e9Et+gj4Od6XtoTzlzZ8UMSPtCW3zmtB2sUN2+7uusE9+/Ke13WKNbWCyquhSk4ofiqdnTldroHho+54z1okUxQM45QavG712iae/RvFQeLKEhSTSkxyUouyBR47ZV3XGA4qHth8uKWaKzy0pnOK6WOcwXjKSUe8HvCBVjpzxoL5CUjnSOqtyOxSKB91q4YoHXaf5er0FGN+yceEkdq0SIAquFKEucfOKzkCaXLBndRbJ5/7su7Z3n+qrlCUoxEMpTj7gBpDgKQ/1UG8oDZCjeJPccnjvzAm79ppt9sHbrrAP37berlqnPrGCCNnUqwgRBsVvFA8wsjENBxoONBy4+DnAiK53uCQ9Aq2/N+ga7vEhkHadXi1WuRLCKzbzLm4BYzc8/SV9CA+K+gWN5zjnilsCh/zMPA8htDENB87hwIVXPECSS3cZLqJE0IqH+ekF+5P/+aJ99Ut77YFvH9Sy7MulFOB2A0m9ZHqhJaVCSyeQa4jJcCiGRJoE+CoEJgMC0uGRC9zPvnDGNm2dsd23rLP/+Nv/2G55l8KlL2Cwz0Cuy7prgVNpWgSkgS6M1yGvenpZrHgoyyYcsPfjUfSaKHDlX7Piodlq4VNLn6wiKcu34qFMMSrBjNQklUxgKqUDExNtJVA98nmX3lhI5BOxqBiueIgVD9xqwRkPz0rxsNG6fmUo8dXpMFniMEo93LaC7LviQbh8ss4hjkzY+xQPI1rxIMXDrnHbunE0FA+l0iyr4sFpFV26SWeBqzQ1qdcFnzapVQ0ndL7DH/6PB+2B7+yzw0fhyya1F5wfozx5j0sbwIordeNdeuU44dnLVDxEoTPcnpLiYcYmz+y3W3ZvsE/8o9vtH7x7m59j4cfQ6CyBrn92kOJBSxmHpPjwTl+xwYbyocY8+cpUigfxsILygorw5tc5QOm44kHXvz7w6GFXPDz1wpQUD+vEUvELxYMUzAy01AF4ibniQW5fBYHkCm6oFQcXs6VuuHVGR0MckoJsk33qo3fadZdpxcOqRvGgyqyaHwoM2jF0EYhuYxoONBxoONBw4OLiAFs1Wd+JiVkTbTfv6vukWfBtEq7U1vl5mpJ1acs17piRe1b7FzlTD8XDsPz80XhuWM+InrYron1ipUhNJyAmNOY8HLhoFA8SaQ36tA9Xh34tdPSlSV8df//Tj9lX//JJe/LRs/K7VIPFEQ3mmQgwJtfNFVrRwN5s/9qogTjhHAzH9Zo+CZhXFVNNaQ1N2dpNp+wd143a7/znT9m7blPl0MyqPRJXeM7Nz2p5NFfDcI0nE4kluOX1iACGtTyAoaRoFA/OjEU/cAoNaXOdps9zNCCPJt+FS422y+eyKx5Cl10vGsQ4OppQFoSwU1qqV6LHVxPprVI8uNzHmobXOOPhoVNlq8XzvuKhq60WTLQDQji5JaAoH1jhwJ8C9fA1NhUPmjhL2dfWOSy7r1+keBAsE3M3QWx5GbCF4sWVD6F04JzBWbUhZ6aH7Jiuuf3d3/+2PfjQAW2tuEQ52CAlpVQB6nEX1MFy8aahOJDCYEE36qAM9Wt5may6tgQlqpSiWm01O3XYbti5yn7h7hvtnp+5zq7cqkNwyQpKUfZWqJOfRxEjXkV2mQjrph3eXD4ES/EQKHC2hMDTUE0ARUBj6hyA+7ni4f5Hj9pXv/kDe+oFbZWoFA+xss0VDxIDlA4oelCccc95yKzeOYBSIy8OXR1un/WtFjey1eJj77PrVI5bmxUPLreN4qEufY274UDDgYYDFycHGIXSXjOoiJVsfMSIFpxekL5OIzPvPyfVN85oXEJfelLfec9O6Rpxzcv4XjKqAeIKDWR4xnXV+7i2kK4UHOf2MyPyMY7sxjQcWIoDF1zxwBemrr46chNFm/vmJPSpePjMf33E/vKLj9qj3z9uK0av0p5qrrpjCZAqik7E5+pMthOhbCBeh0Ein1g1EeCKzFH5D0uRMHn2qK3ZeMKuu3Gl/dbv/FP7qfdIyaBjJEZG53UuhPZ2z07bihUrFAf851E8KCTG+AxrUTwwPKV6LV3FcjpAjsLEgNYHtaQh05zx0JzxIEGWJCzXiofzKR6QYWb30QGFzRW20CFvmbriAS9UC4eOLuiMh5PlcMkXdcZDudVC9SHOeBBevv6zCoB6DH4m6q4JV3os+9Z7i0m/1uwNV4oHnfHArRabxvwyS4HAkt4j52CN6IIGDk1SOl0pC2bVDs1L8XhGnevhE1373d+73x76/n6b715ioyu3Cm7BpmemxB+IQ4GiLhplhBQHfPfuaC9KbNZQ/rR6gdUQ81JoWveM7bp2hd3z/mvt5z54nW0viodWrnhQewZGvhtHmcA5VA9MhNXDw3we+FEUD8Dligf3VFBjehxAuvOMh/sfPW5f+eZT9oMfnpG8rpUsipFa7eArHrj6QmyH18FvsVrl6195BDakzoX6wGCMMx5anSPaarFZioc7bCcrHhrFg9eLGLZKOF1m3eoVRuNqONBwoOFAw4GLggPx+YuxRozQcvRBH4cqoiP7rPq8UxrPHJbjlVNztv/EpJ2YmreJ6Vmb0jKIlj7AjGm1+EopHNatGrHN61bbtktW+plHl6gPWKu+c8VFkduGiIuVAxdY8aDBOgM9lhprUhJnLujgx7kxfSlcsM/93iNa8fCYPb7nhPZMb4vVEFIkcJDJAqfo68qz9rAG6K544KaLUDzwPbCtCUF7QYe/6Qvs3MxpW7PphO3cPWr/4bc+4SseRldqsDkyozjzmjTMSQkxqmrHmfpSJDDQx6TNoD8Nkygf1jLRQOkQSoQMTjujJAqQ5V/GaRQPjeLhwikemJ6ldGLXFA961ZxaJpQGhAL92rEhKR6O+4qHBx9+WTdKbtMkbaNqGzdalFstNFkekvLBv9a70kGdnNcZVjxowqwDDoY0mxtSnedWi93Xx+GSN90gxcPGMa+BzO194UDMZSBkwEY5YpUBj8yC2pQZKV3mNSE9pT3zBw9rz/zn99jDe/ZrxcN6tTsbnPZ5VinoQFvqMSodv+e6KB7iwEnxgIM2fQuXOnGh73Ym7PprRrXa4WopHq6JFQ/K37CUpnT0qBCY+qJ4COUDQwD+4KPCIFWPtyewVd8fgAvFA22PFxTZaEzhAKXqt1qoHO9/7JR95VtP2FM/PFUUD+KXBk5sqVuQ4mFIS11QOvA4r527YrjAWOHiigcJI7datDrH7Kbrt0jxcJtvtdii8zqWbv0HUBQUuhsv+crZnPFQ2NJYDQcaDjQcaDjwpjiQigd6FUYdPcXDsMZ4w1qnqbO8tKph/6l5e/HYhO07OWWvnp6zSeZRml9pxK7zrjSv4kOxPjit0Dff9atHbOuG1Xbl+jG7dm3LrtWyhzVviqoG+O8bBy6s4iFGeq58QPHA11Am5fMzw9obvWB/9PlH7a++9rTtffy0lBGbNPhXdWGdDwZYHn9lybGGgB4GjJQRVCl9cOzorIjRsY6tv+S07bh2yP79b3zM3nPHmK2WWs5XTWhSVDAKaVEk5JjPE6r9+BiQQIa2TD/6B/4enOCJQ57hBJ7JBW+x//306QW7/9sv2//6s71239cPaCK2xfPoEw32ITNh80kbOGJhlM9FnE/wimAUJQykp5Ttw7Z9x5j96q99xG577zq7cgd8UYrx2U4TJQ2vnR5o4IFPfVSDciAG7CTbv9Vin01MSReqlSULWnICXS1O2oMv7LdW+flXXpHkJ+cq7+Bg9QpTvW5Hh591TttVV220D33gavvER6+zm2/UF+dlyQI5yAcJqSXiE1bklfLnhhSz4yrLz/33p+yvv3nAnnv+iBpnNb1D4y5bsX+cstfkm5wInctrFCY+/rC/rq0JaWf+rK1fN2o37V5hv/rvPmC7deUk2mVSY4LvQs/X8KRJpEEpJqiEosCJf41yQPQePO/FAooD6RRCMejNaZaPyyvlINerR1v2wIMntOLhCV2n+ZK1Ry/T4ZLahoDSgRtm1BFFbUragn/VigdhicMllYgUfsPqvFA8/EvdanETZzxsisMlXf4hIh85B2585QJ8kJEAoTaR6tNOSPHw8sGu/fGfPG57HntF8rrapmdXqMy0j3FUcqiy93MAUH5CKGWoeGyxGNIhlS3OsfAbK/iCoCWL0yft+neM2M+9/xr72fdfbZdvURlL1seG5+GGOnNB+SnQwSvKBKVDTITFR7zT+Cs8JiYQ8JlnsSn5qryhsYeq783lqBbokOUnAHuB3haVMpVvtB0A6SlKEo+Z8dwOGUqvyI/e3KPy9WiD+qkUD9oadP+jJ6V42Gt7teKhPZorHlQGKB5oczSYouzgOEQxsYe/HDbKIVm0P8j0SCsUDzdL8fDLH7v1x6d4oHFLGZCTFTeck4LSm1L2wyUPde2zX/iuPfUy7UvtcEkvL0HRtzrD4TcPNT2c5D3exAcOl5zuP1xy+6LDJb3MXQSEQTziD2pCHhVKmCMngXhxcF5rBpAAq4VWcftDa9HOcfZwEKQ3cCw2DhS09gf10gk8hCaCnk9/nMG9vVFKGb44RbYE9fMYiMgLcShRz4e/9PyBwgtTz13dHaElPi+kVTfIY2UipcS2CPI8aSyGqpC9RUfQcz6s5w+t5+MtJn2+aHVilEy8ljrnL2+UtoAKSMQt9aqe3huhqMO+CTfp5UMS/gQR52KpaKgB1Jy9CBVgla9e2Ou7lkRXixKYEwo7fWppFvhzfWqI3pSTtiTM0jiX9q0nkfF7fj0fb2N7AQN1oXiI8UMZOTCOUf82rb5O33rtmN72nViwZw6esedfO27HJmb0qUNbDttjGt9oG/vomD72StvQndNu0SntOJ3WNsSurZYGYtP4mN102Ua74/JhTsWyFWIDa8j50NQnSD5mUmBhUy/nldebyHPELrXL4zlavHlKGv0BWSczWIBVO0eEfIgV+KNjK25HRkj0nZl2jCAyCrB6CjEZM8q2jr8gWyYr010KvZNGwFJAJTCDsBM+7aVw/qh+F1jxUMj0jpTBEUMpVjzoC6RqwR/8t0fsa1/ea0/sOaWB4lYNBClo/ZHzzL13hDEAj4NRglVewOy/7mhIOTTjWy12XNOy3/hPv2S33jFqq/S1aoGvr0qzYJVsobzQk9wu5FVWSdMHpu5JKklIQpUiShy1ODH0IaCnePg7KR6++OdP2n1fO6BJp5Z0y8AFDprzCWoZyTmV8nC0rnQRv8QIaEb5MKQvcigertoeiofbX0fxQAb5g4nn0g8Fb9+AnWKdkuLnkAbGn/n0d+zr975kk1NaVYLiQcvaocGvsWMgrcZpSHwJBZIiwzflHRy+LFp2R1+PUTxceeUG+/AHr7aPf3SX3fJjVDyQpyhOZJUnJpeU14mieLhPiofnX5DioR2KB+CZxCNnPmmlPPXuZwL4ZEdlqnL0KiDFUFtbiDrzZ1zxcOMNUjz8SigeVkmLjOKBswUUuzxBDfigLUw0h7jDD5j+Ug7/hOONJ3DSR/Aaige5kUbRzITn1aNte0BnPHzxK0/ag3te1ERuixQPWhHAVgspHthu4Tc1QJDjA5mMkwmX9C5cfgNGUTzceB2Kh7vs5utX2xau0wSWaEF2iav3QRsnTT/YbI2QlYqH/bol4PN/vMe+/+h+LS9cozDKUnSjUACSBginRy+EyvLVDqlApR1Rec5OnbSdO9p2z11X2y98+HrbrmsY2VHGNhM6fOp1ZDJwx1uWl8rEGzuBYBQYlMJDIDGUmwy0yCt8sy3lLXwcu368XQFYj9c52jzhwKd4RxSieSThIu8BJs/4ZtLRcg4m7xz4G2dRCAdMlKmaZOGAXuo5baxTkryLxi0iDPiX3LMZ7lVXPJywL3/zaa14kOL4RNvwAAAs2ElEQVRgtHyHEYFtDpeUsHu9o62FHqh0xZJKxfPM6joo1xkPal/bnaN2864fj+KBFTTwi+vJoNFN4ae3JUXxwL7bZ13x8D17ap/ONKrfalEU1KGocGxg1BNlQR69kyHfeoa6al+lKNt5zWX2wVuvsLt1q0UqHkgfKI+PRTl6vYkSDtWNcBQQ4EkHvKXmh1f5jdYGEErLEfZCigClbx1lUF9AZQXlBTKVsbzWDdXI5ZC0cIOFuAh11KTwyRTjzfPqkIP9WUwe2Lve/6lFoOEVQFAidyGFd3aGLbA6VC3VCEvSnE+EACRfnLJdFe4FIQ9VXNoZgjwYkGIiVr4Flkw5hG5xyRViPN2QhiJJwh3vPWyJL+xIK6moUVJzRn7AUPesY6y7exjDd6n0A09QjZsn4vWoq+McgLskE+2K8KmY4GIlpx6eNHhAL1HC3CiGg0TdQUK9OEGEofJEpvx1kD9Z4kFzJOXdXuYrk66yoACnRXbSnzaE9TolwfWIxhtT+dTjlID0wk43QRjiZdwo+aQcX+Q9Q4HuN+cPqcEtTjCDVBD8LaYocCZm2ZnBjJc2QcWddt0nWiPylrgy4qBsqI++BcF05bsUCieV3HGFPH58wZ4+MGEvvXbCJjTU5OyroRGN1dVf0lcMyfa+EgW9xnC030ipuik/YHLLqlG74dIN9u6r2na59uuy7aKl68O9r9F8a0Hjhi7ttNoltmyQzeSDnK9rqvAqAo4sjahhwFTDtBo2794dlhX2okftLPlw2UH5ogfjZ/z5YIc34ScJKl+pgIwPBKSHShhbUwo3vTehR/E4/gNOPUVmkEla5/hgVOWGGMtmgkOBHjcmU8b2bGWAh/YDZPwEGVTTc1EoHnxgpUFSNLP6kiN5ntOE9bNstfjSk/b4w6fKVgvERF91yD2trwtwsgJh4AGP2IRTg2oOf9P019ZsOGnbpXj4zd/+pN0mxcNK7c8FRYirBM+JyK+I4K8ZgdZNFgJ+/UElpN7oOAD+VHelA22ueBgyVjz83bf3SfEQKx7ai1Y8VPLtsTVJKQ03S9aZJnnjhNJBe+pZ8WBDh2w7iodf/4jdfse5Kx7atA6FHvIbB+H150CIB2I8x/pB8XBYS54//bsoHn6oL8hF8aCDQGEF++G93OUOxUMoZZxOkQadoXhQybvi4WRRPLxDiocbLhrFw3Gt0Pnc52PFQ5/iQXlwxYMaavb9e013PxrwGPhWige9t6UkY8XDhrWjtvuGUfu1X/mgr3hYJfWxN6i54gHhjcJ0C36HwRVvXg/ckzIWPN5yIj3FKd8ePKBIqa6qEG0FnnB9xWcpxMFjw3b/g2fsi1/dK8XDC1I8XCqZXCuUKB5iQMyqpHz6CRMetXJR38CnpXqafN943Yj96392l5awj9uWS/iyDBg0yfS0H/E+yN96tml9pTDQ+cy+4mG/JnJ/8EcP2YMoHmbWqJlZJ36o5qoMvQOl3fE6Dl+Dl14UwuFKFeon/FN9m5s6bteqE77nzqvtF+/eZTsuZxJL1pgaw40YJEXbB3/qhrcoobovKfbg5BL5hWOiD0iUU5QyL/EQHj60GqXOyWOBFVO0kQSmcRx6caQKoI76yiTRLDftj395VyfqR2UKh9/ukTgoQz0KFAr4ygJN0hRih5ENgBObiWXib9+WdIXiQddpcsbDl7/5rA6X1MHFKB5oT5Qk12n69hiS83Yx6GFiF20reUbxAOV1xcPmH8uKh6SNVWpUB4oCdtF/ICs6Q9xZOaH21RUPfyrFg1Y8dFnxoK2HeZ2mryR0yCh1YdGfF2zIcikHL52y4mHnO+I6zXtuXWfbtXQ2qiFxICTLS7bqBGsseFgx4r1noCYZGfo7BmdwtHgVm5bPJVsKy8gduPV4m8iAFKVcFSJXxAdtJhF+pFAgUaJBXx0AIHlzlrsfYB2EyRNMKLqh2kVVv9AgXJVcEjJ4g4JgXgdft4fpt4OSSvGgtH37qfLhZRKH7XiWUArz9bAlnqF3cMKzrRTfspa1vZ8RX52fkgWFwX9Msoac5YN/z114AE/hhceoxYI3hT8x0oqaDa2YhMSdOHs2UEBkeQGVJqF4F4yjq2NLOOyAjTQraXaAeozgIN6ZboYm8zwRjzewH5JI1tGk6PHJm5cOYQLwcevrpE35OYnemyi3qlvgLJUInB4+MKJ7iCgZkuEhGe0a9MfFjLzxiHQXAQC8rEpAhsvGWW8rQmRKnmV5uEBehwtVVU60oExDvN4D1fkgj/EkbNr1tOruDK/sJK7yqDnU99EG+zhJ3onH+zYHk49PULBr8XCmV7F7wZlD5LT3tyj2gF5LWirQBSnV6SgXdD3FK+rX9yvou6907YUDM3b0+Fk1j1rpqdUMDNVj3CPYqv2P/AhDYYJqm5QKqyQT28bH7U6tZN2lOdY2FfzwLPKs1gLFg/rXLvMyxg5a6YksU3IYx1Wz3XPRD0O1yvgLfSHlQfsXpcCHHa8rfbCkr5j0Wd7GE0dG49o2wu2PKNCHlGpc7hAqE9IRQs7wcqWNEPFBgD5Y63ZVV7wixKGaIA3EcijfPhZMGqFPH2vokEocOQZvSF9ZSVKcHHmlDZ/9kQd2BYgbUwCyK6V8iIs3OY3cyvE2zEWmeCB7EiBVhnMVD7pOk3GFCnPBZ2C8iAU+UHH2yS1bBe1dEU4E3CcJUza+4YTtuKZ9HsWDhNA7WR86ncvOgj4DsgB57w8qIYsqZ5Zsqh6WUjz81df3a0KyVY2tqBca18iRvZKADyrKSyoeSN1XO/zEKh7URZBHmh7y7APB8ykeVI07Z/Wk4oEVD7t/MhUPyjONT9XAMcgk/5LlC6t4oDEWIb783CubJBzC1ICqfhw8KsXDQ2eleGDFQyoe1qjcNOFWw8wUA+UYMozt3YCiU7LevagBp256eWup3sWueHhIioezdcWDd23KkLcp5CkqZ5XFpRQP01I8XPmjKR7gTb8Bv0/P+r311g+rN6IKPPyZzNFdSND86dHpHSfl5eGAoZxVWWtlWDULkjekIAstJj4oG1S+czrjgvMraIZIxwfE+mWr14L2gLoCg7jUaZKUncO08ioP4AmTjecyGAbNcODVmuJhrxQPbLXgdhloY0IfB4UK0BuhINq/aCivnr+LVPEQXF2kePhCWfGwLIqHlEuEIguN8nsdxYMXskrfJ8RQ3G8kcRIP8FFSBb83ggpRnGgpIiRTJ+VMHWzIJ3IcskgKtFk8hNaMijYGjaQV0Nj0N2EHrON2GnivpxThg/rtzM/roFodaD1Wli0LMbepUImRTZQQcbuKvo8t+iqorDhlyDFtcmXgmVc6hbu/lI+eF+VRK5OoE5hkDbmr5zDdcCcaE3CTBjH0OO4Sq+aOcvJYFW5i1PGnuwdFGgLqM0kBnqQHAE/69+yImuUI/LnoAhrqwJC4Eh++cHIZzOKklAzTjopaLzKlzyxIVuQl6PAs40P5BeGUgJwal1Lv4qUKWwbqnR6SgS6G2TwpAp6eB4iEQl+vnAiQwXJnZk62wxbbgRImX85jFxSJsqTgwKDEOGolGGUM5bQqFbcdJn8yDu91d4ZXdj2hyrM4VEjxx3sAJi4f77i3fKp2ssTDKoAZFLGTWt54qhpOjGUwJR0KldV80op11Be/pHw9o7MdHnypawcOndEWPilGV6x2xQMH/7Nqjjy5LCRVyo/n2fOlMCkVRvVsGB2x268dt1s2tuwaLWEdk5I1tp/SCqltkzKfx7eYKrtQlAZUhU3pVdl1uIgF7xhh8NZTPCCzTi4xPZD2VFuBlU9uJ0N455WRWWmAuahgRP4jamf5EIsE5ZO0UCIsiFjQ3v2WELcF5yvTPHWUukB47xMuJ7RgKfLCW3ArVPTnz6UDvrWfYETkGeJFVnC8H13mK+2+AhAo8pmoiJlw2IMyjeJBLKaZahQPgxKpwFPq+xuseGgUD1Tri2fFQ+lSG8WDr3j4iVI8lOobXWdO5pjeMRFTl+GdCR0t1xZzQRadqDpQrhDmSE8mbKUD9Y9ygu+q05yXFhjlA90lSov57rQelEaKpYk5ax4WOOlaeOIiLQ2ShZf0QFfvxPl6VvVoJVw+AzeN4mHQKx4oOIzsHDVTwJIPvgPxxHBKcpKgXtAqCVc8hFQGjko0hIHRHKWFyYiSw6KswCd9EReeniEE6YrBZ7hZwYAcCzIjEsEj8rUqFA+9wT2KB5kC62D9iUT4QH+VmAbnnTnVP614YFUNk1CUDbHqEgKCCMjKMziok2l8vMJI2POuGq7BtG/JkU/Ehq/Kq09gUTz0K3J6eDKl9Ml3JeYzjEgjQnt0ORR13A3UhEm7vJbQeOvlSO/V7CVxAFN3K11mDm7wjydGaopeQpay6liSsrQjZg/fUvEH6wel9KkoHopB8SresSWxzl1Cmb64Mo6yVd2KSMTngxgYYoID7LKaINvZ5UWVDC+Z8KKHFGh0k7ZeMi7+KSOyySsPKKihDoftJuOnDY8I6C+5DMUupHhs3PX3hPPA2k8dpu6ugYTzfAgSUJHJS88gmdBQsBI/n3pCAVRlPYIECJOT0cnc5F0vkQG5CmGepqRN7TkHMT8907WHjyzYo6+csqM6UHJOY4KR1VrpqRUP3e6MilI5FqyTmZR4BkquRS+Kh5ZuCFypNv2Wq7bau3WeFcqHca2ECMUDXJM8o3hgCzyTfclRoajw0EEyhX5b6YEhP2agavD64lFo46J+OFlCik0TyIHgrFrID33I5azClWW+ATsB0JCTdLxzQzPBWvAhZUPILbLLigpfiwQzXIEYcurpKjwMGKm7/CL/wSdgcPXDRoy3/Uti5JcMiBWQNq+EeM30oBSeYdep7vlEXQ26I8++gkRIHAc/wWY53rppFA+lABrFw1sXoqViuuDq5/W3WqgSUEG8tmAzcGxWPFy4rRY0lCq0RvHwE6t4oPuMBbrUSnWTrlDo1dB5DSIWdHb1kM4SoWOKm3xGtJKIbohJiuqf/OncNT3SlwKUCqgX6HLx01YgnTNCRzzitVXeGihrM4KCqbsoHgTrHXJ0enTo3l9JtHzHBuQMqAMD1WJDekwxmxUPGk6wWqkMPRhcwPgYcMjlkxsa4BiG5OGS5261oDXHyP6RFQ8Md5Q2siCZ4K1ulKqMfCvFQwn1SfK5k7KgHOox0APGGIKGGz/SyidhsQlDIuAFKRfhy7qxKFsCKOngGrRRYlLm8fWMfHAdL3Wmy6BeqcYe6silj/LlZHzbQfNAnfJY+aPcKNz70BKFcL+umPxWA+MoA2FwTgCDqUUJj/Ib/gU6Zxo+ESJED0HnM0sirUVw55JANYwAITt48YM8RCnWMBHYZ4BMzGGHxPcT3A/Rh2AgL9GHhrJhcfpKm/qjcqSV5lSken6YOiENsdVQIT6xDwgw4UIFzG/YAyG4HwmJUC2xI+mwYVthnYuhaPNDo2uxS3CJRz5xxkQmW6H+PNYiZ2Ke58SEHe7Ifz+/6rFxZ6zF/vleD6+7M7yyM9+VxyKHItfZQ2jic7sEevVbHFjiBrwAAdLDeUPuVmVGiUibvDymRhyyJHlkAv74ma797b5T9pRWO5zWagcbWyPFw1q1Lerz9bGBUiSmyy+OJK/Q6QpSKR5setKGdeDkzi0b7LbL19p7tw3bembC3vEjBWRTUoDiIQb/jhJ/R+mJ8LaEEQCtOMdyI6TUFZ6IGYqHjJ6+rswtH0p8ZSb1T8+srFllH3zapG4T4v+UmuRprfqYkT0nzcSo9sSu0ln449rmvEpN6ErBr9bAZwzkLtBST7CKgkZY/26Kne0VAchuGqHwt55PhgzApt7CGmhTQupaPJ/JCyihJY3WB8AI4RdfRnGhyol6hj9KlxHwwiiIBm9mQq9v1TSKBxcLVfyiJlqyQV8kJRRImv6gEoJwp3En/nRIsden2WrBrRac8dAoHqjNzYqHi/OMh4t7xQMNTLZE0VHEu/eIpatDGUAv0TMdJjy6OcUPwpR3V1826MLpbLXo0DtRoszoqskZVmur/fLJjWxWfTNWYJnhiN6FXV1V3K9QfamreicBqIfKflBv9Fm1L+J6wXMZDBygn2wUDxryXDDFA6XAI6GRHNQHX/KMovc+FwlJg8zEFpK6L6EpPyEy9KUYfhkQA80TE+ywSxryBS6UccAkJqSRtjewuLdDBgRQkZYcAzUkKOlE+YDSRRXMDzDVygfOMmLfc+StlyhzEp3P5hWIsHy8Xuo9c+T00qfC12rSKt9qpJjtRA/367kW5z/pctRErDwWYakiJkACl4D6+KgeFfAqLnkgEJp7dNcxRii/tWg1d8LWbVDmQ7zBG2Qz/iKdTJ2U5MOrLIozJie9cG8fI7jA9cKIRBxUDvGLvQyGJPX4hG1ROfXpnjwPSV/Qwi958ErldMotT6Aiv4SzKN4TALJm5Bdoan4462UPQMjDIqDqdUkUJbQeVndXkdOR2cr3JWxA+nBknLQzDkB6YCVB8TABTF7hKXnxhoj2WiE+ke3DLqBBmUIF6TkVQzatwnn4eNfue/YVe/7YlE1qVj68eqMNr9I2WikMup1Y8eBR6jLhJOonbSkeFmYmrDUzaZdvWGW3X7nePrhj3DZS+loxofWSShEJlgRoe6fLMnE9fskfZJ3PCC76dn5D6RCyBIJs+xWiV+QN4+0+qzY1cEHhwRYPVjvMCnxa4ZPCc0zjnEM6o+3kxLSdODNlZyZmfavbSt3UsWb1Cls/vtLWjbVMt4Xa5pVcFSpFhNJoaakI53UxLvIUS8MYHE459RoBgGcTSnmWxUTCrnzwuqqkWfGAgYqgJGsiPEx5xM6aiR38w2aMNyKHfx8QrsQr77dlGsWD2IyINIqHtyVH50T2OqCfZsWDKjwVVoPB6nBJtQDNGQ/NGQ90QdHg0wX3dOS9ykSvER1Bzy9cpT+pvKlvveEdnQoQUiTkiIdgjRzmGUToKk+u/SRFDiPUzszo0Kmv0vgfP6mbaI5O2eFjZ+zU6Umbk1aCg2k3rF9rWzZvtM2bdV3WxiFbKe1/KiDooDjno+r1nEDwh36d5LPzW0w7YYM05L5RPPCtgoEs3GCwkQMhZC2kZXlXPKgEkAef9Krk3RYZLpfYosEVD9CCROjRf9SHoBioNCk7Hs89MxfEZ7NH4gEy8PEbhrCQ9hjyE9KrV4TypInQwJJ+g7OVktcT0dxBs8e/BuF+0JpGsOKTn+9QCPJ9xyKIEnS5loMreDHD6lh0LpzXq1ACKnrFUweJn/JVsryUgORfvJbkStjSFjDwxh9e6pHwdCPPSjORfmln7PJej49XvieuYqd32oAuAlFcQnkU4oGRP3zgXS102dsh0srMOCnuoZ8kulATMuvA/uMTsQqoANN+p7MCDcjqdaAO0QkvneaCGDcyBB2yeYWnPHWTddTJzfgeV1DyBD5qnTy9vGqx+yL1J9+DIm0HdEz4ZzIJk6H5nvZi/8XvCef2YqR9gbUX4OpZyXgg1+PVTja7a3oyGKUOr6qpMvFUp2FJ9fW8r84qfGCGxEgrSgNFBxPwh4917et7X7aXTs3Z9LxGp6s26jDmlaJHil1uUvOtFkQlc8W4s7xDLyse5qZ0i8WUXTo+Yrdduc7u3rHONvq2KbV3Urj6+Qh8R2e1GaQQ3VHopY6bsKp0Mw14yapLaOdziaK6rBJeuCknaIDAsK4IRS8flDs6dJmVRvrGYtIz2AnF3adbPPYdPW0HT56wSV2vPUMWaCGUH1Z7tPVwQs4qjXU2afnDNVsvtas3jNplanu1GMJ02ZxfGRrjnqArZpSxtoCaCnU0idhuKkd6DNiGd0oDy52krceLXP6+bYYD40t48CokEtIiF2HjC597Wyj1MgD6G8WDiobmrKqI3i2JuXWziNEUZpr+oBJSr0AOgD8NTrPiof9WCw0DqeOIuljUbLVoDpe8mG61uJhXPND+1NseWpdoY+hQ6Dro8HR+Q3jrXUZuzndYaKsz1oFRTM67tkq27vDWCofXjnTs5VeO2UsvH7MDr562I0dnpDhkgqROXl9jV68as40bdO2pllFefdVmu3LbiN9EskZLEfUvLCQGbmxMqFPy8CXojaFjdMfRJTvgQH/gAHlrVjxcKMUD5a9S4Mu+KxwoeYYwMvUBdU4+3C+lI6Q3Jcij6IfYPuXx0RMTdBdngmWALkuBCSgPrp6hTgAHlqCFt3yAw40hNB/3GOiPUvE8UK+QUqjUd0D/bKb6QjCP/P0rnYKhHJmeVh2d1hyAh2goHUY1KqTNHBUPxzTAH2aQD88rPheEitIzilx4rtAq373wcJ0vzHmzVGDV2CiQbFXGS05vePYC3AWeNOlOENnplSBpR1xCy3OOLGmKKyB4V3+IxxTFJy2yl8MkzUFjLQV50E77eKeiKqGBc84KIr4L903EPG7gcrw1tIN1Qg8ck12RphSLvIT6rsfTOi1QX6Z/VbE4jgRyG6T5yInJcDkjyejN8q0XnK6sw/FekenIFktZ8VxkJaZF3vG6GOFSQIJxkSusCsJLRHhFFdTD6sHsj3q5clVj4ZXqOdEKvsLmPp4slfxb94MK/lAoIGctmxG5e0507WtPvmz7z3bUvmjl1Yp1Kkx94ld7MuSTVGXU6SycSwY6wVAjDylUhzrTys+MbdC+hFuvWGf3bA/FQ6w4ixUPbMvkUHzH53iEGDvnTaTjJh0lMZJQG8MNRUT21Q6Q5fFC+pwc53nkMm9cYyXdvMZDNJ0TQvuqlj28dLJrzx+S0uH0KTsxpbOrmIyMjlprTCoF0LmCWCvT5md1roOUDyNt27Z+ne3ctNGu2dC2LUpsjWhaLdBYZUYfpHZdmaEORynDYWcjJEc+8VgGA3rEkQeOebrypEvwLofOBQYpYKgtHsoZ8FDMdlqNyAQCO+EwYZgKV3Hz/nZNo3goYtIoHt6uKPXHpxLQMDcrHlTPVVObFQ9qxtSq0ST7wKu51UI1JDsopuAM6ag1dRNN/mLfhKh3AAFDxxddCbhR5NGLOBwAPD4x6WgJ3rwOlWqpMx6zaZ3u/NrRBXvsiYP2/UeftudeeE1Kh2k7OykMw6tsZHhYExp9MZjXzRBSWqxZu8Kuv/Zy+6lbrrabb9hiV13WsnVagrhSo87oU7M7gxo64Cj1yE1QD1V1+jNPg7BzoNcoHsT5C7biIUshSz1LWzZOF9iQ2lROpIimXYsRcsVA0OW7mt4ELkdWHyYhRcQODAxBSTDskEcgMIWCYgccMhxTv6TAQQf3E6PAWupBK/3lnOoiN4Es0GmIEFQTLIWe1LLe05MLdmZqQVf8BhdS8bBCy47GdbYrCsDVOkV+VPGYWEc+anXSM1tyXBRC5a3iQ2YS/6XCoBS8DFDP4Q6eHitj5ltCYoe78knQtAWRRVf3wjuNx/VZHxB6HDChC+bMn16RjALpKJIvSUPiHZSdaYG/Yom/QEu0jbEJLSnLlIMy2ky4jAw6eCGUL+eYgipeBv6b9QTaso3OFIMA8reYcshIKKiPMim2R1MsbC+3ur88PbxXRuDvvRFMD1I3vJFKzzfiBEzPtx6n536j8B7kIlctEZyUrVflmr/HUAKpdIjSJjcBlHnJ9sXlI5NxpOXlLROZyJa2gw76ZRQPokbPnCbce05pxcOT++3gpMbsUjzYyLjaIa1MUP/R8lOhlRPoY1aKSfoWKx50hlRbawrWrzR7z+Va8XDVWq14YBrO+CZONWlL6aCL0wOf40oGJlJPQT9L+AsX1MNHD/fVX8SLOuMTa8EwEvJw+gxWYkiJIpWIqQm1o5LBZw537KmD+sBy4oxN6JYheKDBjm7yWKFbRFcqmwJEcS5MXsjzWgehQzI1zLHL166x6y7daDdsatklyv96+Y2SHHG8xYbGXPGgeow3DwZSeZbJZFKeTHmpZBRhJEBZ9evRC1B4R33ybMs/8UCmg8kHe1DEN4oHZ6gExUuH5oACWGSC45VnyhAe/UElJCtnBRDFWKq7fPk2OGSnTy/Y3317n33xz/dac50mvGwOl2yu05Qc5OCEwfdymb6WVS/qYFm8d0I90/5D3Yv+cEnYspg7dHe0MeiraV+iPslW9haY0OgL65BmK1y7B0RHqxhOTy/YK0e69p3vv2IP7XnafvDMfpue5ayHccGuVcQRm9cJ/JzCT6zhYXFJxxwPt2dsh/Zw/tRN2+0Dd11nO6R82Dhe3SkgWOhgeJMTvRjEQnPSnba8BmpyytsoHiQFF0zxEHL4+qUtCXAh4KcaSkoyw4RvYhA+/wIlWxPzmFoXQGL4Z518l+0D4sQQNQO8gTuH/zV4DwmZjSlfTA3qEANzq31jvFGN2Ulb/6wMmmfsoHaPvbmcNn9c9fPAYX2Z23/Ejpyc1InzE3b8NDfLaCytocroyLBtWLvatl26zrZv22TbVQ836zPcuJCzDQpOhZqGnJMOtkxOzOPNf0uIcwKPEqMGoWh6y4cA3D1DDHgYcXt28jsnsj0cPlZPwCRA+YIN+UpwppN25KNQ6IAJnRDYQpSvejtnWAbiAZtCkdPuFKSHXpjM5Aa3mIgFr3ok0Gr2Jix8gyzsdNr9QgwBg7eWrV70AbhCdR31hdLyPLhNBpQATz3x83sXajISNoYI5Smv7iX3Ysj0CenpTXwieX7FnzSKXKUQABkycLtKB4eKMKsU+fCkKTY56IfCAMj370JxPf8FItnC63KST8lCCz2zhgSxO0LbvB453bV7tdXitem2FA/qs1urVExaMan+gyu0I6NErVHnznzHZpIfKx7Wr2rZu4vi4RLJPasT2HS5oPMWUDy0uQULtESrGoHEJT83AKTJMPwWP8AgC0UehC9iyuaGGF3nuTC6ws7K87hCntG2kr0Hj9oLR05JEaF2XmGtlSt1G7jkHQWEHt8WTX8D7eIPB2gvzGmV6MRZW69VEds3rbd3bx+37coGKx+kZympo6wg9WzzhN/LW14Yz284l+U3Ml6xyGWz7lfSj22WCuijp/CvTpjH5acgqfrVOtCbdzeKBzEUEWkUD29eeF4vhouqfpoVD2qQVLmbFQ/qANSIR3Msd7PiQdUHbsTE/C2veKCi0XkU418yypAHNQCKVPp1PzWbpd2acHQ1cdMlFvqSumAvHOjaoz84ZQ88+Iw99+IhO6yzHay9xtpSOrSG16gPHpXiQTdZzHLAlO721vVaQy11wDMnbcO6lisfbnvXO+x977ncbtrJ9ZrRAUcXFgqQGDLGILbez9XITvIHYjeKh4vlOk3V89cz1cybOlANbaoYPVkRHj4M9K14yG/6AkfpAAaQpHHh0k8RssSfdoIBQC30gbUG49E+Ib1Rd3pwg3NxkBy3VHBIay/nTAaG/XsZdfOMZgVHNVJ+7sCMPfvyEXv+5cN2UqfNn53q+unr1taS4NKejo22pXxYYds2S/mwdYPt3j5mN21rl+1PoaKhXkY+lVdGo0soHshh8gcbk3a8Vez018Ja4U1TykGv/XiAiCdh4bD7OGBAwxdvJRj4KzDTzjgOT1LVaFoQCZQ24ZVRDI9cx6DAClEFODAHZPDACZJRcxkeyrBfT6y2mbY+z4/vZQAXSgfUu6i+OAVKMkh8UAgZcpGkR/saYYP8dYW0EEbLHYpkVHDID5ly1tcShJ6KqOLuFUVyIn0oX1GuyZ4XsEeO+OQvWdWDDtTBlehFMrkq0fpEmIjJIACXwZBE0udlkERnurLpf/KhfufjPOT2KC/TUoKCpyrqzEOPgy8P6JbDhMoh1gOgeJiTBnN+eNQe0YqHe/fus8Ozw/rwII5L8aA9B6F4cCF0okMQ+/iclGJLajoaP3QmbcOakaJ4WGeXqp3iUysy39W5Nq540LjCmyGPLoRuJ67MefrzXsKIRPr8MLDhcUN4PX7488EFLW1nbNR0W6gdkDb3sQOn7Lkjp+3QWR0iObLSt1a0x3TgvfojFBWoLVraVpFp+E1DlKK2us2ePq3VDfO2aeUKu+Gy9XazVj3s1Cqz1Uoa/Ux8cEFhkfTIdhmt0VZzBu0D+iXL5amayMWo62l7/yEA5yM20WOcFnhAhpGNkzzl4/5v/ecnT/HAFxxnXlRnBgju4X4wJgYPDuMHmKgaL0zZ+IYTtuOatv3mb3/Sbrtj1FYiKQqKgcaFVzzc9/UD0gJuCeH3MpYAQJ/ni3KnMy4vyuMC+ZQwxF4p6caHuBTmkG3XoONXf/0jdvsd6+zKHQye0PqF4HBAXPCO/ErEHF/B+dZlaMmYyCnCX1c83HvvD613xgMNj3KldUhUVhrjlu5/4SstcZ1OkRYw0pfKs9M5q+ekXXnlBvvwB6+2j390t91yo+IsSxY8B+RCj/gmgnBFUtmtoMeNU9iP67Saz/3hXvvrb+lk4BeOaNKmr8VDqx0+FQ80+jRqrL36+3u4JDwU/xYpHm7eNW6b1YhXZzzA6OUpWCGWyeLF7RXp3BUPDz6y3yZm12icpPusBUP5uRQwcPLOBLkoThDydYC80VGr8qI9n50+bjuvatvd77vafvHuXbbjijaLDIUPzTjYaMdo7AtuEFYGJhB+flOJPkB6gcqQM14ZMuqvIPBOVZ1wt6UJjmCP6QqtB/actG888Jw99dwRO639nfMLOlBK2ys63WEp+UdsZFT7PNXRLqi8OBzK6ysHTmlwMaJVD+Mru7Z547B95Odvt599/yW2WqctMSWMVjmGr06YUyIXtOhZxqbHB3Bw11c8PHLMvvzN52zvi1oCOrpW6YvPyntLn4u7vkxTxNAu8ojGuGmAclSpaEUIp2BTx4eHJq3dOWo379psv/yxW+06fVneUlZ4KOLATZcvNTJxGrezzOn29sPbkWh3JvRF/Fmt0PnsF75nT+2TDA+tEL11xQN4aK+QFM+Vu8AYZSD/LIzupHWmT9i177jMPnTrFXbPbett+1pNgVKAFCfkXqjAIv+YqCDF/EniKF8MyQHvJu3yWlkOpDfo6kH3fAFUiI/UlY+0uScMCfPJMzBh6qmkO+2EqU9vSAd+QrenI3ekjSzk04s5KBdyN69zU9rDnOmT+RMvlS/2IKtI7RVNBH6wb9oeeXqfvcBqhxNTWgGhctVkoD26yobH1LeIWFYjzekKOzZNrVwxbJesX2G333il/cM719t6HbnOlziNi71OFgkvfJRcCwH8iTz3codf/SEkYdLuQacrY/AeUprcrMcmPk/Q4qACV1w9EUvhZKwqW/DKEAm4uqleE2s9cCl34gL/UuFv348UqHE8tIHcIuhiS5LKdJ4yryA3kFFlo/jx3hdX7yzyybjLJ5lBN3Ua+qEtepBSXhCWxKadfExbIGGEIRv7eiTvOyV7zLQVJ5se4tSVTYke/2i1UprSJkE9DlgSx12clQ2CNzC9sfAbAHpwSqnoYAxAmtiZLq9qBOFf8BB646HcyKSLMXwgEv96QIFiqfjW0RFrYIYPE3HIuUYqon1W44E5KR72nOzY/937kh2R4mFmTn2/FA9D2p7gBxF6/6HcJK+Tz6K3l3FeJDnzkxraTdjGdaNSPKy3u3XGw2YFCaNkWmnrvIS22rF2XfFQ7zQcZ2YXDpIsnoxk/KXQITfjkPJHUNKSKIjhumoxdk6N4Ms61+GZUx0pHg7ZQd1ccbajSqUDNP1aCvX/XpRql8E5ulr518Ad2WD+xLXH4JubnLKhmSltUO3attWj9t7tG+w9G1t+1gPjurjKuPS3KdwUrpti52vxHZjlGQhsIWNye5nJprqRLk8Nzt/lhR3nZ8RGL6+6yjd/Ti6Ryxgp+Uy0t2p+ohQPrHhhZMMfTTNDBueofgt7xBOElbeAidNTLw7FA5U+miQGhv1bLe6794AOi9oq+qMC0PnmcpjIDTlisKDseR5DuIekXBnSJKGlgbENHbKrrrr4FA+HNDD+zGe+Y/fe+5JNTmkio681LOPqqkf2gRd8UbH9RCsetG3m9z73uP3Ntw7aS/uO2/DIOuVxXKJI6cWCc++IVaNj/5gP0ylMgfDIpdHF/7dbLZRvJNhlmo5MS+6GW3N2484R+1e/fJfdfL0OLbyk5dcTeUMnzijC8pm+xhfmczv0iJ3QyUMv+1aLB43DJSdmiuKBpkYQGO8Ci/Kh16eAUOEoRmXHkj2doDx1whUP99xZFA+XK4/gGIjigTSdGpq8MOJZUNkLczbqFcVDV51vRwfZca7D3ufn7K++/bR967tSCM6t0pdU0dsZsbGVa72t0ZZG73zjZGimRHiQJMj05WJoRsu5Z23F8KTddcc19uG7dts7d6/0febeVPueTkpdMfW1oK3OmwE1c2oG4b5iXu+DNpQA1L6qJer3P3rUFQ9P/RDFgxRIamjoQ9viAbcHeF6kYJBD9VIP+0E1WmHA1ZKCpsMAWVQPD0244uGm67fYpz72Htu5TYoHKa+JuRzmzSoePofi4WV6mKJ4YH+uSwLMRiK84IpNXZQPP2hFyTs+nYk+xcPdt663HVrV8qYVD6CUodyL09/DpzjdilDgMHU9UBVCx5CPe1Jm9P1qVV2AQr7AkXjSBqe79UM2fQApGeZsBNrkrsp6ZnraxkY0mdfgoqMluYRw0ntrWPxzBoFlsIbVDnNKq83ZKdAieeuqss2xukjvKB32PHvCvvHgD+zQ6Y5fb9cZGtPEhMPeVLN0FfUQ11GL1hgYQ7fwKY8j7TkdgGZ2k/ZW3/XOK2zHVg2KlXmaJWRViyOUT53rLt61VAfm1Q7AwWH2bRQDzxY/hEaZBJDztcDXOV/3DymrgNwBjuz5vNPzQgeDYpbRcrBdPpS7UyL6GfQS4AlgR7n7F3T8M6gkp9cwfQTphQB/KoiEHIhNcmrqvOZ5G0gWQqy8zeNbGK9482DSpnzgMw9fT32LObNDkTokJdI8ADIJE2+D/YX+oI3S46/GMpICIE26+1gpT/oZrjBEpjxMfpStnjgIUBmh4yS+YOIDmKJ5e0xZR5DzRTLQKvWQEu9LijdwuCnuBEg7g89jU386qnvQgJI3aUlwr1/QJVONycUhVK5ekF4+mpSWSZkr91WfGR4MKW9BO/ELoZnvRaVIKPmFbEclezlMfJSA/hiVomLXsTG2R1stvv7ED+3wjE5omFd+RtaIGLU3sQZLtqjzbBTGYrmzvPuLYLqamOtwyXXaavGeKzbYz145bpvE21A8KDWV5xATfg6XVFQvWhQPiUYOkiExbxPcnYFe2ytW5g0XwPUgQJVyK1sFgfJBO0jsmYmuPX5k0h7b/6qd6khVO7paZGivhIhwOviJxFV2iuCDFAjAX/TS5tBH6OaOtq4lXzU/be+9epvddZUUvmpj4dYwssItIJRvIJUbP9AIT+Wn92UwvsKD/EMyAsVgS44FdQ4ddTZwRpT1PhAkDYKfF6M66ihaijMiKA4VV+WQBIjD4seI+kl4wd/bNf8PAAD//06ygh8AAEAASURBVOy96Ztlx3GfGffeWnqv6n1fsDYaDQIk0VhISiJAULZlcaQZ0vI8lkXZ8tiWRtJXPfYfYlqPJX+wnhnbI1ESJduUCFALdxIAATS2Boi1F6DR+77UemveN/KcW7caDbIBVAEgebLq3LPlyRMZGRkZ+TuRma0ZQrzPISlodaMVktKJ7lTE5NhM/Kf/+ER8+S+fiaceOxuDnc3RGWhFtInTmiFmO2KmXfY8aZjJXdejktZMh2O2mcuxbOXp2HFDJ37v3/9q3HXPUCxealokVcWdmfG5NudcvDKU5HtX+xk291Z1pxBS4mcEr89Elz9/IwbzrefOzcS3vnEgvvSnz8bffuX1GGhvgKDChVZb4spzJtSFrhnuGWbgVcQ0W4soA9HqdqLduszpkdi2bTh++3d/Oe6+ZyS27uhk/ma6pMN/J9PMFMJib2V6c3Pg3fkISTk/lynHo0e78YUvfDceenB/XBwbhs1D5IENnrczj/AFGtutQegdkFSzlpt0ttsd4pLj6QtsZ2Lr1pXxwP3XxT/57K1x+27yvyBZyBxAhHtloioXjgrv5T90Ka8cnaIsv/Cfnoy/+8bhOHDgdAwOjZLHZRSccl3JtnlN8UJ+kZEia6TLsflrtTrRaY3H9NSFWLliKG7dNRS/81v3x623dGLJImJLSkyymUihySskVHiWJ0bKiBXFVQTje5m40lsdcnU2vlf9iy60QUve8qdFXimrwycG4tuPXogvffmZeOTxl6MztJaoy0lyGjmcJq1pzskLm3v/ShrsyXvLjQvyI7qTyONk7L55MP7VP/+ZuG3n0li/ph1Wcf5L6B3UF+Zx359ty6U1BVWDcfriTBxEXv/wvzwSj+49FBfHl0e3PYIM8m7jST96h0x6IQnyah7KJ+uluqxFHB6aGDsVN23txM9/4rr4zKdviR2b6zyi5HhIPSZHejJiWr1g+qWEepeqgyynLEmlqCpbCeERSUuayqmXuMAT1LGZKUqr3Ypz1MvvPHY+Hvz68+wPR2t4bUxMd2JyeiCGliz1AUS35KfVmiQ/yp36i9SywlF3Z7jONhDn4sO3roufu/eGeOBnN8Xo4hactHZMEds8zsTUxAxlO0gdJ2WKX/GSRYU49vMYpHoSBhw+3o1v7z0R/+trL8a+V8eR1xHotWygrWPd9U86im41bzPIcbBlyaB3ul3534H2S9GZPhG33bIuPv+5O+Omje1YTxtiC7MQoYveMLSlDSKTTnmXR5ZD0TsXKccXkNc/+ONHYt9B6l8sovxtXywBnkImla0st2Q2idRnHGbe6yvTF2N67HTceP3GuH/Plvj5PaOxYwTpSrknkuml3HvswzNIe9mUwWw9+6JIs8E31qH/uL5f3zOfvkMZKe/yApsCU26WxOCJGlWNY/3J8qY6TUzNIL/5BOVLK8tmWgP8DFgdSUo91UKHDpgn0pyaQA8ZGZ6p97QpfKg14DXpmP8wzaun+LH97aArLMkutEy0B2OM1+19ZSy+88whZHd/XOougaxhmsylsH6Iu9JV8j1bgWpCSbM7Fks7Z2Ljson41J6b4kM3jsa2legcWKhuHVJVTE+RFqUFHycnSxs8KIN6QekvfCxSCEs4n31LuVeiG9Pzsi/H/tax670xKDUSVE60TOR/mp9ZtvUb2af+RGYt9zqoLLRjvKTyaNvuYyvAw9R3JlfHNYobFzJX9Q3fkze86cH8B19lLbReDPo65FKd21IQfSf/45Y18S4jq2Pj8oBSpXCWUrxD3LeUtYSSPwq3dZiCQz17knmShwsRpN9Q78tZ+a3fWO9nIxmbLcvRHYWUelY54lhd5pb5NxOUShYaz2Tds5XwEcqcOK0O99l3SUM9aP2sYlS5rqirdoW6QkKvXH3XNQTlz3dYF9W1Bq+5Ffu4nHvd85YCTLuWm7pmmvekPJovjq3c5t/Xd4if5S6hyrP3KrrUM9YEn61CNrfcptkpz9c35nFveVgTDfYp1IaXOH3sfDe+8vQrcXy8gx6lnR5cAalI4owCrBCab0JNv9nIrFT5yRPr9xh5mogVi9uxZ/No/IOtS2M1fFPHDbDZ/qYgZ9+MJAobOCg02U55VGis3plplxf2XkscS8G65p/J+KT3rRtlj9xAr6+8RIRnyeMTx8fiqUOH4yL9pliyHHXPPp8r789M5SEpSFzKkQVCPK5bhK3pCfI5HgNj5+LeHZvikzsGYx3ljIkeQ0bAtu1lTEK4Vvpsyk+dYa4vQMiuHiR0klZ+psk8Dd8U+mVcWuDMABwy18kzomS+OCl6ayrLapDHZnwW2qfhwRTtQ9pvPDUfuqdFZfDV72tICmxs5IDZRqIa4EGhr6QCrli1GuChAR4a4GGeVNVs1Sr17McKeLBZNgM0DGjNNjozD2UNjUvadB4TbGuyvcnoPEXnCjs4Tl2YiYe+cST+5lsvxuPPnozO4nU0PEAFGAQDQ4CDPGWDXTquNLQYE+qjApQUQLOFUeLWifOx87ql8bGPbotf/kc3xurlrTSegTHKu0lmcnyazt+iAuCQbra/szYXMeYvaCY1wMP7CzzU1Stlj/Ko91eWsvHqe2XPlTQIFL65IQF0BGcKy1wYDMwlJrC0LiOa55Hn81jQl7yIoTRE9gVrFyHKS+nNLVscsQjjkL4AFuskHfDpGMyOBjI9jcQA3rfaw1mr0tY0Xk3YXDLe9Zl5Nnfd7KRY67B9OgNxmbyd5+ZD330jvvfsa/HCaxdisr0cC5FuaMc6aYXxaeu4xHFeVaQ0ubnW6k7EwPTJWNo6G3t2bY67d2+PO29eHGQ/gQelQtiiNvAnQGrkSQEeStol4wkPV28rV3yu9/7eEQdVKGa/MeYyrpzR5cGQtXOZlNPhyuu1ssoTfjR72MrlQmXe4rnJqSlAeXQOEQYGhuisl48UdRI1HfVe88ln8/k6a97sXaxjzude3pY/Oz2pbC1sDH8w7ThHmZ8FbLiAjXsWWT1zTggiYnh4KFYuA3ygR7CMuKP0+ZZTMMPSrb4cIM2OCRXiS9fKJxciFGb5W7ZyXr/Jd89hYUaCvqorkR32lE+uUW7T1C/3HeptmzKzcD1PMAKQIaP6LgCxTJh6mYCoz7INDCC1daSaCPdzyeKcC3W8et8f/xqOzYNAhEBgG33RRtZqAKI8XnXCbRzNB1sBDxBaAyQkWRVtrUQ7BR2QXZ6xBGcUzHwWOe4MUv94h8mRfWGBziDclcELEmaBh/KpqMjl4z3gYQDgga7pDwMeatpSCKoT8iP1dshbwGor+Phw15ZZ4EHQIfUcvJ1B16pvzaN13TovA2qdVFhX6lBhQb6I6LNyZ5xSEj43F3iYZR7y5jPw9gJJPHuxG48fn4ynD70B2MKdxepWP2pCt5EyzL6l6DHfDa0CFRLsi2eoswAsA+Pn4+4dG+OT24diPfcEHoaTBxRkZornfIZr5kbZzBy8Q9kkoR8dkj7eKHPKKwMcKduVc1wQ2JaiHtv7zqVWrWxbQfHFEPU2SSVyXRpam27vNjTAAywV8Cjo+lsw1ZLqC5ZtHebequ5kJaxiZIQiDaodK0nj8dB4PDQeD43Hg01A6cjbHGmQ92sW9YfKo5j7ns0Gm4GiS0oMmgy/zPN4NhRcrFWQKRqnh2FyQVP36Olu/PlfvRBff3h/PPfKpRhcuh70X9OAuPkVoDRDNpotvHDAyzMR/BZI20bYU+6xdWbOx+Z1EXfuXhv/7HMfiY2r29lw8e0k342lQV8PA1LgAUsj6axbvkxpfn9scxvgwS6mAuE3LWUlpYBr7qszDhfK40G5S1mq3siuFwoF5bQnn5ym/CscPonMlJBEcgjgwK0ZOgPKL323eO1cNw68NhavHjwex05eohN3CeBhMqaoC0N84l++dDhGRxYjj0vj+i1rYtPq4Vg9AgiBYT+YMJt+I3wNmhyn09PBS02TqwoS6bYAwRwauvkFv5jPrc5QnCXLRy5144t//Uw8/uLRODuBt8PACuofdkn1NVaPjTS5TSS/+JODrI/UV7+een/8RLQnTsT1m5bHJ+64Pj5978YYoTPr13Q9HzrZIy/AwjRM1aNlQPQhec4+821plDjSanXNr5WWTXXf656U/Mzuy/XZ34xOXt2Xjp2dO58q+cqsZSR4wt5N093ylqzK5E+9MUPHfQarWu/NAbZkA3HUe4WO2ff2X+B2Lyyk3V+ogEfZaYYnlhHM82vjAQr4lRPT8cqRE3H07MU4A2I2NiGQAiDGV/1FxFu9bBFyuiJu2rAyrscDcD29Gb9e2i/Cf67IQa+31svSPB5UXEwlbW6KxerVmr/y0k1rOfkKbd4s94scZHwZnRG4X4Va7fs1tQvQQHUmIdJhK8BFkZMs0EzRNFL62Bv5igRrojKuJ9X9d1jIpiBQIviQwAMyVr5Sc0OeUEfoNHFCsNPKe6yRmX9ve9my8kBZhRyb067Agx6RCLTskk556/fjAcB+u8gCDyRONeahK7KZj8zLD21BVbb9wMNjF4rHw4nxCnhA71zV46EmTPqSxppQ9vKmAh5GkNs9AA//cNsyPB6sw+pa8v8jgIdKlEjcNqvwuUiZv8pBea133AqUk59lq7tec5Muv+0nS/k0AvCAbn0CL8hnAB4uUzAFeCBGrVN5pIBmlbzlS5RL46iF1K/ssIVadOHbAA937dgQP7d5UaxHDgrwgG4iPX08QAqNXD3Dg8qkZLktREh6eR1snhbURudLxkXedQzCj3Dp2PnxGMMWm0DJqu4H0DuDyPEQArtyWSdGiL+Wx/RjXk78jnq7As+S8KxX8ufdhQZ4oEBSBWSjqyq9ClOvEBTLtw5zb1V3aqvfSBnB6yrw0llogIcGeGiAhwZ4UDm8c+BBZ97SvKbHAx2ntCfUN9WmGlLz5GlRQZyVTtvhk934b3/2VHz7idfj1denYmDJmjSK0szMDowdVzfeIfDAZmqzbvw2xuhOts7MhVgzMhZ33LIy/uU/uye2rm/HEl7aoYHOrgG61Y9ZHYZYpXs0tMxT+wVNbw4agg3w8P4CD7MGZE8c5xSU4lgH5TNbXTqUDnUpprlCgvSQkHWki/Xu8C09m09TuC8zvOT5Q2fi5f3HY//Bk3g7ONRCW3+AYQw8OjMei/xqvGww1o4MxObVi+PGravjpm2r6JAPJzDmgA2N4ZnpSd4zyFd/eFYTlpWmpnD+96WTRbpWWl7axfg7enkmXsQw/pO/ejieP3g2phet4/qyoiUw/oqHURneJABhXew6rMZhIvXeDEycoZKfjnWjnfjY7TviM5/cHmuwioetk/BokJ6sBnYa6ETXPG7bs01aqrxWFdQ4hiyf7BnVV0gs49SMUpd5PBvyzOxhvJaviqZCPN4zpfeDgAqdLPuVUyQ7ibGMY1QOQbgM6jCON8YgHdJhxswsIouDxCtbNXTGpOkk+sW4Y2eN4Ov8yb2HXK6PvWWs/s1r8xrkoWWj9Y8sjqNLT1Gur5yciOePno1XTl2MYxfG48ylyRibJv+Ue4J/PNcdvxTLhjuxatlwbF4xHLduXBk71y2PbQC5i0h2wC+tEJ9f2PvRmvnMQMqAeWBD5vi1huTekve8tpLd558X0+ZVBmwxyual3jHXpN3uW/ZjiNiyc28MO9v5pO/hPBPxOqnjCZQPKiQmoCS66w/Gr56fvXllpL4HfsitfDVKJ72reERApPZ4SDAiAbRCi7Kr96B4gc8lGex1TBHgw6kq2ZLNKXenOtPJy9JZlojy1ACdwEHA0hYbjWS+8015JPb8BPnLe5PuMtRCT5wCPLwaJyb4XDBZeTzot2idT1m2PKQgf8qOQ3mT+c6KVgEPDL8c0eOBoRb/cLtDLSz31OIIk7wln3bKfV5Weor+MR3eUtLL30w531lJWh7zU8XxyCfU47UMKa+UC5sfSaTWDYe4ePYyHg8nZmLfoaMxBs9bixlSmgToP8dTArJVffSp7BIKHklrAg/KInHSHmJIyfi5uHP7xvjZjYtjA3zQS2CYdGxTOsZPwKKi1cckxPy6X4jAO1JFV4DXJLJ7ibKmqYwDDHU9MD6G7rkYF9GrCTwQf1CPG8EHhhmMLqatxDVwK25Xm8nyBsp0CXRKMtLLD+ULf8pYoHeXgQZ4qAS28Xh4d4J05dPIdOq3Zo4HO4duah42azHHDfDQAA+2QO8EeNA800Bzsw3zewkTNxR7wgvVlraA4kaoxI5nCvDwGh2c//L/MY/F00fj9RMYO0MrS6Q0AIxtJ8yRxsqtQy0q4AFjJDs6VaNaAw8rl12ID900Ev/6138mtm1ox1KSKHM8kBSNn424oIMGRIaaznI2r7/Yew3wkKCRZVc68qVTWDO9OuN0IT0elDVDVeLlhN/6en3B+wJUMwyBmMEAKgagBv8AdipGJLI2rfWOLTeGHL2K7P7tI6/SOT8dh984GydPYQTSQR9YtCQGh5fksNbuFEjEzBhDLmZi8cBEDLfHAR3Wxh27tsQ9H94Yq7AS/UJVJJ0vrxqpElYRl/ZoTeB8760PGnFaommNlq+m+/ki/sQr5+Mv/+7x2H/0cgys2EK+l8I/vk1KHB2AFp1P51bR2M55kirAIb0e0vOBsp06n9vIoimGWmyJX/rkjtiwjM4rmW3ztYu+LQdyvAR5kDBEWtpeK3RVXYWM5CPFqqUAMlhqNf0lhepGj4d5Ltl0MP3SiYVb8syNCS/xmJsg4QVcWM4xVOYs2+lL03gDjNMBmsIwxqAfHowVSxbFcspsOU4po8ytshijWo/0GQAKwQnnrsjyM1eZMemrgvE4rC97p+9uHWv+9nbsCOOU7Sk6AS8dmY5vPfkC+7Nxgqm4YnBJTJLxGYb2DC5aBDF0vxlCMn7xHHnBM4w6O8B8K9evXxF3XLcxPvahdbEad5UVEG1nXbmpO8P5onn9qTlVytmz0iWsX1KcrVOP28BUnPTQDriSqTeSXknU5qyv41yEDfnlf7HVGAWtLDr0yTJUttwG7OBS//VocThUdsIFA7OWWsBsHvvaq4WU3/pmvb9KxLe4ZataJ+6xQIOh5rXDPrp0KNODgeuO6rI48ZfKvNvumIJze5ROaBly6Ifnqsua940tCeYGX8CYcZ4VHrYT2HIoinffgkZuvruQPIJA0tfjQUrslAs8PPgMwINzPFwL8CDxkoksFnHnRNnU40HgAeXqUIt/VAEPAgNt3l10AQ/XwIMF7ymckNvyz60+0v5Q1lLekmNXMkYbyI2nfBAl4FnRkHo8lE/JDmF7hsbjCYCHZwEexgUeFjEHmwBe6a2TFyLp4ZKgHpcVWjvxaesoh5YNVAo80J60K+Dh5zYuSeCheDyUORLa7wfwAHVg6NDLvAzoi9OAZEcAPV8+OxkHLl2KNwAezl0aZ8gaH4LIk2XXAdhLjzrmrbBdWL5kKDYtXxo7Vy6L69Cza4mTsixgxNejlM+KP7zuHYcGeEjBLoaANaDxeHjHsjTnQXWACqkBHvoUYyo22aS8qUqL9vZYXvklo5lcEj7UktQ7qC/M4z4FtErPcvkxmuOhkK5pVDqQjsvTZiufV5Qjjtk0Bo1ryEuc2LhrML12oht/xISEj+87EW+cYogFE6HaZGM58DzfJ7LhtLHlHQIPmJIlPYCHBCV4a7E4QPfP4yJ8KW7fuTL+za/fG1vWMdQC0W5riPDXToKkotBTZL2is1ye119Z0Xg8lLJ7P4GHqxVqLY/991I27Wyk5wF7O9h++RtYhIHEfA4I3iSRsBXjNTx1vv+DU/Hgd/bFsXNtJudzgkTy2lpMh2CIscl41Wg82vXB68F9i05cd/xsrF4xGNdtXhEfvW173LFzfWxh0kWHH8gp7d9UzxBY159+Guf1WAOcLV24q5dpKL9E3r71zJH42vdfitdO4dmwZCOdU77KyQ/rJQayRr17a3I/8ADDqJcCe8TrMhHqzKVYPjzF/A7r4hc+vi22jjLEhB6QnT7gHJ4lPnn39eadHkGm6SFX88Y1AQ+9zgDP1KEu5GpfvDvULcXY9b0TbOZZXXQSsOEQnfP9h4/H68fPxPFzl+OsMy/SwxN4KB4PbVyBh2P9qhVx47bVsRUdswYXDsvOMuTbLHwpsmNeyqsre07QKvPEztBHarkwf781F6EEd+6IF87Q2Xn1dDz89Mtxks7dBN8QBxevwBWaksrOF8QQT3kQdBugJ94GeJhBXlcs6saODSNx1y1b41a8dDbTszGf5qZYDvNH92xKck7+FQ4mcVwpLCu0li+5s0C3/TK//Dt+/DydneN8Qj96ljIcm4jTl8fi7IVLDCmhm0v9XD40ECNsG0eXx6Y1S2I1rnFALwWAoGEYYo6S9ILI99v2VGVX57pGBAtBGas6TLqT0iR99io35oar3Mp5KHh/6g4AEYPAQ80Fh/bY2gqo8PGYzvpMnAKLP0qv/aR5pGN3aZw2ki/CywYHY/3ISGwYbcdaMid0qAeg3VbLTWTUejrgJJrUxa4dQYAnPa7Sw2MhFZD1PBtg9Sm6E0quCXiA3hLIiOxxl3t/TJI9abemZ4GHux1q0fN4ID71862Ah+INXqRNnieQkByX61rK+bK8ky/3pVk6xjZPnvIjGWyWk/40eoPK5Rp4KB4PRwAesF8WAzwoT+oNyqEMKeBtlj9JzQIPnlt6btwAdKiBhz3bN8QnNy7rAQ9DQDkCLG0+2hRi8on8SX5JDMktRJAF5sSS0ovlFRDAH5yaiB8cPRGnAVAuC+TDDZzEoH8AXcOcRvKM/4S+pxg+gu5ZTKztq0bi5jXLYifzda3m7oiJT05Sh+Fbyi3n7yI0wANcV8gbj4d3IUVXeVQ5VaYb4KE0MqlIG+Ah65qNbrOqhZ0HpaIYNNlhsAWYE2yhvD83ZN3ikg2MMQaoaNlIeoOGrWcQcGAcLxvPTRBfg/h1Ojn/7xe/H088B/Bw0i8fi6mvtEg2mnx5maHhnOmWhjZXtcim3LScgE/wAVPAhHn3QDXU4sO3rIp/8/k9sZmxyU6FZytoG54AOfuMXh5JGiv7zpjzGmx8G+BBwweOvw8eDwqaZX1lqMv/yuvaYjkWp+440gHLL08DmEB0PDQi7aBewOJ//NkT8c2nXo/HnzvJig+j5I9P4C0cQltY+AhUfp10n0/ZtcVIxPuhO3mBLzqTsYr5xLZvWhafvOdWhgYtjVHi2nG1e5MAhI2WGeB/wUJt/MOlBAB4mR23HwAGfvOpN+LbTx+Kw6dYZYdVg1qMtc5vycyUXgAHwQf4Y52vVociEimRg+yUafxfYruMd0A3PnrT6vgHd23O+QJWkNEhstfyq7J6hfjWTfNejO9ao3DOvbcEHmRRMkg+WXpZgrOFzv2M0vvxIE+IjiMy0S3TM3grHKNH8OqRiXj5dYbMHGbug9OXcAVmuAzlqmeVnVC9PTrIMR/jAB+GYjtDEG7avDpu2NiJjczZsZwy1CVYbxDbFSfyK++TLnOHsaw3SG6cGhaofFP3kLzyegJl+90Xz8VjrxyLVw6dRscuZU49Rk+zSkl6fwE85EpDyINiZ8cnN0ju2LmZOptleN3axfHxXVvjtvVDsSrnJymyuhBZQKr4s8Ot3VLYlO+x+ED+snoImGRHk4vwXq8VsKM4A+hwEKDllROn4iDbOcY+XWDck6DDBF/1Z5gk1cn3lpLPdcuWxua1I3HdxjXZQV8JKCYAsZgPAIPwI1uu7BBahvXGe1PeCmGSVIfCi0p+88YP4c5Vbk3R8c+hFHjl5OoWxEmPBxtT/u3CmnrOw8Ikha+fnYnXz43Fa2dOxZmJsbjM80qdXj3DVKoVw8N4VS2JjXjqbFu+KLbgcaSXVQ5BNKLJ5pgTO+PTDD3iSzneDu0cWmJ+ibAQIXVP4VMXOnvAA3l68Okf4vGQuZegwo9Cv6ecV/xOMFXggTo4qscDQy3+0Y4y1MJamMADoEsBrixL/r1Bdl1RwWTqMtUyqrcCOnhTnvRv5oMnFMrc8Yy3GUqmf2YBHvR6qICH8XqoRQU8LKIxSHmy1iJzGjQkkFkyTY0lv/SnrKM/BB8EgDuk3gYgw+Phrm0b4r7Ny2MDdDmUrQAP0JHAA8lKFzt/8lU1+V6b52AuFC09jpzT4alT3dh38lwcOn0eDwg05JBAC0MWHdcGvR3ag9Q/FRuLtQgAM3kpWFQvNo8siQ+tXxw30DBuhSkd9HUOPZKh7zI0wAMFpIA3wMO7lKQrHreyWXcb4KE0osoY2qi0oSlvGselgWk8HprlNFX6KSNz6pGt1LUAD9Q1G/RsPNmlnGUL3Eu1bu+w/9IoPkyj9N++9DgdOb4yHhPvZrk+vvDYQnb48uK4RpeS9LwAD3birNOCDn534x4VXLr1eFg/Oh4f2bUm/vWv7WFyNL4kG5eGKifo0rgg+MXaN5hm9S0yz+b7pwEeKL/sRqtzMCTguiWlsVG26ozThRhqka+5SqFCDXSUrf92akHBhpQOaM1PMtDWWUwHVOMYwxEj8NDxmfi77zgvyUHGqg6xKttaDHU8HdqCD+bZdhxDPjsspEfe27iuF08BOux8TR2MC7F0cDwe+LmPxCc+uim2O36e9IfoNOn+rat3WohaiWnFcm2BgjPndzVq+Rd4eAng4VvPHI3vPvManh0TjAlfyRAoloC1/NKH1rJEuslf2iw5zEJjmApmY5vcJS5frtyWM97pIzeuYlnUrXEz866MYhlbL1u4sfu1U9Dj6sCDNPkGx4CXYBVOj4K8wv0M7vNOOZUEA/s8zJ+iU+qLM3SspmCtHdVDdFJ/8PqFePbVN1jC+EwcOzvG5KB0FwYdNlO8AuyUpes9+1yxA5/0FUs6cT3Aw26Wff3QDcM5jMRhCJajHiG4t8AO32uBWo4AD36tlE/9pHN3voNSLKhyFt33yumZ+Nu9L8fTB07g4ozhvphvhwPLY5IO+eAQq3LgzZGTLGZnkDopKIPstwB+Fy9hkr+Lx0BQz6GZL8T9H7k57r1hfVy3iuWOyUNZd2i+qbeUCuxQAw9yUEvFqpkdMJV4j4n0y2Crk9edBBR8DRBp32tHGFJynKW3TwP+CjIJslBXaUu6Ik5TdNqmLjP8qQUIOBQ3M0b+5m3r44b1AzGKzPGBFRlVe8FJlyXM+sFzulVk+UlRCdkPrY6lKomUtpS7cqW6PXd3lVsCD/K+LfCgtxW0CDwU76msbcwhMx0HLrdj7xuX4sUT4wD2J+PEmTNZd1u0mR2X0KFCtayr1LE2YMLK4YHYuWkdHisb4rq1nVhLHXSx6lKfINU2l/o8jd7p+DXZMfS9HupcsuflTFnzndbvCnjQG+AxgIevADyczOU0HU7C5JJqiwQ51QI8kwHmyT+LgzR6okBhzAEeyOddW1YCPODVQrSS39rjgbMsTx73BmldCTxo9aj3fFXKX69M+96Z9HDDe+g/VaDgwQyAjsN8BB6YvUAcIieXfBrd8tjJ6TLUgjmxWuiYBG2zveBdPGuWpCfzq02V5WPeEPTUIdZTang11OKurSw9vXlZbITKGnho0ZY4TLUOkmfItEuGyoV5/rWdFPA8S95fQcE+cfRcvHLmIp5HeFItXYn+EZ5VNKUPO88JczgsHjcsMY2njrLPkpIkdA7wrBU3rx6Jj65bHDdRXwXNZE2yJ1N65z8N8ADnU61UDVXpDF7BUIWlL9SC5KW5t6o7b9KIXrciaABagTWSWnHu3Ex86xsH4kt/+mz87VdeZ5bmDSmdxlbhZQeCmAYrUbOcZrOcJloBaairfyV97CrJ416RNWVGuS7BeDzjKYdKYHWoVFVn7Dj2zx5iujh6y3MMeFpIjImB+PajF+JLX34mHnn8ZRDTtUR1/luMJZS3ZqoTwCmn7uc0GKnUS12zQWk8HjRRLaHSxJZGNhku06tQyu3Kq573lyErraUBS5OSjSd+fiTts65S4dfQLPZMU+BBjweBhz/+iyfi0aeOxMHDXBwYzfKyzDoYvjb5trmWvyMmy6hJzyrgAR1Xl3snzuFaKvCwKv6vX/t4Ag82wn4xqBHy1Hx8LcCpNOko83gLPxhxfoNvaDwe3kePB4szi1UBmi3fUvuVoblBbdbr1Go9oms0YmcAFKZoB+3InURoH3/+VPz9d/bG0y+xasOyrVwfZXQGLSpu622+pmqzq6v84p1GMAmnMc/l6QnnlHEmB7pJE6fjzjtuZOLFbXHHjax8gU3JcFa+VGoYo19JqHQATHD+g/l384Oae6uq2uAV6uTDz5+Obz7xCiDLWEwPrmIoNF+p0jaRl9TKPK5ToG6n5S7/TEFvCHQwHShdt5fyhfUjN62MX7hnewIPI/RY7bC26cQX4KGUTeayMr5JiRhsdH5SB3BmSNb24nilime7UpexZBmqfGncFk3lReknTTp2Yzx6nPJ86tUz8dgLh+LF10/F+Qm8rjpLKPNFpObcMnbCLVuTs3x5j54ajEXujjOZ7ehwrlRy566NccuWTmzBKnYscgIrLHVnZ87nCm12JCvgQVK8vEDB1ln9ehzD/9nDF+Nbz7Ms6hvn4xKT9rWHVtChc0gbHWvKQkB3inHXujvbiWs7tMgJJ+moDzJpxTTDLWam8NSZOhf33LI57rlhXdy2dWnmU5BFzs93UE/7517tnKWbxUhbpV1bV2l5yM2LbGeg/8WTM7H3VcryjaMMnZmICRGJziLkE1AwO2GUTNeO7DjFeJniYThQ93KsHV0UN25eE7duXxc3rh2KtVUHB6iCL6yWI8VF3c6Xpazz4qr8ajO7OiUOxNUX60hXY9DsA727vZUskM90tTc1GsC0wzmeBEg4cepMfP/EVHzjlZNxrLsMLwX5RGK0lwngUoZd9RYyaj0coMe7CCBsMZ44N2xYDfgAALFxKFYDODkfwKDkAlApq6XNRg5UYsr6D6O/R/U7OCBPqRtJf4ZOpi17P/Dg5JKTzvHwVsBD2hWWCe/G26UX5Lu6ybwD8I4Ot8scD3OAB96tUeEHDYEH/k3HwzLDA8dVgtpDxTLyCmnXgJev7H9tfZrthidILxvQakowAwqQs3Zc4B1PsarF9wF0n33tGBO7UmbDI8RFTqXJ57VRnXjXZUl4Pssl72mnKYPqEO+TR8EHOud3b9kQDwg8wBd166B6x2cyPru+kKy7gv6+2+/6kNqSw2aOkpe9zBH0LMPWjgI6TKMVBxaNoH/8oES2UqlS8pSfQINtxTjDoQZY1Sk35HPq4mnmzZmKjYsH4qPrV8VteOysqbyt4EJ/EbwjuhvgAZFSrKyM1oSiaq/gZZ+ge6euHB7PvVXd6Sm/OoLXVVJWhiKUvrUBHlAuVGQruS4/bb7g+GUiuVhVUBvlNsrYCjM93QAPDfCAuMxHKFWypKQM/pjN8aAWKRqL5pCDbEw0I+jc53pe2cq5erYgp3qtBCd1u0xlOoyh+Md/+UR87/HXY/9rfIFbxNdjGuE2xl3bFQTUVFY6jgrwYMeG99QeD9wqU1PRoQN4WLv8UnyYOR7+9efvjy1ry0R21uk04nj5FAbYNA2Zk2mVkZd8iaCuX1Xf5pve+U8DPFjm7zPwkFpcCSVUxqoSU1c793XAJkxDPb+uVTH0ephi+MQ07sd+xXmdr+Nfe+SVeOTJF+PVNy7GAMDDVIuv4szQ7TAjAaw208m3naVNs9MX+F4Neb5WTTNJRGdgGIlj2MX4mbjxunVxz+6Ncd+eUb5CRqzQCMNgdn12PrnnV2es75rEed1LYYIOVaV0Z73czxK3e1+5EH/78HMJPMTitXTg7KyRLzpEHFgByWnhnkMl5KnXndSt7ZwWgi7ymXrs6hUfBXj4zMe30qnD/VvDkUd7czyUFBNUSCOb2lnSg6IEHoqO4WLGKaCH1FeE57t9fxUKWTWZXCQ97aqM7k1AJMrjAoXzyvEJQJaD8egPDjEfAGACnh2dpWugHbnVFRjjXX3kXAhOMOqn0fzCSnqTl8/F4sHpBB9uZr6Hj+0ejQ8x7IIubnbohuzI6flQ0yOdCTxUtNbkV2TP506QTODhED7538RzZS9DLF47w1ADOzoDSxCtpTFAp6zttITMw9Glo5b84ZmuQ9ucTJR5PbJD5gSpDJnpAJTt3LAs7r1xffwcE0365dG89nF+3rJQW6jubTUScIL/VVNQeOqL2SbZzkD3i+R178GjAEkH48RFgIXBRdEZHiVvQ9RDwAf2bQCILg90ccXXTT07b0yCOtC9GKuXD9IxXx533rgprl81GKupizlRH3UxxSfrcJGBZFZVfrWZPVucylt9Vu+vwporbmlj1lvOLUO+FR1BBGVOUOLChQvxysFD8fVjk/H4KVz5F/ONW3uVZXDd8wOttpnKLnnEntDbqgPA0p4ij0uYX2bl8rhj8/q4nlV21oCSMRKKe7xJevJjQXlfFn5PZ16F/ndziXplxzjrEp1OSmIWeKgml/yRwAP0JnkCD9Iuszyww53AA5NLIuN3bxm5wuOhvPtagAdhz15rYZkm8MBrlD3fyUu1THx16v5yKa+7QgbWRt5hrSJoAuzkuScBHh5lIuJnDgk8UG7IqMO5LDIbjPR4YOWRlsuS5Mc29YibLySe5Z22YgU8XD6fwMOnNy2NTTBEmXVeqwI8WJd5rApJqecyru96fX8+9noenUCWD6D6vn/oZOxnKNAFQL92DrEQkiUobtlGCngWLxvldhKAojOwlHZmmLrKcI2LZ7I9GYEXH16/Oj6ycnFsQ2aLV0cphpLgO/v9gAEPSgBf6fA7nMDa+IPffzy+/JfPxlOPOdvvZoBFC60gWqX0Cibmccp+8sCjctZyLJqSOnM5lq08HTtu6MTv/ftfjbvuGYrFfuLglk+6LRjwIE3ZueYdVBX/RPR969k+j4e/qT0eKHWpz5lGq+dMIqthpYysWNQmY5E0xjsTpbRbNGSto7Ft23D89u/+Utx9z0hs3UFjbd4QLBP1iw8XCNIiBZ7kBS/OazAPNlaXKMdjrOfyhS98Nx58cD/nuqMxThzjLkGFzKPGI5cxDvqBh6zvJJLAA+kl8MC4x61bR+NT918Xv/LZW+P23TyzIFnIHJgLNvgGZR6VV8l7Nyf08qtyxCnK8gv/6cn4+28cjv0HTvPFQqWGU50KLcucfSZTeC9vcnIxMmmMcm45+kXgQowyyGr3rqH47d/6VNx6SyeWUOOV5jSokp5Ck5ckStpmgzJmqK96RvwqA9JbHXLVozoetEkINF3V4+EkHg+P6PHwLB4PL/1Qj4finVOoSMVNOadi513y44Pl8UBj4ZdS6uUpZuU5hLz+4R89Go8+cSguji/jKx1osXJa1ceWgilML5c95CiDjZV5y7xyg/o2OXaa2fQ78emPs6zdp2+JHZv96koUDBMfzk5CdVQkjJNeII2qhHqXOPB99WYMXQmz0fe7qTRqxEhYJZ9yPJ+gbCehW8PYOR7++C8ej+98n+U0D03F8JL1MUAnL/UOdCsHBXjwaT0pSDtl1XqbOeA6jTRbZ+Yck0tejNtvHo1/++v358RvS2SPVFI5lbdpviR3SUPd1aYiCDrkSgJJm3HnL1gKczwevv5i7HtlAoMf10ryJZ/9El7yR+TUi15lS0PDfBW943AT6/hAmy900yfitp3r4vOfuzNu2tiO9bQhWSfnj/ReSjm+OEmzLJKTshJaLFvklTfL14vo1xeQ1z9gotB9B/2SjaGf7UsNPKgL5EjJX5GL6oz08ksdd827kzBOIa834sJ+/54t8Wk65TtGKKuUeyP5bmWJYB1AzqTEmmNXyo5KHTXjZDuVR9XPXG1T30lRMTcOc8ieBju+wkz6/RqXdOzFePlYN/7X3z8dz7xyPI6dxpF2aBV5ZYyuvLFMkzRky6EVvDe5RFpd9G+9fFsCD+pX5nvYsHZZ3LVzdXz2gc2xAYNKeW3hGj2TnQbqgWOt8wtrTeX87W2O/Vra5suS7JRW51IUeHjq4OV46LvPMvzpcrSXrs/JM7VNBgahJ/nfR0c2fJaH+Qd0dLNO0lFznpYWq3p89MaV8b//7DY6PbixCzzw3gHLhTi+163wHwJMP9O0nJSXcp9dxsFY7Lview31vpzlbxUtZbUqT1NSZi+S/nEGIT/x0ql4+LmDDLM4FpemBtMVeGjZqpzqwxUeXL1hYIjF6QAepnDTsq6qn/IL3YRzWLBiCUbx2hWdeOCunfGzt7EGPbTo9eA8AilLPZK4mGVpIfcuLsiBwIPDSF5Gv/7lN5+Kl5jc7dT4IEATssycHJ3BxTG0hHxNXEDWmMwNBaLO1UtlQpfo4eVcY34LztW74bwVY6eYK6Ab99y0IX75E9cl8KDTdCm3+c1GKbpSr2WV78i6RbthUaZQcJG+XE4meYxy+dq+s/HE/sNxkCEW09h1g8tGYnjZypiknKeNCKDSxpNlmhlFpxg/Tl+dfKo7J2Ls7PFcJnT1slbcfeuOuGP7KmbTbwensSS9eMyflNTUeN4XvNwLUk+oduWk/iXinLjVdeIqWz6i6NvpMoHSspW26xwV9sCxC/HkSwfj8SMX4vg05QNI1qI822xyyefTdsq99dCyYwPMZHARX90nYiVeLjvxfLh965q4YVUrGEgVi4tqrmxDGUxIQ7Eczvuvdbiqk4KTUJhfyb9/nqEWzxyI4+nxgP5guFOCgNkeShebvGFLFsms1BUVhQqJ6U7RKSffCTzkHA9LYg1Rixxxnzipj71iEnmDy/lXpZWvsd2Sq4S0t/Kt5eVVI1N0VLmeJWB07vlnm2RkrQwnlbmEGO5Nj4exyuMBHZ8eD7STVfaSHnTKrMeD9JZ01F0JXpJuTraNt1LxeFgfD2xZmh4PeiENmD+HaGRfJkngx/wRoC0BH4/nM2Ti2AKw4jXofQEXlkf3vx7HIXFSoNPJbBVHdL/Z6egiKzTDsKf0CKQc9WZq46Ekz6bRtxMX8bYCJFxEe3gHMrtnzYq4aQUflHjHfHhbve/AQ/LMnxQmayEihKBM9oCHfQAP50Hvt8AkGGSjmYaFAle2TIPjsudydSc7Bym0Cwc8lLcVSirxKm/vJ0bKzB9C6V8Zj1o8Hr75jTLUoh94IAYKzRpZN//WDfhSVfQfBjxs3w7w8Du/HHfduyK2bq+AB6UNxLBTI5Rv5lSdjXnbm30NrEv0co5hNAo8PPTQAeZ8EHjAXdsNuorHAwYzme6IHDu2XAVG0GVKzrrOrHuBh6mpM7EF4OH+T+6I//Nzuz9QwMPv/+FT8XdfL8BDZxA3LkfzkRfty2zQLFIlQDnIvNcNlrJrZ18jf4KKfz5GRwQeKMvfeiB2CzzQaMmFawEeSnOZkf0hWE94eWGnElgfKlXVGTuOC2KPEvJrn7f8qTrUb/SGWuyLRwEe2gy1mMb4b9M42dBq9PoVrh5u4dPZSfcg0yny/MEBHsybRJbuU5eOzmmsRoGH//xHjxXgYYIGGOAhOzM2wuSDkmKXD+aZuct0krNw1waG+uvWDzz84gM7YzvAg13CK4EH0y1lkalVP6Xcshj6L3NcX0sqPLGOw/+SnzqyApdCR3xL3YEOfEHm6HXcuv/rF5+Ih584GofeoO4Nr6HMlUN4kWkRCX2TZaXONe3MdwHbzH/RuK6hzaoWyy+zUsCq+M1/8YnYwuSSpXEiLdLQhPC/pKGs+Gc3VdryhjfnLUgpbW68wbKL337yZHz56y8l8NDpAx7swGjsW/IJANbgg26IXFUvOfNzNwEmgIcWnZ2pY3EbqwT82mf3xM2b2owtr+rkvFE+m9DbBh7+RODB3FTAg7qUfOSW5ZeSwrl7ZIUyzq832c5QkpY1qyFMCzywhN99d26KB+5cCfBAHnmklJIyVo5S/ivgwbfWwEO+0igZzfh18LiWxV4qXKvjIHk0Aroop5cMOtKJTKeRScvyBcryiw/ui2f2s3zmGb4oql/bZcxqkX0iZXtBGrk3i6bNVpWhALaTTs7g6r1yZFHcdfOK+LV/vCM20gkqyzEa17dBvB3VBewASJrNedYsjl214yXq5Pd+cCa+/thL8YbrLlInu9akKh+ylKiFvtx5xUBZWj+zo6bhTGnY4ExexONhND533w1xHeXomN1h35tvpSyIknSYavLM1K3VczWRb8k3lZf7wjeHjFDo6yVlLF6Quoe93ivMyRcH+EL+P772bLxw+FycuuyqJa5GshivK7/0U+eYPX2aTQYlLeoayiKrKGS7+kOFUOCufiHuuRV5vX1T3LKpk3MEqHt6Hg+ZJdOBwKSxaJ9kvvHmOQg8uErAiwAPf/H1p5nnYTLO0VFtsYRmDlVAWybo6ZdhysxZ4v0wJLjEP8Y/HVk9PZwjIKsL9YE6uX7pTNzNHA+f+fjmcHCjHfNSm+Y5AyRXtwHaAvmximulaiEXiFnWScyDc3RkXiaz//N7r8bLJ8Zi3I4NgJ2rVzjnwUx+pYbQ/ACIJ6su9pln8+mLmJBxjO+0lOci9OvW1Yvjrl3b4t5tS2IVeVwuQwyWm5XFgytlsKrrRpsNRMpy94rPGep9OetPZzrrF60RaSkpZhLuM8wLaITTQ/x8e9+ReO6Nc6xiMR5TdOZyor4sATKifkny6nfYhlQb7YkgqmW9GI+/tUuH4sPXbY7bNw3EddTH5fBMYlsq2ZqoBdQ7viM/slZ1Sw4LlD1yrht/jYfOceZ4mHTomvKaFie0JX+IJK8zn5LqgeXJ3vbFTd3NBwYnrx1hwhwnl/yFbUt7wEPyxLSUB5+v03J/RVBrFO1otCpiPuP1EqrSqu9y0Xv1kyVRNb5F4VCLvZeZ4wGPh3051II7gHz2xewbSVaCArRppf3gAhcz6/k6y1ih1ZpB/wA8tBhqcdeWNXH/lmU9j4chH7Azk2XIuwsZqXFThDOt8lPd6rvyQw7N2o8IF0jwILrkGcryO8+/Ehcd6gTooG61Llp3bRMlzTZAj4dSrTxWx1KpKXM9NrrVClMthlzctn407lq7PHbiqaO31XyAnh8I4CELNyu9+JsGIUgcaGnxeHgugYchgAe/EMwCD6UUFL5SuKkyuMi5QpR7OKyw4tK2UB4PhYryW1NQ0zB7T6lx05hSKOd6PPw5czwIPHQ6G7hnHhUCc1BXLZ9E6aeUmCXSSMVGnCs8HhJ4+F2Ah3v6gYfy+o7P819ocW/IC+VwHn8zt/wk8IDR+IX/UICH9HjIxtWx4pgV2XDAFxSwQy0UfA3Q5Fje40rO9EtVwS0vgQdcuO7/5Pb4p5+7LYGH7NTPI+0lqaSAQ/fIUZZGza26YSmdMEtDj4ff/8On4+/0eNh/ii8b/cADijwVmqnVwEMxEHk0lVup+Ho84HaKC2LxeBB4+HTxeKiAhzTD05AuNPm8RSiVhlKaUmTov2pd4BIRvFsdKlV98aAuDSA6G28CHmYwhjvM8XAx/iI9Hl4GeMAw7pvjoQAPRX7nzvHAK3xP1nFlGgpooDrtydh982D8q3/+PkwuKT0qnmRYqZdzgQfmP9h7MC4KPLRXoKyJUxn2GhpFv5hX81a4XvJYeG/n6a2AB9V7u8/jwSes63PN/TrdN1/1jiHfavEZqrriYepEL5UTfzkpMjsFuEK3LQ7zdfX/+ZO98cgTx+K1IxjDfEH2C7aeH12MJZ8t6HwptzQsTEfZw3DofwcjKPuAB5bTBHgorsB27NHnpFarHsvevBbqlOH5D+Y0gQcm6/v23lMAD3g8vDoBuAKAhHz7fstmWqMwZcCyIk8Q6ZAVQSZ1Sl7Dm0wDbKB1MYGH3Tevjc9/9q4PJPDwHMCDHdV0H014y7KTG0XCCs8tWa5r1GcelS8O7KxWwMP11zFTNxMvfnoPwAOz9r0JeLD48mHlJbspnAk9kE7fq0opZ+TyTu/n5vOE7FhwX75z3Q5AC/6DCXmT67hqc6RV4IoP//UrL8UzBy7G6TOX6dhg/LM6QE/u++Tfp0sefbebtdUylkKG+/BVbmTFcNx107L4jV/cHpvoANjJk7qSgfJEfSUvz+dPGjw1bYCTHE4hcC9SJ7+1jzke9r4aR47jZj9sncTMM77GLHnJsoLTvZD5LmnVBrN769sMAPadN43Er9x3UwJIIwIPPugXASMQfDLrY5VO0UJ5JfnRKzEjvmUwPdMqzxktKZRkA/T7N0nBMsIrXiKfX3zw2Thw/DLeV8uoh87PwVhsJ+hLQJBxyZSR2c78JuhA2dmGcsWr6daOzdCaOMM8Fqvivts2xUevH84hM+qeYmVXVlLmlbjyRULdsg014vyGcZIWePgBwMOXvrEPL5ZJhpYsQb8uSbtG8gVR0gsVurRt1Dk12FuWqgOkobOaE71J7tiZBB723LAhPnPvuvTscBJG2LFAgYSpm9oCdoiL1ME5eGbnZQL6J+mDnURw9wGW/Y+HD7LCAyWuzSCH5bfylHKoEHAvG0rLkMvZNnKJuAJM8mIAAGkV05ncdev2uO+GRbGeeyM8mkXHM6YiKyoxLSecZwlnpLzLuUypN+/XMkkiVTBmRqnOrQ5iJKVVU7bwtqKT6bAgvQN/QF/koafPxqunpuPSxYt05LBTVRjZtzBdHs7XV/taryXVtH+8QJ4M4L2yDOTvtus3xJ18gNhF53y1nTz+HEolnw1q0oUKWjrlz5og0XhbsT1MnfyrZw7j8TAA8AA9Q8B3drQLSRkvbYC6ABI8qAAEABVm0iQ1hIMOq+DxikWduHvTaPzjCngob+J+6j7yCu+y2ErKb/7lgUKnt2pKS7SS1lzSSix/faqUufGSXIRH8XyyD3gYp8Dbw67yoAenL5OewndT8J25y/xzXBNrgnbYaUdaY2fjrq2r476tZY6H4m3Fo+rqWib7k+GWgUsZ6n11OnfXz/e5d958VsU9D/n7kbWn8Hj4zr6XYxzwKJbgrUt/K8HNZL+yaD4ljPpdgUYFkCjXs4jgh9e650/GrvUr4q41S+MWvMvgWM6H9G51z48R8LAVBiofVJ3seBf+K2SlJGsFI0O95B5GplB9AIEH6DqLgDi5ZAM8UKYN8IASaIAHnJpKdbZ6c7xwwQYkFQWvsDm2+e/3ePjJBB6caEiPh3cDPLjiRX/hMGq7Ah5Wx2/+y3tiCysFvBXwIAyRCjoL14Zu/gPtawM8/MQCD5cAHvA+edfAAx4PNy19E/CgHlDtCKQsWCiWHclrMQIlYwv8pAAPdQcxuWf23MoPHTmGWZD3F0/MxBcfejoOsTLAON/vp/R4oCNnJ9xO6Qx+wV06f7Kp2Hd6O1wJPKC1/Vos8HDjaNzHfB0fvXFxjPB8D3jgzVmaVZtSW4ipuxYQeHCyvhcSeHgO4GHiGoAH2p/srEJZom5IoV/JPVYYE3iI2KPHw3sGPNj9ojQhoXTlsKj7gAfmAo1jeCU/hTfrV544EG9cAHRI4AGS7XTZQWPLjwx2dLTDOct7AkiUk+d6ndkpak+fj5WLu7Hn1m1xH/XSyfpG6/4bj9dylR1Jkk6+pFxVd+qOXl4zgpuhLnUSqYJv7t2uDm0z2ghc274FQNAkeRmHbkZexnO46D/01Kk4wIQWY5cZAjUHeDA10s7s8OO+BzwUQgXzDE6muWRgOnbj8bAH4MEJ+wQekr+UdfKbRxyKWGUwn5vPn/K2Xolm0gIPjwA8fPmZN8pQi3cMPABAUHffFfBQWJbZl0pPPZGtdaiPy736as2xkrdeMh5QpO8ceKjelvJFWj8CeHDgjcPEEHSP8l8S+mmt6a/33H5z6H/gzXdnr/TF+9HAA7wh/rUDD7Du/IkEHvYAPOxqgAeVTQkN8EBj3TfHQ+PxUEvGu91bo+utNASeFWVhM+VWvoYqjY3HQ0G886sxSrfxeKCxxFi+2lCL99PjoQEe7Ipo+DYeD2kXwYdsQ9n/eHg8NMBDdnRoczL0emKUYnX8fno82BbaRmZXq24+JZSLDPGPo4AFP6Cz+qdffZLhXpNcY/wxfhh2SB0KY5ubnXC+ml4r8HDH9SPxyd0bEkga4Qv9LPCQNb1qtJVyCTJASAM8FFZc9bd4g/RiAABAAElEQVQuOLqpsio1xCzwMEnH+BIFfNhJJY+Mxd/vez2OXnIIrS0b3LXTpSyyXQk8JOvpmOu9XDzK6G7TUWuzcseKocm4c9fWuH/XSGwmjZV1/4131XLVE3deUeyz6o7vNPEs45p+49SlnhLphYzVEwXOzaMYVlu6fAH7KYEHYjq/wzOMD3qQ1Z9eP48XxASTuL4d4AFe+UEpvygz9GmYOWZ2XbcJF/1F8eFRVgoQeJBP6N8c5go9nQZ4yEJS7ixJT7K487gqP47LvepixvK4SKv3UiI8QEQa4AG+IOQN8KCMEJQLmVGU1A8batF4PDRDLZqhFs1QC7XGfASUTmph0/I7QOPxcK1DLRqPh2aoRZp1GMzv/VCLBnj4sQMeql6DwMMR3fOPdOPP/+ZxvK5waR9YieYtwIMyVVbnKSDKtQIPt+9YHj976/q4Z+cKlkZldnk0ul9dM73skKrjG+BBLlxbqNvGAjzYMjpXk1MCO1Z8Cp46nOQgE2c+7pKhLx6L42PAPdcMPPCRAo+HMmm4ZU76k2diaWc8PrpzS9y/e3VsoxxXUYTZB3+vgAcBEH3IAR6cJNMhiadYdeIphpM8+OShOHJ5iKG+DIF5G8CD4EqLiV6dLHRmnFU8WOXiFubQuZt5Ae5c24m1vDN7yPCjq8zC5zKvRn9X+9pK7VpiaemUPzvz5R2NxwN8gO9XH2pRlUOtRxKYeuuhFo3Hw7VIofpZKO59DL68AR6aOR6aoRYqvmaoRTPUol8Z2+j5RfrqIZvE+qYNYhU0sQ1z72uIT/PXDLXwG1jj8VAMXvmQ8tJ4PGR9EYC03jRDLYr+KLyAIbPqhZMrAzeJqBxV35/nejykIioeD4cZL//sGwIP348jZ1kydXAVNn9OB4kdCPen7JSi9diuFXi4bfuy+NldLI96y2isZOWOxUmOvdZCfSFd6upMSOzsF/Arc/Nuzp3j4SdjqEUB4/UG6DL8oAXgwExA8I3519idh737mQD10UPn43uvnIoTE4wnv1bgwXl06Gi3mNdA74ic72L8NBNMXoyP3Lw5PnXbhtjBfCSr+UKbQzLeA+ABxwY6Q7MeDzXwcJJ1bh8/MRUP7j1AHhczHwkDJ1xhJgVUOWJT2t0pb+5Jh5/cBB46g0ySC2Axw5wArYnzsXP7hrh728q4e0Mn1gk8KIo8W4AHPB7S88eE5j80wEOZXPLa53ioyiF1CeXRAA/NHA9WyzSaUjbqZoUTlYgawMZFxfBBnFwSupo5HhxTp4JGHdLINJNLNsBDAzyo1eqgYmuAh5ob17oXYmkml3SiXhtCuVF3B5UnN65rHHPYAA9zJ5dsgIcCRNkq19LiXpF566CcGeVHAw+vMy/AMwAPX/qbRwAe+LI8tBozDeAhRdJJFV3NAdjHSQ29VoSUa289x8NuJrD7mVvWxr23rIqVdFgFHhhIBU0lB5wSTKkcFWLt7c1/+PEHHuQR38TpEGdHGDZ1sdGc+mDAyb8BHlwhk9UX49XjY/HIwTPx8Ktn3h7wgO7JPnqWqV4UvHP8FCuunI87AB4euG1jXMfEi2u4/t4CD9qgZAz6auDhxPh0PHZsMr6ydz/eD0tTglqszvJ2gYdcQenymVyC8ebt6wEeVsW9rGwxF3jw3QIPiUTMv3CSYgM8NMBDM8dDqjjqmrpO5ZbzVzPW6aqrWjRDLZqhFs1Qi2aoxXy1xygdFU9a1eXrTjO5pK7zP3pVi2aoRTPUIisObXYz1OId6KM0eDR60vD5yZ9cMnVs8Xh4XY+Hw3o8PJoeD3OAB/jiKgdvG3jYuiQ+IfCwa3WsEnig/9YWcGuAh3cinNkuOuRlWoAAkMHWUexykOEHNfDgUIv9JybiYYCH77389jweUu6RCb0d6nkeBB6Gps+xJDPAw4c2xQ2LmXjRIrQPLvjBLmGk2WpT1Z/qTlXWpU7Vkcx+DTeZUAkpjkapQnp1cOwoi1yZoQ94OJ7AwwQTaO6P09Muv8jTTvr5NjweXF40gRw8HuLy2bhpG94521fHxwQekHl1qJlziXVpayaXhAkwAs6khvREvtShPu4rwrxVrvtMKXPPZa3C08zxAF+aOR5qEarUhMLRAA/M6twsp4lWz8mGFIlUyOyb5TQ7saRZTnNWaczLERJmByBbqwZ4eDvLaTbAQwM8ZMVpgId3ponUO2lSu/8pWNWi6ik4x0MOtXCOh68KPDCJH0Mtugy1yCiwQ4+HMv6/qOfsitH7/KEeDxXw8DGAh8bj4Z2J5OxTFALeDk7w6Z9r6bqfYa6DIZdBrzweLhFt/6mpBB6++9LJOD5+bXM85BAL+u3ZpSSNfuBhcPpsfPjmLfHp2wvwsIrXJ56w0MCDtREBTGiCfNNDy8klJ5DKnseDwMNMAR5mciwQD6Q3tZLLk+4k1r1pVPXb4bPpIUFeZ8bPzQIPeDwIPKxNTsCNBCB8HG+fHohCMvMctHTKn2+S2LKcZrOqBdxIlMuSo7DkjTvL2JBl4t6CbOZ4aJbTVEBSNmpkswhMVqpmqAWsUalRYdg6tWLMGmVtMlQVq5zM26+v1IPuEgshHzvejS/8h+/GQw8diEtjzH5sA8Ya7VbwZqgFRQOfyrrGzVCLZqhFfxW0bjZDLfo5ci3HDi5ohlo0Qy16DR9tXP7p2o1XZXdqIkZWNMtpWpdsp9Nyyk+D2SJzre+LYd6vIrK7eiCVNLt+9FCLN6rJJf/socfijTPO8VAml9Swl4Su4/9Jy5U5sl004WsAHn5ml0MtKo+HJOdKjwc709xgs4PhjAULEX4ihlpk5xv+l+aH5U7xgmPujeG2U+cN5FALgYeDlN/DB8/Gt188fs2TSyaoNCDvgTNYtjGHetlPnzgdg1Nn4sNMLvnzt2+O6xcxueR7BDxMaagyvEfbI0EDlnJ1OU1X78g5Ho5PFY8HgAfrhuQa/1qAB2U3J5hkH8zv0AJ8uGnrupzj4V7meEjgAZlMkAfBF3RYyPllGuChGWrRDLWwnrv5Q0PTDLVoPB5AJRqPh6nzMbpiKHbvGo7f/q1Px623NB4PaIh5DigdFY/Ghl90sukfitNYVIeOduM//9ET8ejeg3FxYhljkFdgPGi4uuoOZgeApuaBhkcBxDMR7plemiXEJwYdnWY5TYbOyS1YJJc8Sz5VZ5zMe2iAB2ZRjwZ4KIZFGhdKYNbHBnigutnRskISCnc892jhgQdXtXgO/fpnX52/VS16czzsWhWr8Ax0Oc1c1YI8alUa/IJflun0Y4eTGjbAQzLmTT/IQRrk3BD8YZsGeJieZFpiPxhpn+EFcYmjg6e78cihs/GtF659VQvbxYGhQUSQrjYTLtoJymY4gQc8HgQe7tgU1zFkpgAP0MMzthqWZCWm5SSlt7qT8myMIsdlzylPecWWpw4pEeViRptkxQncahlKQgzlBODB5TQFHk4hr0+cmE7g4VR3WbZlWgtZf2z8a3QmiePHvcBNTYeAA+8WfGhPXYg24EMCD1tH4u71s8BDDmshnw6zUFctVJD28pcaMV/TrGoBvynHxuNBWaW+ZBUq++75E7Fr/YrYs2Zp7FrRiWXEWAq7Go8HK2nW01rBKERecg8jUzFcimWjp2PHDe34vX//q3HXPcOxWO75jybzSRulgjTK/CsC8fpDrbP6r3lcU5AJz4mUJUkMqz1KiUl6/MLdTC451+OhBV/8EtHFMKqHWci5Do2CPO12++d42BH/9HO74/bdA7ZLCxDqMnNfVcikwlfZtXFjYiTp5ejUuZn4/T98Ov7+G4fj1f2nYmBwhHtMRkQt7iBj0mgblB1cG13lLScR4hqyoBSq+NqtiehOXojRkcHYfQvAw/8N8LDzAwI8nOzEtx+5GH/xV8/GI4+9HO2hNbjJLodyvlJhnLh3HhK3LlupgzAnA3y0rskH4pJJhkpOxu6bB+Nf/fOfidt2Lo31a9r51aFXnL2DOo353ENPWjymWerltc3xQB5Sp0Cce3f+GHpWEVco8B8H4OHRvcfj0BvI3dAq6LXe8UUYV9ssp8xXKbcaUNHVNvVqnWey3Y4LsXr5Zcbnro7f/Jf3xJbV7TT+neCNecLZlO1kVZ7JsfpMts13sGbq8XAYT6vvPHkyvvz1l2LfqxPRGR6hiKSGt1M+fl11XK3Epcsve8c22yboiZXXyK91fCAuRmvqeNx289r4tc/uiZs3tWPDsoX6bopEOts5QRdzSUyOpax5pLwWvXORyfpeoCP3B3/ySDx30O9miyjDawAeSCHbK3WQ+Vb3TKNfx87EDddviPs/yljrPaOxYwV5rMquV26SIBfhkXpaamw7NZk5yVseJs35a/xyVm56TqAs8rrv54FpMqpu8H3l+lAmJ9z3/Ilu/Le/fimeOfgOl9O0jDXqAQ+701f3ePCtpYvj/ip2gBHmI1igyY/Ck0n0yBTy+CIduW/tOx3f3PtqHDlO1254FQLAagHGr+RByuSV/yXkGYfwkrIw3bRp5P/k+bjzppH4lftuih0jrRihM4e/IVGJBz8MhQLPy7NIfqZfrpfXZEwvvGXw+Xxzr/iTeyXJ8hT3czlNXPYTeHjoCZbTnIzJzmgOtZAe/xIcSAqQqiTClKyflB00tipgt+t4ZfMxcTZuc3JJVrW495aVsRLgAY5BDFqgkiuTUdZmuOYzHTqVHzzgoTCr5fwB5L87zbKNdFazqRk7HeuXzsSeGzbEZ+5dF2ixWA4/363xL1uuHgot0mH91uNhBo+HQfSKHg9dXAMEHg6dAXg4eC6Bh2NjTBDqqhbQ5dwNtTxZZnkxM0IZIucDQwPmkGE16lrKXDUA8DDEUIuP7Nwan76DySUpxwQeiKlC6KmVmjReIX09heM7fXleqyNxyjXPIC5//ek96gk3JwAe1PUDREkbhjagBzwgrwIPDz5xIArwYPWRL0TOPJGaexPNfFeJ9nSb7zXfAA/o1zZLat7MHA93bV0Rd6/rBx6my3AidVSh0ITmPairy1+pb77gpwF4OE8x7L3cje+fGovnXz8WY9No+GG60cxb4hKxlmENPNRMT/1jWShAfWVrGxJ4zrWZs2PP1tVx39ZlsZH7i4kqNNdSV9fyWD1eZLCkzKUM9b46nbvrf2DunblnffHM437021Msq/OdfS/H+CCacMkIE/U6xwil3szxMMs7+VYaGBtQC3QeJ5e0wif4UICHbde3AB7+GcDDoliC0Vjqt0voSI+U1MrE875whYT0lXVfJJOr7/BAfZgxPHGz2iuUDfBwtaEWrRYGAQ1bkQfYRaMl17IB5mB6+gLbmdi6dWV86r7r4lc+uys+dOsHD3jYf+A0jesotAM82ImjzHNLsTBPRf3bqeAG+dXgUvHNHWpxKx4Pv/NbD8QuPR5YJqzAL3SplGll1YcNfeJWrthMG+SewavE95RD71aHXPWojgdlNphdOhE0lL3gRF1cPyLw8OjF+NKX98Ujj7+Ezn4bwAPvTd2t8ZgGIMBDS+BhYBZ4oMOajX/R+JBcctOjY14PyLPvyVeUevmjgIcCNsEfDQ3Liz+1lv/ui3lUpUlmNbI+OB4PlrrLaQ6moXGYtcn/658+iVdHAR5aA6PwGz6kYU9uMlv8KBtcKzXRAlCOavnzHLtw5kKsSuBh1QcGeJiA7B7w8I0X47lXkbdhPFcoc3PVxsCfBR40DKsOF7JpObqeu/qom3kdQFYxGqeOIa99wAPgdV8tSV7M189CAw+lLkIthi6sYg9XMIyn6eTccP3GuP/OzfHzAA/bV7TJe8ag3N0TrzzAIVLBpnTMC/BgOhj9pe/FSxiOp9Ty0TGeA0T67w++GM8evBxnzl5m0rslvJtudE1bvTcvGXgo6ZU262KlLwE8u1PjMTq6JO6+eVn8xme2xUZ0a82PUofziTqh+d9XdBVGXuMcDz7jJqGWQW6cGzLv3vNcuTXPlM0HBngodE6gD/V42MccD8XjoQYehi0h6GcTTJD+zKLXKLfsjJlRIUWkDT7YTGlMtwQedrCc5i1M2LcL4OGK5TTlRAkVb/KEa1mvq1vzuHsnQy0sM/OiPlIvSbIATNo93OteOgnwEHHXjRvilwAehPoXHHjAbpniy7+OIXNXtQBOBgiws3qIOToeroCH45cBHjoAD1U5FsCBQkpZLLq1LuMWz3s/qwHxHXLh5JKLAHc/gsfDA7dvmAUeLD5Yoh7wkMdkVznJg+pOr17UEdwbaqvc+l+C6eSj1bkpSIIdyoG0OWZXtXByycePT8ZXnzoUZ2b4mMTDAqQpoJxotyUxvp8tyVA4a9r0rtGWUobxdqgnl3Q5zTLUQiL0KsFGzCTk0iyt3p3PUFpyeM9b/DP8xAMPFNcFWPrEpW48yhKwLxw5EZfparYGl2LDAtRTXAKZafOWAiwst2xTjErZlouWrf1U6moNPGxZ2gAPhTnX/IsdVqr/NT8xzxEt16QgFdT8Ag9WYIGHGfDZZSOnI4GHfwfwcG8DPMwWY1E+s+fzc2S5akO8nTkeesADz1r/s94jHAV4QDlrGFfAwwP3Xxf/5P/44AIPgwIPLYAHWzQbFZtOW00b3OqvAA82XtYBmoErgIcy1OK9BR40eGaoM7qj9sIc4OFS/MWX8XgAeGi9TeDBNr0YJBiQ08xefgXwsA7gQXdHO4cZ0gjoUTHPB8l0XmayNsd+Lf5hQy2kSf1keaJXfJAyU0arRNgTp/oiJ2ji15wPKvDw+km+IP/ZLPAQAg/SbllbBiWHs3lKufWUm3o9mP8qdPR4WHY5bt/5AQUevv5i7Ns/GQNvAh5KJyYBLjvglFfxeBCMxjTjC163a175Ggbw0KqAh8/j8XCTHg8/CcBDAi4WJOU5B3jA5XnPSGwfAXjIcq7qi/GsCu6VCTZrz3wAD5mOnS9ELJXilcDDVwAeDl2Os2fHKJLFvPsagQfKtf7CPdPFo4w5HlYCPNyzc3n8xi9ujfV0VotuMlfUAX79W7CQ+k0mur0N4KGKnxW0Jg7+l3TYV8c/dsCDfhhZRta/ugMmayw3lZECYeDLO8CgsmFnwa01KfCwPH42PR5GY/QK4IEYRVxTRuWVQRmu0yxX5uv3nQEP5oX2Zw7wgN0DCKF5/n4AD+rBKbwuWng32MbpXaHfVz25pJ3Vg3g8XG2Oh1JutTxanvA6G0p1hpu6VY5zzNYPPHx4p6tabIzre0MtiELcUivzUdKqHs2D6o7pZnrerDcOueZZf50xZnXRoyRtSlkivwPpbtUHPIxN5XKaX316FnjwjZkP88Sml5CvLp4eJmiMigYy2gKQUZ/MJPBwJoda3ONymhv1eDAU6yPTsM/iwQIFdWz58y3lPT9dwMMlgIeTFfCwBE9PAGxAhy6eLW09q1OOLDvLll3KradVmahjr/R4aICHty2tDfCASiv9G6WsVpBX8PEKPWDMq4VaxfWEthcpJZgzq70arvF4+KEeD3DKep56nYa3AR7eO4+HBnh4qzkerMMN8NAAD2ujAR5s2FDQGGEN8CAv3mZogAeW03w8Xj/tJH4jfFF3AAjdIBr9dwI8fKgCHu65pQEe3qYkvkV0gZ0CPLRxQZzR+wt39E66P3TK5JI8eeCUk0ueiStXtdB4yw8MCYRdCTzYnyM91QcIo2Uu8DAzdiqG8ZxL4OE2gAeX09RU1vZ+r4AH8qzHpXb6NC744xwdS+Bhong8dFeg75BRibLTcE3AA16s6QlCdIZZxGWAB4Za3I3X7r0up5nckCclswUOMNMLExrgoQEeypAS5de6qdwhFbRJtVdgaZ6Qc0zeZo6HzlYqsHUdJsmsKsAu2yxC3e2XoZ75h2ID2W48HmAPPPmgr2rReDzMHWrReDxkxa5q+nzvqBBq1nyFzXHj8dB4PNjxcdxx4/Fw/52Nx8N8a5xeesWy4xT9gwK6pjkees+osLJ3VJLLzp3pqMvK/oPu8VBPLpnAg3M84PFgB9S/3hwPZtNrfhovn8e5cHWPhwQebmWohcADX+gXywqHZdhBNE1+5U995LXG4yGZ8hY/s8BDZ7DMM6HEtfR0YxjmNLuLMHX/yYl4+MDZ+N4rp+LEBOPJnePBkOVmIcj5NwMPenZYpH5QchhCAR5OxnD3fNxxsx4PmxJ4WGOfyBezafFnaZqkmyd5UN2pyrpcqyMZpy51Eyqh92h1Ln5QhlrU88v0AQ+XJ9Pj4aGnDsbpaSaaNm9+Gdct61qAB/LX7jA3BvXX5TRnBB5Y1eIugIePbR6MtfCiZExZlyBrQR5U1M3vrgEeGuChAR6oU6kiUpHYMDRDLdQ+qdxUcH2NJaZwXlcNFeAFhaWKmsGNC3fgdguHqdbR2L6dCQl/95eZx2JFbN2OYieN2mZpgAe5d62hbrzc22iVBqw0CfLe7eqTSzrHQzPUompAZZ8BxhV3Zi/Au2aoRTJFN81iOnlUM0uGGZS2N1/NW9Xd3iNp5JU7Cca+6b5vmZ3joRlq4RwPBekvgln0awM81HM8NMBDqU0L8Fs3yFl5fxqAh6KMcnLJ3qoWs5NLslAjZg/thbZPPceDvMlrtL3XBDysZ3LJkQQemG0Au4g2huf5qVRkAzxcuyTPBR5shrI1d3gKng9OhHqBxPYfH2dyyTPx8Ktn3hbwME3b7/xHHYcg0InPoRZ4PAxNnwN42BSfuo3lNJe06JTzXo0GX5slyblNpJtFmwfVnaqsqx5Fdc84dflrw5XQe7Q6T+BBcaM96DimhC/BTi45zrPH8Xh4/NhkPPgkk0tOMXSWZ9qDAAlvE3jIyf3Gz0YwL0ACD1tG454tAA+u7EEec26PpKeymyra5nvXAA8N8NAAD9QqK3K2w2iUBnj46V5Os/F4aDwemjke+k0NTaQGeOjnyLUcCwnOmVyymeMBjihL9UZby2Ha6hjQtsF5r5njAQ6Vjozm/4KFnzbgoWJlb1ULJpf88795ojfUYpqhFtndUiD7ecP5NXk8XLcifk6Ph50FeHA5zXpVC+W6yHcDPFy7PBfgYZrJJdsDfN2nWFyzxi/8rgAwRblcJLH9JwQezgI8nH57wMNUBTwMCDwwmbgA8NjJAjzcVAEPLBGwloJ7r4CHgncVTzeQEIYADbAKSztOCDwcn4oH9x6IE5PMK0O+24ND0F34kTyRN/BI4My9wAU/Zas8HkoezzHB5LkEHvYAPNy9cQDgoeLFoN4iPtMAD8lD+IgUJkcKT2BNFWSxQW71h3LdZ0qd97wGqmYnl2yAhwZ4QDCyemZ9a4CHTqcBHnJVCxWGiscNQ6SZ46GZ46G/gZmfY5SORm62Vn4HaIZaNEMtNKyboRZlVYvG42F+9MxVUunvXKOAfuKHWqSOBQxkf4RJ3J5n+dc/+2oFPPQPtaDRt4NWWYVpBFw78LCeoRYrYpTJARvg4Soy97Yu0S6iB6fY2n4JIFwJPFyiLA+cnIxHDp2N7758Mk6MX/tQi2k725RT8XgowEM4xwNDLW7X42F3meNhDWjAews8YGs6lNu8V8DDSVa1yOU0AR6OTyxiSAbLsQ69DeDBCcMBV3KVIuZ46Exd6AEPd65vAzxMZB4HEniQ0w3wkDYZ8tUAD8rDjwj2navQLKdZc+Ia9vIt2+HG4wFF3AAPDfDgrOvnY3TFUDRzPFQW6zXokbcfBc3TAA+95TSbVS2aoRbNqhaa/Y3Hw5wvhijW1MJ9Bu6bdS03s6NQc8+OKiGNuzqBAjwcBXh47hjAw0N74/DpyZgQeOh5PFAH/VpcfzEGiLgW4OF2PR52b8hVSkb6gQeIyokAk+CKGHS+c39VFOad+fz5SVnVgp4ySzzq8VA8ohJ4yKJxqEU7LlPer7GqxaOvnYtvvXCcSRgZ4PIO53jIhfXGTwMYXYwPAzzcv3t97GBVi9WOlqmKqtRKzufIlCfVHb9UpaTWEdwbytfv/vK+Up79wGUqbYGOGngAMJjAW+E08rqXFaC+8sQB8jgM8AAYI/BwrUMtyEB6dbByQrC87eD05di5fX3s2bwsPrK2HWtqjwe8P0qFaYCHLEbKpAEelN8fEWoxJ1oDPPwIXvXfTjXhTwM8NMBDy2WHQMAVBxWPG4ZC4/HQeDz064z5OUbKGuChAR6UAccRYyDaSWk8Hpo5Huys+LdgQZnr65X/NHk8CDw8L/Dw1b1lqEXl8WCDX+Z4yN5t4U9eo+eZvU9L4+qTS95+/QhDLfB4YHnUNwEPlKMrr8hvl2lOeyKXik5oxETnNfzEAA+AP9nJdjlNOJQ1IovGySXbMUb1eP18Nx57fSy+tu9wHL3MyiTXCDzoXah91wOVeEFr8kwsaV+Kj+zcgsfD6tgGgLSS9xlPnEhgwMP3BHhgWU2HWkwBPJwFjHjy9AzAw6E4cnkopqb0AgEkeDvAA2np8dCavMBsJhOxa8cGgIfFcccqgQfmtSN/uZTjLKfJ6cKEZo6HZqhFM9SCupVNQmo2kehmckk1bTO5ZGlwGuCBiUJ/64HYdUsDPMx/M4zSaYCHBnhogIdsg9Osb+Z4wAYpXZwGeKg6eiheO3yVkLyFGrbnmF37Xgcxu/Vp3NUJzHo8FODhyVmPB7pj2j3vBnj4JB4Pd9+87K2BhwR77DnTyWuAh7cox/qybSNDD9kcEmFn1Q6/S2q6GkgXLwimMo8jl/AGODLNUpMH48hFJ1y8hlUtAHkTTEih8n0pONGeOhvLBsbiozu3xv23jsRmIq10sh48EPQu8NU+8l4DD+fI9zNnu/HXe9+INy4NxuQkk0E6v8PbAB4S1AbAaE9fikXtybj1uk1xFytafGgFwIPzW5CpspQhLzOPxV8oj+f7pwEeGuChAR6oVVa1bBOsfA3wgNZpgIdUv9nKKBuNx8OPG/DQrWW4Miqy8aQ888NyWg5YFB/4VS0ep1N+KC5OsIRWewWGgVIpMKrxivtk5s26au7yhz1xMJQypIHF+O2x06zb3YlPf3xH/OIDO2P75jY+PfLCtPya9AFc1YLs2AkouaryRLllvXRmc5dV6+XZtV0uxOpll+P2nSvjN//FvbFlTTvHWfNtDG6Zv2Jsmp5mrLkuz2f3hOP5DfMzuSQU8sWry/JxQYkNtC5Ga+pY7L55bXz+s3vipk3t2LCUccrzS3ovtRwTzFkbA9f2MTkGA0spaD5CG/cvjs3EC4yZ/4M/eSSeO+g8JYuQyUHu0xHwqZbcMGbhftnT1nLqpgFt2nn9gww88JX8vz/4Yjx76HKcPUu3p7OEfNphLdT39pkXf7iehoV5Vf5KSc10Hco2EStHl+QX8t/4xa2xfhBTv+LHLPBgGjJoAUJFV9JI/WChB76utuLF09341r7T8c29r8aR45cihldRPoydTwEwn25ZaLNEZf6re9XxB2Y5zUoV1mx0joejuJwLPPz5V5+M10851GIkZVZhtJzMa2+4RV6j/unxYLZZqWLG1SqMQ9purcmzcYceD28DeNDwXqiaq8fDBYrjB7jnf+kbz8X+0xNxobuEeQGWlHH+3PP9uXqHVFQu9p67zGSubpBsoGWgg6v90710MtYvnYm7b9wY/9u962I5zy0nTjZJs5Iwj0cQKY/R31YMtYr/7Rp4YIlNgYdj6J6njnfjwccPxOELegHYskFYlpsZZSOVUq5c9x7plTxahr4n/6PDihbLBybizl0AD3iubCKNUYcn+Lzgh2maQrmUSXFKgEbulQvu6wjuDaW14cXlNK/wU9/2kMckRY+Y/jkeJikny/LZCwIPR+Mw4MrExARJkVYPeFB/koD/0sF/Cma+AKbx3hnlV+ChezmWdKZj9w0CD53YvRTgQT6TKZ9Vq/vfNv4ChbcCHh5G9/zVM28wj0UnJllbtD3E0Bl1JvT0grZNXQDaALmR4bZeG8yNZFm4Ygl1dMWiTty9aTT+8balsaZiS5YV+c3V4GB6Flsv8SsOeEYJLK8vZV/HkMWGftI8L9d9ZtbCqMm9+uSSS8knE4YiZ108sdLrJIky5SSgegnHNbEmyBAkbcE2K5Ts2bo67tuyNDZyn/lQY8gnnacm4/tcSaKfVi5lqPfV6dxd/wNz77z5rIr7o4daQAv8v3bgAb6cPxm71q+Iu9YsjVtWdGIZb8fsede6h7qWkvDmzLxHV3pvT4MdwdWgmqYxHp+JP/j9J+LLf7kvnnr8Qgy2N6OkYVxP+C3QuUVXl1Utdq47bAMzM3Mplo2eim3Xt+L3/t2vstTk4liyjGcVIjZVRwlc07C+Msx9TS/23GimUVNEGnWSvUhesNorlIP+xjng1G9+42B86U+fib958DWW8mGOBxSzqeSkOr30TE66KiWavDIFgstpmk+W02yxnOa27Yvit3/nl+Jul9Okw9Mmf8ljXt+2MphF/uowt0rXV9/9PnPLz6XLM3GUxuk//ofvxUMP7Y9LjgXsDFGObOYK+lRYXRUzBn6Wl6+XTvkO8WWoBWqreyGmQca3bh2NT913ffzKZ3fFh24dkGULEMxBvVWNS/WWVLAq2TT+SwfgNGX5+3/4dPz9Nw/H/v2nY2BolKdZfkkXO0o7S9WycEs5oDyScO7wmplUxAu4qkUt1/BKyTFnPYmSgOQhtGHNzRC3fBWqM2xeu3HkZCe+/cil+NJfPRuPPPYSSnsNV+mUo4TliQ2O3jrdSoZNtBSNv5YjV/JwCr5MRac1EbtvGozf+LVPxIduXhrrVrep58RJgZXA8nRFxfzu6neYKp0zy6RLZ+009v4hOnL/+Y8emwUeMI4d+1k45x4iUzgr+siUpWoeSzz5Sd4xIBYSeMhXSj5bKVFoyxNp8aCUcMarrmsekMXI5TT//Ol45ImjcfAwMQdWpX1f8uDjpmU6yG4em28C+mYWeOA+8tKJ8z3g4d/++s8U4IH3WWus3dqrNV3WhXwHd4t0JGGmPG9Bae2tavHUifjy11+Kfa9OxMAw5Ui52zFTp3SzI2NZwadKZpX/rK8ZRxdZedhBVi9iXx2P3Tsr4GHjewM8lLHEFWuqMrRMauDhQh/wsO+Q168EHuS3HKkLofC76CMv51HW21YFPNx4PeOs92yOT+8Zie18letpv6wzVXkp//R8/LP2GMsSzeI1Cpt1ykOPylZSUiaqKHk3f+B717KhTNLuphM2w5fwLp0vy/IFOqtf/Orz8ez+83Hy7DhY0HLkCvAh0zYbpFjJayGifqekQFka0cTpjkV38lKsXgXwcMvK+Pwvbot1AA/CEh0MypZGpXGRDyV4QUJNmuSw5fBv9i9h/H/3+ZPxNXTrG8fHor1oHbp0acpsNhJVXpMm4veC+a7kVj4n8MD9GcaU33nTyvin998YO1bQWR1qxRBRSx79ilzyVwMVc8uol3oe1K/LvfT3h+pmX7ZKUWS8+qrgCqsEkNmXT8zE//jaYyzHeDk75VOtRbAck709TDYoUcre/Fhy4fDLLAvbSa4rF8qI+WXfmToXe3aui09+aGvctn0wyCY1oMpjj0ZlvOROEbZjl/LSuz9/B0hmXOQdL5wQeNgX+89OxvmZRZg8yySdbNkuQA8dNJk04NKMBO0El5VsdTiHPvVQm2EOdnC6F08Bckbcc/3G+MzH1qfxr/m6QNI5h1c554H1WDsmmwBoAywZg7JTVMwXzjAM4bGDACwMT0BXdgEfzIN6q66bZCj/ss2Ubjwm9Bqw/KYngDC6k8jlxVi/vE1Zbo2P37A81vDECvhhqaWHgfXbYEH2h+qyl7xVSro+c19HmL1TX6keSJWlXBhDexSln7JK1zJQr/HqxW58/en98crJsThJv2RyEDBwiAKx420p1LZV/a4Ee9W5yqj2lHJLHrvjsWpxJ+64YXN8eNOiuGER4IpES4hE1TKvobRAwTIp5WJuC09wXIlH9ep45vUCPKgC6ZDb7pmHpK+mUTotC/Oc+eaY/LbMc5VPyzWBh82j8Qtbl8RqopijtJtldPLNhPJi2V/5W+nyZE8yx/h1GZqD6vkqieRYiWy0pNok8zqkXSArT1zqxvdPXI4fHDkRl6eQv0GAh8HFWe8EH7QJygMkZPJJq6kYSCn1pS8BXHEbOxd3bVnTAx4oTizI/5+99/6y/LgOO6v7dZjpCT0Rk4CZAYhABCYABJhEiQRlOUj2sbgOWtF7LO3xEe1fd732nj37XyhalL3aY3u9u1xLsiyKpLySmE3kNAARiMEAM5icZzqH/Xzu/dZ73+7BMACvSYj7qvv76vuteOvWrapbt25VAZn1aB8TiWQy/GaajZsp9krg1/cxtWzfI9gVEnyN/vPQJQTY3/lumRqhDicm4dMRelKnywhXNDm3tL+hDOI5cG2/pOAQHFDuZcZBefTlK+fKPbu2lPt3bCx3bB4JoQPUn2gysbdofqyCh6hXy20N0KuFhJXJZ1zZQ6f2W7/+ZPnCfzpUnn3yKozfnhA8BJIirJGCrFpFF7FWupWP5UQWRnl5eboRPJQQPNz/4EQjeKBjCBI2nsb0SDcmFeGQP2bVMjW0TvU9m0R+JcGZTitSvFJGAJNp1Osik9VvfO318h+7goddgJApVdWrzNpf3G3o4WAZ7djMQ0JxcJ4Cj6cQPIyXz372FxA8wDQeSMFDwiFhCVL+GTdTjQQDun7+WD4ZKgUPpxA8/MavfzsED9Mc0FM6MBixKpcdfVfwgJssoCp+GnGl6XDXs2ZRxnjxYtnHVUSf/PjB8vc+fXd5749Q8CA0iTNx76PQIQUP5y4vl9/+3WfLX3z1jXL4yLkyMjIJ/AxODGLOn+ukOya4dMwheYyJtfVKWddS8BD03GsrforhpPbIPAsmbcRA2RI8BHlY1hQ8fP2RqfKHf4Lg4fHv0mkjeBhy/YWVGpl2bJnZ2CtfGQUxRhZ+2m8Hk2v5GYiRrZe7bh8pv/qZj5V7bp9IwYPhRIj5dtPgvd+GLALxAZiTHFfnG8EDk5zP/f4jKXiY3UQTY8Ia6BNr9hl8NIOuyWQR6XOCMzOM7xaE4Wn6wppoPES+FU3CIM6kSWGIdiMCHUiEFasxyuoVPLzOitx/+MND5ZuPHiuvvgZTxCSnA9PocDnMCtMyGhmwXxRBpkIaNl3SXHZozT46JP/UZWf5EoKHqfKe27aUX/3lT5QDnNa9iclcGCwxsijj2hEQ+3knqvRNkVsTLkP35VdqhT8sb8D8f+up0+U/I3h4vgoeyNscXXVTqyDUia3cpoFK/zJQIXwAH0tRzx00HqZY1Dld7mGSo8bDrbvXVvAQ+ALQWJ1o6i/QTz1bH7Xf6Qoe/u9HyvMIHpaYxKntEBoPQQdZFlLKktvP8BZE0dBJYIS+yBW5xdkL5VZW5D5x377y0L2byn6WVp1ChNA6aKypLzsRBA/Wps+1goes6yS+zM9Q+ZhGjj+8BLkue589ePdDxmh5frbMLo2Vzvp1UZevMIb8CdeiPv3dM+U4E4Dl0a1c66dg17SBkfobhr5yogTtRj0mzYZYgXHSkpSFq2Vh5kLZt3uyfOieXeUf/o19ZRv0PkIyw3OMoYtMHVnhkFmDYAWv7wayYxyTBkkakGwfTlgPc1jf469cLF/4KtsQTs+Wsc37adFOcJzACEbiMWI0dUeh0jQ0K+0q0O64Wj53udx/+7byDz55S9TjBOXszNPv0qbtp51YDTOJ7JCWNZPpAxCJ1i9h02SN9ewMW30iSMQJl4CVt6CXHFMsw9LIWFF1/ThnA3zz0JHy9OFTCB+m2E8/wUSHcYSJwDy3CMQMPQQQ1CcCiXiAd4m990scxme/Mzq8VMY6S2WcCevPfuTu8tAH1pctQOmqoy0gtGcjf+CIzjtpLyHNctT3ftqsh4fg4WXo9Q++9lw5cmWxXB5aj/xkgkUTYFi00jk/QVpjlXjdRNzBEX3RohMDFmScvsjfDUOUQ6jmF8aQvayOP3Bgd/nrD+7orTr2E/AmLavOOq/1ntRA/6+LnuB0eXg06NVJ+Skc/+KZ6fLs0fPlxLkrCAlpZ+MbWXjhIEaIvCEB6JExY8FzI5zVMm/fOFHGEYTNXCCF2Suh7XDvu28q7z+wo9y6hXpEQLOZiVHH6zyNYOfXGMEIg1P3vedE6NWuevbiN0HDqiHTlm4MKTcQJaaNlHKBevnuG+fKky8dKU8xcb04upll3xuomzH6RfraJRc3gcWGHcYxsxk7l7m1AoFDWZgum6nP2/ZsLx84uKvcRhm3UaYJMzCyiCbfyjdcB9xI/W39RIWYQi4IBD9A9o8iePjSoTcQPLBYskjfzKTVeYqCr5icWv+2o2hLiaV8J4h9bdCHbVeNh4UQPHwQwcNfv2l9aDxYvKQhEcWX40eTTJZVdwJ1jflVB2uk9km5dJHBTCCTkdPpEW1yc/rIZTisTJHlk9MIHs7NlOeOnS6ztMOhcerRBVDHEJ6Yc5mnwAYwwBBlMx9x4SNM1OkQ5Zy+VB646YbyyX0TZTd9ri13RB4MQJx7mn9AGMQhTfAVdBwZ4N8n06DpKsm/QV4vIvn8xstHyjnocgnBw9jGDYx5jDl2Thhlm/I+c1e53tVxE0HgMLRsvyOMLvAvzM4SZqaMzHDTzK5t5f5tG8vNG4dD8GCP9XZL8GMWPDgoWeFWj+yolWZDpuAIHn7z158KwcOhp1htGtpN50W9MeCE1gPE63CZldtgPhqHjUBmi3Rhkn2Wl2cQPJxtNB5+qdz/4MZG8NCEI0Ya4SBNG8Vq03KquVU7g0ps1aUn7eo6NekJex3mFTx8HcFDajy8TvnqrRbAHo28G4kX0mzgSq0PcUWOrkDSIELjYRiNh/3rEDz8fHmwJXio8WwF5u5f4i1S5b3/xhxWCB5+4+Hy5S+p8aDgwdUNGjx1HxMa6svGP8yAJnOo9kP8NR3PSBU8LE0xeMM0Inj4xMcPlr//6Xt+JIKHSmeJNTEn7n1WCR4+h+DhKyl46LQEDx0ZwaZDS8EDtQCRp8oT5EbCayZ4EGgrPug6XyWjXlki8wwi1oFrhcZD0L1lXYLhR+OhLXhQ40HBg8yubQ47tB3ovBQ+tNuRn/nYLhvBA533XbetFDy4yGPLDmOEtTJm0UWCggcn2ggeOK47NR4eLg+z1WJqDsHDMCxt9LT2LUayj8i+R9QGtEGrDi7iijIaBvjXUvAg3YihULmND1fRgNEnfNQqotNswmkvEEHBw1FWV//9HzxXvoXg4cjRRQQPOwk5yuSTfoayLMHwLsv0okYpwzAcAgj7G9Ok/QYq8FdzZfli2bl5pryPrRb/+Jc+UfbfwACl4EHECCBmQbpiYmgf7y86BPHXm35muH78WgNO5N6A+f8mggc1Hp5/NTUeHFysua7gAViCIXAWSH0F8wh9OoEdUvAAAyy0Ch46i2dS8PDpRvAwIWOzNkbBg7gLtVvxiElU+gEumRRbzq7g4fMIHtxqoeAhhLpOXjKs/ZUUme1RjOueT7jzRecLHU2XJQUPaDz8DBoPn7x3c9mPbqXtsRNtkTjdsZH0pBP8TJ3Y/JG2yWqCBrMtWN/mZ6j6mGoE4yfo15m4S8ImoAOTjiU27CyNsbrK51EEZX/5yNHyiCuPb1wpy9Dr4jDCXdBk3xmr2NCqk7ll+pUGWaRluRkj0aLswHENL14uc5dPl1sP7iwfeu++8nMf21F2MAFywtqZZ/WVU+eRqDIJhr2KFaAAs68/8rmOjd0q4VWe8DDM/2MvnSlf/uaz5dgpJl0bbwqhJwUkQjQ4QonTBk/WSdQLTgp+wZ99q/yUwochhCz33batfPqn31VuZqKjMFDBg5PyZeh90fIhoIj2ALaTLvhq6ji0MUyah5winGHqU131r6Zb/+EozFFBxJI2O2WGNnWRvSUvnbhcHn7xaHnipWPlLCvKy2OszK3fRn0yiXPlHyQpCF1iIrtoGwSmSoKLc1fLeGe+TG7olJt2big/de+N5b6bhgvii+Kq47ooCzQQMPhDmaJNZAkti89aGOvRFeQj0OufP3uiPHvyYkGGRD1CT0to8CyO0WXqMAMMczD5livbwhJlL7RfnyGEKmVolrokzNylcuv2TeWB/bvKx9+7oW+rjm9WfmvMyahUJlT2by6T5XQv69LJmuUEw+UCtPkcGixPH5kqzx05Uc5emS+LCFlGxm0/loeHaLbPJYSLHlhpwp2xUdJF+2jqXNk0vlT2b19fHrzzYLmdbXrbEZCNEmfDMm0gpHPUljTZVJqv1mpDpryl0bs+WffVp/FofQZprPimf6IstS6qv/YCfdHFixfLy68eKX95ZqE851kPG/aSF0IxcJFzDDAE3S6FsIV6Q/AwzLaKYXjWIW4pm5zolP1bNpb33LS73LZtXWhZqbI+JhKjr+cj+j7oQcTXdt2CsS+vFsgOiPRt32Z/ledx+p4vP3c0NB7m1AagDpPvzT41KYL+otapwFQY7Z/ioW5D8DAfgof7902G4EGNB+lIPiIWlZy72Z4jjfDgR9rSoRq+ozPR0ZBSYKXCfI/4uIkuRrsAMULTdtClieRGnE9C0FMAkIKHWQQPpxA80MejAelYGX1r1D0pOvYE/oXVVuBj/2MOzrWkEakf4QMaDw/ceEP51L4NIXjQV3GuZYGCebKMljm0zPCJys0K9quvxno8TV6HGTC/efhYOTa7VGbRzhldv9XhlKqRxikF453j5CKSCHEoz0+1YSNIo88d5UaZ+RlTm0YAOFPu28MtLFvWlRtxt39lBhcownrLZiB4kJC66PMNqlvdo+nfC9RtHxJ5z0hs1SVYsPSqTk3AgeBhIHhwNW4geHDlbSB4cHBniI2+oytw6XYq2R+t6kLCVzefOk+LEcVB0oGzK3hg0LXj0slY2DIb3sGu4OHffv6Z8m0OzTp6Ah2Gse1Epd9y/Gd0WuJlmbQU9Cp0yDMphFCBIYOwfWTq75XO0qWya8tc+cCd28s//ocfKTfuZCVHrQnzjYwja9JjgGv+FDs0U1Uh66uRVRgIHqijYNwcl2TCqIgY12SGqJjm6Y5+fRc8mIeUrcCh2m3BQxKGv0myhkuBTyxRCTsrxQsQkGrdJ2GMH3/+fPn6o98pz75ypiyO31AWuBFhGUHZMpNTiCtoVYYKbh+6M35TTrOH2R4dGS0jSwgerp4q77/rQPnQ+w6UB+7eWLbDTTkJGFEgqsYDzLVCp2Cyidpvk9iApQU8q0QcyK6+Qpv8r8+dKl9Bm+zoaTjBdbuY423Fn1bDuRQhZRFHhqZsCsQAlJikQGMLFV/GFoWfCvQ7CJI+8K6t5W9/5F3lNq7um4RxHCXTZVZhWeZCuJial5lC5V9MS5fsKyqsTS4BS4/PMZR1agl6JtDupx1A1L0fS6jio6aO1oNbZ86yivzIC6fLt555GUHSuTKDdsvQOgS8TtDV4IRxH2Wf+cL8IloQCKHQduiosQEgC9MXyyaC3XjD5nLf3QfLew6OlYOo6VemeMTW72yjC5d4YsU9pj/C0vPJr/79OpFT8BD0enSGlcfXy6vn0NREiNZhe9Ay2y7mZ2Z4F98Iu5kRqHWi8DNomYnQ0PA6+mPoY/4SqU2XMQ4l/ABChw9xDeO9t441Wh1ivv/G+rb/1LZWpZBYVNDF+ow6ZQyA7lgYjzMQTkNTzx9VaHaivHLyfLks6inA0CgPbY4kwijUXaYeTcPtB8MIxiZGFstNN0yWuw7cUN5/86ayC0EM8lwED2y0chK7QvCQdGabiSeT7f7qW5+a5wrP7kcXpK5L8mSUNfJL/+y3pHboFoHdidNny8Nn58s3j14sZzlpQ1mpizRDCipZHHMyvahWzjw9FrAP0w+NLs8iCJsrN6Pp8O59u8qdezeUndCx/Y0TuA7tIHDBdzZlajUGTUuyBsa6iDqkVyGLeR63Bj1G//pnP6jgIfod0ukO7tKF9MHDGTqp8cC2mUbj4XsKHmrHUvuJhlaShwlgzQhf60GcrOxvdAnXBgQ+qQt1NaE1fOQzXAu6Sj5PsdXiMc6VOXTsJNp0tDkED/aDwYsLu+UxMWLGoxC3SSeEDvI99KsheED4MEQ/9MCNu8tDnPGwm7j4IpqQ+EmrETzwEknl9guzqBCHT19/HCfVKDuGlvnDx86WFy9PlfP25QiRhtAqs/+zmJK42lQdr8qFFpag7blphGVAP4w2+iiCifnp8/S1c2U7w+CH9+0p99K/7my2JCpgCTS9DegHgoeGnBOHopOKsldbbVpOkqWm2vlVB26/BoIHcSNj1d1qMdB4SNKiUxoIHmDwGZgHggcH07cueLCnsVsKRt+xzgEvZnG+Z18WfRQ/0X1hy2x4FZqCh9//v54ojz57kv3kiABQXVcyvww3tUTDdXUyRigSV+jgE8xxCB4UPpCIq1c8w2y12LN1vtx7547yK790f9nHqpWTgOgAXHn1vXlC8MDKUKjGB6clrP01Ms4DwcOPW/BQx0fHRYlTRlCmsTKOEkSa4D0lVLkiGDf3lqpxwj4LJkGdWF29wN6ZV4+j9fDt58vDzx8rlxY2ltkhDiZ0hTwmqkxyGpKNvJh4LrGi46MgY5SJgToiIxyEOrJ8ufz0h99bPspK+W17OTALUDwXYFQYQhUciIIJ7cGIT99MYkMoe0aafQkNna89dbw8zPWEb7BnfnF0O8zxFuCnLK6Sg5sQOjg1DEbZybRsIAUXdkwwuKxjojBdxobRQrp5S/lbH7q13MH2py00Ssto3+sspy14cHKZiVDmEDzQN/EqjCYddcRb1mWTGV/Wp427uvDBl3DwE46koAN1MMONAIsjrPoj5EKvpLzMVqinXzlWnnnp9XKSw3WuePrkCFtLOLtDRnmISbgCh0WvHAQHqqwPAbsnDBzYs4VzgW4sH3nftnID5fKwRSdyrEUTVlxZnoQt8BPaK+JLYBKkeOnzj9MO10PPw/w/x5a9Lz31Ynkewcocmg7jEzsAZWOZm0LwIBNvtdHnjiB4EFXzc9A+SO+Ao3HOApi5cop6v1zWcUbZT931rvIxzni4i0MJmRfQC69NGZI2c8odK9RQQAoeyNAJKwHy4Frojs95yuDa6DH2lb9wYql85/iZcvTi1XJxapotUqRDXQcZRHsCZq+jhHYtw0YKsW/H5vKufTvLHair70HtiE2NBfkY9Qhl2RatL3AineWkLT77KnhQsKDquXWR23rNDx1IxzbgzzX15TLNwZLfRWf/0WNoP1yYL6fPn2e7NNpXVOTw2FgZXae2GXHn59jmBA0iLNwEmg7u3FbuvGkP2/OYoEKr7pFXs9OJqoKdGBMjL3NiomyZ48Hqt7EyrEfgVHCkoEzBQ9V4OMPhkqHxwEp5bO22z1GYG+2JwtjJ2t8Ioj/apmd/5BOCh9R4cKvFz7W2WsSm5Agn4Tdxje8TPY02Rhh7TA2f2evYnsVQN0oEbsI3IOip4AF9zYjn8gaKJ8WDF59W8HB2MQQPM4wbw+vZahGCJsunQMG0qD/zjx/chTdyTLFCT/BAXxQaD7vYarEpBA/2Pwoe5KOydrEwphBFIv3aI4VHn39sLfZ85xkrD7Ft74nzF8sRhJwzeHTWcRbbKPRpFSHMDVqPbUwiLgoMKqxXgET4vsj2rvUU+eCmifLRPZPlveNqlKV3oONtwj4QPAR5VixKeZCGjWK1aTlZTZpq59dA8JB4yF9xMxA85BkPg60W2WHZp60442Gg8UAf0k/BA43Ofqp5uv0TL9F9Yes2Qxen4OFf/x8Pl8cOnSonzyHpHkX6z6jkitQiDdcbA3yss2Hqyb3GIXhotloEU6KKqAwTq8i7JmcRPGwv//0v39cVPNTTnSvDGEAAgNsIQhVcNfg1MLIRDsCDrRbWtuPSj0PjoY6PlW1MwYOUKM0LWTXBjOkg/aFezQbT5G3ZZ8xufh7WffE/z1LyIxwW+o1DR8tzr10qU4vcOAM9qhkxPMzDSqI05u0Ay0xSvcHC5a4h7GU2uXomwOTEUtmzc135+IN3oaGzsexkluM2i2ArIeeQ2wmQZm3IM1j4RZg9Jyk1q3nyfpGJ29efOYlghav7LlKGcbayeXuHGgo+L9I72QAAQABJREFUsNOuJobwwfhCHVsInASSUggMrO9Z2uwcvqyUo/Hw8x++NTUemPR4uKRCAGvFlGJbBk5dwUPwPhY8HwWVRok6Chba1lVNrctaiuqe4bOSI0M8lpl8o96LAGARtQWPMzhHP3Ps/HJ54cjp8gr7ro+dvlguUcezC2g6LHMgWgiUqH1XHqnDsc5C2ciE/CZOWX83K+TvPrC5HEC7yuONsw4TR05+ulCHcFOGGhwxLZD2NDm5i9e+/ogd6XWKAh6FaP/yhfPlsVdPlOMnLwPC5uxngSX6v6AvaEA1Dkyq6ttOwB/1tzh3vqwbXyz7UHP+6TtvLvfvHS+7kZJlSbKGImIff5ppMDBIR8nT5ghFJk7KoFMO6+Ad2ktAQ9ByifKeRpXlVQ6bfPX8NOPL+XJuerpc5UyOOcYUyUqtgFES2MyBmjuYpO/cvL4c3L0dofVI2YkGC8eohrbDGGHQx7Ehk5lISmFl3X4cFNXQJZ5dY8j6BGxdn8aj9W0amkiLfELwwPdIc6aErUvBg2NXPMBgzbDTohyhjK9dXChvXLpQTly+iIYHZSSsdb9MXSrc20AZN4+Pl12cUXNwEjrdMl52Uncb3QblbJ/QY56kTar+ecKUNFk1AXN6bbg+mygwP5RrheABwdGX6Ve/r+AhhA60J43MgSYmrtSVxEHbG6IP37xumJs7POOhd7hkbA40bGioEbdWFnbSWyaXvwEo7v6l4MHeMrQkJQu9NaZhkt1vQrOlkx6fvxTjoHhSPHjxGbZ0PX6WSTkaD9P0lcPrNzHOgGlVIhwnhMMOj89Iz/LQ92Rv1rQ6BCJDw4xPbIMaRvBwP1tnPrl3U9kDIArMxmz9bmWJEYXouAmuj+lb41jxYPXVmKtZz7Kl4nXAfgThw3PQ58mLCMcYS4fHmY+gnbPEYKN2lXIGjXBJ40sI+mL8Zcvheoh45+aJcs/2DeW9dK631oLYldZCZPS39DsQPECeEkIa38CqSF5tWk6VxqudQbOTzne7jSbCykAkbfeVjNfgjAcw4coWLX1wxoMDHFJYGA5XObZsHit33zle/tlnHypv6zrNoL9K16CaV8lbZ11lHaOX9YP3wRkPf3XOeLC+7Ge6q4u9Sl3RhYV/Vq+/IXjwcMnf+/ffKo8/d5pDwTxMz6PZqH8Gn1QhVX7vfmOGe1TuhuWWgm7yjIcYoB2UFSKw1WLH5unyfs54+Cf/HddpotYN3xG3BJifA5tk5ojlip5nuDjQyXyvhZFVGAgenJSKdMelnGgmUUgxuufTHf36vtUic7B+Mz9hSI6l5ikEmnANcGSI2CMO4xN730dQS4dJ9aR8J3NeO/nSscXyX58/Uf7i4RfLWfZaLyy4ZsitAaiTDnsqFiS1wERgaRHFUxhgFpMRJsyinn+pTLLEetOeTVz7emO5967d5ebdnVjFcfVVHixuheM9GCsBWxvyRCC/yKTGPeCux8nQQq8Q7UvcpmPZvvH0ayF4GNqwizLT3mTmZYyDI8a23cEZ51keCl5Mg7YF4Go8DKFP0OEMgRFugbrvtp3l73z89nLzNiboFBTN9hhzDTVHGk56xWCsRsoeB+9DwRVi0EYrK5SosBaChRZkjDWbk8KKLKvRsPUxFIkFvAv0FZ4Ys2g/QPJuuZjC77iT1Tcul1eZELxx+lK5cHWxTM1y9DAMsvwBGsFlnCJunhjhAGKEDrfcWG69cV3ZPTkcK//IU0LbIalE3PCYZ1SkkEhhljBh9UvXtTBix0dMXQSEp44vlkdfPV2eev4I57EAw9BGLkTYjPA14ZMG7As1Mfai3eEBmkuc67BudK7s3jHBdaG7ywO3bCm3ou7s5EZa9VmbMgBXlEDbR9PYDeNQtzZVUphHgOSZmXMs45/n/Q30vY+evVpOXb6C5gc3l8zQ/uzzmYxvZGK/cwOH8W3eWHZtRcthK9sOKImjjUK/MbaejNJvjUh7/NlbZf1Ra+KJ/4CmsX03hCb7mYyRLtf/bUoUecQhwyHkAK9ue4mUmArTllwZNmU1H7RVZ79MGc/zchbB0mk0O85SxsvTaOxQTtvgBGns2Mi2kcnJsgthg1u5NiMUte5MJQ9I5WDUUdut6ct3yQs3E2vy6ZWK136aKHiWyfOelIG4NehxBQ9stThDu5vjPJw44yEEmas0Hir1BdL50RZHMUmH8qvgYf21gofUnCGsZ5lERCwQIjRV8BDJ8l1dpYGcWemTggSnDGYZYWsEQeBPEnGLKFNo4inGoU7pDi7j/gwaD4/D9xw6eqoRPHCAEfQYglzPBzItaDyqXKBso0EDAhmiaTI1Y7QdfGa51QLBw0/v3RiCh+yH6J/jPB51dnom3kk/SNh81sCYh9UgKV+i4M9zmOazHKb5wvGThTNuY5vbMNpUqcnC2GPf45/wyPdxw4xjjcKTfdsmyy07t5a7uSbIq213kqbtPRReJOK3aQaCB4m1i0TfJLKeywqv5qMSVLXTOZtHvg8ED+KG/nmw1YJeYKDx0OtwBxoPOdXIMxOScbdPz7eVPYqu9kerXe1jHGT9NcSQDEJ+RpTovlpdWLy2/GWePKzv3/yHb3FY30lWGpmQrMvrNIP5VX2dg9CWlzjkjEFHwYOHnDlAOdnxEM4coBnN1HhAdX3bxquoPk+Wf8J1mvu58cEVyA7T/wRDJk7GSkaLVUcGdG9JqAw3jn01TjsGgocfs+CBOqjDaNKAtSKV+6WdRls+RlcPFXRrhCv8HZjHZQ4hXoS2tR1dncxdQo3U/eR/+vVD5dVTM+XChZkyxUTVswE67Cn3WYjJm0zULHwl1IrGjufw38KtAO+946bywfft4kwS1POZDCh0iGk7gMSlK+QRwLRt3/tmbAsweW41c7UtcqelsPx4GC2kJw9fKl/8xjPltTMzZXRyLyupMLAwhbE6xYQ6tIjgLuV/lzyRnfao1gONlHfTw4/bn4aXrnKew+XywJ17y3/z0O1lH3sRPHdlmJXpMQpKSnHmgnU0QmKx+CpnqUPtQGLi3hTcDKMGsrdKJGV9Knzw2xDVWJ8+Gm37lXm3WviFerMrwyFMwk97lj7hMh3T8VML5fSFqXLu8my5cgWxBOrq60Y75YYdW5iET5YdWzmrgkMAJtiqEKrNJGf9OcHIrQFCUSGp8KVdIa/0VuEjQl+NgiUnrTPUy0nw/SICpYcPceUkB2py3AOrj+z654YH95ePrvdMC/7hE5yQejvUMH1qh/q7kYMz331wR/ngHdvLTdTfNrv5WTR3pPPmLIK+Am5iMetq2SIpOn49G4wJbwvNcWidSGVmbb+rdtIUzB/zHrbPLJerHHY3Cx5GxobLRioNPTo0AtQKyDrEyjYoSmgXw+AiD5w3axPmEQbzryBUO1351VRevvFMxzf9FfxqrCuFD5reVgu/aCe4h1q6ggdgMAfLTnFiy6JjKXfs0JaY2PHI83owJvPuEL6vQ7iOlnqz/m2KPuoa1aKQIo5DRPQK87xZ4fvDT/S3bEKYQllsdz6x1QLBw589dwzBA9cXV8FDtGsn5PbdPrWl2dowUSe+UABwGM8PInhoaTxEd2MS9j2YipfK3+imT9bsKsFDDWygSpC4mablsl+KfgHQFTw8GxoPTMar4GECwUNoPBDaraRNsQKKKBI/xFU7IMoewgeg8XwH+SE1HhhTPr4bQRq48GySdfZwjGN5DpaAtQz+lZxbrv17FVyKIn81T1s8C05eo+09e/x8eY0tQWfn5hFkM0JYUM8l0RZv9j3cIjVKPW9YN1Z2s73itp3by80IHSyXVxRvEA/UcbTLPiwYDQQPDUln7YNhG1sMvKvoQa/GUFVhqp1fVIoNMMxA8CAmBoKHwVaLpkHEGOU4NRA89EPw4LBsC7PP8Y8BJEfnHDPBc+3C7Lai6zK4zAEjn1dNHjvnrRaPl28+frQcfgOFdvYfO6jE4ALDvIy68/KirH0KHoY7qC/DIYXgQQECGeT95Aoe0HiYZD/5u7eWX/llNB641WI9YTuxk5skAC4FD5yaDAtGigFTwKV3n40s0kDw8A4QPFivVHLWswRaR8h0kSQ1lQ48W8QVMw9lS/VXlXOJA72pfC0zKXN/hpnNC2g+vMjhfa++drK89vrpcvnqAhNbJnzQd2jUsJY3itBhHctQWzeOlr07NpU7bt7Ls7Pcyg0I66F1JzyuQio8G0LFtuPkHRACHnnNChiv/TOWOlVa7QudMruCrGjkOEuPL3EuwP/zZ4+g2XGhLK/fgXYAWkcAFQuuMn4wlT62vyWYx2WED05gncxnIMqCxtzwAlcUsmL+4btvKn/3EwfLTvDgipxaHQoeluiMxae1oi6Aq8zxZcfhaxQeJNhph6FVxQTEGBU5+oWoI+ycHETg+Kkx/YiDBUWu6eZAEFMZU9NJW42WS1eW46aWKSasC54Fg9BFjYdNG8Y5UBLmnkL4HVtiCG8e4kaIAmxsje/1u9q6R3hsw/vef2Pv4zoyTD4HSl5hu8gp6vVlhA8vcDbAYa4PPY2E5crMPJNXVrgRImhiMsgWo4nx0TK5fqxwyUO5fe9kuYPV1Fv3DJfN0OuEpymgjjY8TL9sva9FCUQWlRFVZQ4VYbxrJI8glQbBgVtnOzjmFfAxV4O2aLdUzBxpzTFL52iHmNiNoRUh7q1D25/Jm17cYkKNxZhi5j5kHodLtoEwggY78s4vc+PNJ1JsXK9vtePGaEp+1kEIwyO/Xtzqbsqq7S8rdTABJq0WxgMabZI+Gs4Njet5A08WFv9Ikv7IQw/dVqExPX8dEeO6KdX8CT9kuukZIfr5I4irBQ9V4+EHEjzQVzmyR3kqnqyrIBrKVQUPbrXg9rn2Vovedi76qqaA3e6G+LXIaQekTa1mHyPlREzrAO+EwaT4CBiMwysetkKRGeiHPEPwoMYD58o8y60WM7S9oQn485bgweuYkf4kaCaJMBg5YAoeYmuRghc8FDz4oPFw34E95WO715U95KnggXuYQvCQ25EyeMQRNNOmACF8yELi2EcjzNKm5IVEnQvayiXGVLd8vcK5Mkdnp9HUmSvTIGdOgT4EG7dBEXyYc0m20cfegNDhJk7uvYl+VqGDZ+eEuAlNpGgHSsB7Epq3DPxA8AAh9WjAN0jV1rDatJykIU2188uGU10GggcxMRA8DAQP2Tboq2g/+dDeWBEaHC4p22+PkTto8632H12s8cIAUT+7ti7BLpGCf/RZDjY6+9rqq3yNTwdmBQ+MfO6APsHq6h988TvlKw+/Wr7zypUyilq3A4rMkycbLy+imYAae8Rnm8Uw19c5wHuNowfambvqeY7MCh727lgq995zQ/nlv3df2bO9qgR7ZZwpuHLkIMdKHfErTAEXvv02Mh0DwcM7Q/AQdRw/0l41UnvWviQbb5JT0DCaAHI6wTpmGEdW9/svuPLEv/Rr/R5BePbdw7PlBe4sP8X5ABdQ7Z5lVd00WSQvExPss96ASj5XEd52YG85sJdVc2hzM0xVXH5Be1hHXsuhZUHL8IJzI2tipp/5p0M/fy1oPm49slkuk3eoqTPx/vwXny1PvnyCveO0w1FOMIBTjdUpMUXYuB5bxtET2RHK2CaDqQU36DEgXLhYxjh3Zc+W0fKR9xwsf+Mju8ok2g7uPbfco2qTwATbToSC2KA1sAwgTZnD5t1OO4wZG0ME6dZ7dKn1qXsNgXOY2D9P5XZCrRl/AhgmDMlkfGDhRUWABQI4eYh5Hf4Uq5VbvgfOjECflAfVttJskm5bQqvpQZ3f/f8Vo+LJrUVj1kZcB+sVooc5PPS7J+fK4ROnuUIU4QOHSSpc0Sj0VTl75+RGtpBsLvvYhnDLDWPlRjRztiAds0mMsn0m68Ma86ml4rVfplaOdtQ9eTTZSBLWlZ8xqY48dbEMWQ4FTJ5fsqRQxas5mri27Zpk8gG9dLIuES1a4ZEDvwgDNSnMCMKO7+5Pk273O+J1oes5v8mbod7MOKYptBRmBRA5dq0M6RQ49iLirFDE7TsBKdGifLhHzZiJj6AHAafAQapgPdzYgRrH7hFiKEjzeBsRO+TJk9eUD78+mATLkmb7lwtRQyW2WtQzHq6n8UAfbOkUPGh6GoumagXzhOBhrmxutlr83E0birdayMXUrRYR34k/7gmPqdn/tDGe86n0r8LNnuAhIoLX7K4sDSFrBZBaupCHCVBBVwgbGg8heDgRWy2GQuPBsiCspW+zGyUh3sWPzqTq49YQyu4hxpmyow8C8tnL5b6Du8vH9nD2CoVJwQOlg3YjbAJvSmlMW1rwWSOz7KTLf+ABdG+Rjq00J8DNCSr7zNXZcml6vkwhwV+ks41DlxnrRtA02r11U9m5qVN2EM9DXtV0YETEgBv4PNHrdZtJ4eHxln8Ggocg0Yo/MC1V1MG3Omvr1RjpSVPt/MqGku8DwYO4GQgeBoKHbA925vVhSBgIHpgnvB3Bg1i1hfkwWFeOUGfwrOAhfeIzuy6YAplCB1D3dp5lgvNnXz1W/ss3XiqPHzpbxjbuYXhhhZnJnYIHB2t5Pwf0Yfc/xuOEIFmIGJphMuSWOgge3rWfe9g/cFP59C+8m20XribLXnAYXjPKLgGjbAPznzCOvc1rOvTxV0ZwIHh4pwkerBVNrfWeQE2GxieIFga0w8qgjGjjgB/UBqMqbXrNpfIHW4/q3Fe4HuEcasIXLs2Xi1eu8j0d+8ldWd20cX2Z3LShbNvECrJbDVhidUvBEKtCHemW5csRmXyXtYQrZwi8S51yodprZ2LlkbKJEVeHaZLlAhOfL379jfLtQ0fKK8cvl2XPXhlWq8EVbpg+8OAT++zdsiC3bOcaKgDyIKjMcubKppGpcjdq+g/edbB86N3jvQM0ySPy46di2G9rIyZV+ta6MN0IrdWuk4yBa9cYxbDV7nrwsuihknQmXmdqzCW+PUixg4TJ7SZGipt0GuGE3Vn0Ybi7SOijie6Ln5gUxoCCmx6Nf+atQxqde0+bP9N1repWKIQKeneiEnWVwjJXH8/TZZ5hidktQ+emFsv5i5ei+sbGxsuWDevLDu5Z3IJmxyS0ityobKLwagc4p4u95QrEgk6lz7UwwN9tjA2esCxVfXo4Nf9KF9oZdwENCHaN0LbGaWOqdOPToETNN+vXyXXIGYyFnxP+7oGbZmBm+UNgHVqmfrbDhDcODc2GVyvKD/JqnNhqGOWHQmhfNSvjZ5pVdCA96Suv7wQ36Vh0dLV79LZ58qDzB0X4xMhJDOtPXUX/sEkctijyUHkpksbqt7EMCj5qa7dX7mo8IHg47a0WCh7at1qEwLGhZ6CNvseyNfWSrT4KTuJur+RwSQQPXqf5c1w1uVrwEEgRX6QROI9CKsJJjJp02ydhjQwJQzRpCVNRblhhqL1P+vobiA/66goeuA712aMKHsD6hIdLOpE2QekPy8RDWoGLnRCDTU/wkHXM6Th4zpbOnIIHNB72jpZd4CK3WpAkCzLB9whgpBxWlLchz8ZhDSwQqqB3QQE8RXFL1vK6Tmyn4YjJ4IvUeEU5MIwCeqFE7lA2MMS4DUphwzr66An67KEYMJN2LYB0K9VGYSKFt/YzEDwEwVbkSdwSV5J+dQ275WRj0VQ7v9oDW21C1wQiaZt9Ml2DwyXBRPQidMcx8KQatoNQ/DUdwEhscGUoX5pCSneh7EOF6xMfP1j+/qfvKe+9i4PxWnWTddGPX2s3H+vLhuaXWaWs2JarxNsH5vfycvntzz1b/uIrb5TDR87Rn01S1wPBA6gJY4ebDwPEQPAAzfZD8CBqFTxg+WiB53h4r80ihj8GoxA8cCK5UvCLLHN8/dHz5YtfeaH818ePl9GNe5mwjQTTMeK1S0wMnCA4GUnBA+9kpCTdJ7kk1A1hNBQ83M0+5I89cEv56w8dgOlgaKJdqyifA5UTpYQnW1LzXgEMyPv3Y8scCB5+/IKHbo1GPTecTtex16dKG04qNZJWbLVw4uYoEEycPoQPZhWmB06eISL6XTVLZ/hhEYfrGufZS64yM/RHcA9vGx8bKevhLdcx0ZHFHCaiVzLGxFDxhenLR8l1mmiMNbJePnqsgSEb/uOnNgHbrKqxTgIefv5K+eYzr5aHeRa4CYHj14GR2y080yFW3dQ4ojTRoQK3iTg5cJ8y25smhi+XnRML5aPvvbm8/7Yd5Xa2PsVZFqQtDrwyV0GHA6dwRHTe/PI9HAXI9KuJTsZKMgZx9Td0M0ane/3NdDNl68m+x7HeiQVxmgqPL9xCACMByCk7mJu0+TRZ1ZVV+6SodCYL3pAgfELkY9DVBigjqdQpI5Qzu8YlKz0yWh3tbX4LibD70O/FsiPv4prsOHkkzj5wlXkK8rvqQQi4KwDzzAMP5fV8gA2E9waSWME0yAh1ow6/+DFCCB/eJqhvGp1Mu1gVg/KqtT6jZN1YQpJhxauPOBZobIWEtiHpNSZvuOMs6cQ+cZtWJsBLGsktyIrPIIfG3basXxrhM4/6vcqOgD14V/le8ymf6URNGlPtPPjOKAOgxkw0o0SulGuRNmYYjoelKE7B1FjgLWbB5GsZ+VGvIeqccupkr6Sr6WQsJ3BO5EyFoHoQUPBb2eLYXxPgBRzZdqy1EDxc9IyHVYIHYFMoG9dphlSEuoytFrVCADb+G+AtPBPyuNWiK3jwVgvLKRUlP5G9EGk0xthENDfCRA8R34k5/azPfMQVH2GkFV/Fqun7pEdaKZkgHs5XSTzPeJgJwcMUdDk0Yd9qP68hh+h75HPEEi5KuG3DofGgwCUztHwKWBQ83H9wb/nojZxBQxm7gge1QIGXxHmEu9FyCTzU8plD/415+efepiE0GqySIcbBIaSXC+Rvyej+cRdf0jz+BLcPjgOdIcQhtlVEIBsh/ZIbhOaoekZT4kjxSbtvB/ofq+BBwGujzwHMpsmgSnnn2eP3W7/+VPnCHx8qzz55BUZ2T/AEQ6xSOHkPgmgq1qpNg3szkQ0yZV/OEM8yKmobt5wt+28ZKv/8X/xSuf/BjWWCVTkH6wjXxMaBN4lNe5VpOdXcqp0hB4KHNsbETWg8cLjJKfat/sZvPFy+/KVXy/Qsq6ms3iz7QOyVyXTFQ+l4TOYh+Gg8gXMbhOwStMKhWQvvdMHDVxE8vHqujHA94TLnNVNIGrcP1IXtXwxBEHkenGSQpEK/41aL+Stly+RouZuVqn/2Tx8qd93R4XobhysplE7BQa6hffEi2VZaTDKlHYTBNTx0la6xDNuE1zXajj2zHwRIib9wmBsm3JOpOH62U77xyFT5wz85VB5+/LtUI9e9DaEKHB2tbck91qTYPJlZJmLZcQ4cDAQP1MbbFjxE7cSPA0clgOB/ms+s36YKGWiCcYdxcDz10K+nvzNdvvSV75SvPnyYQWkrQgcEDxxm1+HqJVVlHXecLOT6spMa6jgI2TS92m8aqprh8Kyr5cP3Hyyf/Oid5f73bS4TzHI8BK+DXnccmNXQnikFg4UdyeqwBkZqVR3/GKrN33zqdPnCV18uzx/mwMIxL97LvGU0g9ZFnMC4zKSbhW4YpFhdF1m0vJGhKdTUT5d77rih/KNP38+d7MNlN5xG00oI01/joWYCKzNc6zbRZWU7BsblZLEf3sPr/tXnHynPv0bPwpkAedsBfWkQhuOS62zEjnFNxqcSTJY9/Cj7MPW5NHux3PquPeVn7ttXHrp3c9mPpoA3JXTEkfG6YyPfpG9Pbeoy0DIykWUbFQG0OPVpG/GarKLdT1Nc6MtqEKKMs8TqqSHDI96aeK5G8Sq919SrbenMNrLGNkb0nXiEYkADk0KNhTkOoGTZx33VrtTGTRMe1tjNi9c+mwqnyWZpKANImAPHNMtyGHXgR7lS8yuPPs+tAOgwLKjlQb0igMiDJFXKT8qLSXtgANjhZzzQ9Qb46XffNFkevPtguXXvcJzv4DYLYziSLiKgUfAwxNaHNq6ki0CNjl3s+Y5pcNb96NKBLkToRYwgkQSOaevku+k7CcFUD8odZZAIuo4GIIY0Z7qRNr4KHgg35Cpl+KXHtTEjeisqIWQqA0/GAYKg5ybhDN7/31XZSqvzPBUS5Vy+awIqfkSD757HoZxhmS0aXnGck4cGhwF7RFuDH2tJqAAkoeJXiNKl6xwu1VWORlVs+xpRax1LaVBcqKvzamE1TGQMFEXAKVwjEn7YfosDgycuoHQPRTVu+jZ2EzjcTUCD3bxGuun4PX8trRo5caNEM+PXzf+gvyZ2YIVOaikEfIqyFKpTQirVJwpEm6gwh25Do9KRfaSjUqX/1uStKafZiJN4/FgjIyz2NfanlQ4VPDzG1YtfPvR6OT2PnqIaD2PwrnEYtEJaF0mcrVKnCh5qeRt8ZytvUltiOxCakJMbOqHx8Nf2qfFg/dVNKYbz5pCm/+qW0zGELOOPF2G0EjRBLPGSTo2zEfJVvDbhw6EdIANdJbvvcMbD02enylOvs42NMi6ObaKIzkesP8oc+TiayZtLSMa1Tnmn3FQ+bREeKBZbOPSWm5MeQOPhw/u4qQUIbLNsjsMffNX4uFlia9/SWepuGcNtDX4qKqKD4cPiQYvKQPXCynEQu2JKR99tyS6lIhgI4YR4neeA30X4vjEWpKzJ7A9M5a2bH7vgQdBj4AmBgUVnRY5amkcf5Hd+6+nyhf90qDz1+EX2ouyDIQZphBsIHiBlO0BIIFdAYJyGpmk7J8v+/evKZz/78+XBByfLgQN0cDJxlUmAVux4omNtyEcyWgsTRMzPlIIHJgC/8esIHr58hG/0edxDHocjOSHPZpkaD9khxZ5QgFpuuFhPGhZKNR4UPNxYNR5+8e7ynneaxgOCh1ePnOcE5y1AvCEnMjEg25lZpqwBm3mVqIfggTp68+s0P1nufIcKHjrjO+mL6byRhntU2TC2h7u5fzhXxaWsSl/QIa8xqSDc4IwHB3O79WQA8s1W0zbirivHb3useF8x2SOKLaoaUwh/HGNSbf3gOIug740zy+Ur336j/PnXXyzfff0iK8ZMuDqe9Jyrq05yhhH6LXLi8cI8Z3ezUjyC6t0ozxArG07Gx0fmypaNi+UX/+aHy998aBenlrOyTPqMdU3JEv6AQ8BqEXUw0BoYe0YFD28wgfvGk6fKn37tFQQPMFCUy3valZ3YxwRBEi5ACuaDWsDdSa90qqrtkowWQ/HIEDcFLJwud9++s3zmF+8vtyl4QC062af+F2LtBQ/ZFivL5l7qoSUED3MXyq237C2fQPDwyXs3heDBGsyqAlN1LLFdgyN7s+sKHqzjMNZImyp1NMXEXuDfpHEJfk1v60CXmDA2nuZpIOIJUSTvj86NVyWx8DMopgkS7aDrHpkRDzv7ZZO2NEKWoZLBiiT69mP6YsNHk1hw8sNhg46JOLga/iq0+8QLp8vjXMN49NTFckUVntGNCHvXsUjnNbfQJozSIhoey96GQP/roZHrma3ed8/+8nc+tbdMwi95VaE3zLhRI4QuZipTSaHFmfiytO0ncWzANLXKhb2GizA6aHSsDt339Mgg1mR4NL8rowQ8xo+6Buu1LWaUbpyoLJPtmgqRDk3grp8vFcDV74TtEdqKGP34qLkGREGQuIB8ZWWIfMhC9r1SWS9HfeTNkvlPlWcJRdwp8K31YIw3K20vpbf+ltxhQiH9dycatVDVrgBgZ7vJtlNzznjZa1TWPkq+Il6GruXK8tcU0jZ4PrWnqqEan4CnhmoCY4VzJvF9fy2tJf1+JnGTafsuVzos8O3MfKfYS9E3mmKNlVsJrPXkx43XxG2/8q5prPzo4+8ibWyefiMX81K8G1pWnJfzxadfKWcXuaIYAcPw+EYE9fQzUOwiY3/0WD+A4GF5EZ2ehemydfN4uY+tFp9C8LCTthaTWYjZ23zUPRtx4bFbrnwTN0ExXQ8aj+/RVhuMdP10NwEcZHBCUNF8a4UxgCnmQYtHmIi/yLa8JxA8HOfWnCnKOjS+AR4HO7ZcgA+EfPIAHa86hVcK0yRv97TErTIdFtrUoruBnwdu2lzu5VrfSbKyj+3IV9hoAzZ+gD2X5Ewp+YWgAT/7bSputIXZ9PkJ9AVNCkHTEwumRtxhnGsl5DnWS9uNVyZkeSo+snAR763+vLMFD7+N4OGPEDw8huBhZCB4qAKEELz8VRA8QJVTcFEhePiNR0LjYWoGCSPXo4XWA53FSsHDD7nV4h0seBhF8KDGQ0z26LGii7cl8/hna/5JEjzEwUEKHhqhQwoeovft9k2p9UDHNxA8QPd9FDyI4Rw/gr56LGAytzGAMKoEX9+MpZ4gfxmh4POvcM/808fLtx57ubzGqeuXplht26hAiYuhlr2ecJzBmHvlOfXYIbTjpdioGs5Nnysb1y+WfVwl9QFOzv/ER24v993N9XCAYhaZjUC1aEAYGqcuL9HyJnBfjJO6Knj4+hOnuJ7wcGg8lOEqeJDBIJQSCP4DpjrZUfAAp5yCB1aaG42Hzk+a4CGKbk8kKwIaFDyExsOFchuCh5+5vxE8oBn4lgQP3XqVnalPu3qlkFz/0bXLN3bjWTXGAzoJVyAJlOGM14h8LEfEIUy+4NdKhK/rmUhST4J33/OzYVevF/Otu5uPLd/Hd0uh0MCrFD0ocphDJqXfcyy8vM6Vty8iEHyRWzu+e+xMaCm5rWSRCcuQB/eBl2UED4ouN3MTwp7tW8qB3dvKPbduL++/pcPVbnG4eTDEajz0sOJHF7uESqN/PALWmDebFFpzMZmsgcI2TSNqr/DApbK76VHz6SHdeiWeD3BJi7G9mmRqUjVOfjdhTYD/65tW7Hit362Erx/5LfkITn3MLftBazv3Satyb3uS0+lOPGtOCid4Vzhhz+3ufwUUUoku+plmfXjtu7FHcPzwj5oIOCrfiVMP3wKh6RYj4/SqI0veCrYiru7t5Oq7djuO7/k0gshurJ5PYLlmjHN9JWrfTYXThKMHsmtqMhSiAJai24atr1pKWwBzVRx5Cw8CVUB5tetyqIk0CFZto/TTePDnAnv31ewyF0FQ0PkIGg9/+vSREDzMI2wfRuMh+xjGflb4o0RsxbyuxkN0CFAOgge3IWzlXJ37uJXlob0KHpKC5R9+YMFD4MYfH7FxPYyATPudCE8wXyKotriGninzHHOOU9ivE/ypoxfKK6cvc9YKtTSGgGUdfME6+ByiLNG/LrNNwf4o5tnwCB6Kq7aVmmLzVy6zbW25bOf8oNt2bi7v2zlc7kDDM25/IO24lYVyWp/yF7aiFDxkGcR6TOoFtd9GHPAAetcEKjLrxJNUaYAgQuzwM4JLh/nY7rPnyd4ncEu0DNvY3Rze2stA8BCkUZFnLdghRHVVx7RbTrVeq50BasfoV0umtTIQSdut5yrgT/oZD9LqQPBgQ5c2sO0gefzDcSB4GJovd902Un71Mx8r99w+UW7gxPlcLW8aTfTetqc1MFkFTWfqmq0sISfLo9r8Oqrrn/v9h8vDT75epuY2ocHhAW/CIEUb0T5CBzoF/gNa6zYGHFkOhxv8gX9+monc/k751EcOlr/10B3lwL5UQl07wUOyjQCBYZgL4ABFMuRdlNq9uQ3KQybPsAJw+OhS+eq3XipPPPtKefX1s2V03TauLRxn6wWCB1URHYQRFoWQcHmOQXiGQZizVvZsLO+988byiY+9l/vmR8oeLpqXuSJZjPQuvho8VUQ18ESgDBih+/ljDQwED99nqwW4ly2SUq2SvgserNBoE6YuHfhoaqVLFzytsTZIo3pHSF14ZJLiNXvObFsNXUV40zaAHzWBavecDFFNfa+27vW9RbE1eF9toXXlMVXSoVZUc2OlDcGD7U1G1QPArsIEewjs4RNz5bnvvs5NNFfKeW7uuDQ9G5pIHRjbUZ71oxxutm1zuWXfnnL7gcmyZwcrcB6kST5YcZtFTJIsRXQC2HQEFWs6ayr2AnMNMqweX+ujX+DHyKtN1HfjEYlkgKQxHXqO3a8mny7yjYKngge9ejF67+FmOSpUkUZNSN/maY0ftRx4Vl9f18ZUULpwUcdsEbZn9oQAuUPPBQjab9F/aEUQKsOkQnqGEePU4Jsho88lEORsZS08VRhrucyzwoK9Ok6ClAGCJNIhfiOJJm5NbrVtwF7ylXoyl0zK93YrzT4s/Xoh2t/t95p22+0Hfe/GbcDpkqEJ4Bn+TdU6DqXJwELsk12hgRJ3QaZErGju5pGR+/orDToRd1tvU4S4deUx+IA/ffZYbLWYQwISh0vGdtvWVos3ETwk7DUl+7IZyjhftkx0yr0IHj6F4MFbEhSbuTi1BB8R1B/b2bL89dd2EfipyQWC/CCBVltOJIuWJmDt08IDN3FZ/1wM87wqto9eAsFncf8OB0w+d+J8OcK2izk0L4bXT6AMySIhubtQGOEVBAOzfN8I2g8KeJfYljd/+XLZPD5Sbto2Wd6HtsOtCOb3AduE2QY44os+UHjjsUT2tVGygBCftTPCoAlYKmaFABM/9s/1IVCCRfCE0ZlKI24Mr4hS0+ym4cvbMwPBQ6C8IlE0UxO1B6jO2lED6VDrodrpapVVl4HgQUxI3gPBA1gYCB6iiQw0HtZY8NAaWBxIVggeatdkTeBlFydj5J7yi+havvzqYnnkyZfKY0++WF5/40KZmh1B+DABo6BaJAIFpfeoSS6xojHGqWc3oUZ53/tuKfe//13lzls7ZSv63B6MluOYLZ9VvhiJZXACsPwNOPgORkL39OOlbybKRWputRhoPDguKVgDzzGuyVhQCVYBtu5WyZoIHiIfaSHZwFrBQpD1fu1YW4fegClC+WYfigWDGTxmZeiChkw/84g0q0Aw8sBLY9EJIxR+JD0KQyarnV++5XuFMF36/KvGlxo3wo1wLutD2JxcurrN9iY43to+pxBAoBlcznAA3OmL09iX4hrGMc6m2MRNCNsnN7ECN1S2cuaIKsAKI7w9xraoINAT86Mp+pMowOFawQNBr2E2rQ+j1KeGYR7dS0vHMIRK7hu7uhksaSwdG3prvLt4NoNqmjzr52o7kyaCxCBkETd++G5STElxkHwFVVtf8eKT6fDST1NBquBQx4FptBnEpboPMvYheHD1uxsOd4Bagh6YKhGiOcUjgPcLTxIIkl8z4HuIEKzAT1Oerk9FGnYL9PCutZwebxogk2l5tdNov5tWptezuzDEi0hIRKwGcWW4N/+qxXgz3+/lF2Ujw0p6EV8AWpGC9PiuwrMsV/Y6PYgJUDu7NhCtdNrO/Xpv46q+u5HC6zS/dOhEOTGL0JPDAIbGJtBOMFev0jYkvdFqwQPEGODa5qPdI1RA20HBwySHS963Z3P52X2bEDxY9lz3l2oUPPiYqib7ZWuTllGBCo8awg9yMjOeiragjyqUtmFE48iePnv7mq9CvzEELCPlCkm8AdPz/CmuYT5xoZy8PIPwgVoZ5/yCcRZZMFG3kZY9sOUGdrZgdMhrnPc9mybKu3ZsLXfvGonbLLaS9Vjgih8PngxcZE0njXbFvt0yREZ9/qnY0g5UCY5wVY+aH2dveX1owGlATPQv1EDT60R83fXuRRefTQQ934YZCB5Aaw+VvkEwlbLbiO0F6lZEr0IMOBA8tNElbqT5geAhW38wH00HnR0tTd0OD/OTcMbDYKuFFN906NGnULcMXj9SjYcY8Gx1PnZYDO6CxaPNfAdBAkwt2yWG2QvuILNIGFdXL7Cy+tqxWQQQJ8vh186UE2dmy7kLi2V6hkEbaT8Ri1cUTk5yZ/WuLeX2W/eWWw9uLjdxeN1WzjqYYKbj6moOvOQfsJi5lJ+dp8NaAGMf6yQrnlbHiks/jOzCQOPhHaDxIB02dFAn/Vm/si/WO8+qsbZ+JuUY2vGZryAdUsEOnpDJdVK5HnXsNT3Hb9ueceMHK9b5SEI7pzTp12MIm5ARo/1uKv01wAvzqhBP26agQDZB9YNWYsFg8uN8Eb5VwfZgsCkY5ikI++osKssE8uy6MX7Wj3H4MBKG9bUN4l7xaJuDyUv81YKIQB6zEXttY9njaTxMx1cfw2vEWlfwoIMRwhCqtvuum3FzCmlA39um/bXyvQGAwKvjGD/C1s5N6OJdH3GoL3lhBSr5qrY+wt/TzOKjn6ZBVNShcIXWFyUALFWvVWdW8OCnvH8XbL9xjLomXmyuwDO3agJ1CNQsW4aLBPoJdzutHupFfs+IPI3gYK32Cm8dG0Kp/uEedJFxM35NDLcw2UOYalJLtfWsKfle4wVCW6H165kaquey8u16/tdz78ambFG3bZCqZxM5+ycc+RYVBs3glZK1M3DtCSMJA31fACLk2/qp8CRM3AZEao8j1PzScyfLG9yyMosqpGcfuPXAm3IUPNhbxDWa3PDQPVySgmZTqynCJywieED4sGW9h0tOlp+9cXMjeFDk5rYwC6guVva9GTMh6Z4rkJ8grdJEgystqt3xXeO5EdGADC8gPOJbMbvCO7FvmDyGmYUUjn6UL7hAuke4he6V88vlu2culjMz09zsQRkVPDQ35rgVZWlxDt5ntizOTMX14Bu5IWn3po3llq1ol3GAzl52u02SJ8dw0swz5x50SZ+228BXU6bsB4zA02djFlnqQFMInOX5wlFPyhjbSxU88NQ+xDh+eFtFd+AIt/yMqNHSEuxKu02Qt2QNBA8NQhN7DWXXUbuN0hahWBGaaudXZX78Gmg8iBsJeiB4AAuMVNElBoNpZ5pNeSB4GGy1UNJsO5HZyok5H12T/dHKfqbr2X2JrqkGirNfMsWu4IGQjouL7K9YQq3bcxpGPDLdSQ07wevY5MRGAcRxbqE5duJiOXn6Srl6da7MzXiw5FJZvw6V7l1bOdx1Zzm4f7hsYWOj1xQWDowYZwAeieUKUmvoXACTZcnOs1eafKvDWLcgfXqxPAPBwztA8CCjY1VDD07588NKduqF0cmx1jDV8B7O9TsoqAkSHvy0mMycpDT9q6mG4KGdIAlFZrKitaXp7xMe3eyrazfrNXkBfmcuCh8cFwQhwMjcbS/uw15C0rDEkumQJ8vj76Ur0rVbpKIUBm+MySkIkJWPe9nDL1telDPwZuAmUuAv0+l6Nb6GCHD0qAZH8/TRmE/MI9th9GjyTU8d0tRgQlRh0C2CN2GqtTJEz7WXRrr1wvEdnv60UqWM1UW467vxKsrfLH+8356pGWH7moZ6bjK2DkPw0ApXQ4kQyde2kgIjfAC+jbdIx7TWBHgheRPAoiBkGHlmxi3qMlIYfa5HF1UIlLFXgp81ZRLJGfVqLpIN93xrx/Y9R8yK52rXWKvtGlv39ns73PXcu2Gsj4qiJqGIUyNWu/HTWglX1qbuK0wE4icqWJ92QitCvu2PAN9CNH3vDFl5q8WffedUee2yVxKD2fUb8UYUgOBhqJP9a1wr2RI8xM0Pgtkd79kkNMcZDwszZceG0fJBtCJ/dr+CB+OnsLVjRxbaDorWEjfavoXGQ742SBNGHRpcYKVgLp1NIYQPBiFMQpntp/LYCh18bHOLCB5880yLc8Q9wRlXr3DA9tGLV8rpq1e5ccbTdsyDSTjnOnCwFYIHOIm5mbKJjnUnmg637NxRDm5BAIH3RtLiLG1SFQXyPfY0Ppqml4kGDUXrTNjo7y2OT59NnVmIHYUDns0S+SaCM7eAocLquNygOODN0ycqaNGW+ch0xa6mNbeN77f2MxA8RCVV5IlaCMYGudq0nGo9VjuDWjHVpVU51alJb3DGg1LFweGSNueB4GEgeHC4zTEpmc2V3U72R6u6kG4Q3Q0RXVMNFINfsrdtwUP1NvLQkAdFOjVnmIzrhjlhGobHVVUPnZxndsM5SmWWZw5hhAOQ/MIoQgZvtvUA6DH3kBNeNmJpnhP1ec+rNw2MI+mZZzIDAWE66xVPuvHad2PpB4KHH6PgwYqvJiu7y47prHeQiC9vErYyUG2v7ojaODpE+5pU1EyDqtChHZEwNTPXwYyRrH8CFvEJn+kYuDHXOFSPPthyg5UjdKJh2yPZLEXCV7M3mEFYLKdN2i45AwC133Xrxth7nGtPCirq4YyjaEDIjOfan/m0GGBBNzFMxZ+oqujSxyfkh9htY3j7Kc11607PTN43jDVZje/Vs9rVL23D6mP6ObvzBRf+23D20szwNbVqt0u0Op5h6mPqa2ECPn4CnjawbrdoMowDG+tHBaIBrIupWkmNv59hsOtr49I3K6cirhnnRCMpzOQb4KgdwbYue/WZ2Qdd+FrLRRRfpW1px6ehxhg3+IxUtHuRauS2W7u09b2Xf41R7UjuOj+92G8eoPq/qa8ZNI/z9jqJrNVUvSseIi0dNdVe4Zhe3UTjkwDRRr8nJDXiD283fUXWHbVLNt5qocbDn790thy+MF2m6WM667l6mrNjVMlX+GDtheDBW554JIdrBA/c9rA0c7Usz06VPVsmygMIHh7az1aLoCX7ItKJsmUacQA56bT7lWz7TbEqzmopCeu5VEKjl5s1sq+TWkNUh4t0ke3MPlBRQhU8hKYFsHtUJmdoFyAtF0noJAg4fonzdKbQ8uTwyMvTXJ1NPzqOsGFifLRspq/duWFduWHDeNnFdratlCEOkySuW9rQTSM1n5ozr+Rs2wkRu1uqmkJWmsFjDYxYSTiigoIwA6PxGRnCzImtfNqUJ0DZOiv9NjGbNJsCNGEirbfxMxA8UAU9GmiQ3+3hW5jtBSJGmmrn10Dw0MJW4EhSHWg8gAV6nWAEG8lwdosDwUNncLgk7eStCR7afY9dU0inowHiE4yCH6Mr+irjRFiG3hQ82EKRIrh3k8OevApVF1dVw2Av8CGDoVq3g2ac/Iz7CO856Hvo0hwDMMzIMOmQsgdXOVOS6ivTaXq4xpMwJCy699uY50Dw8M4TPFSysr6lhaDZcKw+2A1xSIfJRKYd4Zt4hq4xDK6J/jUED/hVTz1MskYObaA6YYFOa7hqG17TSzS/+/2L9tAywgPP1UD9CNa4104st6aCXN8V8LmothzbNLxdhlU5uF6vQRP8xFeCLiMcKQYiiOlEwaleMP2miBNlrHHSJX8N2cOLKfMYj6eGD9gary6ujE4wna81q10TwW3X+q6P6Ucl6lhhxqPmH97+NCZTi+wDHGs4Iamp1pDV7uZSHfpmm6Nw+phL73wNPjQVuQFahTy9Ete+64lfndHy6nkB9mvGED+BI+x+G4VzeQSma8Pml389imxP8AzRMxk+i9imL+GOh2LlRC1GnaYMgQhCYMdr/a7pkmpkU/OqdhO8CVZjVbvGXm3X2NW+nn/XfXWCzXcVPFgvtb5rUOvGdtQ9rwCPaIpNpmFVOrDQ8W5sH2J3Oyw++2wUUHpDQ5zpk4gtV8n26Such/T6dHnxjBNvFiY446Ezvp5w1hyjKTxsb6uFmhA4R7+ATUFju1gIHpjSz06Xm3dtKw9wxsNHd4+W7W4pizJqE75qTdD/NV12LXl4B34qOggeBkdpSqED6yERXo2H7OvsA+2fkjYNbxr2AwoefIZkXDjjwftk9Jmngtxiin4G5z4ggKCI51GFuAqIs+BIHmicqliPcHcTqyqbYW02EYfL4+N64vXC12yVy6soe/2w6dc/xQ9eudoVPCRgCSBJ9NcEUCRpnTUIC3rKvttRoQelb4avJrFlvIAZZ2m4R921R6vUHZ5v+WcgeAD50kIa30CsFL7atJxqdVU7g2a15nt3fSZbSCutgcbDQOMhG/xA8DAQPGRnn126g+TKHiVHp2td7U7aIR0KwkHH6KdcWfDDoTnj+6Wc29lLx32bMYQbj+EFwYP7EIdQa4jBXf6AdEwqGCzfm27RA6cWYTBG4CBjmHcPxwJ9nyrhPphgSmp4vs3XgVg4YzDrwmno/huH3YHg4R0geGjqWeZSGq9GZ+mgy293iZdQLu1jDC/V1EfX+ugfoUgoaC3iW+sN0dXx24w0NWJoA9UP3PWvYQynCaC0I4dw6vePwoMFrqcdadSHKucgKJa7BSHgpYtKsJquH4HDzwZqsfHxMQWOpsSmD9BPweIqwUPNRzT5rqnp2kazXvSpD6/US83DMJm2L8Q0MqYVOh1av8bWZNB8X/mVIQKO6q3dpF0j69T2DvdrgvWo59rQJmgJoqQ1et/sNnwmGuVpUs+6zFp6U2S1AhvKP1OoaWrXINprYXIlVPwpeGh67WhP5GhD1jRAJJZ7GF4NW4XbcJliYt22X7Ff43QrtffSZISlMWBjTDdNzaHBKXGTRmNkqoFW2DWZaq/w5OMa915mq4NGYL1jXMWuUFTqiqI0IGpF2u0M4h2fbkdYQ1XsXJvl23WJ6yU52Da2PDR93BSV89zsUnns7HJ59vjVcv7SVbQfR9F6mEArl+0T3GQVpURgkEKDNxE8KGVhG+cy2xJGEaretX9PuW9np3xgki2Z5Jfn2NAvESzOPGDPxJDXVFLUSkeiw8fSB+60WyZ4E77t3cSU4VKbwXqvdZ58RjcdQ8Ov5GG+wD3suMjxlwRQgMG5vZG/Ao1p+ssqSNLP9OVoxoFKcYXvanb6zjKNBSGtKpA1x57J3jLLE78CXKlrZdBepLf9ZibNU/PTFkbyFG+ahC0CpEPLVV/B6/Jppgd95pxFn+wVWhHf0utA8ABKe3TgG+RWGZc2SnuBomr1Wll1lX3QZyB4EDd2KAONBzsoaQPbAabbiAeCh4HgwSHg7Ws8tFdWojNrVCMdYOuA7A73RSY8i1wTNcYy3KhLT5BjqE+iv7jMCDw0gmqlm8QxIaG3AdMdBn9i/2cUnjh3HQGG9107lxvpuMuRgIbXGMdutHFyb73RTTlVjPnSwWcNjAPsQPDwYxY8SFvUg7QTNNPUtW4aSKO3IhiEI/HgqweE4VeOqMlQVlLRNkjTlSYNhSaDrCM+MXZrR0K4NcaIIXjQr3Gr9oowptPNpfr01V6EQZ9H8NBB8NBx31IWOvMAJnOX0fMgWNss3D8TBVfrmrIbko/cXlHxRrmioap+rNDBRz/TlxayXRu1iZE2mQVqcO+WWoY6hBbm2DymHf1Jhkv3jJmTPVPuhs4Pfttp29tdG6IGNaQG2zo0aNtU7+rWCrIyaOaReVWerJ2vdCEuojeqqfXfJssgRVJOpr3C4LpsOOJhoFbWljEEPDr7UR/5Sb5qWD/WzOQkw9/IlXYUZFTz1m5IrfbvOvnYauv0rw1ecj9ZI4aqpVph1/TbEVe99/CZmKk9xEqKVg9PKHr03k6moq7abT/fr3FfDVdUQnXMmu2lkbGjhG0arsFr4itsPfMxtd60uQbqpd6Pt7guknF72EMUo3POwyVfhhafZ8X/ideXyomzl8v0HMKJtsYDWO2d8dASPEjM4GRIJsRFDYQOG9DGuvfWLeX9W4bLbWzP3OS+TfEWwgl6HwkHYegQ/V+sezQYsMTtJ8oranBMDGVN1/4rsgaupCx/xV5iEOeMFPW1EIJe94tabjUzFTj4aGSFpBabo7yD2g7aocSJncbALLjwq+DBvBNaz45of+HcpJvjTf2ICN049WttbPI028iaH8q3RF07smksa+IuPrs/GaXBnx/iUNwTOPCRn01pu9He0stfDcHD4xdglPcxUNOkYR5UbbFXt2sUM7VLC0wFc6G0FjJk/7LP8vJM2bjlXNl/Syn//F/8t+X+BzeUCa6f8ljhJNeKO9xMs/Zw1Vlbr8ZYJ5pq51dtAH71WfBg5tR+MO3maxmr2ijqQ5LS0NA0jf9k2b9/XfnsZ3++PPjgZDlwgIZmp1A7QZJZ4ju7yxwAYnAR5D6bSrcDwQN1xcj94xU8ZDsJgpWUfKhvLB7e7HH9wHjgmbdsDFdGNdztstgHd7ZTvvHI1fKHf3KoPPz4KwxMO6En9gLC5Kra6+O+vfpERpFq/lx7neZcueu20fKrn/lYuef2iXLDdq4ZIz+hDQgdGNfKiIAuElK9dIkh5fz0UHn95FL53O8/zPWSr5erc5toemtFDCgAAEAASURBVFtiIp09sQABl72xtq/h5C84iHaZQyAfK2+1+BTXaXILhC12OIQDYr8neFjZF0Wihsz0/WyZyLP5vkbw4DAhHNYFYZL6mMRYz7iM0geoC+HAEszEIl92Ka42q/4t3jMi70ThUZCQZV0gHe64Jq1huIakE0q0OnzD1+cKgkNzw8jqEAlq+d5/4yB5reCBnZ3DG1hlFmYolQld3aMaaLHcwBUH/tG/SqvDMChLnmYFtjpDV8vwwuly9+07y2d+8f5y2+7hspvbPN6cvX37ZVpUkwT0DIcEJ9NLbOFOxS2jXWI5r3BA1ovQ67/6/CPl+dcQ8Qytw88tNlXwYLskvInFuNaMl3xKHbpbdX29TtMEeaJbAX1ma7XrXI1Y7dKthFgfwkkX6ZLTGCcSOmu0o0ZMzEB+sGUrVvi7vmYaOWSm3cgC1Xy0gSF2RA3ewb6uiRu2nv01CuIWED54xo9s3jKHq+Rb5iNosUIIxhQYLhOu10/gR4B4CKePxmL5tgRdw1ZTn1BHEDZtE3pIdtOQXUxHeOOJEZ9a6ogXcWu9GMCANWTmiSvG/ivddW37hHeEqHnUEKbbDml8TZN+FKa6pU/3t+3cvNdUM836JWULWe87/Y2UPFOWuJty/15aRZNXzRP2s6UJT9RZgEX7a4UN9DaaJW2cSh3+Wedd08ZD17E/LzWbyI+qWiF4MAvyroJlqyprs+I7p/1NsACoV3JL3+sxLUL3qZlGjOZHNwNgwpv3GiydxZK9YKVTbQV0Ch+s42tNk1xN9poA1b/rUTOsDtFH2G+aVxe83psIMfXofwyxytQMDNL1Mj2/xFTGT7sboH8vjCuLCh4Y22K8J9s5Gv5r5P0K748eXSyvHZ8tFy9zzsEYa/3egBC8irRK3an1AC1mf8Ar4EZfFUKFPOtp+/r15UN3rCt3rRsq+yHq9R4WJTEZxmuExY19EmOxbKY1iE+UHKvBQO9bv9VPDZc4sy7EWPPHp9vSIpL1JL8SYNPyYpy3BUKLJCpIcUOPScQ1HgRXaEu8IeebMqTAvoTbAo8skttKc+Q3HXUfrLNMK8jDj3AiUR2iIVnDwld72Yxj0DUxXYRlIR1/U/CQkFuCwI/hqhEknyZu8oR8AnLGpYx4+xjs7Zh3huAhSipzZO3D7DEQz7MB53d+66nyhT9+pjzzxEUqe3fsa5Tgo8FQ9MBPC3E5LkJxNBQZ487yungWF66WDQgeDrxrqPyP//Iflg8+ONEVPASBRUois43WpmJWY7fBeM222u10rBpJLEwvQH5CiMFE4H6JK12+/rXXyx98/tnyX758lHa4O2pULGQZM4lwNM3ozCDgoG5DSSMy/ZDRMIKHoVMIG8ZD8PDAAyl46Ej0wtBwGJK/wgfhE8IunCbWR2OWQviTIHiwPqOjojyJM3s1Hwc4H07JpS5/+3efKX/xtePl1SPny8jYFlw3MGjjSwtOwQNO4D7qDwRZx6YX12lav3RonSGu75m/UrZMjpW73z1W/tlnP1nuvIPr0thrZt9JyyBCm07DMaqYt0gvMU/KVkLj4psmxkVtnpWMWaYpuHpG/8yrHaftUro5fl7Bw6XyR3/ybHnkscOlM7oLV8oZk22YXexgq2KWanoBABbYk2bp4UP44CoekvERpod33T5afkXBwx0buoKH6KfN2yTWygTHB0yBJtfw6TO46/nCzHA5yq0Ov/e/f7s8/MTRcmV6E36TUVfuq65lShitvcbF15js20VTXqXrTA7nps+XW28aKp/88P7ytz717nJw33AZFb8twUNiyd8cwrptMuo588Az6q7WRfZVTRs2aiZisKizoIEoW/aTWYPWTh4+FxFi36O0bR9iPiRiXTWVHygyXYqdfSupMmFyq4VmROZFzoG43bC417DGS9CSqOwVm0IQqAY0pf4aW2YIHk6zb/XJM+WL33i5PH+Y3ZydCQ7k88AsJkvucw3uWdilT+uWFgHH4uqNZRhi/31tmyMIHoa6gocPltsVPHDQlG1yLYyr3ZqEMXMIvIY7tVkFD6xSvQC9/u7nH14peBjiAN/omZq+xySsJyolKYIyhpMF9cF9ieO25i6Vd92yp/zMvXvLQ/dvLvsR0EshYidqs3YgxqYRSFfZ6mNqVHmsCF1/jFKjVTINbNePgDMpJYBqQSiUCWmmRlIRRIYRj/yI/sdar75mmPWJY8/YaCsg1dU0NBHVj5rOm8SPgG//x77UvzBYS3GOiu0SIIRD04XHWswaC4qwofGvtwI0GWGNztbFEv1qrPkGYeIYFOpH1qARo9kbh8dvk2iSyVDRmPUkR9/D04A1VMQ0ACbrp9ZR2yd9M3qNGWnWskf89k8TKuqoF6Mdovve8l6Zp1+9JzFnrOpmxIqPViIG6ZepAJF8rWvtzK3VlrKJ93I1QMSpUCdu7eWz72yCZkK9eGvwZhFijOMlyKGWybzIX1JY2a4NUFtrLauB07Vn25uksRi1KGFXj8a/ba1utvollkSiEatt+orVG3o3YMvU/FpO3dfv5dcNFHllrV4bvnGp9CtY1wbKpGrQ+KoFzwjpdb2IPUjeypuC9egjPC06xm56PFDF5Q7lFBX99Nml8vLxqXKMaya5STv69qFR+IPoaBTmOH7afuht1HpUgE8o+Tq3PexYP1pu37Gl3HdgtNwIkWylGKMcPi0eDJNbHsiQ8WtIfor/WnO1xKvtNnYsc/32PWkg8eYXyUWCXZoFPoUGnaYMlUINpjEvWdMYVrsJCxGP/LkJArd8gZpq0n0IHgIHxra3TYi7YxKu6USCtREBtXk3HFsNYMi1MbUsTf8tSTqyaexLAk/dMDhmEdJe5V7jGsQn4mK/HfNjFzxkGa0U2RdRg8SSFTgFD7/9m4+XLzHJ+c6hK2Vhbit+MDfs0VFFUebYWAtI0JZCUuWJ6wzdXP2ifGaRu+dHygTXvW0qU1culonJM+WWO0bK//A//YPywQ+tKxs8lrRhWGxAEpRsZFaJqG3QWysBlxWG8Hr1vCt7YCir1irC9ALE51JM5IAd94ucpPr1r71W/ug/Plf+3y8f49T43dGZx8qk0SOJ+kKKwUyZjIxnZZBkjsXHNLg5VQ4eWFd+7dd+vjzwwKZyYH9qPNiGbFhOdINVtDFQ4PoXgPX5x2JbEz9JggdRlLUq7n1WCh5+6189Xf7iqwgeXjtfRhE8LA9xJRGIH/IB8ykZliSsEP+zK0paozaYyIXgYQHBw+axcheCh3/6a58IwcPEDy14gH6tBJ8EOlYd+WqMtWP+lW5dJeWLYhk8555Ehl79s7QnLyh4OFf+6AvPlEcfPUJ720uHvI3ADixM3IMmGZRSvEyMzEM7NAFC8MCKiJlE+5xnBXmk/Mo/+li5W8HDNstPUhVmAWlg563Pphk0QZMrUvNcncQdUuXybKe8cWap/Jt/+whaHUfLuUsTZWaWvY70LesnJgKGqM+oUz9z6PNt2f2Q4EDB0gg3t4yOrSuzV8+Wm/culZ96YF/5hZ+9MwQPY5TPcxYybmXEnDZYcFmmpv+wveukAQ8OAKyV4mSd0bZrOP1rON/9CCTGB1+JRIP41h2sI06TcBOmWhGzppnRMzKpJZx+Zmpmd73w6ZW/kUy88lbTbKL205JWe4KHs+VL33ixPP8qR0h10HgY9UYd2q2TPfDr475XJ/iiTFp3GUSGIwUP4p2xRcHD/Oly1x03lM/83RQ87FlDwUP005SjmXJ00RNjFTCq1WA5L7NB94VTy+VzCh6OCn2j8RCr3CJbxtB2WOtKO+sj6YQJL+NpTEbnLzMkXim3HNxVfur9u8tfe2BrOcA4KYVmdREvmGqS0AWESbWO3NJiUG1N2iDVEPQ6zo1H9cXOjFo5Ng41LWxdwtVo3ZdaRgPWONjdMLq3TM2yOnXTqRFqGjVAf+3ahiqsreaaGbWyF6I2uNWr2hWyDCNd82aCYUPIPYzVoCvS6zo2IePbuPmSVmS2OscmCOnX0NVltd2L+f1CGpPQ1wvWS2hFFr3gvbceVD23jGQi4uVHY3p1nXB0i7AaLMFpPFeFxLkb60cDdM1FQFbDWUHBrl7aFd/Vrklo1x6kW8CWZ02u5XTd15pfxqlf2vVdHyH43ql+b9/rZt941LyuF47UrxfkOhlXGknv6wS6XnY/lLv9pI9GOMEVg91VvrhJu5ym3R8+jzD7jYvlleNnyuU5JtvrN3DFpMKHUf7HGS/gFZmEL82xSMZBkmq8jo8Oc/tDp9yzZ3v5KeYg20mb4TGumuzE/IzEu8XypfnAejNUdYMKJmZ1GL97Yapv00rqZ7XtC5vA6dSLGW861rBmVj/0bAXIIFJWja9d+bdWUJPQrOjUawbdRDPMWv52s0zqys8u15Y51zB+1WL5vsr9zUZXg71V844QPHg9lEKAnOwwkV5EWZBr3H7nN59A4+HJ8vQTZyDsG/EfQ6AAI9RB6ub8hgYUgodAEgwUK1RD3FHvJEh1ojEmfhMjW8rM1KWybtPpsv9dpfyL/8WtFiNlHWqysW1DRh5VHFcPcv3KAUmJnmwUpl0BvtfKaezahGNy1Q0cLJixV8bn84cRPNTrZsw0hA50EmabGg+Wk06jtdViePg0gofx8mtutfjgJrZdNIIHmOzgQehgjKv6X6gZm26kKKD9NaJK3PykCB6sg171y/L7rBQ8/GYjeDiC4CE0HobQeADxXcGDIlEqMLcKWSd1eJTeqIkQPMxxRs/lMvl2BQ9VSNUAvVrVuaooZqmsKfbpQ19V44GmhHESnZMLp8knL42Ubz5yGo2Hp8pjj77O5HofA9COnHB3GsGDQgcFYZE/6UJvMfFxoq3aHs+wq80IHkZpd3fdocbDR0PwsHP7aGy1SFolQ4m9aWe89dGIFAUPqiTnxGkeQcLy0Hi5ODNSjrFS/rn/7avl0SdPlJm57WVucRI4mFghfFA9elihgwMv/ZawircOfmWED/ofxTQhxKSTmps6X26+cbl8/EP7yt/+uXvKLWy1cC3au64jTfqySIJYYprEoKpGABrbEsIp8CBKF5lSG8710Vwj/dEx0IL9V8HYMkPwgCbAN548V774ze8geLhE/WwIxmmIfZ5UHzQKntlKsUz/GFeByoRRt3EUPdWZggfaaQgeroTGw123I3j4xQfK7buGy49G8LCyj1YN1PaUgoehluDh2yl4cKsFq1LLb6bxYGOKdinFabCh6w5aIEsQ8vIcgoelK+XmAwge3rer/NyD29664GFN2m1CPfgdYGCAgQEGBhj4YTFAHx98hvxJnUA7JsCOoIHgyOLVmidY9D18fr68wlkPr1+cLqevznELxDhDB+PlyBh8EPwdCzXLC7MMlYtl4/hI2bF5Q9k3OVHu4lyHezYghBj0/z9s5fz/Kvw7QvAwH6o4aCiwn8a1k+Wl0bIA8f/ubz9d/vMfPVkef/h02TRxEMHCeJnjjtlhBQxMYJbZ27lIA1iCYVRQEO6+Mlla5KT1sSE1HjYixLhS1m86U266uZR/+b/+crnvgZEyOq4AQ2afCQRcaEe1Gph50yGBsGNSXnk0XLqGyVS0VsI5rcrwvtXAA8GDmBBLA8HDO0PwYBOxPjRSbApOKs3q4wGB0LOzNiovBA+xKp8hHapOXhxqNB4QPDyCxsNoT+MhVvppk6Ht0BU8SAXNo1/VeGgEDyNsG7krNB4UPHjGg1tNCEYUYzEnWjtT1QTJw/m9WkaIQsqFq0PlOBoPv/N7f1kef/okbruY7G+J4XoBqYwCBsVNHt62yKFJS0R2TXhkzAEZcOlTok9SEwvhyuL8xXLrgZHyCbda/Ox7ys37OoHppTlU/ymgK/Cx2hx9StZQs3ZMHgAnIhrjcQPoZuBUBQ/2M2uJpJrzXy1bEvbgqDdC8HCWrRYvlOfUeEDw0KGeqEToXNpX8ECvTb3W6X0IHmwgEGKc8dCMLZ2hKyj2nIJOdyB4eDDPePiRaDxUyLIOBoKHv1q0OIB2gIEBBgYYeKdgwEURt0rGFdkx6sFiMBYuuZILA+MCE4rY5QwLvye5Z/O1C1Pl8OkL5QqD6izhFuCTPKBxFH5ljGfDWKfs2Li+7N06WW7c2im74YG2I6hf/04p8ACOdyQG3hGCB1cNl5nk5Lmb7L9dGmNBcLn83u8eKn/6x8+WJx89D4N4A3w6jCKSuWEukR8aZuVvGFWfpdlcdQzBA5I4GpDXtYTKOJuXhtm20enMl8ltl8pBDrL75//zPyjvu5c0ONtkVJ1nGmIVPCh0SEZezvM6woPuBMG4Hqwk42/4Oonj9XpxDUX8EK4Q/ftttRhoPIhjFipz+Z26nkKgdKHsu3FL+cTHD5a//4t3l/fcRV2K/r4b865P1rFfmZVTG593sMaDdFnBB2hfnWBXVIUWAjQr3eYzFnRZt1rEcQZdwUPs4mOrRUHj4QJbLZ5iq8WrTJp3E5stJQoVCBs2VzO6kpzbLUhagyAwtDyaMx6GVatwq0VoPLDV4jMf4TyL9SvOeBBOxq+1M2o4OOE0Ex7b2jS7LS5yDfXZiwge/vW30Hh4o8wuofGwtJHBmsEZYUWHWx/EjVosHuQWwgHooKMWFhoPahQtLs0h7JzhmSqjwzMcoLmhPPSxW8rPfPi2cmDPaJlQvrnImjyCB1ffPUjQeFlee4em72kLHgDT+kvBQ4ZJjYe1RNLaoX8tU5aikTuXE57x8MTp8sWvv1QOHZ4qy6NoPCh4QHhk3YVgWUC6ggfqTykQFRFbL2DEHEs8VGskBA8nETxsL5/59IdC8LBrDQ+XzJUpQGn+Kr4GgoeKiYE9wMAAAwMMDDDww2AAsQPbSvNgWzg1OA3GO/kY3uVHPDtojnemXwVWqCCuLxxfxqLTMtdszpRLU1MsEI+UTetGypaJdWXz+HDZxB2Tm5hPbSQe50nGwoprMAMzwMD1MPCOEDwIXJ7voIKsQgM0G6D8//PfHUbwcKh8iwP7hpZ2N4IHmXXYsc40PP8UkwEFDzLfuClNYNUSDvP/Y+89uOw4zizBL58rgzJwhCUcCcKSBAm6JkVP2R5p1aJa2jPT3bO9szoS1eac+TEjadQt9eycnnN6T0uU1GpNSyTFpiQ60YEUDUAPS3hTKF/P5Nt7v8h471WhUASJKqIKdaMqX2ZGRkRG3IiMjO/mF18gDXzPgj+oCgwmB23JcggAOxba3/zX/8OuvR6+GPxjuhIciIdaxQf9tBvBwbw/hEwPf+EYOzx8FKCCwMmhLY8peFIo5SbiASA0HNEhStJ4uEQaD2yTrARuaMZ+yOYcTvFLH75wWEskwzgBgKRfaOZ5nxZC/jto9UDktqN9qT3zPIxLknigccnSMsTrxcsK2kdu54GCeEY80Pqx3y/TA+Ix00S2ONUi2njYtilvf/kXd8C4ZJstWxqePj5NDB43HE6/Y/F97iHuwhvCjeIz+SBmQJyFvuH/+MfXoN2x106cwSu0APsy6HM4g579BkvkRjLJmLphRoTxl3YgEFA4aDuMYBty2wA3bl9iX/rs9bZz+0pbtRRzH2kp2XX9+dpHukzH8WYuSCpkfU/Wr8HLwQjEAwge5ININQgKRpNrIMAWzSZ2lBoPLx8H8fCuvf7+mKXFTqzEgmkIIK6deMjqnQaynLxEPTTsPRBdvE9SEGmGrZAbgMbDUbTTxSAebreNK3NG4iFLonHv6ToQ8TBdSCodISAEhIAQ4DCCE0HLNECLj3kkB4L2Jl6WfPdh8zcaCHdqQOA7jE9ZhPK5DWE64gjEszEw+jm8LDswDurAmAi66SAaYFkIH5XaOFeeRiuRahi9YScnBCZBYNYQD3wk6j5/mdMkOn2qxaP/dtz+989ft1/+fDeW06SNBw4E0bj5aRDaDoaviXVXPUZD59dBsHUkHerYOFgvYt55W6EG43AnbPXaxG67c539X//lftu0BeHx0BSKHKLyyyUfMSSHhy0sDxdEnkA8+KXsh4+uD2v93DUXGg+ZiIfJkBLxMFuJB9ZWbMskHkjatRAPebZ1Eg/ww+ZTLc6AeHhhADYeXsWqFlhOE8RDmsD+QYtxyYYtEn4pxmssvIAgqlNC8w2+lArx8gsaD/mg8eBTLbKlJhsxz30Ckcr0OBaPnQSFfmSTGg8VSPYjlboNoWv5px+/bb+Biv5b7521tq5VrqLvMyPZ9zCOR2f52PcELSuwo5nmAohMkJ1JbcBKEFhv23mlff3Ld9g16zptSXfOvwoE7AM+rAVf08mJzUA80CuAxvvhGLsm8RA1HjLNCA+sn4gA8eRUi0A8HLNfPfkeNB5APNDGA4gH13iA9grfI/xzy9zAl4QSj+k4uEpgJ4H2hvg+KSYZ8bBlsf3Zg9B4EPEAwAI9wjc3STBvjdmjwfYqJwSEgBAQArMHgQrGLmWMvzhllMQDN7z0fPN3H9+JlKPwIYXjDY4AfUO/zvcqN3btpBYgQrnL4yNKAe/TAtl7fpnxgV52MQTRrxAYh8AsIh7YvMvOxqWVbm/hr71Ss1/89DX7wfd/bV0dV4Gl67AyWDfadCBJYZhukYBp4+NDdViuSe/GFuslPDx1a28ftc72MRsaPmgbt3Tb57+407745ett3XoSD3hGfNpDeJz4mITvV5SOwtnkj078SoxBKh4wmoIL4UU8AIiG4/iTyIp4mM3EA2uJ7ZmiA19B4L/hhU4B0wnitaDVw1DHTqf27AtDblzyhV3vQ22dxEMPnkM8u5yWwQ3PZpCfwzOEhyw8J5F4gHdCtQoSD3iGXeMBxiWv3YypFothXBL3ycGfz2Lc4DX9zskDCE6wxVBHWanthNexlZH/Ycxv/CVWmXnst6/b08+9Zz1Lr7ZCe6dVAAJVEalhFYrA+CgftDxyYPpJ+NNYJXQnwCOcgbmHMzC8NGx3377J/vxrd9uqK3K2AKuT5GjMkLjjy4LzGCyddzuxL8p6HtwnXGAAPE84DataREFPxENAZvwvUSSVfAQaD8+8fBTEw/v2xvuYmgd7P048wAI3p7eEJTTRh2PgxVZKnZa4agTrMQfiIa2BqMDUvwKJh9qRoPEA4iFqPLD3nwknjYeZQFVpCgEhIATmLwIwkWdj+LiSg9YlXoNuzBtikL8D8Qtg8B4E6YCRjG8cgjgBgUsk8zk+5MznKPUwZPg0xbcu4wefEB+nckJgEgRmBfEQNJ4pbMBYGxpvvYplCDE4P3G0br99vN9++HeP2cF9ZRuBCnRbWw8GjRwsBiv6OdBuVPjh4J/+VIuluncOX2wTO47UjtqiJVW7466N9tWv323X3dBjiyEA8NmitgRdeMTCbyYBNPz9YNwPH7DwkHH4zy2kIOKhFSZ2QURJxAPaYRRsKJSimX0iq1qEG4V3Ae+JunA5Fnu29KaLxANfJZF4gAjuAjRrMBAPPDqGNZ6feWHYfg6Nh+d3vQchrpV4wLME4oGkBR7G7B58PlqJB9wZj0sgHipIGcYlr4HGg0+1gHHJRW0gHjipg1OuOEkqbDiZAQfRDvl0Y4JOXgYKpoopJ3zBvvzaGDQe3rR/e2wXjCp1g/WHtlUOS0mV8NWcX8KZ+zK0pUA8sL8pYIkpCqsUXGuVfmg7HIP64RkIqkvtvk9ttz/+9Cbr7UhgkAkQEHISD/w6wO6DlUNcGB9PTaN+ziEeeNV7SAQnLSPigUhOdITXiQcYCX161xF75Mm9tvt9vFtoXNI1Hkg8oGXyyw7qMSynzHaLVu6Gt6Dbgkpy4qGKKUh1tstAPGzfvEg2HhxwtFJpPExsejoXAkJACMxaBCBWuf0jDjKoscCPRCQewpiDJ3HsFoYlwZ+EQxgv0Qg3P9LwgwmdE/aI48oO7hnloRgzhNOvEGhF4JITD8wMvz5hkXRsNDDJBtsJ4gGDR9h5eO0PNfuXh1+1R3/1sh3+oM86OpbgYymnXDAcht55aDdE4sG/PuLhgU+hAIvy6WE8MIdtx41Yk/wLN9lXvrrTliyDqjOskQchbBQhw+CdjxuPgySAXeb4YDJFuviw0Yd/dOExZV5EPDgg2Q/RobAq4gEt5FISD7E+0ERZJ2yp4x3FNGo8kHggd82AUJtjw/cYEMzcPyMengfxABsPz+3aC+IBKz4kC/25bT6/SIHlxQuKd+Ma0UyXUy3qfDthn1CdncYlXeMBxiX/7E4I6J22fAkEeA+NuQ4ISOLBI+B3uh2zl2WRGULyVfzVsHV4qUmyPP/yKfvFIy/a3oMD1jcAwTXpAPHQA8a/HXHaWARARUShtsglpmjrok7Dkn2Y73jKFneP2Gfuvc7uvHWr3bC9y61ocMVNvx3vwg6F0XlImHx6C/NCB0+vC14I4XhlPPHAPosJyLUiEImHwyQeoPHwCDQedrvGA6daoJ5g46GGERjfG64t59oPaLOoGNZfAg0eEg8J6rheA8mUgnhIhtzGA41L/sWDt9jGFTlbIeOSaI9hOVpNtWhtgToWAkJACMw+BDiqiCMMH3fQg+MPz6qP/uJJYx8+0IQRCT8SB9kJMRgXzod1GMtweiKdRiQOg36mQGBWEA9BjMcycbBy79bEOfjH08HtFNRl39pTg9bDv9qul96x0dEivijCnAkGg1ZvR6PvQBwMDqnxgMEkF8WjIFUojlmp7ZR19w7YF/7DTnvgMzfZ7XcudhUjCj+cqpE40REEHNe6wIVg4yFDLHuwxuE34alqBuFDG88CmeHxoleWiFa1QL2BLIKePuqMTCm7QQhsqADa8CD5k+LY/1z4hWigVS2sEyr6FMOpFRTm/mcCKdtV8x3AQzhiSs9mY205ZOP3cMEvw999SDzAOfHAuDzD1ALWCeIcd42HIWg8kHjYD9l7JdZ/XuTPkeX4jZnEIQQ2xOeepAHj+p7PXEY85Eg8wKArNRu2X1NqIR5ymEuPvKEf8Bz6fMFmGeA5fQ7liY9mwKFiFQidNWtHeaDNgIvvH6xhqsUhe/r5d+z9/SdtAGae68kCZI1hQr/DsIG8hDfJU5QpB1vQyxaVbfNVC+xLn7vZtm+CllU3yoFEsdqmL93rcMfSsMwBJvgQc+Ys5i7UOoPyCokHukiTinhwOMb9sOVRZ+Yw2uvTu2Dj4an3bc/7sBpa6MyIB0yqYCBMyYPFSfRDsGLCfojEEd8LaMsJ7AM58YD3TD1tx1MwDF4cq1psWgri4aawnKaIB7RGEQ/jGp9OhIAQEAKzFIE4quBHlziy4t794ekaoMy7j0mCRJOSmOc8Uh/P8eK5rjUtHsfzc0PKRwigfUD4i23xE8eDjZzWxZ0pg5BJ0oC/VG2l1fYxaDyMYbzIKRaPP/a+PfH4S/bUk6/ii2IHjMJjOgaWucvnejBAzIiHKm22QosBth8KxRG7+poOu+POdXbPfdtsy7bFdsXyIEBRSMrnOfIkSRG+6NahQUEh4kOJB6KUPVXjgRPxQGiiIzYUkaTxcAk1HlgZkXFAm/X2ip/GS8H96Mvnji8ZznJnp4DpDmCww2sn6CCQeKAWwLPPD0Lj4RX7/a6DIB5WgXhYgggkDPEsOZEHgQ3q6rRhQNIhEA94xpx4YOJ4feG6VStB4wHEw3/5s7uh8dAOjYdAPFDdPQTky66RWxxPo0N52PNRa4ErSuRhhLZmMEBI7SlOt4B332DdDh+D5gOE11de32+73zpsA4Ow4DCGhX+hdVVq6/IpFjmwBjWWB8v2toFXW9iT2LVbFmL5zKux77Hli6FlBf7AZVvO44BdiQQaEu6YCU4Xi0V1Ig5+yEVwzRc+fSjo0YXgoh0cjAk/rLsG8YBVLR556j0nHuoFaKy0gSgC3iQeErxnDDYc+B6itoNrrCSZ7SBozCUkR2vteM8gHoiHXOUEiIcr7M8fvNE2SeOBAHp7DE96NvEnNtsZemwnVLVOhYAQEAJC4AIRoHJ5zVemQH+NQURTizuMOFK8CymDJZn2ApONYw6ExlnYJuveMazxcQnsVs7UqO0CS6lgsx2BS0w8YLCP1prnwNufgNRqaPhcmYLG2kZHMIrBfxGfQffvrdnvn91j//sXv7Uzp6vW34el7/rRwlNMy8CwkJblGbjUnlpXT94WwVDdDTeusU9/Zqdt3dZmCzH459NQhQVWqtEWoNbMYRMflbBWO/NwARoPrNHsqYtjLHrx8fwwjQfe0f9wH8obZ/vr9vRTB+ynD++2f3/0EISYlZ4251H5PYgJ/ikQcrUAXzEAZ5Rg6i6g4LbQ9GD5k2QEJMwJW7euzb710Bfttlu6be1aEikIT00QRuN9PS5SdLwpuGSF8TJM3w9u5+h+FOIh78uhZhoPmbYDS5/PhLS0NgSB76ytvrLX7rtnvX39K9vtum2w5zEjRWAJ4hbEPJ6FW5G04kb7B9zMTmOx4+/93av2BJZ+3bf/DJZqXeRfx+tki5GO6xIwMgk2lo0VwgTdUUDHd3MQX3mQZrXKoC3sLdq2LW327W/dZ9s2563j42g8MG3PdMi13w4/fub+uM78OEkQ6otlIf3Ap4mldo0HtD2+sI7DuOTzLw2AeNhlz0LjoVZYgXnzV+BZjWk0SQdqPLjBV8Tl8+XLRfI5R8I5rCLjWx1L3G5ss//nz++F5gOW08QzSo0HEiFooNj4zIa803daHcuPMlWp2oD8F0qszzK8WFN52HkoQEEhh/6ibu/uTe21Pcdt1x/es6MnBu306WHrHxhDudvRd4EixRucNjG6ugq2dEmXrVrRYzu2r7Y7blliC6Hp0A5DTk7f4FbkVOpgO5I8fFg0MjrjiIcsY43GwVoINcG64VU6Ro2be+ingUCoSWg8+FSLE76c5pv7xiwpYaVxrwgS3kCvhn4T9Zzzthae6RQaRQlIqMSJaRLa1L7rwDSLASvWT9t1IB7+05d32DWrwnKafE5mwnEAyAoO/XNLL+2kHPsQWkNJbGAEGoHH6vaDh5+zPQdRLmjicIWaesJpJOx7mA42JyCRoO9jK8Ke7zz0r94doYxWHbSr1y+3uzg98ZZFtg7tN/ROLCXCRyLTMyfiYSbqXmkKASEgBGYCgRSyQK2CD0NuDBsyRRha+LuG9+N7wPv5zJ+noZenf3B8I8QIHIO4Q0B+xOGrtJh9U4mXtBcCExG4pMRDEHVC044Z83bvDZsCS/QlS2c20J/asaM1e2XX2/baqwfszTeO2BC+QFZgbp5CdUdHm61es8i2bF8L0mGjXXVVyZbjyxSJC19e1h+mMMBs3pueUcziY9R4lMLNW/LQyE0WZPylCyMeOKBMkBnGJfHw1JMH7ac/ft1+/QiJhxX+5HJs54wjnuIwzsPAkwcQhHjrQDqwHBRpmXfOL8cXuWTuEw/UOqFqF/FxAR17rjnMctfSYXRufXbllQvtvrvX29eceCC5govT7jwHSJX70NHyKNwqtqEJxMPfv2ZP/O6I7T9wBoIsbR8sQBsGpcA6Rzq+4gESoJju6XLHM9Qtt6BxA+EXAsDCnpJt39pmf/XQ/bb1YogH3iLLtec/u3XD2wtE6wbAF/mkPMbS5pDvoPXAKUz8og9jr2fq9ofXB+0Xv3zJnnxxr42kmGbRvtKKJZJf0FeqYuUATKEoQAinsJJScOfMECYKoq9QQl3hpQSxHi0WWhaVAdt6NYiyv/y0bdlQtCULMeueby6fYx8w9zeZZ3aafyiLYUM2vcDUkjJ+7XYXnitOuyAuXM2ibyC1IyfqdvCDEdt/8Bjq+Kid6RtA+cbwos3b8mWLbf3a5bZx4xpbt6bgZemAJUlwCoF0QDrOpfG+Xu/hTvxlkb2KfB8rKAaiJ7EIWY1XW6P4Rf00EGCd4XVhh0+k9uSuE/bI0+/ZWwcrVupahLocQzsHuYC/GoyDclGx9s529DlVbBW/li8Bb8yJqVVBBOa78TzCnsfwKettH7EbNi+zr35hq20k8dAVhmCNG0/bAQaH3jhR8xwZhpdAaCfQRnLiGfkm8TAIrcC3MR3x73/8fCAe0GZJOgTiga2FjZyIZC0mpuV55VMLfzZAbEk6Ymn5rG28aqXdd9Nqu/8mkNdexqC35C0wi+/poUGzp5bGg4OpHyEgBITA7EbABxD8QZ/PXavjKyI6HnsQj4Cg4wNH8sGjxEvcZ/FiMtoLgckQmAXEQ8vov6XVhrbc2qIhxFQTn35x4viYnTxetlMnKjY6TENhHFgZVJ8L1rMwBwOS7XbFsoJ182tjGwU6XIyb2zuP92QsDuoj8cBzOn+cwiF/YzaiT3Z5vPeFEg8YLkL6YtyPRjyEAShv3SAeUDB+VQ7EwwgGqcfnvMbDZMTD+Ww8zFniIWo8sD1BCp0Z4oGJR8c2HpqxC79sfNzYmPwSpxmAOICwQ7mCNE98Kti2+HWYchCF7zffqdmPfvKkPf7MW5ZiqkXZoNmBtEimufACwSgF+UC9gQQCEKdB+coP0DIqdcAoLOwopOUhq40OWFd73XZeu8ge+r/vtfWrc9YDo6+k5PKcX+8aAciMP7zI53Q7dBmTEg+uSRTBwfx+gz0Z3HsMkuwwhLyzmH7RD+2WgcGKjZVBnuALNDU+OlG23q6SLVyIPgjCWhvITsLLjU+o407QAbATD/EWWZhGYJyHwAwQA4WUoo8HYTAeyJ2DAOsLnILbJHnprRH72eNv2KvvDsK+A+xzoK5IglHjqzYGAgKnbW0wUAyGiORDuTJqRRARCbRUKmU8B0mnpZWiVYdOWg+WRr156wr7j39yra3HtL2lsPEQnqxzsnCRHhDmqWKECv7IxAPsjzQ1HthiiAY3OiRI7SOECG0nEA8M5ZbK6yAexvrsmqtW2b03g3jYKeKBqMkJASEgBC4LBDj4YIfPH45F/J2QlSwbUDSGXDznK8PfH4zkET1wc3TDAB4oJJLFCSf6FQKTIzDLiAcOithygwvNvLXBZ1oQ8OKHH36F5RdVjtHoqJHvX1SDvrbLLI3UGg8Ev4U1H6AgeTUutlwLfq0heY/zOxEPrdgQN1bLR51qIeJhujQeWmuj2ZbPIR78EokH2j7EL946UD7HX/zKCSoAxAODDWLq08HDqf3TPz9tv/zN61bJL7fhaq/BtEpYXQZGQxmvVuHSuIgP0iGfb3NtJdpVKbXDNkJtGALfWSuPnLHVy7vsU7esho2H22zlUmgs0eYovkbT3kLCaTeuBzgzoh0LPI54YAHdQCZabWAJEIDq6qQNwjdjtmdMjwyvYYRn9hw++Dv5gkbP3HovxuvcsnPvc/ylDx++qKNrOfTA9I/3936KAZqBWvujpm9MTHsiwHoi8XC6L7Xd+1P70a/+YC/uPo0VWGAQtIRpfHhR5DBFJmXDhbEHkhCFIimv1MrlshU7OlDtObRRtEUsoZpWEXbkhC3qGLI/um6V/cWf3mArFyW2EO15ZlqniAe1ZCEgBISAEJhuBDiCwOa7bGyRnfqdcOzEQxxcYN/kFUhUM2IckYRxIc9icL+oHyHwIQhcYuIBAz8fJjKXHMKFQT7PxjsOJdnkESYO2v3BQWxc8i+ICOHGUpgMthoHlNAGcGOs4x4m3jO6jPFrPDa8Dzc6Xgv7kDc/yX5CfsLjlz28iBdjMHzjUQyJeDyWIIVwJ42HyVe1oI0HEQ8zRTxkbTl7blxQjk0XX/mp8VDGF18+MAU8h5F4oGhFAZ3tuQyirw9f+x/+2Wv288desUMn4JcshRAHY68wyJimYP6QMOfM+7x5PH8pp2n4ajPQyMljKgZskeTSQah1D8Lw4mq7544N9tUvbrQlPTmDwhLqH3mAVoT3BT4h/3x9QvYoftxdK/FAHNBn+AvX04t9ADuTpnPoENaffux5zqh03gd5muwHYCkCX9A5RYgu9AsIzQiMEfswnkYXE4r7EDi72vD089b7xujaNxFg/bCXp3bKO4dIPLxhz71x2sZgKDJFm0oKJRANIMWg1VDHHL7REbZNkG20tQFNG75nKmCYxoZGoA2BlZPwTCTlE7ayt2x33rja/vPXtkP7IbFOVO/4FtLMw8UdiXi4OPwUWwgIASEgBM5FgKMHH4hgn41FMi/35U823IgERCQesmDnJBlHJ9zH7ZxA8hACLQjMIuKBg3QM47z1t+aQx/T04X7jghusO2fYh+EmBRef4cugbSAfIM1E509IvEF8XFpvGYesnLkaH6G4j0NMhol5yfLsYUU8RJi5jzUmjQe0JEjuFD4bNh74RTuyZdjP/FSLlpqhqnV2+/hi4ZxxEg9jNKQCAYwaD+gYgo0HvHXqNeSftjdQilEYY3z2uVP2q9/stsd+95aN1BZbvoh58JhbnmKVABIUBaoe4R6cYuHGG5FevgBbCCVMjRo9Ba2GflsEouGu27fbfZ/aCCOMC6wbX49pDwGTqRAXBAVywakawUJCS/6n6xCPcEPjIXvEuXPHAzbg5q55wjwSQuyzIMgzj5AgWdDIhFJYBZbhVRyihwiZH6M0bphd5y76xcRbLo07jOHGeeqECBA6Eg9jZdglwYpIDz961H7zwmE7fHwYNohhKLKI1ZCKWJYZU4LSGoy5kqRGfeVAFBWKsOcAgi1NSR7zGcCTgTA2dti2b1hg996yxr78ufUgHTCND3UwM9Ug4oH1KCcEhIAQEALThwA/foapE3x38S+MB/nS9CFpHHfEdxv2PtbhHtmI22Q54rswjnh4LCcEzofAJSYeogDP5gwhni18MtfwbjZ7PiR1WoSH9BQuhwcqoVCHLfhSAOKjkDkPyDQaCfoF+gTH4Sq3YNwwhGPY+P2XoZp55oz05qMm4oHoREdMiZSIh9lEPKBWaBOEO2zjiQfIViQeYKkzD8naiQc+RQhYhw0VWkHmPCYoL9i+gzV79qWj9k8/+p0dP1OAJkQJNhBo0G6Bf+Xnl34aCGVyVKLI4ytyoTQG8mEEquynrbOtYpuuusIeuHen3X7zUtuwOh+Wm/TXGq1RIhKeLZ9u4a+y2KqmcY9ysIFy5zhgH7ufcb0DA9ARBxJIoTvwSLGX4GV6ezz2SZ4oPNzqaTyJqWYhY7qMHF0MMtm1GKZ1H8O3+unY4Wc7ZU+O1Zjt0aeH7N+f22d/eOOglWtYqSLXZcX2TthzgHYR6tRXdUBbIPkQiQf26yVM2Usr/XgGRqyzcNbuunmt3bVzjd12/UKD3VDQ2lmdTzvmIh6mHVIlKASEgBCY5wjAfLj/UVoitU7igb/88xfnZGMPjjNaLp8bpOkTgnpq8xxpFX8qBC4x8cAGGxttxrzF3EZvtuRJHIWAFF+qfAUEfrpEOC5r52qx2IcnpYV0YBqNudPZUwSvKGzwchiqUujh9994Y373YjpZmp5fitR00Qwfw4p4cEiyH1YfURLxMFuIh/isgUDgKhM8ZbP1jRoPmBcPggFKCt6qi3iGEgrR/BqMmsxRiE7wNRheY9B6eP9Aaj/9l9fstd0n7MAHZ+30WZATxR5oNUCwQ1oVLNnEj/+FfBGrPnAOxaCNjp3AkpOpbVi72O664zr71K3rbPNVucZyk2A4QCbCWCO+JjvR4TYemMEZcswonDP63PtZ88efeHqSpYnPfUZsMhRf3qGfYB5pFwP7BtHJPinG4/XmNvE+vNJwEy82LmQHvB4jxP3EMPP8nBDRFgf3FVTi63tr9swrx+3ff/cHO3JsBFo7bdbZvQQcHPpvtM1Cqd3GYGgyRXvPu50SDpygpZOM2tjwMVuwILVN67vti5++wW7a2m6LoepAXRxuM1MFIh4ArZwQEAJCQAhMEwIcrUTigftAN7RSDxlh4EIR3mxxLDLxJddyKQThbzgKaTLDEyNNUyGUzGWBwCwgHoCjt9mWhhra8HiA2dgxmKzBIJjPxaVWgz8AHGEiAs9JDrgeNL+4huu+LGVMyQUB3q95r/G3JukQiQdGYjhXuMW+lXiIGaSoEf1FPBCx6IgQakbEA9rmpZ9qwdqIG4kHtFmehuaNPYkHWPEHU5BS4wHH3Dj/nSoLsLuHMIzQDnICNATiDcDWw7vv1uzlV07aK6/vs91vH4XxSdhzYHlBWlSZln/9xxOCB7WtfdS6e+pY4napXb99HUiHDbYGSxIu5MoA+DxdwvKFXBLXtQpIevDhZv5mzLF1skxsp5xGEtqre+CHt2ax+XR7x5ORIs6FZJoMIXaTmHTU0LcgKPKPFLmCguPG1EI/wTghHhMeX0QvbuvFEKT523qNgT1C87KOAgIRY7bFMTTW0zCK+u4HNXvupYP28qv77dAHWJYXhk/rBaxaAqIBdAM21g9bPdojEyBrlvZbd1fFNqzrtVtvXGe3XLfE1i8DUQbc4ySgmakCEQ9qy0JACAgBITB9CJB4wKfaxl8YQgSywd97uFUgDsKVhpzUIi81cpMF4TnTbY6eQgoanDSQ0sEkCFxi4gE5ah1MM4M8n3Q0h+aNwWCVxAMEk6DZ0BowRoQfDvGh1gf/XCYtDP5bbwSRIjsd/0yRdICqd0PjgelzmgVFEJe+sGfEmFbrQybiAcA0HBGiMCeNh0tFPLQ+G6yJ2G4hYKVZ+2cQ3/hCgj0GhGErjq2dth2w9iVsNiAQ5rpzlYexKq7CdgHl6cpYIB9e23PMXt1zyD7AHPqzAwOYelHBBo0HEAq0DdGO5QoXLc7b2nWLbNOmlbb1mtW2dWPJNR1yuEUOBEeRxAOXmeUKGiQdXOLP8ofd9Dtiwo2/XPyTW9MRFuLgviQ20ffU2amAdHAykwCEf+yQWZSTOg9MhDIriYegsMFUWRj2I81aCEcBfngDdd4xO2fAyVyrP4OHKJOFnPd+nEKRov2Ooa2nmDLRB/Lh/QMgH158z/a8ddSOnR7GiiywWQIirYJ9DgYn3aYIKo/NvYR6bi+OgShbaNuxhOYtN6ywlYtz1gujkpxmQctBbB8zUwUiHuZ9AxYAQkAICIFpRoCjEW6BLOD7Kwwq+B7jcdiH33AJx63jjpifliCReGCwIBGF3xhUeyEwEYFLSzzEBh33MXds1HT8auitnns6PgRhcB9OOaCHi+F53JqWPxwQFiYTKTLGYTzxQNIhajwwchQYoig28UZRXEBQ3CM+xIzXuNKSHz6gWtUCM6PxldFy+NIIgS7ndUwVe9A7WtUCeEzXqhaxrXIfXzfYu40HtGs2fF7KtviUcB8EblxC201gbyHJhWcCn4ihFYFWjrqj4EXSgDYcBkbrdvRUam/vq9jeA/thxO+Y9Q8OOvHQ3dVtK1eutHXrF9s11yy0RYty1oVPxm18tCoVpFGBgMc74umgIdgajl24h1fMHw6n38US86nMg3ghxcAbBsej8B2chQQQ/CcBARe1MUiEZpcguGKZxhifcHvecZBpPJCcYOyQQnhVN/sLBm/E9kDNnPCOmQuRw0kMEPcxjPaOQBXLYqYgtOqY6mM0JAmcMEPI3sO0izffPmmvvrnf9h09bcfPjoIkQ5PDsq916jGANFuA5VWu6O22tVf22E0719vmTe22Au22DiINlkxg78EpJtRYqObph1zEw/RjqhSFgBAQAvMbgTiEiPvxaATfOKRwGSYGjPsYgYGw0dvlmkzGCpKPiIcIk/aTIzB7iYdMIA1NmyN5OgpMcYv8XMvgLz4xIXC4kJBMiPGzp4Vi04cSDxxWhq2p8RATbu6bt5xm4oGaGniyQzbxIPMAZadvPWKDL8N1CpK+AsAwtEBO2Lq1bfath75ot92CgfNafIWl4IMBM2UmV2VH3Dr8XHhCat65NIszbUfskIj6MITS48dT+853nrdHH9lvw2MkHUA+ROKB0qursbcSD+zK8OdCGwRAzsXGXy0dgsZLn1155UK77+719rWvbLfrtrGM05btloRYgrixHQQxMdyKQmsQ0aOa/mlMPfje379mT/zuiO0/cAbzxhciygIXVi94qgUMOOasSTxs29pmf/3Q/bZ1c9468NWWNY3vs94OQtvMCo4dc0oXfIg8j7LrXhP0I9Z8fpAS21MMgn0UwxkqlBZ7JIrJE/CpoIpG0YxwBV+GDatNcNFBsEWwAwm7EFimcAjZ6huq21ls/UND0IwgWYGvxliOsLOzZN3difUuxNditOsitCdAYYBXhMFJSO45LmGINmpYFQPfmrHB4VZBYyCcTu8v0WJJWTYeR+KBJQ+O0HAChtc6tR34DFWgF4K2iActbJz7xWwjo1zBgnEyWBzbsIpJQJTfEninsMUjBuMxW3cWP0vD0+Jxq2PQ6GKAuI/+2gMB1BXslQTVE5yhg+AUIq6U0o/2efpM3Q6fqtiRvhE72jcG+yTDCIo+BoRoeyFvi9Ber+jttBVXJLZieQ5kWWIdaLeEOkFfxeeQBljZK82Mm2biwbWVPPcAI+Q5tDsilbVATm+CEc10rM82XrXK7rt5td2/E++QLrZM1+lBUdEAs/ihgVNDKmwMxRacddl+eWawUapCQAgIASHwsRCIQ48w7AjdefYaO+/wIsZpvWF8ncCP74D4x3eAvwdm7N3Ymgkdz1UELi3xQNRaW3srij6C4aC9tdWjtfvABwN/j8dzBMkenMZ+nF8UqVoDUcBoxvWk/N4MG4URhg9bGHY1hRIPml2Nx0GQiSmFR69xLcsPv5hymEa1bHqd7a/b008etJ8+/Ib9+pGDUGlf6XIhSx3UuXn/EDmJhAvPSTyQQOAN8JWYxEguwVr0JB7WgXj41n+wW2/pAQlBf4TFvxMPKA+F+bpPYuZAOvwxmel2zBuRHInEw3cD8TAyCk0Hfl2E8OoaD8gLKAXKsNB44Hd0lMdxil0ZxAUIpigw/Ek8nLXVq3vt3rvXgXjYZtdvw+KPhGnaHUsQt9BeeBZuFdsJRdNgH4DEw3//+9ftiScP274DfTCyuBBlBPEAofUc4sG76phhlJN1y5TRLvLUeKgM2MLekm3b0mZ/9dB9to3EA/S/Pz7xwJwDYC8P7sVniFsojO/jVe6z3PhlGpaEFAfNhjFf0SKP5QZhkQ9hkCaJBwh4XEYTihDBdAT2FUbJkvcVJUPp8BtuGQQZGJGkNoX7MTJxwBKa0HoJJFkWmAFmxLGk3OjcfCZKNP5mzKeLZWyPUNuvw2BmwrZIkoGsCDMKVwcBGIg8P/W2zKNAPIRWEwW8LITXRLhbSIOv6+jcP3hHr8n347M7eZj56ut1QxDZj6CmHavwrHIG0SispPZjyQuSZaf7YOMEfqzSTkyl6O5IrKfDYN8BJBmeO9ZM3JgMDaDmObWGU4JmwHl+0W+wOeaQKX8ecB+/HTtK9OmYEOKtdxD961sgdn/w4+dtz0H4J+1oj9TLgPaGv0ODcVjPpr87szzzJn6I9LnHfXLpsNXGzoJ4WGn33rTaHrhpCuKBkdB38y3EjbQD33qeKU83pu931o8QEAJCQAhcagTY79M1+n+OX4LXxN+Gd4wzSQBe4hs2vGX5Sol/EwPrXAg0Ebj0xAPz0tqwz2ntrRcZmAGyQBMv8XKr82Dh0Wh6t8RvemZHDIuBXeMsu0/rPeNF7OPV4MV4IUOBqAhXx4eJDymFaLN+CKtPgXj42U922+OPfQDiYYUPkLmmhjtGxubaDjhw8sEvIAQJBc8BSAwX2IYhoJ8E8dBu3/jGF+y2W3udeODMfQ4JvXfBTZ2/yD5LhS6CQ+rpdywBxXNqPJw4Ubfvgnh47DFoPIyUUEaQDxBeU+SHgqmTI9774Rsiv8ZTkwN/HF5znnYeXyFd0MPieDVoPKxa3WP33LnGvv7g9llFPHz/h2/Yb548Yvv2B42HSDxQcMeD5gN1bwEkf3geGwclHg7bgUkhV7YaiYceEg8l+/Y373WNh86LJh5Yx6yVrFHxkC7LQzyNIZqX6MMttjeK4zEajniCvMcQTI/H7t0IxzBNx9JS1HehPnpn6cSU3TviE8NM6358LsNZ84Y8auQvFibuG8Gyg8Z5lkGGa/g1T2L0EGr8GSM0omTJnLNrjfKhgc+JPc88WsGK7THUKK+wNXNjH8XpMtER1vA0Yp9hzF3r1ho2Hk/n3vPnxAPaBNkGeHhW+IN+I4EGA4kH5p3Ew9skHh5+AcQD/FuIBzeREyAxAABAAElEQVRw2ihlVoI4yuRNkHbQgsO1jHiojp6xqzessHt3rrZP3wTyGppKfLr9/sxIIz58QDzwj+8rJx54jenSMUKI5Kf6EQJCQAgIgVmAQOyjmZWWPjp6t3iNz+x5AgTveJFJnjeF8enpbN4iMDuIh7kMf3zenAiIj2AQrWKx4mMYr/rXT5z0Q+PhqacC8fDrjHggMUBr7BzDebwsMkmHQDzwWhw2c5xHbQAK5iMtxMPnQTwsHE88MDWm64PFMD7kF6rWL60xv9OxZ1kbxMNJEg/P2WOPgngY5dfx8EWOBuDyUGFuEA8+BYBlgYCA7PJ6DV/UqfHAlRLwnbJBPNwN4uH/fHB2aTx8LOLB65caMMABGh8NjYdIPHwLxMOmoPEQ9D4+zlSL6ahRpSEEhMAngQD7Tq4IQ00aJz/Ci4M8ARx7ClKynB40gXg4lBEPru0AjYdIOpwz1cITwnX0/+hXnVbgVIsaNB4axMMqEA8gr6ciHkigYosaD06QR36St4i3waGcEBACQkAICAEhIAREPFxsG8gGhT79AUM4ulaNB57H8Ve8KuJBxEND48Ebh4gHPidyQkAIBFJYxINaghAQAkJACAgBIXC5ISDi4WJrVMTDpAgSFmk8BBsPU061EPEwafuRpxCYrwiw7xTxMF9rX+UWAkJACAgBIXD5IiDi4WLrVsTDpAiKeGgalxTxMGkTkacQEAKTICDiYRJQ5CUEhIAQEAJCQAjMeQREPFxsFYp4mBRBEQ8iHiZtGPIUAkJgSgREPEwJjy4KASEgBISAEBACcxQBEQ8XW3EiHiZFUMSDiIdJG4Y8hYAQmBIBEQ9TwqOLQkAICAEhIASEwBxFQMTDxVaciIdJERTxIOJh0oYhTyEgBKZEQMTDlPDoohAQAkJACAgBITBHERDxcLEVJ+JhUgRFPIh4mLRhyFMICIEpERDxMCU8uigEhIAQEAJCQAjMUQREPFxsxYl4mBRBEQ8iHiZtGPIUAkJgSgREPEwJjy4KASEgBISAEBACcxQBEQ8XW3EiHiZFUMSDiIdJG4Y8hYAQmBIBEQ9TwqOLQkAICAEhIASEwBxFQMTDxVbcTBIPScic7+o5S7C5S2pmSWp1w5V6Hvu85ZIRy+dP2rp17faNb3zebrt1oa1bm0eIquXwhwgIW7d6DhvOuCFF/GVpesLT98P0q/gZHqvbiRN1+973nrPHHj1gw6MlqyclS5MC1qpPLY/b5xLkqc68ML95xEwQhtlNrcYwefgnzO2oVWt9tmpVj91z5xr7+oPb7PptBcSfvnw3U4ooBaQ8T54zhgD+vuUNucNmdnqgbt//4Rv2myeP2L79Z6xQ+hDiwWsAERNkHmVDxWCXt3xStrQyYL09Rdu2pc3+6pv32tbNeesoJFZgcKt4WNYez9wRq3CU+TBHvJZdz65pJwSEwOxHgM9ymqJPRN/gfVv2cLOr4JOeoMdhv8NeaHC0bm8fT+0HD79gew7V0K+2I0QRjz4275n4rsDGDpX9QdzjzM9z7HeyvqQ2ZOlYn121foXdc+NK+8zNeId08w3hbxqER0Y8Pg+RFvttbHwT8R2T0K+16+Et5YSAEBACQkAICAEhkCEg4uFim0JD4uOIK5xwGOaDughyto9XOYwDB2D9/XV76qmD9rOf7LZfP/aBFQorKH9ajQQBx3W+hdEbSYdAPPAa78WNd6Q4SsGcxMMJkA2ziHhAFocwMD55KgXx8ALKSOKhDfkvYtBM4qHmxAMH0sQjB3+K1wkK7mNYEg81hMzDzwfHIB6qfbZ6dY/dfeeV9vWvzG3igeX0Ss6G9kkSiIcaiIeF3SQeSvbtb91nWzflrbMo4sEbvH6EwGWOAN8TM008eN/D9xC2fLFoKd855X6wxYO2Yd0yu2vHcvvcrYudeGAovtH8/caO2Q/Zd4l4CGDoVwgIASEgBISAELgQBEQ8XAhKU4UJbAIGYSIeWmEiLNVJiIcREA+piAcM5THkF/HQ2mR0LASEABAQ8aBmIASEgBAQAkJACFyOCIh4uNhaFfEwKYIiHj58qoWIh0mbjjyFwLxGQMTDvK5+FV4ICAEhIASEwGWLgIiHi61aEQ+TIijiQcTDpA1DnkJACEyJgIiHKeHRRSEgBISAEBACQmCOIiDi4WIrTsTDpAiKeBDxMGnDkKcQEAJTIiDiYUp4dFEICAEhIASEgBCYowiIeLjYihPxMCmCIh5EPEzaMOQpBITAlAiIeJgSHl0UAkJACAgBISAE5igCIh4utuJEPEyKoIgHEQ+TNgx5CgEhMCUCIh6mhEcXhYAQEAJCQAgIgTmKgIiHi604EQ+TIijiQcTDpA1DnkJACEyJgIiHKeHRRSEgBISAEBACQmCOIiDi4WIrTsTDpAiKeBDxMGnDkKcQEAJTIiDiYUp4dFEICAEhIASEgBCYowiIeLjYihPxMCmCIh5EPEzaMOQpBITAlAiIeJgSHl0UAkJACAgBISAE5igCIh4uuuIi88CE4nGucZSMS78Of/7hOoL299ftqacO2U9/stsef+wDKxRWWB0RagyT1C3BMTe6pJ5D8nkcIWKSYs8twRn86gXLJcOWy5+0deva7Bvf+LzddutCW7c2jxBV3A1x/Z6Iw2T8j4cJ/nht+h2RqOJnaLRuJ0+m9r3vvWC/fuygjYy2WZoUUMaCpWnN8rh9gvLUmTX4J1akB4tmKTxrtdTy+bzlcsznqNWqZ2zV6h6751Nr7GsPbrPrt7Hs059/x5lYu+MNiLVnC7+1bMujFvJ+dmagbt//4W77zZNHbN/+M1Yo9aIOF6BcKBjKkbC+PJ8oK+qWf0mjgtleUBtJ3vLJmNUqA9bbXbLtW0r27W/da1s35a2zmAAxJlFFesQi5AkHftia09g2/Fq4aTjUrxAQArMeAT7Lacp3AHpnPubZw+3vArw42F/GfmcQ/evbx1P7wcMv2J5DNfSt7QjOPhSb9zmxr0JCfLlk/QZ7frp6krN8oYi+Fvcr96PTHrQN65bZnTuW2+dvW2zruhiSvZOHztLwiOiwQz+GHg3X0X8xfXRz2S3C3uPpRwgIASEgBISAEBACGBrU4QTEx0WAo6wIHwmAlnTCuK7pR+HaKQUOBEs+VDsL4uHpp47ZT3/8hj326CEnHiB5YvCIkCkIg1wNZEI2kgPpkIBgwLAT8SnEYsNAj36ReMiTeFjfbt/65h/bTTcvsDVrECdBGhCOkSQGl4jKwSJPPCXSDmFICY9pdbzDOOLhuy+BeDhkwyAe6hCwOXBO6yAeUD4nHhDBSQeK1xgM0xGxlMRDjuQCBfNhq4J4WL2qy+65k8TDtXbdjBEPnoVQf4Cc5Qm/GYngucOAHfixRgPx8FYgHg6csmKJGg8dVq8hphMPLCA3lir8JZQqvJ2QiEIdoZx5KzeIh21OPNxl2zLigbRTDpjhF5tHxD4chvzxJOYvhmkJx8tyQkAIzHoEauysM+KBb2g+xSQe+LqOxAPfDAORePgJiIeDoKxJPIB0COQDQ7C/4J6OCYS+1UnPzC/J472Ce9SrA1YH6blhw3K7e8cK++wti5x4yHkv54HDjxMYTC72ZHwrkXhA2uyIYpcT9y1RdSgEhIAQEAJCQAjMXwREPHzsuucIiwM6bhxhQWCO4zuchcFXiwe/UqUQKutlkAkQSK3NNR6eefq0Pfyj1+1Xv9xvhfwKy5cgXoJ8KFeowVC1QpEDR7g6vmClJRxgcEfSgTdz4qGIUwrmIxDiT2DQ2GF//ddftutvKNiKlTnEhyCaDQghw7tMn+RCvjBU9D8mP92O6JB4GB6DxsOJun33u7vssUcOQ+MBpAu0F/iljURMvoD8gWBhudKU5A02EBOOLn5IPBSceIBgbkPQeDhlV65eYHffudb+9MHrXOPBvwROdwGYHjNBx/G6/9VwyEE2L4AUAYFEMZ+5J/Hwd//wHoiHw7bPiYcelHEy4sFL5qk58eApkVIgScR6rFitPGi9PSVz4uGbt9vWzdB4KASNh5zzhNmInknFwb3vmcusbeBC0GYJggZCygkBITBHEKDGAx9u52B56Gf8xYmTl0HTihoPb0Hj4YckHg7hHTOBeAi9E3sodhCtG9MK5+HbA+5VH0Hf02dXX73S7r1xtd1/Yw+IB2gzoM/BKylz8YC9IDMWekYnHvhuyvLqScco2gsBISAEhIAQEAJCAAiIePjYzYAjLA7oKOhhMEZiIIzDwniOJ9A2yE5CuKSK0BVcocZDu1Hj4Zmn+uzH//yaPULiobgSxAPoAMihKQiKJBc2REbaiIMtfO0OwqXTBmnRciQebAThj9v6de3213/zZdtxY9FWrM5ZkVq3nr9sTOjjxjA65CHJh5lwzCFLP+xTLUA8fOfljHiAxoMTDxy4QqsDxEMuz8klOAfxUKcGB4Rw19pFNtMqiAd8kaPWRs4GQUScgsZDpxMPX3twh2s8fDLEQ9BYYX0TMeY+RR2yjNwC8bDXfvPUB7Z//0lMtehBoA6QKSR+UDpC7hoPkRyAX8YJ+HQZlM9APORBPFTLQ7awpy0jHm4bN9UCCivBxX2sPt+7jgiuE33WLG8g4iEApl8hMHcQiMQDlaL8UcdP6Od4huccLwn2Ox+PeEDE2Gmio3UuE71FUh8G8XDWriLxsHO1PXBDJB6gdRbDO4Ts/ej4G7ZGX9PQhvAA+hECQkAICAEhIASEQAMBEQ8NKD7qQRgABiGPo0NOeWhJw0mHIABilIcLuAg/fuWHKA1ioegaD08/fcYe/uc/2CO/2mel0grLYS4/iQf/cu2qrEyD6Yev4jEd6BNgoMjBYiQeRjGWPA4bDyAeoPGw48Z2Jx5KJYr0TXqBWYxfqkhINK+05H0aDiPxMESNh5N1+953XgDxcMRtPHDQ7NMtgEc+TwE84JRCM4NTDuKgmDOZ0xqsQeRAOkBKz7nGw0m7chU1HtbZ176y8xMmHphP4knygTXUhtp06w122jUe3rXfgnjYt/+UFdoC8VCnmgmJh4gpq5IjfdStj+V57ldREyynT7UYchsP27a02be/+alziQdWYnRM2BOPhEbIo4iHCJD2QmDuISDiYe7VmXIsBISAEBACQkAITI2AiIep8ZniahDhm8SDswUhvAuCMAII0ZRf7xtfnV1FFsI0SIoUpEE/hNWnfaoFtQH2WlvbCnz0hkjLqRSQSvklnIJ4NO0VEoeoi6/ihs0/oEPjgeRDHoYXk+QENB467K98qkWnrYTGQ6lE0ZhGG4NjrinQ12F3IO/C/Mx8EWfJicBwOQXxYNB4+H2m8cA5yJhTzI0lgw5v4p/xIcCnnH4BARyZJQb1OjREYOsiEA+kSYagAUGNhwWw8bDe/vQrN9n1W0sePpRumn+jgM/8+F8Q6gPxQBQ51SKz8TCIqRY/fNs1HppTLVBWqkxjc/wzFYe6fxUEeUHonVzCVf5DEyQQDwO2sJsaD+320DfvDsRDnGrBLLQ6JowtkEm8GPIo4qEVJB0LgbmFgIiHuVVfyq0QEAJCQAgIASHw4QiIePhwjKYIEckHBMmMdkECdGEyiN0UAqkJwa/4TAb6DjAOSOKBwQYgrLqNhx/T/sG71t6xEvJiDMMI7YjXgT0k1KhBgekaSVLGOaZhIJGExAM2roaQS06CeOhsEA8rVmGqRamC2MwDbCi4Ti3V8cPX9qBFMPPEwwkQD9/7zjMwoPkBNB5g9yAzfkZ08k48EBkQLSnJFpaVBaN2COwdOPGAiRaAI7HhjHjosrs/tQEaDzfPLPGA/CETvDF2QbSnYB+IB2qu0LgkDWWanSbx8A97Jth4yIgHajyQbCDTQK0OJsh0CL2XNaROmw++qkW08bC5AxoP9zWIB6eweLNWx6Q8f7zAzMY9dVl4A25yQkAIzCUERDzMpdpSXoWAEBACQkAICIELQUDEw4WgdN4wFPSiZEoJMDoIfyAI3PkUjCD8MWQNX/HrIAJ4PAhh9dlnTtrDP37JHgXx0NG+CnIpzIHBLkCVE3hz+Jqfh/AKEZKWzN2aAATyBAJ50HiAvxMPpUzjgcQDjUv+CaZadGKqRR42HkBQQPjkV3YaasSJawiEr+vUIpgZwZS5JQKNqRbfhcYDVu4YGaXGQ7C6zjBN4gFIIo+uDUANCBIPwKpJPDCvMH5WPW1XruzGVAsSDztBPIB4aYUeaU6fYy0F58QIDkk6sB5otI316MuCwueMEw9cTjMYl3QbD7l2YI40nHhgZGrFkHigFgt0JbycLGtGBqEq8iCUamVoPPQUbdvmTmg8PHB+4iGW27UmmNe4kRxhvcYNh3JCQAjMGQREPMyZqlJGhYAQEAJCQAgIgQtEQMTDBQJ1/mAU9iABctdwFPDPJR6odU+NB87lZ3BqPPz+2RP2kx+/aI/+6h1MtaDGA4RZfPmvcEmIPITqPIxKUsB0wgFsBPZu34HnuJDUQE5gtYu8jUG+PWbr1rbb3/7tg3bDTQtsFYiHQgHaEcgfVf5rIB5yIDaSPG0JMFH+RukVp9PoziUengfxcCAjHmhck9oCJB6QO59qgW/1KHIgWaABQOIBYn1aq2I5zTwE8ox4qJyFjYceaDxEGw+0/zCNGW8kxRriRkdNDG484sa6JYFEbQeSD0lGPLzespxmN8pA45KIyeU0PTIIJ586cy7xEDUgctBcSUE89GbEw7e/+RknHjqyqRbOP+HunpHGPupjhDw3cyrigRDJCYG5hoCIh7lWY8qvEBACQkAICAEh8GEIiHj4MIQ+yvWGnEpygBvEVNd4aErG4BRcgGVQajy89NJp+9lPdtkj//YWhNLF4ALacKVkWMwBS6Ph63gem0utEF6ddKC4DlEXEmiCxEg6+FQL2HjI5U7ahvWd9jd/+yd2AzUeMNUinxsL+cCv2zQM+v3uF0iHZt7gOW3OiQcUsqnxAOOSj+0PxiVhlJFaD+OJB+gANPAj8UAtABIP0bgkclsfhcZDPzQeekE8rLWvPXgDltPkMpTTlu2WhJiZsAUbG01xPixRR+KBK9yTfMhlxMNr9sSTR8YvpwntFQIfYpN4oLbL+YgHXAHx4BoP3dB42EKNh8+OJx4iRjGnXnYSD3TUdIj5JunAi9zLCQEhMJcQEPEwl2pLeRUCQkAICAEhIAQuBAERDxeC0oWGaQiFOIifpmnfIfpDDqT2Ak8pZA+P1O3NPYP285/9wX75i902MIBpCPUOfMHvgmYElkvDag8p1egz4TJ8Nqe4HgRM8hEJwuVglDGXDFvXgkHbvLnXHnroS7Zte96WXkFDjWMQP6MA2rq/0EJ9vHCReBiOq1p89zkQD/tsZIRTLTAFgeQD/nxVC6xsQVRog4JHziSgcCk0BVqJBy4ZWnONh0A8/CmW07x+GwxnOj4fL5/njxXyFK5zekSoN94qEg8U6kk6kHxwGw8/pMbDUSceONWinoM9ixQEFDUeEIr2Ppx0cK0H0BZxqkWWerTx4BoPTjzQxsOnA/GA1U5o4wEPLH7pskJnu4BcJDgYhhci+cDwckJACMwVBEQ8zJWaUj6FgBAQAkJACAiBC0VAxMOFInUh4aJM6GHjCQTAeAg50L/i4zpV7sfKdTv8QWr/9os37F9/9qodPlS1SpnEw0IIrViqEdM1qjl8WXeNByaaSZlIxQ0cIl1eykEYzSeDtmpVYjt3rrS//Ms7bP1VeevuJuUwingUQCm2ZoJozE9MDlem21HMpnmD4dG6nTiF5TRh4+HXj+0F2ULiAQI5DGdSWM6BdMiBYGEZucykZw1MgovQOA/EA4kVWi0g8dCHVS1APNxJjYcdM7ucpueGOQrEA08DycHSwc6G1wI1HvJB4wHEwxNPHsNymqd9OU0vJ4kHTMsIxAM1HeIGygL4Jyw3rtLR2Od4jYd2+/a37rctm/LWEYmHqEnjcUI8xwzxg7YD8xbyTJ+wYScnBITAnEFAxMOcqSplVAgIASEgBISAELhABEQ8XCBQFxQsSoATA0d/Jx4qVoHdAkvwxR+GBgf667DvsM/+5eFdtmd3nw0PtoFMWASeAPYB8jVoPWC6gRMPJA24RQGT4moNpAM2CLa5ZMC2bVtod9+90b72tS22fDkW0SxCNyIdghyK6Qj42p6D/Yig/RBEU8qlM6MtENKnmQoSDyedeMCqFo+9H1a1MJQNGz/e5wvQBkAZyaAEjQd40ggjSpViKokTD5hu4qta1Glcsi/YeADxQI2H62ZM44FIIy/uINJnhy7quzZLIB5IJDjxgKVRv//DN6DxcNz2gngotvWg3joRD3WNLXGbH5w2A+LBDUyCcIn4u0oLtVNQToNxyQqX0yza9i1t9tC37g0aD6VgLtINi7LivC1khEgzlzhiRrkxTNxwKCcEhMCcQUDEw5ypKmVUCAgBISAEhIAQuEAERDxcIFAfK1iUW2Nk/7pdsSqFURhXNNg5qELr4cXn++3xR9+0Z5561w4dGLahgZKV2heBeMB0CwijNAbJqRkcjJIooEHGPNT0a7URyOujVshXbMGCsn36gW32hS/cYDfd1GFdXRBUIdDXaqMIQ8IBtiAQORINLkgjLTf5EPM3jXsW3TUeONUCxMN3v/OkPfrYezY6CmGcArkTD1gXgjBAq6NSoyBPkZnCMggWrnwBwqQGYxelQjAgWU8HAcJZW7MaxiXvXGdf/cr1du3WmbLx4NnxH6/GrC6ZO5IkBoIgCP/BxsNpEEh/90OuanHc9h08Y/lSr5MraVpBiUissM45SSZodbAucjCaSS0HTqLwpUQxZYb1maBeuarF1s0F+/ZD92APjQcnHjhlo3lfUBdI0XPUQjUwb9R6oH/ccCgnBITAnEHgkyQeSHj6+wAkdVrptw1XrbB7blxpn9650NYvYC8TepomeEG3qklystfOiPEwLzB2S80oOhICQkAICAEhIATmPQIiHma6CWQCq9/GDSZWMIyj+BlU7kEh2PEjqe1+bQy2Hp615559x/bt7bfe3istxXKMlXoJavsdVsX6mpUKNBtAOHR0YJlMCKIjI6cx9huwzo6arVnTiSkWn7evfGUZSAmIxJA5c9EYZR3SfcxH3EeZlPsZcLwNJxmMgFg5BeLhv/2332LJ0HdsdKwTGetCdjrdhkNbO7UAKjY8PISykXCAmA4BPA+NjzrKXkOZ29tLPqytliHQ5wZt/dqFds/d6+1PvrQNS07OHPEQoWrAA48AFw9IlHCwzXpMjMTD93+wx3771Anbf+is5Yo9IF7aUW9llAuEAYiHFNop1RTEAeqwgBVLuOWx5UhAVaDLMAabFpUhayvUbFFPyTZvSuyvvn23bd0SiQdO2aCx0NB2uJxnzBEOPG8uEjRYpejLvZwQEAJzBYFPhHjwDg60J9hfrnqUQtOqXhuwdRuW2V3XL7fP37IExAMpBRKerb1hPKNf2EQ8zJWWpXwKASEgBISAELh0CIh4uFjsx4/HJk+NYSCxpr4EY9kFxPAdiRMf2mwURiZPHkvt+d+fsqd+94a99ML7dvo0iIY6hPQ8l2UsOelQrVYwSORAkSL9GLQHTmFKRTumWKyyT3/6RrvtthV2zTVYepLEg9+SX9lxY2gO8CN4lg34BW/PyAwRD/zmzq2MLHDZ0H/8x932y1/ttvfe70P+e5GtLgjlWCqzCAqmANEdGc7nC1hGtIrVPspWLHZBWMeUDKxq0dmB5UJxvVYB8YApJddsXGJ//Llr7YH7VtnGDZeIeHAbD8CVUydQzjNnofHwD2+GqRYHzni9Wa7btVPSehllHQPpMAZNFtQPypxLMPUFGxe9qJWxQCeIhxy0UoogKOq1IVvc02bbMY3kb/7mdtuEOi14nVJ7IhIPwVBlqGlkAI5V6coYUUjwup2hCvY76kcICIGZQEDEw0ygqjSFgBAQAkJACAiBS4mAiIeLQb+VdGA6DRmPF6KYHzyDD4TKesW/fPPLPlVcExpZhC2D0WEYmjyU2qt/OGYv73rX3nrzsB07OWr9gxA1IZTWYBeCqzxANrcCiIdSW2I9PXmQDqvt5ps32R13rLNVK3NhikWWFTdoCHsCnpWY15jHiXvmfxodSQfSI2X8DA3VQToctkce2WPPPPMmyrAYREMvSIYQimRKqQ22LYAHNTuGhqAlAI2HBIRLHVoCCxZAMwAC+ejIcZAQI3bjjnX2Z//xLl9Kc+UyYBjLMo35Z1IRskay8GjWJkkdYAvtA3qeBvHw/X94HRoPR23/wbMgXbpwuQdlxXVSTjWQD+koiAcYyoRdC49LWw811G0VGxQhivl2ay+mNjZ8xpb0ttuO6zug8fBHTiZF4oGEE+9JbQfalmA6sfjcjyce4hVckBMCQmDOICDiYc5UlTIqBISAEBACQkAIXCACIh4uEKhJg02UTF3Ooyfn8ceLFE6jAFiDbw3TDYY9OQqleQib9VoRX/bx5R/zI/rOpHZgf81eevFN2/Xye7bnraM2OEy1fnwlh4DOVSDaMdXiiit6sYLFFrv1tq22fXsHSIgcBNcgCgfVWNwzrt3J2FFoZlbi5rmYmR+K1jQuOYafQRAPL+0atieeeNv+5V+exv0XoRyL8bU/B/IhGGlsA/FQR36pAZBCIK/WUAqSJtAs6O4C21Iftv6zB2z5soLdf98O+69/u9MWYdWOBe3RXOb0lyPWYGvKQbCHD+10UE3DyQcQD5xq8cOX7XfPHLUDhwYwzaIb+Qf5AFakWMJUF7gaSIM6ljcFtYByQl0ZWx7TLLjVKvVAPIBUGuw/bssWddrOG7vtG9+gxgN0IbCqBdBCKrTxEAxacrpOvD+rlLnxZueVTR+4bBdO9CsEhMBcQEDEw1yoJeVRCAgBISAEhIAQ+CgIiHj4KGhNDDtRMnUhL5oPjBcbIiFik47APH43LonpBbgUhG18wU4LmPNPlfu6DWFqwrFjZTt1umKnz9Qw7WIQWg9YFhM2Itox7WBBV8l6ejttxYpuW7o0gT0IkA6QzYMYXMGe94YHBHt3OKWPZ49eWT7DgZ+EcNP4S+LByQfsyyAfDh5Moe1w2v7X/3rEjh6vwD5FBzQ3FmCj0UtMGwDpUEM4GtE0TkEgaQLji8UiDGRWz+L6AAT0Pkwn2WgP3L/DvvKlZW5wsR3FnJkSBMwcOOKS3aRJPFCfA2Bm6hZnQa786Gd77fHf7rNXXz8ETmIRDGYuALFCQqngthwSlKVcxSojOdp9CPXDsoN+shTaH3lM2ygkZRsZOGlXrcU86ztX2Fe/uhU2LUg8MB3ek+RDMGh5fuKhmd+Yb/jICQEhMEcQEPEwRypK2RQCQkAICAEhIAQuGAERDxcM1SQBKSRHlwmmJBYykTW7MlEsjpG4BxGBr9MubEOI5Zx/Crop5MsxrAYBcwcutFNjADYWXQYu4Qt/e7tZG/ZtmG7BFS7o6mkVdgBSCK40BMZ74is7iYd4Owait2+cJsALZCEaTASOp88xda5q4QQE9gMow+43a9B4+L394dXDdujgCMpYAGHSiTJ0IDsFGJVkLAjfRWgAYIoFsczlR2Hf4gQMapZt5YqSfe6zN9mn7thiO65FXGQdigBepOnLeTMl5sZhImaZc+KBFzDtxUkHv5bYEJYNffK5fnvk8Tftid++Cu2GXpSnG1NkaMcBq4pg+dQctBnKtWHfO+FCjQ5oPUDlBVMkUG/YctDsqI712Y7tV9nnPrMJ2h0rUG4Y20TdupFKpBztg8AHZWcGwi9r0vNL0IP3zIHDe8kJASEwIwiIeJgRWJWoEBACQkAICAEhcAkREPFwMeC7ZJolQPnRDyn1TeUoEYaQwTZ4OI5TM+ogC6iGT8X6KiT3GpLjChbU6qcSAF3rbesQVqvVEauUR6wdKv3tENopvBtWhGidatEURKmRQXV9yqRkLUB2+EX6TKcDWYIlMmsgRFIsnZlgGslJTCN59dURTLl4zV588QBW7zgN+b0dQnU3SBSsdAFBPJ8vuVZHBfYQKixX9RTKP2Crr+ywW27eAOLhZhhdXGDdnYnnnCXIYJnOzHtarTjHxP1eJEh40U9wgP1YNWd7P6jZvz32rv3oJ0/Y0HAbOIVF0OjoQd1w1QqSKVzRAgZCS5hWAUvyKK1redSqw9B2AdsE45MJlgwtJqN21x3X25e/tBN2Hgq2qJftgWtn8KasP1rvCGe8ObPBza09oL00ZlrEC7gmJwSEwNxBQMTD3Kkr5VQICAEhIASEgBC4MAREPFwYTucPRVkQLpICQSINfuGXAbJAmbDoy2JCRb8AGw8UH2n3gUYUGY5kADfaOnBxEuEotPPrf9SmcF0ACL85+LsBSayWUR7DigkFaAFgecZAPLT513TemfKn/7ggytiBeCDpEMgH/1bOUNPoqM1BY5pVkA+wYQFtDtp76IcthFexdOjLuw7Zrpfesw+w9OTZvpprBWABC4TPQyOAmIxZoZRaZ1fFtl+73G66eb3dfvtmu3JVzhbCngWNLZJ0+GSJh0ybxIX7QAZw+gstOlahsXEWq5M8/cKA/fwXT9trbxyxU2dQb7Dz0NmxDARLF4gYEAsgGOq5oL5S8OkWCAOyoVI5i7oYts62KlbqWGYP3HOzffaBFbBpkbPOdrYLVqHXJLAh/cDWEtpVuEbiAaAwb8wSPVmtIQoO5ISAEJgrCIh4mCs1pXwKASEgBISAEBACF4qAiIcLRepDwkVqIQYbf04xMTgOKLlEZC5H9XmKzVGMBLHgh/CD8E3B0c8RwoPlKGZWIeBCcKVwSTETNiGCPQfYQYB2QQFERM4NHjINajxA8mSaUfjkHkIy0wkXSHLMoHTKAmCjEcUKmBnOKoAZA9ivSG3f/tTeeusDe//do3b4g34YjhyBlsAYBHAUDtMKunvabeHiLrtiWbtde+2Vtm37KtuyuQRyBVQJywFmpgAMmfuZcoSuFT6ah3ThHwVhmRKSDsgryQesM+LrTby9t2bPPn/I/v03r9nb75yGsdC6dS24ErAvBPFQhrYDbFlA86GG1TsKmCfD+kpswFfs6Oio2OoVXfapP7rWPnXbZqzeUbA2KKSUCmNoK5yugY2Qovy4K/LGX1Zv0IYAHSPiwRHRjxCY2wiIeJjb9afcCwEhIASEgBAQAuciIOLhXEw+lg8F1Ohaj4MffSAmgjGog3gg4ZCAWQhEA4RGCuTkCCBH1rB0Jm08FGG8gCtd0OBiEUswUmDH5AUbK4+5YcK8G2V0CRyCJwVi3iOIoxRFrQ7NB3yFH+cYHBvMW7o3hWgXpMcFmqaTLDssE+9Zq2I5yQTCdqnDBWfarBiFXYSDB1I7dKDfDh06bidP9dnIKKYioKxr16+2K9eutFWri7Z4cYKVLWDbApiwCDlqhyDhHEDhEpwz4WIdxn3ANxIPoHsaxAMKgnLVMJ2EeiRnYZvj8NHUfvnI+/bs77Es6p4TIBiWoy4XQvMD9EQHbFlgSdVKuQziBGYlSUDl+0G4HLMVK9tgu2Kd/fFnb7Wtm7ByyaIcltnEwpm5AaRRwtbu5R9PPATSgfkLxAOOgLk0HmaiVShNIfDJICDi4ZPBWXcRAkJACAgBISAEPjkERDxcFNZRLGUiQTSNybVeCX70wdd/SIVVfO2mpgEJCP/iTWmaDkFcUM+EdecSotoDhPEkzxUxOFWCwjbICEiXCT6Bh+kWjMSN90GCJB1aiYfsHhRaY97olXnjaJody0LFCtpDgCaGJRTQ8aWfd+QSothzasXIcN23IRifHIPkzikmeX7lhwHN9o7EOmHLoQ3KG0UuJYqodSy/CXE8I2+AAxmZGXARo7iPGDv1ATsc44kHTCcB8TAKcME72Ah+9mJJ1Jdf6bcXnnvX9r3fbyePpzY8OmIdC9qhtVKx8uioY1+CTY6u7gpWKCnZjhvW2u23brVtm4q2qAfLcKJ4Jah3FPMjKHMR4QOR1CQeYt2HfSAemDfAwoplM+FeTggIgTmFwCdCPDgi0CDD9Dz2u/Vqv2/rMdXrrutX2OduWWIbFrALYf9Cx94wHnHP87AFzTl0ODylU78TcNCvEBACQkAICAEh0EBAxEMDio97MH6kFc/OTS1ewUQHfu7Hl/pAPGCEFgdpzSCNAZx7UZDEVAvLhwBhBkOI59oSPtpDoMZAkAlyEDhBKM/uE2/DPMZb83haHW5CxQRmyZUSmH9M8agh80muCO9mZigok5/gCh/MEaeW+DnOoBDghAMOPUa9VsWeKzwErZEgXfPq9DvmJjgecctsPDh7g4xxqgXJHuxTEANlaEHU4E03DHsPB7CE6Jt7Ttp7mE5y5HC/nek7i3A1aHpwRY9RaHHASGZ3FzQ62mzduqW2ecsa27Kp1xbDmGQeFUvtmDYQLgUYpAzWLFin+Ad0IW8xX0STG4BrXgyAzVgFezH1IwSEwAwg8NGJhxdtD4zbpglJXfSvCYlK9k3shNlPwbFvcDYSO+8X0H+gc+bSvt4fVwesXumzq9ZfYXfvWGmfuWmpre8KfUzQNQudSeh7mGBwPOcVDxNPsmvaCQEhIASEgBAQAkIgIiDiISIxW/YTR3UxX3Gg6OdhABgvRTG0ueeVMBRshrkER+PKghMaKEC+GqRDzFIWblzwCUWMp2EfQ0bfmNB07uM9Wvc85j2xcRDvtw/XqYXiZIn7hZqoVOqw3YDpF2frdurUoJ04ccJOnDyB8z4rY8rM2rVrbNmyK2zJkl7su6wL00lKXB+UDrICeZg8+Q0QG60Df16OuYpHIVbLzRkoO+WhnBAQAnMHgY9CPLwNbaof/PRFe/MQCFASDyAdSD4EYpQ6ZiQf2Bm09r3ohZ21hoYUyIcEmmM5GLlNx065cdt7b1ht99+w2NZ10qgxwoLobe23mVrsg7gPqeNATggIASEgBISAEBAC50FAxMN5gJH3fEeAw+m4TcQiSvTj99TY4OYDeg7yET2FDjOn1pTLmF6BlUfKFdi6gMaL23sownhkO5YPbW/HcqJtWOWEBiTxnRJxuDEtGiHlFtKcmA+dCwEhcDki8MkQD0DOCQX0L9jnUmg8jJJ4WGr33nClPbBjqa3pBGlB7SsPF5COJAN7Rzrux/eE7q0fISAEhIAQEAJCQAiMQ0DEwzg4dCIEIgKRdIjD6+jP/cRhdjgPU0ViuOAXQ56TCjxIPvCjYyQWYnzu4xaviXiIuGovBC5/BEQ8XP51rBIKASEgBISAEJhvCIh4mG81rvJeIAIfnXhoTZjaDhNdJCEa/i0eraQDyQY5ISAE5i8CIh7mb92r5EJACAgBISAELlcERDxcrjWrcl0kAh+deIjkQUM7YRLygZnylP0afqjd4D7UaIZhzQmkQ+u0izgV4yILpuhCQAjMcgREPMzyClL2hIAQEAJCQAgIgY+MgIiHjwyZIswPBJweyIrqLEF23KKmMGHKxWTEQ+QXGLk1FTcA4Uk1fUk8NEiLeGcQE9HeQz4fV/LILmonBITAZYmAiIfLslpVKCEgBISAEBAC8xoBEQ/zuvpV+KkRICnQJAbODRtJiLgfH4LTLcLGA/6HtHyFCkTJ5Ug0jI+jMyEgBISAiAe1ASEgBISAEBACQuByQ0DEw+VWoyrPNCIQiIKpEzyXOSDZQBf2PAmLYTYUJPxq+JlIPEStCV6dqP3QEk2HQkAIXMYIiHi4jCtXRRMCQkAICAEhME8REPEwTytexb5QBD6MfBhPPDSIA0SLMSOBwJDRL9w9nMXr9GP8RhohUIOAaA2XXdJOCAiByxABEQ+XYaWqSEJACAgBISAE5jkCIh7meQNQ8acPgYmEwWQpN7UgwtVIJnAf49OmA10857XWLcTUrxAQApcrAiIeLteaVbmEgBAQAkJACMxfBEQ8zN+6V8lnEIFIGnDfSi6c75YMFzeGmSxO9DtfGvIXAkLg8kBAxMPlUY8qhRAQAkJACAgBIdBEQMRDEwsdCYFpRSCSD0z0w0iDVtIhhv+wONOaWSUmBITArEHANaM4E6tlflawBwPPJMWUrbxVcTgwXLe3T6b2Dz99wfZ8kFpq7VZPir4lCUlPak/VQGqyaNScyvmSvbVaJWhU5bBSTq6ALW+5dMDqo6ds4/qlds+OVXbv9VfY+q4aruVgCTePtINjllqy5dPHeE4X9+FMv0JACAgBISAEhIAQaCIg4qGJhY6EgBAQAkJACMwKBEgW1DNpn6SDEw8u2YNIAPEwVgPxMFS1d04l9j9+9oK9CeKhZm24VrB6rgSCgSvnkHGoWlrjPrF8oQgOIW/lsRFfptcJh0LJyYdc2u/Ew9Xrlthd1620e65dblf1VixfLCJqTsTDrGgVyoQQEAJCQAgIgbmLgIiHuVt3yrkQEAJCQAhcpghcEPEwXLV3QTz8z5+/5BoP1bRktXreyQdqPJB4oNYDfoFSgnNoNuRzVqtW4UdWI092ApcKlofGg5VPG4mHu69fafdet8w29EDjAUSFiIfLtJGpWEJACAgBISAEPkEERDx8gmDrVvMNAddvPk+hpZR8HmDkLQSEABBoEA/UdsD5ZBoPgyM1EA9m//NfX7Y9h1JMvyharQZiAeSDgVgg8RDIB5IL2JASp3DFtHDVain6KVzL1wctqZyxjeuW2l0gHu7fwakWICecmJDGA8CTEwJCQAgIASEgBC4CAREPFwGeogqB8yMwFekQY4l8iEhoLwSEwHgEnHggJ5B5R7LAbTZAU6GMqRaDo6m9d7pu/+/PXwnEQ1q0apqATIDWQx3aCtB2oMICp1ckCf3CajmFIu06kNHIWbkMew8gIAr1IUuqfSAegsbDAzcus7ULQDzwxppqMb5ydCYEhIAQEAJCQAh8ZAREPHxkyBRBCFwIAiQepiIfGuLEhSSmMEJACMwzBEgSeBdCub9RdnhmxiUr4ASGxuogHlL7wU922e6DNeg4lLAVsRWg8EBbENWg9QDiIQcjkrQZkYKQyBfyICTISBRAPJThB/sPmGqRVPrCVAsYl/zMjcttLTUeRDw00NeBEBACQkAICAEh8PEREPHw8bFTTCEwBQJRapgiSFCgniqArgkBITBfEUAXwl6kSToQCPqAUIBNBq5qMVyu2/vQePjv//yivXGwAsKhHeYa2hCphHAwNlkrI34NpAOIBxiWZPQUhASnW+RAPuTyBatUYHyS/EKtHzYeMNXCV7VYbZ/ZKeKBiMsJASEgBISAEBAC04OAiIfpwVGpXK4IcJw/0Y2XBCZezc4ZsTVy6zGDMJG48VxOCAgBITABgQndRh0qC24sEsQDZlrYCImHvrp99/970V7fB82FpM3ypQUgFNrRvcDmQ2UU3VAVx5hKQeIBfU4KloHkA41M5rGiRdXPcaly1o1LXrPhCrvvxivt/huW2TppPEyoEJ0KASEgBISAEBACHxcBEQ8fFznFmx8ITBj4e6E/MvFwvkREPMyPRqRSCoGPicCEroPEAzUZOEWCxMMoOIV9Z1P7/o9etVf3jlq5iikUxU7LFTswlSKxSpnLZlYQMgnEAwiIOoiGWq0aZlBA44FpUeOhDsOSOUy12HLNCntg5zq7a1uPrenEXWRc8mNWnqIJASEgBISAEBACrQiIeGhFQ8dCYCICEwb+flnEw0SUdC4EhMBMIDCh/wnTJEg8YPUK3G8MPwcGUhiXfNdeeW/EBrC8JqdZkHwoFHOYRgHioUbiwUA8YPpFRjyQwEixcZnNQrENxyAeMM2igJUtrtu6xj57ywa75aq8rWrHvWTjwfHTjxAQAkJACAgBIXBxCIh4uDj8FPtyR2DCwN+LK+Lhcq91lU8IzA4EJvQ/E4kHrmxxcCi1Hz1+zF58Z8hOnRq0So32G9qt1IYVLqqjVgfxQEOVeUy1SEg84IQrWtSqFavWYIqyvTOsdlHus47CqO28/ir7/G0r7LpVOVtWzDKAeKAg3EU9rZg17mOXGPdZUO2EgBAQAkJACAgBIdBAQMRDAwodCIFJEIij63jpgkfWMeLEfWtCcQgf/bQXAkJACGQIxK6jBZC0RsOQuIApEtR4KIMNODJSt188fcpeeOusfXD4lI1giU2DjYdSGzUZYIgS8yio2ZDPF31P2zNcTrNaGbPy2Ji1dZB4QBwQD90dVfujG6+xz9++3K5ZktjiXEY3YLoFrEuMIxiYvZjF2C0m5/i0ZF6HQkAICAEhIASEwLxGQMTDvK5+FX5mEYjDct6l9ZjnzaE6z+SEgBAQAg0EXKrnT+wnwhVqLpB4qFNjAV6YWGFnKnXb9W7Vnt99xF59Y6+dPDOKax1W6uwB8ZC3Wp1aDtSCKKEXoo2HmhVLXFoTy29Wh2EyAitf1Cu2ANoOG9csstt3XG13XN9lyzoS6wRxQXWIhEtvYspF7MXiPuSKuSS1QZKCWw4b8829nBAQAkJACAgBISAEAgIiHtQShMAngsC5Q/VP5La6iRAQAnMLAbILvpGupAAfyAf/DYcgHoKIT/IBCg92GqtbvLT7rP3m2Vftvf2nscwm7Dy0L7I01wnioc3JhyRfAi0A4gGGJWn/oVCAfYf6iI2cPWbt+bKtXlyye2/dZjdtWWwbV+etDenmqyQeoOuApTdJPETyIdODyHIWSIdAPDBHCOukA/dyQkAICAEhIASEgBAICIh4UEsQAkJACAgBITBbEJhIPEBbwR3lfh7wBxtMObjWA01HjoIkOHQqtdffPmy/3/WuvXegz06drVhb9wrLtS0CD1CyURiESFNOl0gxDQOkAJfZxPSKUn3I1ixbYNddvcLu2rnerlqWs95OaEiAQ8il1KnINB5ckQHEBXwi8YBDpBeJB5IOkXgg6SDigfjICQEhIASEgBAQAgEBEQ9qCUJACAgBISAEZgsClOy50WV77hqkA/1xAg7BCQBSA9wGq3U7cgrTLl47YLvfOWx7D52Cf6eVofFQRoCRMVAUWDqTmg602FDEfkGpZquWdNrmdcvt+mtW2aY1BVsK0qGEtBNyCPUy4oCs8CU1mQMQD9l9cRLy5HtagGidakGWQlMtiJGcEBACQkAICAEhEBAQ8aCWIASEgBAQAkJgNiHQSj4wXw3mIcskhP96QqORdegYwI4DvLmNIdyBI6m9i+kW7+w9YkexysWpvlE7OzBsY5g2kcPSme1tMEwJw5I93Z125bJe23LVKtu8fqldvTpn3cXE2pF2DunQKKVrRZB4wKoWTjNwVQzeO8tG3MELxAN9ST6EsyYtEUNpLwSEgBAQAkJACMxnBEQ8zOfaV9mFgBAQAkJg9iHQKtm3HjOnlOsp4IN44D4F8cCNxAM1H0ZgbHJozGxgCBoQJ2p29EQ/DE722VilahVEKYBDWLy4165YssiWLy7YFb2JLYSWwwKQDiXELzBZrnLRoDOo8YBpEyQffAv0AgI0XKQampSEZ7JxXQdCQAgIASEgBISAEBDxoDYgBISAEBACQmC2IdBKOMRjl+d5AmLAiQfSDZw4QdsLOVAFPAZlgCAkGc4OpNYPAmIIi1dUYTuiWgtTInp7S9bdZVg+ExoOeSy1ifC5tG5FGJAkjREIBOxJQMDPiQek7QYmefcJvEKDeGDWJlyDj5wQEAJCQAgIASEgBLCKFpxwEAJCQAgIASEgBGYPAi7DT/p2picIBzfCQOIhiv2c7IBpFCm0H8AXpCASIoWQgFygsgLPOSOCJhvw7xuTqkFLol4rW3sxH5QakGTdSQdyDVlIrmqRsQrR3iWTiw6rfDadyIcmFjoSAkJACAgBISAEHAERD2oIQkAICAEhIARmGQKU411+bxXoPY/waJAOJB7g/PsBQicFHHPFirx7gXtwywsMQv4gJuWcAs7BR+DrQ4hfr9dAMmQejJeS3DhX24FpTSQexpEODOAZ54GcEBACQkAICAEhIAQCAiIe1BKEgBAQAkJACMxGBCJT0Jo3l/JJOFB/wXUYsIfGAliGOhiBBFoPSRJsMpBg8NU5EYKcQkyOfjzPk4xgEvih8iP9SBowFTcuiVN6BhsPPMkcw7W6mHD0m3g9+msvBISAEBACQkAIzFsERDzM26pXwYWAEBACQmBWIuCCPH8mSPBBPQH+vMYtEg84goZCtQprDyAdclg2M0eDkCAiSEikIBVyPmWCsRgHZIITDIiHaylWsODUDGo85DAPgxsdp1vweiFPIsO9Luzno4S9sBQVSggIASEgBISAEJjjCIh4mOMVqOwLASEgBITA5YQACAVyCuEH+0yKbwjzfjG7zgU1SRD4bxYWAbNTkhBN10jAvRiHpERCkoFREIfRosu4B/eMmhB+zQO1hPRkx6cd09BeCAgBISAEhIAQEAIRAREPEQnthYAQEAJCQAhccgTIALQI9szPBLkedIHnMoYK9AODZQE9CWg5gD0YFzVGQGwnGnCeKUI00ou3zjEitmZ8JspgWSLNCyGgXwme4y4xipwQEAJCQAgIASEw7xEQ8TDvm4AAEAJCQAgIgdmDAAV8CveZgM+MuSQfxPngyxUsuDUdj1sF/ngc9zEkzz1eS+RWY5Gt6TBsI34wBpF5xMjhashLyFOM04gXb6y9EBACQkAICAEhMK8REPEwr6tfhRcCQkAICIHZhQCEepfr+ZMJ+A0pPhIOUeBvhGgUoREUPuc79sBZ0jz2wywwj3kYN16n8cmGPYnGEhYx9ZCnFDFIQNA6xLi4jC8nBISAEBACQkAIzHsERDzM+yYgAISAEBACQmBWIdAgBXDQEPSZQwr3JAqC0N8INiHzIVTwDMdxEkZGFpwnonsjyLhbujFKXskMWXoSPOcBU895fqIGBn0j+YBDOSEgBISAEBACQkAIOAIiHtQQhIAQEAJCQAjMJgRaiQEX9MNKFMHbPZyAYJbPCerlCPoHPIzEQyQKuNLFhTmmHDfeP7tTIzoPcqAjIvkQQgTfQD5c2H0USggIASEgBISAEJgPCIh4mA+1rDIKASEgBITA3EHgHDYheITfhuQfqYBGucIVhorEQ0yIV7LNiQccx0uMHSLyCI4XWrcWv0a4kFbQcogaDyFW1HbgXk4ICAEhIASEgBAQAhEBEQ8RCe2FgBAQAkJACMwGBM4hBeK6FTFzGQMQw2WnYUfthFoWsDVARglMqvEQw8X043ncZ/7ZfSKJEYiHoFPBEAzNIJF8oJ+cEBACQkAICAEhIASIgIgHtQMhIASEgBAQArMIgbikpWepIexHyw70hecETqAZlqTD+YgHUALj4sWTuPdUWn7oj3slMRPNfbTpEAPHFBgibvGa9kJACAgBISAEhIAQEPGgNiAEhIAQEAJCYBYhMDXxQBE/IxCitB/z7hJ/JB5aL1IHIW4MzGvxetzTH46nkV9wD8ZrUgmtMf3y/9/OHe1ECANRANXs/3+yWTstpQV09WUisYcE7JYyuxz6wg24beZD5vY8RpsAAQIECBBYV0DwsO61d+YECBAgcEOBr4KHwwsNzwgDynLKDFo+0F+1GDufb48yuP0vhhEKxLiIFMa42rFvWtjw6smGdvycU/Ra41v2choECBAgQIDA0gKCh6Uvv5MnQIAAgbsJnIOHcRsfN/Zl/VXwECN7rPCo7et5thGjfhsRvT1O2L7xcmgfUSOQmjfE7yphRn0to+zdX8+4HKqDAAECBAgQWFBA8LDgRXfKBAgQIHBfgTl4ON6/1zv8coO/RQXbx/1MahoQnR/bcwxz8BBBxHFpVVrMcN4zj412rNu31qHRri9h7ANLQ/BQbWwIECBAgACBq4Dg4WqihwABAgQI/KlAhA/H0CF+Tr/LL7f9vXn+le+xo+0cQ+I1i++Wn4OHOLIffw4f6ue6Mzaxlp7aOY+MChYCBAgQIEBgZQHBw8pX37kTIECAwD8U6DFBP7X+5EP/PP6+igfOVcZRx6cfRv8WPIwOLQIECBAgQIBAFRA8mAgECBAgQIAAAQIECBAgQIBAmoDgIY1WYQIECBAgQIAAAQIECBAgQEDwYA4QIECAAAECBAgQIECAAAECaQKChzRahQkQIECAAAECBAgQIECAAAHBgzlAgAABAgQISNHfOwAAAU1JREFUECBAgAABAgQIpAkIHtJoFSZAgAABAgQIECBAgAABAgQED+YAAQIECBAgQIAAAQIECBAgkCYgeEijVZgAAQIECBAgQIAAAQIECBAQPJgDBAgQIECAAAECBAgQIECAQJqA4CGNVmECBAgQIECAAAECBAgQIEBA8GAOECBAgAABAgQIECBAgAABAmkCgoc0WoUJECBAgAABAgQIECBAgAABwYM5QIAAAQIECBAgQIAAAQIECKQJCB7SaBUmQIAAAQIECBAgQIAAAQIEBA/mAAECBAgQIECAAAECBAgQIJAmIHhIo1WYAAECBAgQIECAAAECBAgQEDyYAwQIECBAgAABAgQIECBAgECagOAhjVZhAgQIECBAgAABAgQIECBAQPBgDhAgQIAAAQIECBAgQIAAAQJpAoKHNFqFCRAgQIAAAQIECBAgQIAAgU8djfE2gQYxjQAAAABJRU5ErkJggg==;" vertex="1" parent="1">
          <mxGeometry x="-272" y="258.00000000000006" width="246" height="93.36" as="geometry" />
        </mxCell>
        <mxCell id="xQzRp0pyTNWrUWx_Eu3b-4" value="&lt;pre&gt;extract_features.py&lt;/pre&gt;" style="text;html=1;align=center;verticalAlign=middle;resizable=0;points=[];autosize=1;strokeColor=none;fillColor=none;fontSize=10;" vertex="1" parent="1">
          <mxGeometry x="-23" y="265" width="132" height="44" as="geometry" />
        </mxCell>
        <mxCell id="xQzRp0pyTNWrUWx_Eu3b-6" value="&lt;pre&gt;parameters&lt;/pre&gt;" style="swimlane;fontStyle=0;childLayout=stackLayout;horizontal=1;startSize=30;horizontalStack=0;resizeParent=1;resizeParentMax=0;resizeLast=0;collapsible=1;marginBottom=0;whiteSpace=wrap;html=1;fontFamily=Helvetica;" vertex="1" parent="1">
          <mxGeometry x="106" y="136.68" width="190" height="360" as="geometry" />
        </mxCell>
        <mxCell id="xQzRp0pyTNWrUWx_Eu3b-7" value="spectral_centroid" style="text;strokeColor=none;fillColor=none;align=center;verticalAlign=middle;spacingLeft=4;spacingRight=4;overflow=hidden;points=[[0,0.5],[1,0.5]];portConstraint=eastwest;rotatable=0;whiteSpace=wrap;html=1;fontFamily=Courier New;" vertex="1" parent="xQzRp0pyTNWrUWx_Eu3b-6">
          <mxGeometry y="30" width="190" height="30" as="geometry" />
        </mxCell>
        <mxCell id="xQzRp0pyTNWrUWx_Eu3b-8" value="spectral_bandwidth" style="text;strokeColor=none;fillColor=none;align=center;verticalAlign=middle;spacingLeft=4;spacingRight=4;overflow=hidden;points=[[0,0.5],[1,0.5]];portConstraint=eastwest;rotatable=0;whiteSpace=wrap;html=1;fontFamily=Courier New;" vertex="1" parent="xQzRp0pyTNWrUWx_Eu3b-6">
          <mxGeometry y="60" width="190" height="30" as="geometry" />
        </mxCell>
        <mxCell id="xQzRp0pyTNWrUWx_Eu3b-9" value="spectral_rolloff" style="text;strokeColor=none;fillColor=none;align=center;verticalAlign=middle;spacingLeft=4;spacingRight=4;overflow=hidden;points=[[0,0.5],[1,0.5]];portConstraint=eastwest;rotatable=0;whiteSpace=wrap;html=1;fontFamily=Courier New;" vertex="1" parent="xQzRp0pyTNWrUWx_Eu3b-6">
          <mxGeometry y="90" width="190" height="30" as="geometry" />
        </mxCell>
        <mxCell id="xQzRp0pyTNWrUWx_Eu3b-10" value="mfcc_mean[0]" style="text;strokeColor=none;fillColor=none;align=center;verticalAlign=middle;spacingLeft=4;spacingRight=4;overflow=hidden;points=[[0,0.5],[1,0.5]];portConstraint=eastwest;rotatable=0;whiteSpace=wrap;html=1;fontFamily=Courier New;" vertex="1" parent="xQzRp0pyTNWrUWx_Eu3b-6">
          <mxGeometry y="120" width="190" height="30" as="geometry" />
        </mxCell>
        <mxCell id="xQzRp0pyTNWrUWx_Eu3b-11" value="mfcc_mean[1]" style="text;strokeColor=none;fillColor=none;align=center;verticalAlign=middle;spacingLeft=4;spacingRight=4;overflow=hidden;points=[[0,0.5],[1,0.5]];portConstraint=eastwest;rotatable=0;whiteSpace=wrap;html=1;fontFamily=Courier New;" vertex="1" parent="xQzRp0pyTNWrUWx_Eu3b-6">
          <mxGeometry y="150" width="190" height="30" as="geometry" />
        </mxCell>
        <mxCell id="xQzRp0pyTNWrUWx_Eu3b-12" value="mfcc_mean[2]" style="text;strokeColor=none;fillColor=none;align=center;verticalAlign=middle;spacingLeft=4;spacingRight=4;overflow=hidden;points=[[0,0.5],[1,0.5]];portConstraint=eastwest;rotatable=0;whiteSpace=wrap;html=1;fontFamily=Courier New;" vertex="1" parent="xQzRp0pyTNWrUWx_Eu3b-6">
          <mxGeometry y="180" width="190" height="30" as="geometry" />
        </mxCell>
        <mxCell id="xQzRp0pyTNWrUWx_Eu3b-13" value="rms_energy" style="text;strokeColor=none;fillColor=none;align=center;verticalAlign=middle;spacingLeft=4;spacingRight=4;overflow=hidden;points=[[0,0.5],[1,0.5]];portConstraint=eastwest;rotatable=0;whiteSpace=wrap;html=1;fontFamily=Courier New;" vertex="1" parent="xQzRp0pyTNWrUWx_Eu3b-6">
          <mxGeometry y="210" width="190" height="30" as="geometry" />
        </mxCell>
        <mxCell id="xQzRp0pyTNWrUWx_Eu3b-15" value="zero_crossing_rate" style="text;strokeColor=none;fillColor=none;align=center;verticalAlign=middle;spacingLeft=4;spacingRight=4;overflow=hidden;points=[[0,0.5],[1,0.5]];portConstraint=eastwest;rotatable=0;whiteSpace=wrap;html=1;fontFamily=Courier New;" vertex="1" parent="xQzRp0pyTNWrUWx_Eu3b-6">
          <mxGeometry y="240" width="190" height="30" as="geometry" />
        </mxCell>
        <mxCell id="xQzRp0pyTNWrUWx_Eu3b-16" value="spectral_contrast" style="text;strokeColor=none;fillColor=none;align=center;verticalAlign=middle;spacingLeft=4;spacingRight=4;overflow=hidden;points=[[0,0.5],[1,0.5]];portConstraint=eastwest;rotatable=0;whiteSpace=wrap;html=1;fontFamily=Courier New;" vertex="1" parent="xQzRp0pyTNWrUWx_Eu3b-6">
          <mxGeometry y="270" width="190" height="30" as="geometry" />
        </mxCell>
        <mxCell id="xQzRp0pyTNWrUWx_Eu3b-17" value="skewness" style="text;strokeColor=none;fillColor=none;align=center;verticalAlign=middle;spacingLeft=4;spacingRight=4;overflow=hidden;points=[[0,0.5],[1,0.5]];portConstraint=eastwest;rotatable=0;whiteSpace=wrap;html=1;fontFamily=Courier New;" vertex="1" parent="xQzRp0pyTNWrUWx_Eu3b-6">
          <mxGeometry y="300" width="190" height="30" as="geometry" />
        </mxCell>
        <mxCell id="xQzRp0pyTNWrUWx_Eu3b-19" value="kurtosis" style="text;strokeColor=none;fillColor=none;align=center;verticalAlign=middle;spacingLeft=4;spacingRight=4;overflow=hidden;points=[[0,0.5],[1,0.5]];portConstraint=eastwest;rotatable=0;whiteSpace=wrap;html=1;fontFamily=Courier New;" vertex="1" parent="xQzRp0pyTNWrUWx_Eu3b-6">
          <mxGeometry y="330" width="190" height="30" as="geometry" />
        </mxCell>
        <mxCell id="xQzRp0pyTNWrUWx_Eu3b-14" value="&lt;pre&gt;input (features)&lt;/pre&gt;" style="text;html=1;align=center;verticalAlign=middle;resizable=0;points=[];autosize=1;strokeColor=none;fillColor=none;fontFamily=Helvetica;" vertex="1" parent="1">
          <mxGeometry x="134" y="96.68" width="134" height="50" as="geometry" />
        </mxCell>
        <mxCell id="xQzRp0pyTNWrUWx_Eu3b-20" style="edgeStyle=orthogonalEdgeStyle;rounded=0;orthogonalLoop=1;jettySize=auto;html=1;exitX=1;exitY=0.5;exitDx=0;exitDy=0;entryX=0;entryY=0.5;entryDx=0;entryDy=0;" edge="1" parent="1" source="xQzRp0pyTNWrUWx_Eu3b-11" target="ptP9DbiNTk4UlmMkKITM-1">
          <mxGeometry relative="1" as="geometry" />
        </mxCell>
        <mxCell id="xQzRp0pyTNWrUWx_Eu3b-21" value="&lt;pre&gt;vtr_model.py&lt;/pre&gt;" style="text;html=1;align=center;verticalAlign=middle;resizable=0;points=[];autosize=1;strokeColor=none;fillColor=none;fontSize=10;" vertex="1" parent="1">
          <mxGeometry x="391" y="227" width="90" height="44" as="geometry" />
        </mxCell>
        <mxCell id="xQzRp0pyTNWrUWx_Eu3b-26" value="" style="shape=image;verticalLabelPosition=bottom;labelBackgroundColor=default;verticalAlign=top;aspect=fixed;imageAspect=0;image=https://assets.juce.com/juce/JUCE_banner_github.png;" vertex="1" parent="1">
          <mxGeometry x="887" y="283.4" width="153.2" height="58.6" as="geometry" />
        </mxCell>
        <mxCell id="xQzRp0pyTNWrUWx_Eu3b-27" value="&lt;pre&gt;audio (.wav)&lt;/pre&gt;" style="text;html=1;align=center;verticalAlign=middle;resizable=0;points=[];autosize=1;strokeColor=none;fillColor=none;fontFamily=Helvetica;" vertex="1" parent="1">
          <mxGeometry x="-204" y="224" width="105" height="50" as="geometry" />
        </mxCell>
        <mxCell id="xQzRp0pyTNWrUWx_Eu3b-28" value="&lt;pre&gt;JUCE plugins: processed audio&lt;/pre&gt;" style="text;html=1;align=center;verticalAlign=middle;resizable=0;points=[];autosize=1;strokeColor=none;fillColor=none;fontFamily=Helvetica;" vertex="1" parent="1">
          <mxGeometry x="865.9999999999999" y="238.02" width="228" height="50" as="geometry" />
        </mxCell>
        <mxCell id="xQzRp0pyTNWrUWx_Eu3b-29" value="&lt;pre&gt;&lt;b&gt;&lt;u&gt;&lt;font style=&quot;font-size: 29px;&quot;&gt;VTR System Design&lt;/font&gt;&lt;/u&gt;&lt;/b&gt;&lt;/pre&gt;" style="text;html=1;align=center;verticalAlign=middle;resizable=0;points=[];autosize=1;strokeColor=none;fillColor=none;fontFamily=Helvetica;" vertex="1" parent="1">
          <mxGeometry x="265" y="16" width="315" height="71" as="geometry" />
        </mxCell>
      </root>
    </mxGraphModel>
  </diagram>
</mxfile>
